G04 #@! TF.GenerationSoftware,KiCad,Pcbnew,5.0.2-5.fc29*
G04 #@! TF.CreationDate,2019-03-09T14:00:13+01:00*
G04 #@! TF.ProjectId,tea2025b_amp,74656132-3032-4356-925f-616d702e6b69,v1.0*
G04 #@! TF.SameCoordinates,Original*
G04 #@! TF.FileFunction,Other,Fab,Top*
%FSLAX46Y46*%
G04 Gerber Fmt 4.6, Leading zero omitted, Abs format (unit mm)*
G04 Created by KiCad (PCBNEW 5.0.2-5.fc29) date sob, 9 mar 2019, 14:00:13*
%MOMM*%
%LPD*%
G01*
G04 APERTURE LIST*
%ADD10C,0.100000*%
%ADD11C,0.150000*%
%ADD12C,0.138000*%
G04 APERTURE END LIST*
D10*
G04 #@! TO.C,J3*
X152361028Y-112352801D02*
G75*
G03X152504000Y-113281500I432972J-408699D01*
G01*
X155463976Y-112339966D02*
G75*
G03X152304000Y-112411500I-1549976J-1361534D01*
G01*
X152464171Y-113252918D02*
G75*
G03X155454000Y-113291500I1519829J1911418D01*
G01*
X155409620Y-113325496D02*
G75*
G03X155454000Y-112361500I-455620J503996D01*
G01*
X157361028Y-112352801D02*
G75*
G03X157504000Y-113281500I432972J-408699D01*
G01*
X160462239Y-112349813D02*
G75*
G03X157314000Y-112411500I-1548239J-1351687D01*
G01*
X157471667Y-113243237D02*
G75*
G03X160454000Y-113291500I1522333J1901737D01*
G01*
X160409532Y-113335495D02*
G75*
G03X160464000Y-112361500I-455532J513995D01*
G01*
X157284000Y-117161500D02*
X160594000Y-117161500D01*
X156904000Y-117161500D02*
X157284000Y-117161500D01*
X160974000Y-117161500D02*
X160594000Y-117161500D01*
X160594000Y-116771500D02*
X157284000Y-116771500D01*
X161534000Y-116771500D02*
X160594000Y-116771500D01*
X155584000Y-116771500D02*
X157284000Y-116771500D01*
X152284000Y-116771500D02*
X155584000Y-116771500D01*
X151344000Y-116771500D02*
X152284000Y-116771500D01*
X155584000Y-117161500D02*
X152284000Y-117161500D01*
X155964000Y-117161500D02*
X155584000Y-117161500D01*
X151904000Y-117161500D02*
X152284000Y-117161500D01*
X152434000Y-113091500D02*
X155484000Y-112461500D01*
X152304000Y-112961500D02*
X155364000Y-112331500D01*
X157444000Y-113091500D02*
X160484000Y-112461500D01*
X157314000Y-112961500D02*
X160364000Y-112331500D01*
X155964000Y-111441500D02*
X151904000Y-111441500D01*
X151904000Y-113981500D02*
X151904000Y-111441500D01*
X155964000Y-113981500D02*
X151904000Y-113981500D01*
X155964000Y-113981500D02*
X155964000Y-111441500D01*
X160974000Y-113981500D02*
X156904000Y-113981500D01*
X160974000Y-111441500D02*
X160974000Y-113981500D01*
X156904000Y-111441500D02*
X160974000Y-111441500D01*
X156904000Y-113981500D02*
X156904000Y-111441500D01*
X161534000Y-114241500D02*
X161534000Y-115761500D01*
X151344000Y-114241500D02*
X151344000Y-111191500D01*
X151344000Y-114241500D02*
X161534000Y-114241500D01*
X161534000Y-116771500D02*
X161534000Y-121471500D01*
X161534000Y-115761500D02*
X161534000Y-116771500D01*
X151344000Y-116771500D02*
X151344000Y-114241500D01*
X151344000Y-123631500D02*
X151344000Y-116771500D01*
X160594000Y-117921500D02*
X160204000Y-117921500D01*
X157284000Y-117921500D02*
X157664000Y-117921500D01*
X155584000Y-117921500D02*
X155204000Y-117921500D01*
X152284000Y-117921500D02*
X152664000Y-117921500D01*
X152284000Y-121091500D02*
X152284000Y-117921500D01*
X155584000Y-121091500D02*
X152284000Y-121091500D01*
X155584000Y-121091500D02*
X155584000Y-117921500D01*
X157284000Y-121091500D02*
X157284000Y-117921500D01*
X160594000Y-121091500D02*
X157284000Y-121091500D01*
X160594000Y-121091500D02*
X160594000Y-117921500D01*
X151904000Y-121731500D02*
X151904000Y-123631500D01*
X155964000Y-121731500D02*
X155964000Y-117161500D01*
X155964000Y-121731500D02*
X151904000Y-121731500D01*
X160974000Y-121731500D02*
X160974000Y-123631500D01*
X156904000Y-121731500D02*
X156904000Y-117161500D01*
X156904000Y-121731500D02*
X160974000Y-121731500D01*
X151904000Y-123631500D02*
X155964000Y-123631500D01*
X151344000Y-123631500D02*
X151904000Y-123631500D01*
X151904000Y-117161500D02*
X151904000Y-121731500D01*
X155964000Y-123631500D02*
X156904000Y-123631500D01*
X155964000Y-123631500D02*
X155964000Y-121731500D01*
X160974000Y-123631500D02*
X161534000Y-123631500D01*
X156904000Y-123631500D02*
X160974000Y-123631500D01*
X160974000Y-117161500D02*
X160974000Y-121731500D01*
X156904000Y-123631500D02*
X156904000Y-121731500D01*
X162034000Y-121221500D02*
X162034000Y-122871500D01*
X161534000Y-121471500D02*
X161534000Y-122621500D01*
X162034000Y-121221500D02*
X161534000Y-121471500D01*
X161534000Y-122621500D02*
X161534000Y-123631500D01*
X162034000Y-122871500D02*
X161534000Y-122621500D01*
X162034000Y-116011500D02*
X161534000Y-115761500D01*
X162034000Y-111191500D02*
X162034000Y-116011500D01*
X161534000Y-111191500D02*
X162034000Y-111191500D01*
X161534000Y-111191500D02*
X151344000Y-111191500D01*
X161534000Y-111191500D02*
X161534000Y-114241500D01*
X157664000Y-119951500D02*
X157664000Y-117161500D01*
X157664000Y-117161500D02*
X160204000Y-117161500D01*
X160204000Y-119951500D02*
X160204000Y-117161500D01*
X157664000Y-119951500D02*
X160204000Y-119951500D01*
X152664000Y-119951500D02*
X152664000Y-117161500D01*
X152664000Y-117161500D02*
X155204000Y-117161500D01*
X155204000Y-119951500D02*
X155204000Y-117161500D01*
X152664000Y-119951500D02*
X155204000Y-119951500D01*
G04 #@! TO.C,J2*
X159438500Y-66992500D02*
X156898500Y-66992500D01*
X156898500Y-66992500D02*
X156898500Y-69782500D01*
X159438500Y-69782500D02*
X156898500Y-69782500D01*
X159438500Y-66992500D02*
X159438500Y-69782500D01*
X154438500Y-66992500D02*
X151898500Y-66992500D01*
X151898500Y-66992500D02*
X151898500Y-69782500D01*
X154438500Y-69782500D02*
X151898500Y-69782500D01*
X154438500Y-66992500D02*
X154438500Y-69782500D01*
X150568500Y-75752500D02*
X150568500Y-72702500D01*
X150568500Y-75752500D02*
X160758500Y-75752500D01*
X150568500Y-75752500D02*
X150068500Y-75752500D01*
X150068500Y-75752500D02*
X150068500Y-70932500D01*
X150068500Y-70932500D02*
X150568500Y-71182500D01*
X150068500Y-64072500D02*
X150568500Y-64322500D01*
X150568500Y-64322500D02*
X150568500Y-63312500D01*
X150068500Y-65722500D02*
X150568500Y-65472500D01*
X150568500Y-65472500D02*
X150568500Y-64322500D01*
X150068500Y-65722500D02*
X150068500Y-64072500D01*
X155198500Y-63312500D02*
X155198500Y-65212500D01*
X151128500Y-69782500D02*
X151128500Y-65212500D01*
X155198500Y-63312500D02*
X151128500Y-63312500D01*
X151128500Y-63312500D02*
X150568500Y-63312500D01*
X156138500Y-63312500D02*
X156138500Y-65212500D01*
X156138500Y-63312500D02*
X155198500Y-63312500D01*
X160198500Y-69782500D02*
X160198500Y-65212500D01*
X160758500Y-63312500D02*
X160198500Y-63312500D01*
X160198500Y-63312500D02*
X156138500Y-63312500D01*
X155198500Y-65212500D02*
X151128500Y-65212500D01*
X155198500Y-65212500D02*
X155198500Y-69782500D01*
X151128500Y-65212500D02*
X151128500Y-63312500D01*
X156138500Y-65212500D02*
X160198500Y-65212500D01*
X156138500Y-65212500D02*
X156138500Y-69782500D01*
X160198500Y-65212500D02*
X160198500Y-63312500D01*
X151508500Y-65852500D02*
X151508500Y-69022500D01*
X151508500Y-65852500D02*
X154818500Y-65852500D01*
X154818500Y-65852500D02*
X154818500Y-69022500D01*
X156518500Y-65852500D02*
X156518500Y-69022500D01*
X156518500Y-65852500D02*
X159818500Y-65852500D01*
X159818500Y-65852500D02*
X159818500Y-69022500D01*
X159818500Y-69022500D02*
X159438500Y-69022500D01*
X156518500Y-69022500D02*
X156898500Y-69022500D01*
X154818500Y-69022500D02*
X154438500Y-69022500D01*
X151508500Y-69022500D02*
X151898500Y-69022500D01*
X160758500Y-63312500D02*
X160758500Y-70172500D01*
X160758500Y-70172500D02*
X160758500Y-72702500D01*
X150568500Y-71182500D02*
X150568500Y-70172500D01*
X150568500Y-70172500D02*
X150568500Y-65472500D01*
X160758500Y-72702500D02*
X150568500Y-72702500D01*
X160758500Y-72702500D02*
X160758500Y-75752500D01*
X150568500Y-72702500D02*
X150568500Y-71182500D01*
X155198500Y-72962500D02*
X155198500Y-75502500D01*
X155198500Y-75502500D02*
X151128500Y-75502500D01*
X151128500Y-75502500D02*
X151128500Y-72962500D01*
X151128500Y-72962500D02*
X155198500Y-72962500D01*
X156138500Y-72962500D02*
X156138500Y-75502500D01*
X156138500Y-72962500D02*
X160198500Y-72962500D01*
X160198500Y-72962500D02*
X160198500Y-75502500D01*
X156138500Y-75502500D02*
X160198500Y-75502500D01*
X154788500Y-73982500D02*
X151738500Y-74612500D01*
X154658500Y-73852500D02*
X151618500Y-74482500D01*
X159798500Y-73982500D02*
X156738500Y-74612500D01*
X159668500Y-73852500D02*
X156618500Y-74482500D01*
X160198500Y-69782500D02*
X159818500Y-69782500D01*
X156138500Y-69782500D02*
X156518500Y-69782500D01*
X156518500Y-69782500D02*
X159818500Y-69782500D01*
X160758500Y-70172500D02*
X159818500Y-70172500D01*
X159818500Y-70172500D02*
X156518500Y-70172500D01*
X156518500Y-70172500D02*
X154818500Y-70172500D01*
X150568500Y-70172500D02*
X151508500Y-70172500D01*
X151508500Y-70172500D02*
X154818500Y-70172500D01*
X151128500Y-69782500D02*
X151508500Y-69782500D01*
X155198500Y-69782500D02*
X154818500Y-69782500D01*
X154818500Y-69782500D02*
X151508500Y-69782500D01*
X151692968Y-73608505D02*
G75*
G03X151638500Y-74582500I455532J-513995D01*
G01*
X154630833Y-73700763D02*
G75*
G03X151648500Y-73652500I-1522333J-1901737D01*
G01*
X151640261Y-74594187D02*
G75*
G03X154788500Y-74532500I1548239J1351687D01*
G01*
X154741472Y-74591199D02*
G75*
G03X154598500Y-73662500I-432972J408699D01*
G01*
X156692880Y-73618504D02*
G75*
G03X156648500Y-74582500I455620J-503996D01*
G01*
X159638329Y-73691082D02*
G75*
G03X156648500Y-73652500I-1519829J-1911418D01*
G01*
X156638524Y-74604034D02*
G75*
G03X159798500Y-74532500I1549976J1361534D01*
G01*
X159741472Y-74591199D02*
G75*
G03X159598500Y-73662500I-432972J408699D01*
G01*
D11*
G04 #@! TO.C,J1*
X129933700Y-63761000D02*
X144310100Y-63761000D01*
X129933700Y-73961000D02*
X144259300Y-73961000D01*
X144302500Y-73961000D02*
X144302500Y-63811000D01*
X129952500Y-73961000D02*
X129952500Y-63811000D01*
X141502500Y-68961000D02*
G75*
G03X141502500Y-68961000I-700000J0D01*
G01*
X135002500Y-72711000D02*
G75*
G03X135002500Y-72711000I-700000J0D01*
G01*
X135002500Y-65211000D02*
G75*
G03X135002500Y-65211000I-700000J0D01*
G01*
D10*
G04 #@! TO.C,C2*
X139261500Y-82887000D02*
X143861500Y-82887000D01*
X139261500Y-77387000D02*
X139261500Y-82887000D01*
X143861500Y-77387000D02*
X139261500Y-77387000D01*
X143861500Y-82887000D02*
X143861500Y-77387000D01*
G04 #@! TO.C,C7*
X134052500Y-103764395D02*
X133552500Y-103764395D01*
X133802500Y-103514395D02*
X133802500Y-104014395D01*
X135215000Y-105648000D02*
G75*
G03X135215000Y-105648000I-2500000J0D01*
G01*
G04 #@! TO.C,C6*
X165422895Y-107184000D02*
X165422895Y-107684000D01*
X165172895Y-107434000D02*
X165672895Y-107434000D01*
X169806500Y-108521500D02*
G75*
G03X169806500Y-108521500I-2500000J0D01*
G01*
G04 #@! TO.C,C5*
X165295895Y-74672000D02*
X165295895Y-75172000D01*
X165045895Y-74922000D02*
X165545895Y-74922000D01*
X169679500Y-76009500D02*
G75*
G03X169679500Y-76009500I-2500000J0D01*
G01*
G04 #@! TO.C,C4*
X165359395Y-85149500D02*
X165359395Y-85649500D01*
X165109395Y-85399500D02*
X165609395Y-85399500D01*
X169743000Y-86487000D02*
G75*
G03X169743000Y-86487000I-2500000J0D01*
G01*
G04 #@! TO.C,C3*
X159262000Y-95509395D02*
X158762000Y-95509395D01*
X159012000Y-95259395D02*
X159012000Y-95759395D01*
X160424500Y-97393000D02*
G75*
G03X160424500Y-97393000I-2500000J0D01*
G01*
G04 #@! TO.C,C1*
X134551105Y-98619500D02*
X134551105Y-98119500D01*
X134801105Y-98369500D02*
X134301105Y-98369500D01*
X135167500Y-97282000D02*
G75*
G03X135167500Y-97282000I-2500000J0D01*
G01*
G04 #@! TO.C,C9*
X169920000Y-114788500D02*
X165320000Y-114788500D01*
X169920000Y-120288500D02*
X169920000Y-114788500D01*
X165320000Y-120288500D02*
X169920000Y-120288500D01*
X165320000Y-114788500D02*
X165320000Y-120288500D01*
G04 #@! TO.C,C8*
X164001000Y-95319500D02*
X164001000Y-99919500D01*
X169501000Y-95319500D02*
X164001000Y-95319500D01*
X169501000Y-99919500D02*
X169501000Y-95319500D01*
X164001000Y-99919500D02*
X169501000Y-99919500D01*
G04 #@! TO.C,R1*
X132016500Y-90107000D02*
X132016500Y-88177000D01*
X132016500Y-79947000D02*
X132016500Y-81877000D01*
X133266500Y-88177000D02*
X133266500Y-81877000D01*
X130766500Y-88177000D02*
X133266500Y-88177000D01*
X130766500Y-81877000D02*
X130766500Y-88177000D01*
X133266500Y-81877000D02*
X130766500Y-81877000D01*
G04 #@! TO.C,U1*
X149923500Y-106188000D02*
X148923500Y-107188000D01*
X149923500Y-86868000D02*
X149923500Y-106188000D01*
X143573500Y-86868000D02*
X149923500Y-86868000D01*
X143573500Y-107188000D02*
X143573500Y-86868000D01*
X148923500Y-107188000D02*
X143573500Y-107188000D01*
G04 #@! TD*
G04 #@! TO.C,J3*
D11*
X151251619Y-125566261D02*
X151346857Y-125613880D01*
X151537333Y-125613880D01*
X151632571Y-125566261D01*
X151680190Y-125471023D01*
X151680190Y-125423404D01*
X151632571Y-125328166D01*
X151537333Y-125280547D01*
X151394476Y-125280547D01*
X151299238Y-125232928D01*
X151251619Y-125137690D01*
X151251619Y-125090071D01*
X151299238Y-124994833D01*
X151394476Y-124947214D01*
X151537333Y-124947214D01*
X151632571Y-124994833D01*
X152108761Y-124947214D02*
X152108761Y-125947214D01*
X152108761Y-124994833D02*
X152204000Y-124947214D01*
X152394476Y-124947214D01*
X152489714Y-124994833D01*
X152537333Y-125042452D01*
X152584952Y-125137690D01*
X152584952Y-125423404D01*
X152537333Y-125518642D01*
X152489714Y-125566261D01*
X152394476Y-125613880D01*
X152204000Y-125613880D01*
X152108761Y-125566261D01*
X153394476Y-125566261D02*
X153299238Y-125613880D01*
X153108761Y-125613880D01*
X153013523Y-125566261D01*
X152965904Y-125471023D01*
X152965904Y-125090071D01*
X153013523Y-124994833D01*
X153108761Y-124947214D01*
X153299238Y-124947214D01*
X153394476Y-124994833D01*
X153442095Y-125090071D01*
X153442095Y-125185309D01*
X152965904Y-125280547D01*
X154299238Y-125613880D02*
X154299238Y-125090071D01*
X154251619Y-124994833D01*
X154156380Y-124947214D01*
X153965904Y-124947214D01*
X153870666Y-124994833D01*
X154299238Y-125566261D02*
X154204000Y-125613880D01*
X153965904Y-125613880D01*
X153870666Y-125566261D01*
X153823047Y-125471023D01*
X153823047Y-125375785D01*
X153870666Y-125280547D01*
X153965904Y-125232928D01*
X154204000Y-125232928D01*
X154299238Y-125185309D01*
X154775428Y-125613880D02*
X154775428Y-124613880D01*
X154870666Y-125232928D02*
X155156380Y-125613880D01*
X155156380Y-124947214D02*
X154775428Y-125328166D01*
X155965904Y-125566261D02*
X155870666Y-125613880D01*
X155680190Y-125613880D01*
X155584952Y-125566261D01*
X155537333Y-125471023D01*
X155537333Y-125090071D01*
X155584952Y-124994833D01*
X155680190Y-124947214D01*
X155870666Y-124947214D01*
X155965904Y-124994833D01*
X156013523Y-125090071D01*
X156013523Y-125185309D01*
X155537333Y-125280547D01*
X156442095Y-125613880D02*
X156442095Y-124947214D01*
X156442095Y-125137690D02*
X156489714Y-125042452D01*
X156537333Y-124994833D01*
X156632571Y-124947214D01*
X156727809Y-124947214D01*
X157965904Y-125613880D02*
X157870666Y-125566261D01*
X157823047Y-125518642D01*
X157775428Y-125423404D01*
X157775428Y-125137690D01*
X157823047Y-125042452D01*
X157870666Y-124994833D01*
X157965904Y-124947214D01*
X158108761Y-124947214D01*
X158204000Y-124994833D01*
X158251619Y-125042452D01*
X158299238Y-125137690D01*
X158299238Y-125423404D01*
X158251619Y-125518642D01*
X158204000Y-125566261D01*
X158108761Y-125613880D01*
X157965904Y-125613880D01*
X159156380Y-124947214D02*
X159156380Y-125613880D01*
X158727809Y-124947214D02*
X158727809Y-125471023D01*
X158775428Y-125566261D01*
X158870666Y-125613880D01*
X159013523Y-125613880D01*
X159108761Y-125566261D01*
X159156380Y-125518642D01*
X159489714Y-124947214D02*
X159870666Y-124947214D01*
X159632571Y-124613880D02*
X159632571Y-125471023D01*
X159680190Y-125566261D01*
X159775428Y-125613880D01*
X159870666Y-125613880D01*
X160204000Y-124947214D02*
X160204000Y-125947214D01*
X160204000Y-124994833D02*
X160299238Y-124947214D01*
X160489714Y-124947214D01*
X160584952Y-124994833D01*
X160632571Y-125042452D01*
X160680190Y-125137690D01*
X160680190Y-125423404D01*
X160632571Y-125518642D01*
X160584952Y-125566261D01*
X160489714Y-125613880D01*
X160299238Y-125613880D01*
X160204000Y-125566261D01*
X161537333Y-124947214D02*
X161537333Y-125613880D01*
X161108761Y-124947214D02*
X161108761Y-125471023D01*
X161156380Y-125566261D01*
X161251619Y-125613880D01*
X161394476Y-125613880D01*
X161489714Y-125566261D01*
X161537333Y-125518642D01*
X161870666Y-124947214D02*
X162251619Y-124947214D01*
X162013523Y-124613880D02*
X162013523Y-125471023D01*
X162061142Y-125566261D01*
X162156380Y-125613880D01*
X162251619Y-125613880D01*
X156090666Y-114863880D02*
X156090666Y-115578166D01*
X156043047Y-115721023D01*
X155947809Y-115816261D01*
X155804952Y-115863880D01*
X155709714Y-115863880D01*
X156471619Y-114863880D02*
X157090666Y-114863880D01*
X156757333Y-115244833D01*
X156900190Y-115244833D01*
X156995428Y-115292452D01*
X157043047Y-115340071D01*
X157090666Y-115435309D01*
X157090666Y-115673404D01*
X157043047Y-115768642D01*
X156995428Y-115816261D01*
X156900190Y-115863880D01*
X156614476Y-115863880D01*
X156519238Y-115816261D01*
X156471619Y-115768642D01*
G04 #@! TO.C,J2*
X151088976Y-61568214D02*
X151088976Y-62568214D01*
X151088976Y-61615833D02*
X151184214Y-61568214D01*
X151374690Y-61568214D01*
X151469928Y-61615833D01*
X151517547Y-61663452D01*
X151565166Y-61758690D01*
X151565166Y-62044404D01*
X151517547Y-62139642D01*
X151469928Y-62187261D01*
X151374690Y-62234880D01*
X151184214Y-62234880D01*
X151088976Y-62187261D01*
X152136595Y-62234880D02*
X152041357Y-62187261D01*
X151993738Y-62139642D01*
X151946119Y-62044404D01*
X151946119Y-61758690D01*
X151993738Y-61663452D01*
X152041357Y-61615833D01*
X152136595Y-61568214D01*
X152279452Y-61568214D01*
X152374690Y-61615833D01*
X152422309Y-61663452D01*
X152469928Y-61758690D01*
X152469928Y-62044404D01*
X152422309Y-62139642D01*
X152374690Y-62187261D01*
X152279452Y-62234880D01*
X152136595Y-62234880D01*
X152803261Y-61568214D02*
X152993738Y-62234880D01*
X153184214Y-61758690D01*
X153374690Y-62234880D01*
X153565166Y-61568214D01*
X154327071Y-62187261D02*
X154231833Y-62234880D01*
X154041357Y-62234880D01*
X153946119Y-62187261D01*
X153898500Y-62092023D01*
X153898500Y-61711071D01*
X153946119Y-61615833D01*
X154041357Y-61568214D01*
X154231833Y-61568214D01*
X154327071Y-61615833D01*
X154374690Y-61711071D01*
X154374690Y-61806309D01*
X153898500Y-61901547D01*
X154803261Y-62234880D02*
X154803261Y-61568214D01*
X154803261Y-61758690D02*
X154850880Y-61663452D01*
X154898500Y-61615833D01*
X154993738Y-61568214D01*
X155088976Y-61568214D01*
X156184214Y-61853928D02*
X156946119Y-61853928D01*
X156565166Y-62234880D02*
X156565166Y-61472976D01*
X157946119Y-62234880D02*
X157374690Y-62234880D01*
X157660404Y-62234880D02*
X157660404Y-61234880D01*
X157565166Y-61377738D01*
X157469928Y-61472976D01*
X157374690Y-61520595D01*
X158803261Y-61234880D02*
X158612785Y-61234880D01*
X158517547Y-61282500D01*
X158469928Y-61330119D01*
X158374690Y-61472976D01*
X158327071Y-61663452D01*
X158327071Y-62044404D01*
X158374690Y-62139642D01*
X158422309Y-62187261D01*
X158517547Y-62234880D01*
X158708023Y-62234880D01*
X158803261Y-62187261D01*
X158850880Y-62139642D01*
X158898500Y-62044404D01*
X158898500Y-61806309D01*
X158850880Y-61711071D01*
X158803261Y-61663452D01*
X158708023Y-61615833D01*
X158517547Y-61615833D01*
X158422309Y-61663452D01*
X158374690Y-61711071D01*
X158327071Y-61806309D01*
X159184214Y-61234880D02*
X159517547Y-62234880D01*
X159850880Y-61234880D01*
X155345166Y-70984880D02*
X155345166Y-71699166D01*
X155297547Y-71842023D01*
X155202309Y-71937261D01*
X155059452Y-71984880D01*
X154964214Y-71984880D01*
X155773738Y-71080119D02*
X155821357Y-71032500D01*
X155916595Y-70984880D01*
X156154690Y-70984880D01*
X156249928Y-71032500D01*
X156297547Y-71080119D01*
X156345166Y-71175357D01*
X156345166Y-71270595D01*
X156297547Y-71413452D01*
X155726119Y-71984880D01*
X156345166Y-71984880D01*
G04 #@! TO.C,J1*
X127541280Y-75254666D02*
X127017471Y-75254666D01*
X126922233Y-75302285D01*
X126874614Y-75397523D01*
X126874614Y-75588000D01*
X126922233Y-75683238D01*
X127493661Y-75254666D02*
X127541280Y-75349904D01*
X127541280Y-75588000D01*
X127493661Y-75683238D01*
X127398423Y-75730857D01*
X127303185Y-75730857D01*
X127207947Y-75683238D01*
X127160328Y-75588000D01*
X127160328Y-75349904D01*
X127112709Y-75254666D01*
X126874614Y-74349904D02*
X127541280Y-74349904D01*
X126874614Y-74778476D02*
X127398423Y-74778476D01*
X127493661Y-74730857D01*
X127541280Y-74635619D01*
X127541280Y-74492761D01*
X127493661Y-74397523D01*
X127446042Y-74349904D01*
X127541280Y-73445142D02*
X126541280Y-73445142D01*
X127493661Y-73445142D02*
X127541280Y-73540380D01*
X127541280Y-73730857D01*
X127493661Y-73826095D01*
X127446042Y-73873714D01*
X127350804Y-73921333D01*
X127065090Y-73921333D01*
X126969852Y-73873714D01*
X126922233Y-73826095D01*
X126874614Y-73730857D01*
X126874614Y-73540380D01*
X126922233Y-73445142D01*
X127541280Y-72968952D02*
X126874614Y-72968952D01*
X126541280Y-72968952D02*
X126588900Y-73016571D01*
X126636519Y-72968952D01*
X126588900Y-72921333D01*
X126541280Y-72968952D01*
X126636519Y-72968952D01*
X127541280Y-72349904D02*
X127493661Y-72445142D01*
X127446042Y-72492761D01*
X127350804Y-72540380D01*
X127065090Y-72540380D01*
X126969852Y-72492761D01*
X126922233Y-72445142D01*
X126874614Y-72349904D01*
X126874614Y-72207047D01*
X126922233Y-72111809D01*
X126969852Y-72064190D01*
X127065090Y-72016571D01*
X127350804Y-72016571D01*
X127446042Y-72064190D01*
X127493661Y-72111809D01*
X127541280Y-72207047D01*
X127541280Y-72349904D01*
X127541280Y-70826095D02*
X126874614Y-70826095D01*
X126541280Y-70826095D02*
X126588900Y-70873714D01*
X126636519Y-70826095D01*
X126588900Y-70778476D01*
X126541280Y-70826095D01*
X126636519Y-70826095D01*
X126874614Y-70349904D02*
X127541280Y-70349904D01*
X126969852Y-70349904D02*
X126922233Y-70302285D01*
X126874614Y-70207047D01*
X126874614Y-70064190D01*
X126922233Y-69968952D01*
X127017471Y-69921333D01*
X127541280Y-69921333D01*
X126874614Y-69445142D02*
X127874614Y-69445142D01*
X126922233Y-69445142D02*
X126874614Y-69349904D01*
X126874614Y-69159428D01*
X126922233Y-69064190D01*
X126969852Y-69016571D01*
X127065090Y-68968952D01*
X127350804Y-68968952D01*
X127446042Y-69016571D01*
X127493661Y-69064190D01*
X127541280Y-69159428D01*
X127541280Y-69349904D01*
X127493661Y-69445142D01*
X126874614Y-68111809D02*
X127541280Y-68111809D01*
X126874614Y-68540380D02*
X127398423Y-68540380D01*
X127493661Y-68492761D01*
X127541280Y-68397523D01*
X127541280Y-68254666D01*
X127493661Y-68159428D01*
X127446042Y-68111809D01*
X126874614Y-67778476D02*
X126874614Y-67397523D01*
X126541280Y-67635619D02*
X127398423Y-67635619D01*
X127493661Y-67588000D01*
X127541280Y-67492761D01*
X127541280Y-67397523D01*
X127541280Y-66159428D02*
X127493661Y-66254666D01*
X127398423Y-66302285D01*
X126541280Y-66302285D01*
X127541280Y-65778476D02*
X126874614Y-65778476D01*
X126541280Y-65778476D02*
X126588900Y-65826095D01*
X126636519Y-65778476D01*
X126588900Y-65730857D01*
X126541280Y-65778476D01*
X126636519Y-65778476D01*
X126874614Y-65302285D02*
X127541280Y-65302285D01*
X126969852Y-65302285D02*
X126922233Y-65254666D01*
X126874614Y-65159428D01*
X126874614Y-65016571D01*
X126922233Y-64921333D01*
X127017471Y-64873714D01*
X127541280Y-64873714D01*
X127493661Y-64016571D02*
X127541280Y-64111809D01*
X127541280Y-64302285D01*
X127493661Y-64397523D01*
X127398423Y-64445142D01*
X127017471Y-64445142D01*
X126922233Y-64397523D01*
X126874614Y-64302285D01*
X126874614Y-64111809D01*
X126922233Y-64016571D01*
X127017471Y-63968952D01*
X127112709Y-63968952D01*
X127207947Y-64445142D01*
X127541280Y-63111809D02*
X127017471Y-63111809D01*
X126922233Y-63159428D01*
X126874614Y-63254666D01*
X126874614Y-63445142D01*
X126922233Y-63540380D01*
X127493661Y-63111809D02*
X127541280Y-63207047D01*
X127541280Y-63445142D01*
X127493661Y-63540380D01*
X127398423Y-63588000D01*
X127303185Y-63588000D01*
X127207947Y-63540380D01*
X127160328Y-63445142D01*
X127160328Y-63207047D01*
X127112709Y-63111809D01*
X127541280Y-62635619D02*
X126874614Y-62635619D01*
X127065090Y-62635619D02*
X126969852Y-62588000D01*
X126922233Y-62540380D01*
X126874614Y-62445142D01*
X126874614Y-62349904D01*
G04 #@! TO.C,C2*
X139871023Y-75589380D02*
X139966261Y-75589380D01*
X140061500Y-75637000D01*
X140109119Y-75684619D01*
X140156738Y-75779857D01*
X140204357Y-75970333D01*
X140204357Y-76208428D01*
X140156738Y-76398904D01*
X140109119Y-76494142D01*
X140061500Y-76541761D01*
X139966261Y-76589380D01*
X139871023Y-76589380D01*
X139775785Y-76541761D01*
X139728166Y-76494142D01*
X139680547Y-76398904D01*
X139632928Y-76208428D01*
X139632928Y-75970333D01*
X139680547Y-75779857D01*
X139728166Y-75684619D01*
X139775785Y-75637000D01*
X139871023Y-75589380D01*
X140632928Y-76494142D02*
X140680547Y-76541761D01*
X140632928Y-76589380D01*
X140585309Y-76541761D01*
X140632928Y-76494142D01*
X140632928Y-76589380D01*
X141061500Y-75684619D02*
X141109119Y-75637000D01*
X141204357Y-75589380D01*
X141442452Y-75589380D01*
X141537690Y-75637000D01*
X141585309Y-75684619D01*
X141632928Y-75779857D01*
X141632928Y-75875095D01*
X141585309Y-76017952D01*
X141013880Y-76589380D01*
X141632928Y-76589380D01*
X142013880Y-75684619D02*
X142061500Y-75637000D01*
X142156738Y-75589380D01*
X142394833Y-75589380D01*
X142490071Y-75637000D01*
X142537690Y-75684619D01*
X142585309Y-75779857D01*
X142585309Y-75875095D01*
X142537690Y-76017952D01*
X141966261Y-76589380D01*
X142585309Y-76589380D01*
X143442452Y-75922714D02*
X143442452Y-76589380D01*
X143013880Y-75922714D02*
X143013880Y-76446523D01*
X143061500Y-76541761D01*
X143156738Y-76589380D01*
X143299595Y-76589380D01*
X143394833Y-76541761D01*
X143442452Y-76494142D01*
D12*
X141408166Y-80465571D02*
X141364357Y-80509380D01*
X141232928Y-80553190D01*
X141145309Y-80553190D01*
X141013880Y-80509380D01*
X140926261Y-80421761D01*
X140882452Y-80334142D01*
X140838642Y-80158904D01*
X140838642Y-80027476D01*
X140882452Y-79852238D01*
X140926261Y-79764619D01*
X141013880Y-79677000D01*
X141145309Y-79633190D01*
X141232928Y-79633190D01*
X141364357Y-79677000D01*
X141408166Y-79720809D01*
X141758642Y-79720809D02*
X141802452Y-79677000D01*
X141890071Y-79633190D01*
X142109119Y-79633190D01*
X142196738Y-79677000D01*
X142240547Y-79720809D01*
X142284357Y-79808428D01*
X142284357Y-79896047D01*
X142240547Y-80027476D01*
X141714833Y-80553190D01*
X142284357Y-80553190D01*
G04 #@! TO.C,C7*
D11*
X129417380Y-106767047D02*
X129417380Y-107338476D01*
X129417380Y-107052761D02*
X128417380Y-107052761D01*
X128560238Y-107148000D01*
X128655476Y-107243238D01*
X128703095Y-107338476D01*
X128417380Y-106148000D02*
X128417380Y-106052761D01*
X128465000Y-105957523D01*
X128512619Y-105909904D01*
X128607857Y-105862285D01*
X128798333Y-105814666D01*
X129036428Y-105814666D01*
X129226904Y-105862285D01*
X129322142Y-105909904D01*
X129369761Y-105957523D01*
X129417380Y-106052761D01*
X129417380Y-106148000D01*
X129369761Y-106243238D01*
X129322142Y-106290857D01*
X129226904Y-106338476D01*
X129036428Y-106386095D01*
X128798333Y-106386095D01*
X128607857Y-106338476D01*
X128512619Y-106290857D01*
X128465000Y-106243238D01*
X128417380Y-106148000D01*
X128417380Y-105195619D02*
X128417380Y-105100380D01*
X128465000Y-105005142D01*
X128512619Y-104957523D01*
X128607857Y-104909904D01*
X128798333Y-104862285D01*
X129036428Y-104862285D01*
X129226904Y-104909904D01*
X129322142Y-104957523D01*
X129369761Y-105005142D01*
X129417380Y-105100380D01*
X129417380Y-105195619D01*
X129369761Y-105290857D01*
X129322142Y-105338476D01*
X129226904Y-105386095D01*
X129036428Y-105433714D01*
X128798333Y-105433714D01*
X128607857Y-105386095D01*
X128512619Y-105338476D01*
X128465000Y-105290857D01*
X128417380Y-105195619D01*
X128750714Y-104005142D02*
X129417380Y-104005142D01*
X128750714Y-104433714D02*
X129274523Y-104433714D01*
X129369761Y-104386095D01*
X129417380Y-104290857D01*
X129417380Y-104148000D01*
X129369761Y-104052761D01*
X129322142Y-104005142D01*
X133072142Y-105814666D02*
X133119761Y-105862285D01*
X133167380Y-106005142D01*
X133167380Y-106100380D01*
X133119761Y-106243238D01*
X133024523Y-106338476D01*
X132929285Y-106386095D01*
X132738809Y-106433714D01*
X132595952Y-106433714D01*
X132405476Y-106386095D01*
X132310238Y-106338476D01*
X132215000Y-106243238D01*
X132167380Y-106100380D01*
X132167380Y-106005142D01*
X132215000Y-105862285D01*
X132262619Y-105814666D01*
X132167380Y-105481333D02*
X132167380Y-104814666D01*
X133167380Y-105243238D01*
G04 #@! TO.C,C6*
X166187452Y-112723880D02*
X165616023Y-112723880D01*
X165901738Y-112723880D02*
X165901738Y-111723880D01*
X165806500Y-111866738D01*
X165711261Y-111961976D01*
X165616023Y-112009595D01*
X166806500Y-111723880D02*
X166901738Y-111723880D01*
X166996976Y-111771500D01*
X167044595Y-111819119D01*
X167092214Y-111914357D01*
X167139833Y-112104833D01*
X167139833Y-112342928D01*
X167092214Y-112533404D01*
X167044595Y-112628642D01*
X166996976Y-112676261D01*
X166901738Y-112723880D01*
X166806500Y-112723880D01*
X166711261Y-112676261D01*
X166663642Y-112628642D01*
X166616023Y-112533404D01*
X166568404Y-112342928D01*
X166568404Y-112104833D01*
X166616023Y-111914357D01*
X166663642Y-111819119D01*
X166711261Y-111771500D01*
X166806500Y-111723880D01*
X167758880Y-111723880D02*
X167854119Y-111723880D01*
X167949357Y-111771500D01*
X167996976Y-111819119D01*
X168044595Y-111914357D01*
X168092214Y-112104833D01*
X168092214Y-112342928D01*
X168044595Y-112533404D01*
X167996976Y-112628642D01*
X167949357Y-112676261D01*
X167854119Y-112723880D01*
X167758880Y-112723880D01*
X167663642Y-112676261D01*
X167616023Y-112628642D01*
X167568404Y-112533404D01*
X167520785Y-112342928D01*
X167520785Y-112104833D01*
X167568404Y-111914357D01*
X167616023Y-111819119D01*
X167663642Y-111771500D01*
X167758880Y-111723880D01*
X168949357Y-112057214D02*
X168949357Y-112723880D01*
X168520785Y-112057214D02*
X168520785Y-112581023D01*
X168568404Y-112676261D01*
X168663642Y-112723880D01*
X168806500Y-112723880D01*
X168901738Y-112676261D01*
X168949357Y-112628642D01*
X167139833Y-108878642D02*
X167092214Y-108926261D01*
X166949357Y-108973880D01*
X166854119Y-108973880D01*
X166711261Y-108926261D01*
X166616023Y-108831023D01*
X166568404Y-108735785D01*
X166520785Y-108545309D01*
X166520785Y-108402452D01*
X166568404Y-108211976D01*
X166616023Y-108116738D01*
X166711261Y-108021500D01*
X166854119Y-107973880D01*
X166949357Y-107973880D01*
X167092214Y-108021500D01*
X167139833Y-108069119D01*
X167996976Y-107973880D02*
X167806500Y-107973880D01*
X167711261Y-108021500D01*
X167663642Y-108069119D01*
X167568404Y-108211976D01*
X167520785Y-108402452D01*
X167520785Y-108783404D01*
X167568404Y-108878642D01*
X167616023Y-108926261D01*
X167711261Y-108973880D01*
X167901738Y-108973880D01*
X167996976Y-108926261D01*
X168044595Y-108878642D01*
X168092214Y-108783404D01*
X168092214Y-108545309D01*
X168044595Y-108450071D01*
X167996976Y-108402452D01*
X167901738Y-108354833D01*
X167711261Y-108354833D01*
X167616023Y-108402452D01*
X167568404Y-108450071D01*
X167520785Y-108545309D01*
G04 #@! TO.C,C5*
X166060452Y-80211880D02*
X165489023Y-80211880D01*
X165774738Y-80211880D02*
X165774738Y-79211880D01*
X165679500Y-79354738D01*
X165584261Y-79449976D01*
X165489023Y-79497595D01*
X166679500Y-79211880D02*
X166774738Y-79211880D01*
X166869976Y-79259500D01*
X166917595Y-79307119D01*
X166965214Y-79402357D01*
X167012833Y-79592833D01*
X167012833Y-79830928D01*
X166965214Y-80021404D01*
X166917595Y-80116642D01*
X166869976Y-80164261D01*
X166774738Y-80211880D01*
X166679500Y-80211880D01*
X166584261Y-80164261D01*
X166536642Y-80116642D01*
X166489023Y-80021404D01*
X166441404Y-79830928D01*
X166441404Y-79592833D01*
X166489023Y-79402357D01*
X166536642Y-79307119D01*
X166584261Y-79259500D01*
X166679500Y-79211880D01*
X167631880Y-79211880D02*
X167727119Y-79211880D01*
X167822357Y-79259500D01*
X167869976Y-79307119D01*
X167917595Y-79402357D01*
X167965214Y-79592833D01*
X167965214Y-79830928D01*
X167917595Y-80021404D01*
X167869976Y-80116642D01*
X167822357Y-80164261D01*
X167727119Y-80211880D01*
X167631880Y-80211880D01*
X167536642Y-80164261D01*
X167489023Y-80116642D01*
X167441404Y-80021404D01*
X167393785Y-79830928D01*
X167393785Y-79592833D01*
X167441404Y-79402357D01*
X167489023Y-79307119D01*
X167536642Y-79259500D01*
X167631880Y-79211880D01*
X168822357Y-79545214D02*
X168822357Y-80211880D01*
X168393785Y-79545214D02*
X168393785Y-80069023D01*
X168441404Y-80164261D01*
X168536642Y-80211880D01*
X168679500Y-80211880D01*
X168774738Y-80164261D01*
X168822357Y-80116642D01*
X167012833Y-76366642D02*
X166965214Y-76414261D01*
X166822357Y-76461880D01*
X166727119Y-76461880D01*
X166584261Y-76414261D01*
X166489023Y-76319023D01*
X166441404Y-76223785D01*
X166393785Y-76033309D01*
X166393785Y-75890452D01*
X166441404Y-75699976D01*
X166489023Y-75604738D01*
X166584261Y-75509500D01*
X166727119Y-75461880D01*
X166822357Y-75461880D01*
X166965214Y-75509500D01*
X167012833Y-75557119D01*
X167917595Y-75461880D02*
X167441404Y-75461880D01*
X167393785Y-75938071D01*
X167441404Y-75890452D01*
X167536642Y-75842833D01*
X167774738Y-75842833D01*
X167869976Y-75890452D01*
X167917595Y-75938071D01*
X167965214Y-76033309D01*
X167965214Y-76271404D01*
X167917595Y-76366642D01*
X167869976Y-76414261D01*
X167774738Y-76461880D01*
X167536642Y-76461880D01*
X167441404Y-76414261D01*
X167393785Y-76366642D01*
G04 #@! TO.C,C4*
X166123952Y-90689380D02*
X165552523Y-90689380D01*
X165838238Y-90689380D02*
X165838238Y-89689380D01*
X165743000Y-89832238D01*
X165647761Y-89927476D01*
X165552523Y-89975095D01*
X166743000Y-89689380D02*
X166838238Y-89689380D01*
X166933476Y-89737000D01*
X166981095Y-89784619D01*
X167028714Y-89879857D01*
X167076333Y-90070333D01*
X167076333Y-90308428D01*
X167028714Y-90498904D01*
X166981095Y-90594142D01*
X166933476Y-90641761D01*
X166838238Y-90689380D01*
X166743000Y-90689380D01*
X166647761Y-90641761D01*
X166600142Y-90594142D01*
X166552523Y-90498904D01*
X166504904Y-90308428D01*
X166504904Y-90070333D01*
X166552523Y-89879857D01*
X166600142Y-89784619D01*
X166647761Y-89737000D01*
X166743000Y-89689380D01*
X167695380Y-89689380D02*
X167790619Y-89689380D01*
X167885857Y-89737000D01*
X167933476Y-89784619D01*
X167981095Y-89879857D01*
X168028714Y-90070333D01*
X168028714Y-90308428D01*
X167981095Y-90498904D01*
X167933476Y-90594142D01*
X167885857Y-90641761D01*
X167790619Y-90689380D01*
X167695380Y-90689380D01*
X167600142Y-90641761D01*
X167552523Y-90594142D01*
X167504904Y-90498904D01*
X167457285Y-90308428D01*
X167457285Y-90070333D01*
X167504904Y-89879857D01*
X167552523Y-89784619D01*
X167600142Y-89737000D01*
X167695380Y-89689380D01*
X168885857Y-90022714D02*
X168885857Y-90689380D01*
X168457285Y-90022714D02*
X168457285Y-90546523D01*
X168504904Y-90641761D01*
X168600142Y-90689380D01*
X168743000Y-90689380D01*
X168838238Y-90641761D01*
X168885857Y-90594142D01*
X167076333Y-86844142D02*
X167028714Y-86891761D01*
X166885857Y-86939380D01*
X166790619Y-86939380D01*
X166647761Y-86891761D01*
X166552523Y-86796523D01*
X166504904Y-86701285D01*
X166457285Y-86510809D01*
X166457285Y-86367952D01*
X166504904Y-86177476D01*
X166552523Y-86082238D01*
X166647761Y-85987000D01*
X166790619Y-85939380D01*
X166885857Y-85939380D01*
X167028714Y-85987000D01*
X167076333Y-86034619D01*
X167933476Y-86272714D02*
X167933476Y-86939380D01*
X167695380Y-85891761D02*
X167457285Y-86606047D01*
X168076333Y-86606047D01*
G04 #@! TO.C,C3*
X154626880Y-98512047D02*
X154626880Y-99083476D01*
X154626880Y-98797761D02*
X153626880Y-98797761D01*
X153769738Y-98893000D01*
X153864976Y-98988238D01*
X153912595Y-99083476D01*
X153626880Y-97893000D02*
X153626880Y-97797761D01*
X153674500Y-97702523D01*
X153722119Y-97654904D01*
X153817357Y-97607285D01*
X154007833Y-97559666D01*
X154245928Y-97559666D01*
X154436404Y-97607285D01*
X154531642Y-97654904D01*
X154579261Y-97702523D01*
X154626880Y-97797761D01*
X154626880Y-97893000D01*
X154579261Y-97988238D01*
X154531642Y-98035857D01*
X154436404Y-98083476D01*
X154245928Y-98131095D01*
X154007833Y-98131095D01*
X153817357Y-98083476D01*
X153722119Y-98035857D01*
X153674500Y-97988238D01*
X153626880Y-97893000D01*
X153626880Y-96940619D02*
X153626880Y-96845380D01*
X153674500Y-96750142D01*
X153722119Y-96702523D01*
X153817357Y-96654904D01*
X154007833Y-96607285D01*
X154245928Y-96607285D01*
X154436404Y-96654904D01*
X154531642Y-96702523D01*
X154579261Y-96750142D01*
X154626880Y-96845380D01*
X154626880Y-96940619D01*
X154579261Y-97035857D01*
X154531642Y-97083476D01*
X154436404Y-97131095D01*
X154245928Y-97178714D01*
X154007833Y-97178714D01*
X153817357Y-97131095D01*
X153722119Y-97083476D01*
X153674500Y-97035857D01*
X153626880Y-96940619D01*
X153960214Y-95750142D02*
X154626880Y-95750142D01*
X153960214Y-96178714D02*
X154484023Y-96178714D01*
X154579261Y-96131095D01*
X154626880Y-96035857D01*
X154626880Y-95893000D01*
X154579261Y-95797761D01*
X154531642Y-95750142D01*
X158281642Y-97559666D02*
X158329261Y-97607285D01*
X158376880Y-97750142D01*
X158376880Y-97845380D01*
X158329261Y-97988238D01*
X158234023Y-98083476D01*
X158138785Y-98131095D01*
X157948309Y-98178714D01*
X157805452Y-98178714D01*
X157614976Y-98131095D01*
X157519738Y-98083476D01*
X157424500Y-97988238D01*
X157376880Y-97845380D01*
X157376880Y-97750142D01*
X157424500Y-97607285D01*
X157472119Y-97559666D01*
X157376880Y-97226333D02*
X157376880Y-96607285D01*
X157757833Y-96940619D01*
X157757833Y-96797761D01*
X157805452Y-96702523D01*
X157853071Y-96654904D01*
X157948309Y-96607285D01*
X158186404Y-96607285D01*
X158281642Y-96654904D01*
X158329261Y-96702523D01*
X158376880Y-96797761D01*
X158376880Y-97083476D01*
X158329261Y-97178714D01*
X158281642Y-97226333D01*
G04 #@! TO.C,C1*
X131548452Y-93984380D02*
X130977023Y-93984380D01*
X131262738Y-93984380D02*
X131262738Y-92984380D01*
X131167500Y-93127238D01*
X131072261Y-93222476D01*
X130977023Y-93270095D01*
X132167500Y-92984380D02*
X132262738Y-92984380D01*
X132357976Y-93032000D01*
X132405595Y-93079619D01*
X132453214Y-93174857D01*
X132500833Y-93365333D01*
X132500833Y-93603428D01*
X132453214Y-93793904D01*
X132405595Y-93889142D01*
X132357976Y-93936761D01*
X132262738Y-93984380D01*
X132167500Y-93984380D01*
X132072261Y-93936761D01*
X132024642Y-93889142D01*
X131977023Y-93793904D01*
X131929404Y-93603428D01*
X131929404Y-93365333D01*
X131977023Y-93174857D01*
X132024642Y-93079619D01*
X132072261Y-93032000D01*
X132167500Y-92984380D01*
X133119880Y-92984380D02*
X133215119Y-92984380D01*
X133310357Y-93032000D01*
X133357976Y-93079619D01*
X133405595Y-93174857D01*
X133453214Y-93365333D01*
X133453214Y-93603428D01*
X133405595Y-93793904D01*
X133357976Y-93889142D01*
X133310357Y-93936761D01*
X133215119Y-93984380D01*
X133119880Y-93984380D01*
X133024642Y-93936761D01*
X132977023Y-93889142D01*
X132929404Y-93793904D01*
X132881785Y-93603428D01*
X132881785Y-93365333D01*
X132929404Y-93174857D01*
X132977023Y-93079619D01*
X133024642Y-93032000D01*
X133119880Y-92984380D01*
X134310357Y-93317714D02*
X134310357Y-93984380D01*
X133881785Y-93317714D02*
X133881785Y-93841523D01*
X133929404Y-93936761D01*
X134024642Y-93984380D01*
X134167500Y-93984380D01*
X134262738Y-93936761D01*
X134310357Y-93889142D01*
X132500833Y-97639142D02*
X132453214Y-97686761D01*
X132310357Y-97734380D01*
X132215119Y-97734380D01*
X132072261Y-97686761D01*
X131977023Y-97591523D01*
X131929404Y-97496285D01*
X131881785Y-97305809D01*
X131881785Y-97162952D01*
X131929404Y-96972476D01*
X131977023Y-96877238D01*
X132072261Y-96782000D01*
X132215119Y-96734380D01*
X132310357Y-96734380D01*
X132453214Y-96782000D01*
X132500833Y-96829619D01*
X133453214Y-97734380D02*
X132881785Y-97734380D01*
X133167500Y-97734380D02*
X133167500Y-96734380D01*
X133072261Y-96877238D01*
X132977023Y-96972476D01*
X132881785Y-97020095D01*
G04 #@! TO.C,C9*
X165929523Y-120990880D02*
X166024761Y-120990880D01*
X166120000Y-121038500D01*
X166167619Y-121086119D01*
X166215238Y-121181357D01*
X166262857Y-121371833D01*
X166262857Y-121609928D01*
X166215238Y-121800404D01*
X166167619Y-121895642D01*
X166120000Y-121943261D01*
X166024761Y-121990880D01*
X165929523Y-121990880D01*
X165834285Y-121943261D01*
X165786666Y-121895642D01*
X165739047Y-121800404D01*
X165691428Y-121609928D01*
X165691428Y-121371833D01*
X165739047Y-121181357D01*
X165786666Y-121086119D01*
X165834285Y-121038500D01*
X165929523Y-120990880D01*
X166691428Y-121895642D02*
X166739047Y-121943261D01*
X166691428Y-121990880D01*
X166643809Y-121943261D01*
X166691428Y-121895642D01*
X166691428Y-121990880D01*
X167691428Y-121990880D02*
X167120000Y-121990880D01*
X167405714Y-121990880D02*
X167405714Y-120990880D01*
X167310476Y-121133738D01*
X167215238Y-121228976D01*
X167120000Y-121276595D01*
X168596190Y-120990880D02*
X168120000Y-120990880D01*
X168072380Y-121467071D01*
X168120000Y-121419452D01*
X168215238Y-121371833D01*
X168453333Y-121371833D01*
X168548571Y-121419452D01*
X168596190Y-121467071D01*
X168643809Y-121562309D01*
X168643809Y-121800404D01*
X168596190Y-121895642D01*
X168548571Y-121943261D01*
X168453333Y-121990880D01*
X168215238Y-121990880D01*
X168120000Y-121943261D01*
X168072380Y-121895642D01*
X169500952Y-121324214D02*
X169500952Y-121990880D01*
X169072380Y-121324214D02*
X169072380Y-121848023D01*
X169120000Y-121943261D01*
X169215238Y-121990880D01*
X169358095Y-121990880D01*
X169453333Y-121943261D01*
X169500952Y-121895642D01*
D12*
X167466666Y-117867071D02*
X167422857Y-117910880D01*
X167291428Y-117954690D01*
X167203809Y-117954690D01*
X167072380Y-117910880D01*
X166984761Y-117823261D01*
X166940952Y-117735642D01*
X166897142Y-117560404D01*
X166897142Y-117428976D01*
X166940952Y-117253738D01*
X166984761Y-117166119D01*
X167072380Y-117078500D01*
X167203809Y-117034690D01*
X167291428Y-117034690D01*
X167422857Y-117078500D01*
X167466666Y-117122309D01*
X167904761Y-117954690D02*
X168080000Y-117954690D01*
X168167619Y-117910880D01*
X168211428Y-117867071D01*
X168299047Y-117735642D01*
X168342857Y-117560404D01*
X168342857Y-117209928D01*
X168299047Y-117122309D01*
X168255238Y-117078500D01*
X168167619Y-117034690D01*
X167992380Y-117034690D01*
X167904761Y-117078500D01*
X167860952Y-117122309D01*
X167817142Y-117209928D01*
X167817142Y-117428976D01*
X167860952Y-117516595D01*
X167904761Y-117560404D01*
X167992380Y-117604214D01*
X168167619Y-117604214D01*
X168255238Y-117560404D01*
X168299047Y-117516595D01*
X168342857Y-117428976D01*
G04 #@! TO.C,C8*
D11*
X170203380Y-99309976D02*
X170203380Y-99214738D01*
X170251000Y-99119500D01*
X170298619Y-99071880D01*
X170393857Y-99024261D01*
X170584333Y-98976642D01*
X170822428Y-98976642D01*
X171012904Y-99024261D01*
X171108142Y-99071880D01*
X171155761Y-99119500D01*
X171203380Y-99214738D01*
X171203380Y-99309976D01*
X171155761Y-99405214D01*
X171108142Y-99452833D01*
X171012904Y-99500452D01*
X170822428Y-99548071D01*
X170584333Y-99548071D01*
X170393857Y-99500452D01*
X170298619Y-99452833D01*
X170251000Y-99405214D01*
X170203380Y-99309976D01*
X171108142Y-98548071D02*
X171155761Y-98500452D01*
X171203380Y-98548071D01*
X171155761Y-98595690D01*
X171108142Y-98548071D01*
X171203380Y-98548071D01*
X171203380Y-97548071D02*
X171203380Y-98119500D01*
X171203380Y-97833785D02*
X170203380Y-97833785D01*
X170346238Y-97929023D01*
X170441476Y-98024261D01*
X170489095Y-98119500D01*
X170203380Y-96643309D02*
X170203380Y-97119500D01*
X170679571Y-97167119D01*
X170631952Y-97119500D01*
X170584333Y-97024261D01*
X170584333Y-96786166D01*
X170631952Y-96690928D01*
X170679571Y-96643309D01*
X170774809Y-96595690D01*
X171012904Y-96595690D01*
X171108142Y-96643309D01*
X171155761Y-96690928D01*
X171203380Y-96786166D01*
X171203380Y-97024261D01*
X171155761Y-97119500D01*
X171108142Y-97167119D01*
X170536714Y-95738547D02*
X171203380Y-95738547D01*
X170536714Y-96167119D02*
X171060523Y-96167119D01*
X171155761Y-96119500D01*
X171203380Y-96024261D01*
X171203380Y-95881404D01*
X171155761Y-95786166D01*
X171108142Y-95738547D01*
D12*
X167079571Y-97772833D02*
X167123380Y-97816642D01*
X167167190Y-97948071D01*
X167167190Y-98035690D01*
X167123380Y-98167119D01*
X167035761Y-98254738D01*
X166948142Y-98298547D01*
X166772904Y-98342357D01*
X166641476Y-98342357D01*
X166466238Y-98298547D01*
X166378619Y-98254738D01*
X166291000Y-98167119D01*
X166247190Y-98035690D01*
X166247190Y-97948071D01*
X166291000Y-97816642D01*
X166334809Y-97772833D01*
X166641476Y-97247119D02*
X166597666Y-97334738D01*
X166553857Y-97378547D01*
X166466238Y-97422357D01*
X166422428Y-97422357D01*
X166334809Y-97378547D01*
X166291000Y-97334738D01*
X166247190Y-97247119D01*
X166247190Y-97071880D01*
X166291000Y-96984261D01*
X166334809Y-96940452D01*
X166422428Y-96896642D01*
X166466238Y-96896642D01*
X166553857Y-96940452D01*
X166597666Y-96984261D01*
X166641476Y-97071880D01*
X166641476Y-97247119D01*
X166685285Y-97334738D01*
X166729095Y-97378547D01*
X166816714Y-97422357D01*
X166991952Y-97422357D01*
X167079571Y-97378547D01*
X167123380Y-97334738D01*
X167167190Y-97247119D01*
X167167190Y-97071880D01*
X167123380Y-96984261D01*
X167079571Y-96940452D01*
X166991952Y-96896642D01*
X166816714Y-96896642D01*
X166729095Y-96940452D01*
X166685285Y-96984261D01*
X166641476Y-97071880D01*
G04 #@! TO.C,R1*
D11*
X130098880Y-85146047D02*
X130098880Y-85717476D01*
X130098880Y-85431761D02*
X129098880Y-85431761D01*
X129241738Y-85527000D01*
X129336976Y-85622238D01*
X129384595Y-85717476D01*
X130098880Y-84717476D02*
X129098880Y-84717476D01*
X129717928Y-84622238D02*
X130098880Y-84336523D01*
X129432214Y-84336523D02*
X129813166Y-84717476D01*
X132468880Y-85193666D02*
X131992690Y-85527000D01*
X132468880Y-85765095D02*
X131468880Y-85765095D01*
X131468880Y-85384142D01*
X131516500Y-85288904D01*
X131564119Y-85241285D01*
X131659357Y-85193666D01*
X131802214Y-85193666D01*
X131897452Y-85241285D01*
X131945071Y-85288904D01*
X131992690Y-85384142D01*
X131992690Y-85765095D01*
X132468880Y-84241285D02*
X132468880Y-84812714D01*
X132468880Y-84527000D02*
X131468880Y-84527000D01*
X131611738Y-84622238D01*
X131706976Y-84717476D01*
X131754595Y-84812714D01*
G04 #@! TO.C,U1*
X143224690Y-85260380D02*
X143796119Y-85260380D01*
X143510404Y-86260380D02*
X143510404Y-85260380D01*
X144129452Y-85736571D02*
X144462785Y-85736571D01*
X144605642Y-86260380D02*
X144129452Y-86260380D01*
X144129452Y-85260380D01*
X144605642Y-85260380D01*
X144986595Y-85974666D02*
X145462785Y-85974666D01*
X144891357Y-86260380D02*
X145224690Y-85260380D01*
X145558023Y-86260380D01*
X145843738Y-85355619D02*
X145891357Y-85308000D01*
X145986595Y-85260380D01*
X146224690Y-85260380D01*
X146319928Y-85308000D01*
X146367547Y-85355619D01*
X146415166Y-85450857D01*
X146415166Y-85546095D01*
X146367547Y-85688952D01*
X145796119Y-86260380D01*
X146415166Y-86260380D01*
X147034214Y-85260380D02*
X147129452Y-85260380D01*
X147224690Y-85308000D01*
X147272309Y-85355619D01*
X147319928Y-85450857D01*
X147367547Y-85641333D01*
X147367547Y-85879428D01*
X147319928Y-86069904D01*
X147272309Y-86165142D01*
X147224690Y-86212761D01*
X147129452Y-86260380D01*
X147034214Y-86260380D01*
X146938976Y-86212761D01*
X146891357Y-86165142D01*
X146843738Y-86069904D01*
X146796119Y-85879428D01*
X146796119Y-85641333D01*
X146843738Y-85450857D01*
X146891357Y-85355619D01*
X146938976Y-85308000D01*
X147034214Y-85260380D01*
X147748500Y-85355619D02*
X147796119Y-85308000D01*
X147891357Y-85260380D01*
X148129452Y-85260380D01*
X148224690Y-85308000D01*
X148272309Y-85355619D01*
X148319928Y-85450857D01*
X148319928Y-85546095D01*
X148272309Y-85688952D01*
X147700880Y-86260380D01*
X148319928Y-86260380D01*
X149224690Y-85260380D02*
X148748500Y-85260380D01*
X148700880Y-85736571D01*
X148748500Y-85688952D01*
X148843738Y-85641333D01*
X149081833Y-85641333D01*
X149177071Y-85688952D01*
X149224690Y-85736571D01*
X149272309Y-85831809D01*
X149272309Y-86069904D01*
X149224690Y-86165142D01*
X149177071Y-86212761D01*
X149081833Y-86260380D01*
X148843738Y-86260380D01*
X148748500Y-86212761D01*
X148700880Y-86165142D01*
X149700880Y-86260380D02*
X149700880Y-85260380D01*
X149700880Y-85641333D02*
X149796119Y-85593714D01*
X149986595Y-85593714D01*
X150081833Y-85641333D01*
X150129452Y-85688952D01*
X150177071Y-85784190D01*
X150177071Y-86069904D01*
X150129452Y-86165142D01*
X150081833Y-86212761D01*
X149986595Y-86260380D01*
X149796119Y-86260380D01*
X149700880Y-86212761D01*
X145986595Y-96480380D02*
X145986595Y-97289904D01*
X146034214Y-97385142D01*
X146081833Y-97432761D01*
X146177071Y-97480380D01*
X146367547Y-97480380D01*
X146462785Y-97432761D01*
X146510404Y-97385142D01*
X146558023Y-97289904D01*
X146558023Y-96480380D01*
X147558023Y-97480380D02*
X146986595Y-97480380D01*
X147272309Y-97480380D02*
X147272309Y-96480380D01*
X147177071Y-96623238D01*
X147081833Y-96718476D01*
X146986595Y-96766095D01*
G04 #@! TO.C,REF\002A\002A*
X165809476Y-62766080D02*
X165809476Y-61766080D01*
X166142809Y-62480366D01*
X166476142Y-61766080D01*
X166476142Y-62766080D01*
X167380904Y-62099414D02*
X167380904Y-62766080D01*
X167142809Y-61718461D02*
X166904714Y-62432747D01*
X167523761Y-62432747D01*
X130809476Y-117766080D02*
X130809476Y-116766080D01*
X131142809Y-117480366D01*
X131476142Y-116766080D01*
X131476142Y-117766080D01*
X132380904Y-117099414D02*
X132380904Y-117766080D01*
X132142809Y-116718461D02*
X131904714Y-117432747D01*
X132523761Y-117432747D01*
G04 #@! TD*
M02*
