  0
SECTION
  2
HEADER
  9
$ANGBASE
  50
0.0
  9
$ANGDIR
  70
  1
  9
$MEASUREMENT
  70
0
  0
ENDSEC
  0
SECTION
  2
TABLES
  0
TABLE
  2
LTYPE
  70
4
  0
LTYPE
  5
40F
  2
CONTINUOUS
  70
0
  3
Solid line
  72
65
  73
0
  40
0.0
  0
LTYPE
  5
410
  2
DASHDOT
 70
0
  3
Dash Dot ____ _ ____ _
 72
65
 73
4
 40
2.0
 49
1.25
 49
-0.25
 49
0.25
 49
-0.25
  0
LTYPE
  5
411
  2
DASHED
 70
0
  3
Dashed __ __ __ __ __
 72
65
 73
2
 40
0.75
 49
0.5
 49
-0.25
  0
LTYPE
  5
43B
  2
DOTTED
 70
0
  3
Dotted .  .  .  .
 72
65
 73
2
 40
0.2
 49
0.0
 49
-0.2
  0
ENDTAB
  0
TABLE
  2
STYLE
  70
4
  0
STYLE
  2
KICAD
  70
0
  40
0
  41
1
  42
1
  50
0
  71
0
  3
isocp.shx
  0
STYLE
  2
KICADB
  70
0
  40
0
  41
1
  42
1
  50
0
  71
0
  3
isocp.shx
  0
STYLE
  2
KICADI
  70
0
  40
0
  41
1
  42
1
  50
15
  71
0
  3
isocp.shx
  0
STYLE
  2
KICADBI
  70
0
  40
0
  41
1
  42
1
  50
15
  71
0
  3
isocp.shx
  0
ENDTAB
  0
TABLE
  2
LAYER
  70
30
  0
LAYER
  2
BLACK
  70
0
  62
7
  6
CONTINUOUS
  0
LAYER
  2
GRAY1
  70
0
  62
251
  6
CONTINUOUS
  0
LAYER
  2
GRAY2
  70
0
  62
8
  6
CONTINUOUS
  0
LAYER
  2
GRAY3
  70
0
  62
9
  6
CONTINUOUS
  0
LAYER
  2
WHITE
  70
0
  62
7
  6
CONTINUOUS
  0
LAYER
  2
LYELLOW
  70
0
  62
51
  6
CONTINUOUS
  0
LAYER
  2
BLUE1
  70
0
  62
178
  6
CONTINUOUS
  0
LAYER
  2
GREEN1
  70
0
  62
98
  6
CONTINUOUS
  0
LAYER
  2
CYAN1
  70
0
  62
138
  6
CONTINUOUS
  0
LAYER
  2
RED1
  70
0
  62
18
  6
CONTINUOUS
  0
LAYER
  2
MAGENTA1
  70
0
  62
228
  6
CONTINUOUS
  0
LAYER
  2
BROWN1
  70
0
  62
58
  6
CONTINUOUS
  0
LAYER
  2
BLUE2
  70
0
  62
5
  6
CONTINUOUS
  0
LAYER
  2
GREEN2
  70
0
  62
3
  6
CONTINUOUS
  0
LAYER
  2
CYAN2
  70
0
  62
4
  6
CONTINUOUS
  0
LAYER
  2
RED2
  70
0
  62
1
  6
CONTINUOUS
  0
LAYER
  2
MAGENTA2
  70
0
  62
6
  6
CONTINUOUS
  0
LAYER
  2
BROWN2
  70
0
  62
54
  6
CONTINUOUS
  0
LAYER
  2
BLUE3
  70
0
  62
171
  6
CONTINUOUS
  0
LAYER
  2
GREEN3
  70
0
  62
91
  6
CONTINUOUS
  0
LAYER
  2
CYAN3
  70
0
  62
131
  6
CONTINUOUS
  0
LAYER
  2
RED3
  70
0
  62
11
  6
CONTINUOUS
  0
LAYER
  2
MAGENTA3
  70
0
  62
221
  6
CONTINUOUS
  0
LAYER
  2
YELLOW3
  70
0
  62
2
  6
CONTINUOUS
  0
LAYER
  2
BLUE4
  70
0
  62
5
  6
CONTINUOUS
  0
LAYER
  2
GREEN4
  70
0
  62
3
  6
CONTINUOUS
  0
LAYER
  2
CYAN4
  70
0
  62
4
  6
CONTINUOUS
  0
LAYER
  2
RED4
  70
0
  62
1
  6
CONTINUOUS
  0
LAYER
  2
MAGENTA4
  70
0
  62
6
  6
CONTINUOUS
  0
LAYER
  2
YELLOW4
  70
0
  62
2
  6
CONTINUOUS
  0
ENDTAB
  0
ENDSEC
  0
SECTION
  2
ENTITIES
0
LINE
8
BLACK
6
CONTINUOUS
10
186.47
20
-46.7375
11
186.479
21
-46.7375
0
LINE
8
BLACK
6
CONTINUOUS
10
186.479
20
-46.7375
11
186.487
21
-46.7405
0
LINE
8
BLACK
6
CONTINUOUS
10
186.487
20
-46.7405
11
186.496
21
-46.7421
0
LINE
8
BLACK
6
CONTINUOUS
10
186.496
20
-46.7421
11
186.504
21
-46.7465
0
LINE
8
BLACK
6
CONTINUOUS
10
186.504
20
-46.7465
11
186.512
21
-46.7496
0
LINE
8
BLACK
6
CONTINUOUS
10
186.512
20
-46.7496
11
186.519
21
-46.7553
0
LINE
8
BLACK
6
CONTINUOUS
10
186.519
20
-46.7553
11
186.527
21
-46.7597
0
LINE
8
BLACK
6
CONTINUOUS
10
186.527
20
-46.7597
11
186.532
21
-46.7665
0
LINE
8
BLACK
6
CONTINUOUS
10
186.532
20
-46.7665
11
186.539
21
-46.7722
0
LINE
8
BLACK
6
CONTINUOUS
10
186.539
20
-46.7722
11
186.544
21
-46.7799
0
LINE
8
BLACK
6
CONTINUOUS
10
186.544
20
-46.7799
11
186.549
21
-46.7867
0
LINE
8
BLACK
6
CONTINUOUS
10
186.549
20
-46.7867
11
186.552
21
-46.7951
0
LINE
8
BLACK
6
CONTINUOUS
10
186.552
20
-46.7951
11
186.557
21
-46.8028
0
LINE
8
BLACK
6
CONTINUOUS
10
186.557
20
-46.8028
11
186.558
21
-46.8115
0
LINE
8
BLACK
6
CONTINUOUS
10
186.558
20
-46.8115
11
186.561
21
-46.8199
0
LINE
8
BLACK
6
CONTINUOUS
10
186.561
20
-46.8199
11
186.561
21
-46.8287
0
LINE
8
BLACK
6
CONTINUOUS
10
186.561
20
-46.8287
11
186.561
21
-46.8288
0
LINE
8
BLACK
6
CONTINUOUS
10
186.561
20
-46.8288
11
186.561
21
-96.8462
0
LINE
8
BLACK
6
CONTINUOUS
10
186.561
20
-96.8462
11
186.561
21
-96.8463
0
LINE
8
BLACK
6
CONTINUOUS
10
186.561
20
-96.8463
11
186.561
21
-96.8551
0
LINE
8
BLACK
6
CONTINUOUS
10
186.561
20
-96.8551
11
186.558
21
-96.8635
0
LINE
8
BLACK
6
CONTINUOUS
10
186.558
20
-96.8635
11
186.557
21
-96.8722
0
LINE
8
BLACK
6
CONTINUOUS
10
186.557
20
-96.8722
11
186.552
21
-96.8799
0
LINE
8
BLACK
6
CONTINUOUS
10
186.552
20
-96.8799
11
186.549
21
-96.8883
0
LINE
8
BLACK
6
CONTINUOUS
10
186.549
20
-96.8883
11
186.544
21
-96.8951
0
LINE
8
BLACK
6
CONTINUOUS
10
186.544
20
-96.8951
11
186.539
21
-96.9028
0
LINE
8
BLACK
6
CONTINUOUS
10
186.539
20
-96.9028
11
186.532
21
-96.9085
0
LINE
8
BLACK
6
CONTINUOUS
10
186.532
20
-96.9085
11
186.527
21
-96.9153
0
LINE
8
BLACK
6
CONTINUOUS
10
186.527
20
-96.9153
11
186.519
21
-96.9197
0
LINE
8
BLACK
6
CONTINUOUS
10
186.519
20
-96.9197
11
186.512
21
-96.9254
0
LINE
8
BLACK
6
CONTINUOUS
10
186.512
20
-96.9254
11
186.504
21
-96.9285
0
LINE
8
BLACK
6
CONTINUOUS
10
186.504
20
-96.9285
11
186.496
21
-96.9329
0
LINE
8
BLACK
6
CONTINUOUS
10
186.496
20
-96.9329
11
186.487
21
-96.9345
0
LINE
8
BLACK
6
CONTINUOUS
10
186.487
20
-96.9345
11
186.479
21
-96.9375
0
LINE
8
BLACK
6
CONTINUOUS
10
186.479
20
-96.9375
11
186.47
21
-96.9375
0
LINE
8
BLACK
6
CONTINUOUS
10
186.47
20
-96.9375
11
186.47
21
-96.9375
0
LINE
8
BLACK
6
CONTINUOUS
10
186.47
20
-96.9375
11
136.453
21
-96.9375
0
LINE
8
BLACK
6
CONTINUOUS
10
136.453
20
-96.9375
11
136.453
21
-96.9375
0
LINE
8
BLACK
6
CONTINUOUS
10
136.453
20
-96.9375
11
136.444
21
-96.9375
0
LINE
8
BLACK
6
CONTINUOUS
10
136.444
20
-96.9375
11
136.436
21
-96.9345
0
LINE
8
BLACK
6
CONTINUOUS
10
136.436
20
-96.9345
11
136.427
21
-96.9329
0
LINE
8
BLACK
6
CONTINUOUS
10
136.427
20
-96.9329
11
136.419
21
-96.9285
0
LINE
8
BLACK
6
CONTINUOUS
10
136.419
20
-96.9285
11
136.411
21
-96.9254
0
LINE
8
BLACK
6
CONTINUOUS
10
136.411
20
-96.9254
11
136.404
21
-96.9197
0
LINE
8
BLACK
6
CONTINUOUS
10
136.404
20
-96.9197
11
136.396
21
-96.9153
0
LINE
8
BLACK
6
CONTINUOUS
10
136.396
20
-96.9153
11
136.391
21
-96.9085
0
LINE
8
BLACK
6
CONTINUOUS
10
136.391
20
-96.9085
11
136.384
21
-96.9028
0
LINE
8
BLACK
6
CONTINUOUS
10
136.384
20
-96.9028
11
136.379
21
-96.8951
0
LINE
8
BLACK
6
CONTINUOUS
10
136.379
20
-96.8951
11
136.374
21
-96.8883
0
LINE
8
BLACK
6
CONTINUOUS
10
136.374
20
-96.8883
11
136.371
21
-96.8799
0
LINE
8
BLACK
6
CONTINUOUS
10
136.371
20
-96.8799
11
136.366
21
-96.8722
0
LINE
8
BLACK
6
CONTINUOUS
10
136.366
20
-96.8722
11
136.365
21
-96.8635
0
LINE
8
BLACK
6
CONTINUOUS
10
136.365
20
-96.8635
11
136.362
21
-96.8551
0
LINE
8
BLACK
6
CONTINUOUS
10
136.362
20
-96.8551
11
136.362
21
-96.8199
0
LINE
8
BLACK
6
CONTINUOUS
10
136.362
20
-96.8199
11
136.362
21
-46.8288
0
LINE
8
BLACK
6
CONTINUOUS
10
136.362
20
-46.8288
11
136.362
21
-46.8287
0
LINE
8
BLACK
6
CONTINUOUS
10
136.362
20
-46.8287
11
136.362
21
-46.8199
0
LINE
8
BLACK
6
CONTINUOUS
10
136.362
20
-46.8199
11
136.365
21
-46.8115
0
LINE
8
BLACK
6
CONTINUOUS
10
136.365
20
-46.8115
11
136.366
21
-46.8028
0
LINE
8
BLACK
6
CONTINUOUS
10
136.366
20
-46.8028
11
136.371
21
-46.7951
0
LINE
8
BLACK
6
CONTINUOUS
10
136.371
20
-46.7951
11
136.374
21
-46.7867
0
LINE
8
BLACK
6
CONTINUOUS
10
136.374
20
-46.7867
11
136.379
21
-46.7799
0
LINE
8
BLACK
6
CONTINUOUS
10
136.379
20
-46.7799
11
136.384
21
-46.7722
0
LINE
8
BLACK
6
CONTINUOUS
10
136.384
20
-46.7722
11
136.391
21
-46.7665
0
LINE
8
BLACK
6
CONTINUOUS
10
136.391
20
-46.7665
11
136.396
21
-46.7597
0
LINE
8
BLACK
6
CONTINUOUS
10
136.396
20
-46.7597
11
136.404
21
-46.7553
0
LINE
8
BLACK
6
CONTINUOUS
10
136.404
20
-46.7553
11
136.411
21
-46.7496
0
LINE
8
BLACK
6
CONTINUOUS
10
136.411
20
-46.7496
11
136.419
21
-46.7465
0
LINE
8
BLACK
6
CONTINUOUS
10
136.419
20
-46.7465
11
136.427
21
-46.7421
0
LINE
8
BLACK
6
CONTINUOUS
10
136.427
20
-46.7421
11
136.436
21
-46.7405
0
LINE
8
BLACK
6
CONTINUOUS
10
136.436
20
-46.7405
11
136.444
21
-46.7375
0
LINE
8
BLACK
6
CONTINUOUS
10
136.444
20
-46.7375
11
136.453
21
-46.7375
0
LINE
8
BLACK
6
CONTINUOUS
10
136.453
20
-46.7375
11
136.453
21
-46.7375
0
LINE
8
BLACK
6
CONTINUOUS
10
136.453
20
-46.7375
11
186.47
21
-46.7375
0
LINE
8
BLACK
6
CONTINUOUS
10
186.47
20
-46.7375
11
186.47
21
-46.7375
0
LINE
8
BLACK
6
CONTINUOUS
10
136.561
20
-46.9375
11
136.561
21
-96.7375
0
LINE
8
BLACK
6
CONTINUOUS
10
136.561
20
-96.7375
11
186.361
21
-96.7375
0
LINE
8
BLACK
6
CONTINUOUS
10
186.361
20
-96.7375
11
186.362
21
-46.9375
0
LINE
8
BLACK
6
CONTINUOUS
10
186.362
20
-46.9375
11
136.561
21
-46.9375
  0
ENDSEC
  0
EOF
