  0
SECTION
  2
HEADER
  9
$ANGBASE
  50
0.0
  9
$ANGDIR
  70
  1
  9
$MEASUREMENT
  70
0
  0
ENDSEC
  0
SECTION
  2
TABLES
  0
TABLE
  2
LTYPE
  70
4
  0
LTYPE
  5
40F
  2
CONTINUOUS
  70
0
  3
Solid line
  72
65
  73
0
  40
0.0
  0
LTYPE
  5
410
  2
DASHDOT
 70
0
  3
Dash Dot ____ _ ____ _
 72
65
 73
4
 40
2.0
 49
1.25
 49
-0.25
 49
0.25
 49
-0.25
  0
LTYPE
  5
411
  2
DASHED
 70
0
  3
Dashed __ __ __ __ __
 72
65
 73
2
 40
0.75
 49
0.5
 49
-0.25
  0
LTYPE
  5
43B
  2
DOTTED
 70
0
  3
Dotted .  .  .  .
 72
65
 73
2
 40
0.2
 49
0.0
 49
-0.2
  0
ENDTAB
  0
TABLE
  2
STYLE
  70
4
  0
STYLE
  2
KICAD
  70
0
  40
0
  41
1
  42
1
  50
0
  71
0
  3
isocp.shx
  0
STYLE
  2
KICADB
  70
0
  40
0
  41
1
  42
1
  50
0
  71
0
  3
isocp.shx
  0
STYLE
  2
KICADI
  70
0
  40
0
  41
1
  42
1
  50
15
  71
0
  3
isocp.shx
  0
STYLE
  2
KICADBI
  70
0
  40
0
  41
1
  42
1
  50
15
  71
0
  3
isocp.shx
  0
ENDTAB
  0
TABLE
  2
LAYER
  70
30
  0
LAYER
  2
BLACK
  70
0
  62
7
  6
CONTINUOUS
  0
LAYER
  2
GRAY1
  70
0
  62
251
  6
CONTINUOUS
  0
LAYER
  2
GRAY2
  70
0
  62
8
  6
CONTINUOUS
  0
LAYER
  2
GRAY3
  70
0
  62
9
  6
CONTINUOUS
  0
LAYER
  2
WHITE
  70
0
  62
7
  6
CONTINUOUS
  0
LAYER
  2
LYELLOW
  70
0
  62
51
  6
CONTINUOUS
  0
LAYER
  2
BLUE1
  70
0
  62
178
  6
CONTINUOUS
  0
LAYER
  2
GREEN1
  70
0
  62
98
  6
CONTINUOUS
  0
LAYER
  2
CYAN1
  70
0
  62
138
  6
CONTINUOUS
  0
LAYER
  2
RED1
  70
0
  62
18
  6
CONTINUOUS
  0
LAYER
  2
MAGENTA1
  70
0
  62
228
  6
CONTINUOUS
  0
LAYER
  2
BROWN1
  70
0
  62
58
  6
CONTINUOUS
  0
LAYER
  2
BLUE2
  70
0
  62
5
  6
CONTINUOUS
  0
LAYER
  2
GREEN2
  70
0
  62
3
  6
CONTINUOUS
  0
LAYER
  2
CYAN2
  70
0
  62
4
  6
CONTINUOUS
  0
LAYER
  2
RED2
  70
0
  62
1
  6
CONTINUOUS
  0
LAYER
  2
MAGENTA2
  70
0
  62
6
  6
CONTINUOUS
  0
LAYER
  2
BROWN2
  70
0
  62
54
  6
CONTINUOUS
  0
LAYER
  2
BLUE3
  70
0
  62
171
  6
CONTINUOUS
  0
LAYER
  2
GREEN3
  70
0
  62
91
  6
CONTINUOUS
  0
LAYER
  2
CYAN3
  70
0
  62
131
  6
CONTINUOUS
  0
LAYER
  2
RED3
  70
0
  62
11
  6
CONTINUOUS
  0
LAYER
  2
MAGENTA3
  70
0
  62
221
  6
CONTINUOUS
  0
LAYER
  2
YELLOW3
  70
0
  62
2
  6
CONTINUOUS
  0
LAYER
  2
BLUE4
  70
0
  62
5
  6
CONTINUOUS
  0
LAYER
  2
GREEN4
  70
0
  62
3
  6
CONTINUOUS
  0
LAYER
  2
CYAN4
  70
0
  62
4
  6
CONTINUOUS
  0
LAYER
  2
RED4
  70
0
  62
1
  6
CONTINUOUS
  0
LAYER
  2
MAGENTA4
  70
0
  62
6
  6
CONTINUOUS
  0
LAYER
  2
YELLOW4
  70
0
  62
2
  6
CONTINUOUS
  0
ENDTAB
  0
ENDSEC
  0
SECTION
  2
ENTITIES
0
CIRCLE
8
BLACK
10
170.878
20
-80.0735
40
0.4
0
CIRCLE
8
BLACK
10
170.878
20
-85.0735
40
0.4
0
CIRCLE
8
BLACK
10
160.147
20
-54.0385
40
0.5
0
CIRCLE
8
BLACK
10
165.147
20
-54.0385
40
0.5
0
CIRCLE
8
BLACK
10
155.702
20
-65.913
40
0.4
0
CIRCLE
8
BLACK
10
155.702
20
-60.913
40
0.4
0
CIRCLE
8
BLACK
10
170.624
20
-60.9765
40
0.4
0
CIRCLE
8
BLACK
10
170.624
20
-65.9765
40
0.4
0
CIRCLE
8
BLACK
10
181.737
20
-55.9435
40
0.45
0
CIRCLE
8
BLACK
10
184.277
20
-55.9435
40
0.45
0
CIRCLE
8
BLACK
10
184.277
20
-62.2935
40
0.45
0
CIRCLE
8
BLACK
10
181.737
20
-62.2935
40
0.45
0
CIRCLE
8
BLACK
10
181.737
20
-69.342
40
0.45
0
CIRCLE
8
BLACK
10
184.277
20
-69.342
40
0.45
0
LINE
8
BLACK
6
CONTINUOUS
10
180.705
20
-82.4785
11
180.803
21
-82.4689
0
LINE
8
BLACK
6
CONTINUOUS
10
180.803
20
-82.4689
11
180.896
21
-82.4404
0
LINE
8
BLACK
6
CONTINUOUS
10
180.896
20
-82.4404
11
180.983
21
-82.3942
0
LINE
8
BLACK
6
CONTINUOUS
10
180.983
20
-82.3942
11
181.059
21
-82.3321
0
LINE
8
BLACK
6
CONTINUOUS
10
181.059
20
-82.3321
11
181.121
21
-82.2563
0
LINE
8
BLACK
6
CONTINUOUS
10
181.121
20
-82.2563
11
181.167
21
-82.1698
0
LINE
8
BLACK
6
CONTINUOUS
10
181.167
20
-82.1698
11
181.195
21
-82.076
0
LINE
8
BLACK
6
CONTINUOUS
10
181.195
20
-82.076
11
181.205
21
-81.9785
0
LINE
8
BLACK
6
CONTINUOUS
10
181.205
20
-81.9785
11
181.195
21
-81.881
0
LINE
8
BLACK
6
CONTINUOUS
10
181.195
20
-81.881
11
181.167
21
-81.7872
0
LINE
8
BLACK
6
CONTINUOUS
10
181.167
20
-81.7872
11
181.121
21
-81.7007
0
LINE
8
BLACK
6
CONTINUOUS
10
181.121
20
-81.7007
11
181.059
21
-81.6249
0
LINE
8
BLACK
6
CONTINUOUS
10
181.059
20
-81.6249
11
180.983
21
-81.5628
0
LINE
8
BLACK
6
CONTINUOUS
10
180.983
20
-81.5628
11
180.896
21
-81.5166
0
LINE
8
BLACK
6
CONTINUOUS
10
180.896
20
-81.5166
11
180.803
21
-81.4881
0
LINE
8
BLACK
6
CONTINUOUS
10
180.803
20
-81.4881
11
180.705
21
-81.4785
0
LINE
8
BLACK
6
CONTINUOUS
10
180.705
20
-81.4785
11
178.705
21
-81.4785
0
LINE
8
BLACK
6
CONTINUOUS
10
178.705
20
-81.4785
11
178.607
21
-81.4881
0
LINE
8
BLACK
6
CONTINUOUS
10
178.607
20
-81.4881
11
178.514
21
-81.5166
0
LINE
8
BLACK
6
CONTINUOUS
10
178.514
20
-81.5166
11
178.427
21
-81.5628
0
LINE
8
BLACK
6
CONTINUOUS
10
178.427
20
-81.5628
11
178.351
21
-81.6249
0
LINE
8
BLACK
6
CONTINUOUS
10
178.351
20
-81.6249
11
178.289
21
-81.7007
0
LINE
8
BLACK
6
CONTINUOUS
10
178.289
20
-81.7007
11
178.243
21
-81.7872
0
LINE
8
BLACK
6
CONTINUOUS
10
178.243
20
-81.7872
11
178.215
21
-81.881
0
LINE
8
BLACK
6
CONTINUOUS
10
178.215
20
-81.881
11
178.205
21
-81.9785
0
LINE
8
BLACK
6
CONTINUOUS
10
178.205
20
-81.9785
11
178.215
21
-82.076
0
LINE
8
BLACK
6
CONTINUOUS
10
178.215
20
-82.076
11
178.243
21
-82.1698
0
LINE
8
BLACK
6
CONTINUOUS
10
178.243
20
-82.1698
11
178.289
21
-82.2563
0
LINE
8
BLACK
6
CONTINUOUS
10
178.289
20
-82.2563
11
178.351
21
-82.3321
0
LINE
8
BLACK
6
CONTINUOUS
10
178.351
20
-82.3321
11
178.427
21
-82.3942
0
LINE
8
BLACK
6
CONTINUOUS
10
178.427
20
-82.3942
11
178.514
21
-82.4404
0
LINE
8
BLACK
6
CONTINUOUS
10
178.514
20
-82.4404
11
178.607
21
-82.4689
0
LINE
8
BLACK
6
CONTINUOUS
10
178.607
20
-82.4689
11
178.705
21
-82.4785
0
LINE
8
BLACK
6
CONTINUOUS
10
178.705
20
-82.4785
11
180.705
21
-82.4785
0
LINE
8
BLACK
6
CONTINUOUS
10
180.705
20
-88.4785
11
180.803
21
-88.4689
0
LINE
8
BLACK
6
CONTINUOUS
10
180.803
20
-88.4689
11
180.896
21
-88.4404
0
LINE
8
BLACK
6
CONTINUOUS
10
180.896
20
-88.4404
11
180.983
21
-88.3942
0
LINE
8
BLACK
6
CONTINUOUS
10
180.983
20
-88.3942
11
181.059
21
-88.3321
0
LINE
8
BLACK
6
CONTINUOUS
10
181.059
20
-88.3321
11
181.121
21
-88.2563
0
LINE
8
BLACK
6
CONTINUOUS
10
181.121
20
-88.2563
11
181.167
21
-88.1698
0
LINE
8
BLACK
6
CONTINUOUS
10
181.167
20
-88.1698
11
181.195
21
-88.076
0
LINE
8
BLACK
6
CONTINUOUS
10
181.195
20
-88.076
11
181.205
21
-87.9785
0
LINE
8
BLACK
6
CONTINUOUS
10
181.205
20
-87.9785
11
181.195
21
-87.881
0
LINE
8
BLACK
6
CONTINUOUS
10
181.195
20
-87.881
11
181.167
21
-87.7872
0
LINE
8
BLACK
6
CONTINUOUS
10
181.167
20
-87.7872
11
181.121
21
-87.7007
0
LINE
8
BLACK
6
CONTINUOUS
10
181.121
20
-87.7007
11
181.059
21
-87.6249
0
LINE
8
BLACK
6
CONTINUOUS
10
181.059
20
-87.6249
11
180.983
21
-87.5628
0
LINE
8
BLACK
6
CONTINUOUS
10
180.983
20
-87.5628
11
180.896
21
-87.5166
0
LINE
8
BLACK
6
CONTINUOUS
10
180.896
20
-87.5166
11
180.803
21
-87.4881
0
LINE
8
BLACK
6
CONTINUOUS
10
180.803
20
-87.4881
11
180.705
21
-87.4785
0
LINE
8
BLACK
6
CONTINUOUS
10
180.705
20
-87.4785
11
178.705
21
-87.4785
0
LINE
8
BLACK
6
CONTINUOUS
10
178.705
20
-87.4785
11
178.607
21
-87.4881
0
LINE
8
BLACK
6
CONTINUOUS
10
178.607
20
-87.4881
11
178.514
21
-87.5166
0
LINE
8
BLACK
6
CONTINUOUS
10
178.514
20
-87.5166
11
178.427
21
-87.5628
0
LINE
8
BLACK
6
CONTINUOUS
10
178.427
20
-87.5628
11
178.351
21
-87.6249
0
LINE
8
BLACK
6
CONTINUOUS
10
178.351
20
-87.6249
11
178.289
21
-87.7007
0
LINE
8
BLACK
6
CONTINUOUS
10
178.289
20
-87.7007
11
178.243
21
-87.7872
0
LINE
8
BLACK
6
CONTINUOUS
10
178.243
20
-87.7872
11
178.215
21
-87.881
0
LINE
8
BLACK
6
CONTINUOUS
10
178.215
20
-87.881
11
178.205
21
-87.9785
0
LINE
8
BLACK
6
CONTINUOUS
10
178.205
20
-87.9785
11
178.215
21
-88.076
0
LINE
8
BLACK
6
CONTINUOUS
10
178.215
20
-88.076
11
178.243
21
-88.1698
0
LINE
8
BLACK
6
CONTINUOUS
10
178.243
20
-88.1698
11
178.289
21
-88.2563
0
LINE
8
BLACK
6
CONTINUOUS
10
178.289
20
-88.2563
11
178.351
21
-88.3321
0
LINE
8
BLACK
6
CONTINUOUS
10
178.351
20
-88.3321
11
178.427
21
-88.3942
0
LINE
8
BLACK
6
CONTINUOUS
10
178.427
20
-88.3942
11
178.514
21
-88.4404
0
LINE
8
BLACK
6
CONTINUOUS
10
178.514
20
-88.4404
11
178.607
21
-88.4689
0
LINE
8
BLACK
6
CONTINUOUS
10
178.607
20
-88.4689
11
178.705
21
-88.4785
0
LINE
8
BLACK
6
CONTINUOUS
10
178.705
20
-88.4785
11
180.705
21
-88.4785
0
LINE
8
BLACK
6
CONTINUOUS
10
183.905
20
-85.9785
11
183.915
21
-86.076
0
LINE
8
BLACK
6
CONTINUOUS
10
183.915
20
-86.076
11
183.943
21
-86.1698
0
LINE
8
BLACK
6
CONTINUOUS
10
183.943
20
-86.1698
11
183.989
21
-86.2563
0
LINE
8
BLACK
6
CONTINUOUS
10
183.989
20
-86.2563
11
184.051
21
-86.3321
0
LINE
8
BLACK
6
CONTINUOUS
10
184.051
20
-86.3321
11
184.127
21
-86.3942
0
LINE
8
BLACK
6
CONTINUOUS
10
184.127
20
-86.3942
11
184.214
21
-86.4404
0
LINE
8
BLACK
6
CONTINUOUS
10
184.214
20
-86.4404
11
184.307
21
-86.4689
0
LINE
8
BLACK
6
CONTINUOUS
10
184.307
20
-86.4689
11
184.405
21
-86.4785
0
LINE
8
BLACK
6
CONTINUOUS
10
184.405
20
-86.4785
11
184.503
21
-86.4689
0
LINE
8
BLACK
6
CONTINUOUS
10
184.503
20
-86.4689
11
184.596
21
-86.4404
0
LINE
8
BLACK
6
CONTINUOUS
10
184.596
20
-86.4404
11
184.683
21
-86.3942
0
LINE
8
BLACK
6
CONTINUOUS
10
184.683
20
-86.3942
11
184.759
21
-86.3321
0
LINE
8
BLACK
6
CONTINUOUS
10
184.759
20
-86.3321
11
184.821
21
-86.2563
0
LINE
8
BLACK
6
CONTINUOUS
10
184.821
20
-86.2563
11
184.867
21
-86.1698
0
LINE
8
BLACK
6
CONTINUOUS
10
184.867
20
-86.1698
11
184.895
21
-86.076
0
LINE
8
BLACK
6
CONTINUOUS
10
184.895
20
-86.076
11
184.905
21
-85.9785
0
LINE
8
BLACK
6
CONTINUOUS
10
184.905
20
-85.9785
11
184.905
21
-83.9785
0
LINE
8
BLACK
6
CONTINUOUS
10
184.905
20
-83.9785
11
184.895
21
-83.881
0
LINE
8
BLACK
6
CONTINUOUS
10
184.895
20
-83.881
11
184.867
21
-83.7872
0
LINE
8
BLACK
6
CONTINUOUS
10
184.867
20
-83.7872
11
184.821
21
-83.7007
0
LINE
8
BLACK
6
CONTINUOUS
10
184.821
20
-83.7007
11
184.759
21
-83.6249
0
LINE
8
BLACK
6
CONTINUOUS
10
184.759
20
-83.6249
11
184.683
21
-83.5628
0
LINE
8
BLACK
6
CONTINUOUS
10
184.683
20
-83.5628
11
184.596
21
-83.5166
0
LINE
8
BLACK
6
CONTINUOUS
10
184.596
20
-83.5166
11
184.503
21
-83.4881
0
LINE
8
BLACK
6
CONTINUOUS
10
184.503
20
-83.4881
11
184.405
21
-83.4785
0
LINE
8
BLACK
6
CONTINUOUS
10
184.405
20
-83.4785
11
184.307
21
-83.4881
0
LINE
8
BLACK
6
CONTINUOUS
10
184.307
20
-83.4881
11
184.214
21
-83.5166
0
LINE
8
BLACK
6
CONTINUOUS
10
184.214
20
-83.5166
11
184.127
21
-83.5628
0
LINE
8
BLACK
6
CONTINUOUS
10
184.127
20
-83.5628
11
184.051
21
-83.6249
0
LINE
8
BLACK
6
CONTINUOUS
10
184.051
20
-83.6249
11
183.989
21
-83.7007
0
LINE
8
BLACK
6
CONTINUOUS
10
183.989
20
-83.7007
11
183.943
21
-83.7872
0
LINE
8
BLACK
6
CONTINUOUS
10
183.943
20
-83.7872
11
183.915
21
-83.881
0
LINE
8
BLACK
6
CONTINUOUS
10
183.915
20
-83.881
11
183.905
21
-83.9785
0
LINE
8
BLACK
6
CONTINUOUS
10
183.905
20
-83.9785
11
183.905
21
-85.9785
0
CIRCLE
8
BLACK
10
140.716
20
-65.4685
40
0.5
0
CIRCLE
8
BLACK
10
140.716
20
-68.0085
40
0.5
0
CIRCLE
8
BLACK
10
140.716
20
-70.5485
40
0.5
0
CIRCLE
8
BLACK
10
140.716
20
-73.0885
40
0.5
0
CIRCLE
8
BLACK
10
140.716
20
-75.6285
40
0.5
0
CIRCLE
8
BLACK
10
140.716
20
-78.1685
40
0.5
0
CIRCLE
8
BLACK
10
140.716
20
-80.7085
40
0.5
0
CIRCLE
8
BLACK
10
140.716
20
-83.2485
40
0.5
0
CIRCLE
8
BLACK
10
140.716
20
-85.7885
40
0.5
0
CIRCLE
8
BLACK
10
140.716
20
-88.3285
40
0.5
0
CIRCLE
8
BLACK
10
140.716
20
-90.8685
40
0.5
0
CIRCLE
8
BLACK
10
140.716
20
-93.4085
40
0.5
0
CIRCLE
8
BLACK
10
148.654
20
-51.6255
40
0.508
0
CIRCLE
8
BLACK
10
148.654
20
-54.1655
40
0.508
0
CIRCLE
8
BLACK
10
146.114
20
-51.6255
40
0.508
0
CIRCLE
8
BLACK
10
146.114
20
-54.1655
40
0.508
0
CIRCLE
8
BLACK
10
143.574
20
-51.6255
40
0.508
0
CIRCLE
8
BLACK
10
143.574
20
-54.1655
40
0.508
0
CIRCLE
8
BLACK
10
171.386
20
-56.3245
40
0.4
0
CIRCLE
8
BLACK
10
173.926
20
-56.3245
40
0.4
0
CIRCLE
8
BLACK
10
170.624
20
-92.202
40
0.4
0
CIRCLE
8
BLACK
10
170.624
20
-89.662
40
0.4
0
CIRCLE
8
BLACK
10
172.022
20
-49.9745
40
0.4
0
CIRCLE
8
BLACK
10
174.562
20
-49.9745
40
0.4
0
CIRCLE
8
BLACK
10
183.769
20
-49.784
40
0.4
0
CIRCLE
8
BLACK
10
181.229
20
-49.784
40
0.4
0
CIRCLE
8
BLACK
10
150.36
20
-66.8655
40
0.55
0
CIRCLE
8
BLACK
10
145.86
20
-66.8655
40
0.55
0
CIRCLE
8
BLACK
10
150.36
20
-60.3655
40
0.55
0
CIRCLE
8
BLACK
10
145.86
20
-60.3655
40
0.55
0
CIRCLE
8
BLACK
10
178.752
20
-76.8985
40
0.55
0
CIRCLE
8
BLACK
10
181.292
20
-76.8985
40
0.55
0
CIRCLE
8
BLACK
10
183.832
20
-76.8985
40
0.55
0
CIRCLE
8
BLACK
10
158.496
20
-69.469
40
0.4
0
CIRCLE
8
BLACK
10
166.116
20
-92.329
40
0.4
0
CIRCLE
8
BLACK
10
158.496
20
-72.009
40
0.4
0
CIRCLE
8
BLACK
10
166.116
20
-89.789
40
0.4
0
CIRCLE
8
BLACK
10
158.496
20
-74.549
40
0.4
0
CIRCLE
8
BLACK
10
166.116
20
-87.249
40
0.4
0
CIRCLE
8
BLACK
10
158.496
20
-77.089
40
0.4
0
CIRCLE
8
BLACK
10
166.116
20
-84.709
40
0.4
0
CIRCLE
8
BLACK
10
158.496
20
-79.629
40
0.4
0
CIRCLE
8
BLACK
10
166.116
20
-82.169
40
0.4
0
CIRCLE
8
BLACK
10
158.496
20
-82.169
40
0.4
0
CIRCLE
8
BLACK
10
166.116
20
-79.629
40
0.4
0
CIRCLE
8
BLACK
10
158.496
20
-84.709
40
0.4
0
CIRCLE
8
BLACK
10
166.116
20
-77.089
40
0.4
0
CIRCLE
8
BLACK
10
158.496
20
-87.249
40
0.4
0
CIRCLE
8
BLACK
10
166.116
20
-74.549
40
0.4
0
CIRCLE
8
BLACK
10
158.496
20
-89.789
40
0.4
0
CIRCLE
8
BLACK
10
166.116
20
-72.009
40
0.4
0
CIRCLE
8
BLACK
10
158.496
20
-92.329
40
0.4
0
CIRCLE
8
BLACK
10
166.116
20
-69.469
40
0.4
0
CIRCLE
8
BLACK
10
161.3
20
-63.1825
40
0.4
0
CIRCLE
8
BLACK
10
165.1
20
-63.1825
40
0.4
  0
ENDSEC
  0
EOF
