G04 #@! TF.GenerationSoftware,KiCad,Pcbnew,5.0.2-5.fc29*
G04 #@! TF.CreationDate,2019-02-21T16:31:19+01:00*
G04 #@! TF.ProjectId,AVR Dev,41565220-4465-4762-9e6b-696361645f70,rev?*
G04 #@! TF.SameCoordinates,Original*
G04 #@! TF.FileFunction,Legend,Top*
G04 #@! TF.FilePolarity,Positive*
%FSLAX46Y46*%
G04 Gerber Fmt 4.6, Leading zero omitted, Abs format (unit mm)*
G04 Created by KiCad (PCBNEW 5.0.2-5.fc29) date czw, 21 lut 2019, 16:31:19*
%MOMM*%
%LPD*%
G01*
G04 APERTURE LIST*
%ADD10C,0.120000*%
%ADD11C,0.150000*%
G04 APERTURE END LIST*
D10*
G04 #@! TO.C,C1*
X171948000Y-80303500D02*
X171948000Y-84843500D01*
X169808000Y-80303500D02*
X169808000Y-84843500D01*
X171948000Y-80303500D02*
X171933000Y-80303500D01*
X169823000Y-80303500D02*
X169808000Y-80303500D01*
X171948000Y-84843500D02*
X171933000Y-84843500D01*
X169823000Y-84843500D02*
X169808000Y-84843500D01*
G04 #@! TO.C,C2*
X167767000Y-54038500D02*
G75*
G03X167767000Y-54038500I-5120000J0D01*
G01*
X162647000Y-48958500D02*
X162647000Y-59118500D01*
X162687000Y-48958500D02*
X162687000Y-59118500D01*
X162727000Y-48958500D02*
X162727000Y-59118500D01*
X162767000Y-48959500D02*
X162767000Y-59117500D01*
X162807000Y-48960500D02*
X162807000Y-59116500D01*
X162847000Y-48961500D02*
X162847000Y-59115500D01*
X162887000Y-48963500D02*
X162887000Y-59113500D01*
X162927000Y-48965500D02*
X162927000Y-59111500D01*
X162967000Y-48968500D02*
X162967000Y-59108500D01*
X163007000Y-48970500D02*
X163007000Y-59106500D01*
X163047000Y-48973500D02*
X163047000Y-59103500D01*
X163087000Y-48976500D02*
X163087000Y-59100500D01*
X163127000Y-48980500D02*
X163127000Y-59096500D01*
X163167000Y-48984500D02*
X163167000Y-59092500D01*
X163207000Y-48988500D02*
X163207000Y-59088500D01*
X163247000Y-48993500D02*
X163247000Y-59083500D01*
X163287000Y-48998500D02*
X163287000Y-59078500D01*
X163327000Y-49003500D02*
X163327000Y-59073500D01*
X163368000Y-49008500D02*
X163368000Y-59068500D01*
X163408000Y-49014500D02*
X163408000Y-59062500D01*
X163448000Y-49020500D02*
X163448000Y-59056500D01*
X163488000Y-49027500D02*
X163488000Y-59049500D01*
X163528000Y-49034500D02*
X163528000Y-59042500D01*
X163568000Y-49041500D02*
X163568000Y-59035500D01*
X163608000Y-49048500D02*
X163608000Y-59028500D01*
X163648000Y-49056500D02*
X163648000Y-59020500D01*
X163688000Y-49064500D02*
X163688000Y-59012500D01*
X163728000Y-49073500D02*
X163728000Y-59003500D01*
X163768000Y-49082500D02*
X163768000Y-58994500D01*
X163808000Y-49091500D02*
X163808000Y-58985500D01*
X163848000Y-49100500D02*
X163848000Y-58976500D01*
X163888000Y-49110500D02*
X163888000Y-58966500D01*
X163928000Y-49120500D02*
X163928000Y-52797500D01*
X163928000Y-55279500D02*
X163928000Y-58956500D01*
X163968000Y-49131500D02*
X163968000Y-52797500D01*
X163968000Y-55279500D02*
X163968000Y-58945500D01*
X164008000Y-49141500D02*
X164008000Y-52797500D01*
X164008000Y-55279500D02*
X164008000Y-58935500D01*
X164048000Y-49153500D02*
X164048000Y-52797500D01*
X164048000Y-55279500D02*
X164048000Y-58923500D01*
X164088000Y-49164500D02*
X164088000Y-52797500D01*
X164088000Y-55279500D02*
X164088000Y-58912500D01*
X164128000Y-49176500D02*
X164128000Y-52797500D01*
X164128000Y-55279500D02*
X164128000Y-58900500D01*
X164168000Y-49188500D02*
X164168000Y-52797500D01*
X164168000Y-55279500D02*
X164168000Y-58888500D01*
X164208000Y-49201500D02*
X164208000Y-52797500D01*
X164208000Y-55279500D02*
X164208000Y-58875500D01*
X164248000Y-49214500D02*
X164248000Y-52797500D01*
X164248000Y-55279500D02*
X164248000Y-58862500D01*
X164288000Y-49227500D02*
X164288000Y-52797500D01*
X164288000Y-55279500D02*
X164288000Y-58849500D01*
X164328000Y-49241500D02*
X164328000Y-52797500D01*
X164328000Y-55279500D02*
X164328000Y-58835500D01*
X164368000Y-49255500D02*
X164368000Y-52797500D01*
X164368000Y-55279500D02*
X164368000Y-58821500D01*
X164408000Y-49270500D02*
X164408000Y-52797500D01*
X164408000Y-55279500D02*
X164408000Y-58806500D01*
X164448000Y-49284500D02*
X164448000Y-52797500D01*
X164448000Y-55279500D02*
X164448000Y-58792500D01*
X164488000Y-49300500D02*
X164488000Y-52797500D01*
X164488000Y-55279500D02*
X164488000Y-58776500D01*
X164528000Y-49315500D02*
X164528000Y-52797500D01*
X164528000Y-55279500D02*
X164528000Y-58761500D01*
X164568000Y-49331500D02*
X164568000Y-52797500D01*
X164568000Y-55279500D02*
X164568000Y-58745500D01*
X164608000Y-49348500D02*
X164608000Y-52797500D01*
X164608000Y-55279500D02*
X164608000Y-58728500D01*
X164648000Y-49364500D02*
X164648000Y-52797500D01*
X164648000Y-55279500D02*
X164648000Y-58712500D01*
X164688000Y-49381500D02*
X164688000Y-52797500D01*
X164688000Y-55279500D02*
X164688000Y-58695500D01*
X164728000Y-49399500D02*
X164728000Y-52797500D01*
X164728000Y-55279500D02*
X164728000Y-58677500D01*
X164768000Y-49417500D02*
X164768000Y-52797500D01*
X164768000Y-55279500D02*
X164768000Y-58659500D01*
X164808000Y-49435500D02*
X164808000Y-52797500D01*
X164808000Y-55279500D02*
X164808000Y-58641500D01*
X164848000Y-49454500D02*
X164848000Y-52797500D01*
X164848000Y-55279500D02*
X164848000Y-58622500D01*
X164888000Y-49474500D02*
X164888000Y-52797500D01*
X164888000Y-55279500D02*
X164888000Y-58602500D01*
X164928000Y-49493500D02*
X164928000Y-52797500D01*
X164928000Y-55279500D02*
X164928000Y-58583500D01*
X164968000Y-49513500D02*
X164968000Y-52797500D01*
X164968000Y-55279500D02*
X164968000Y-58563500D01*
X165008000Y-49534500D02*
X165008000Y-52797500D01*
X165008000Y-55279500D02*
X165008000Y-58542500D01*
X165048000Y-49555500D02*
X165048000Y-52797500D01*
X165048000Y-55279500D02*
X165048000Y-58521500D01*
X165088000Y-49576500D02*
X165088000Y-52797500D01*
X165088000Y-55279500D02*
X165088000Y-58500500D01*
X165128000Y-49598500D02*
X165128000Y-52797500D01*
X165128000Y-55279500D02*
X165128000Y-58478500D01*
X165168000Y-49621500D02*
X165168000Y-52797500D01*
X165168000Y-55279500D02*
X165168000Y-58455500D01*
X165208000Y-49643500D02*
X165208000Y-52797500D01*
X165208000Y-55279500D02*
X165208000Y-58433500D01*
X165248000Y-49667500D02*
X165248000Y-52797500D01*
X165248000Y-55279500D02*
X165248000Y-58409500D01*
X165288000Y-49691500D02*
X165288000Y-52797500D01*
X165288000Y-55279500D02*
X165288000Y-58385500D01*
X165328000Y-49715500D02*
X165328000Y-52797500D01*
X165328000Y-55279500D02*
X165328000Y-58361500D01*
X165368000Y-49740500D02*
X165368000Y-52797500D01*
X165368000Y-55279500D02*
X165368000Y-58336500D01*
X165408000Y-49765500D02*
X165408000Y-52797500D01*
X165408000Y-55279500D02*
X165408000Y-58311500D01*
X165448000Y-49791500D02*
X165448000Y-52797500D01*
X165448000Y-55279500D02*
X165448000Y-58285500D01*
X165488000Y-49817500D02*
X165488000Y-52797500D01*
X165488000Y-55279500D02*
X165488000Y-58259500D01*
X165528000Y-49844500D02*
X165528000Y-52797500D01*
X165528000Y-55279500D02*
X165528000Y-58232500D01*
X165568000Y-49872500D02*
X165568000Y-52797500D01*
X165568000Y-55279500D02*
X165568000Y-58204500D01*
X165608000Y-49900500D02*
X165608000Y-52797500D01*
X165608000Y-55279500D02*
X165608000Y-58176500D01*
X165648000Y-49928500D02*
X165648000Y-52797500D01*
X165648000Y-55279500D02*
X165648000Y-58148500D01*
X165688000Y-49958500D02*
X165688000Y-52797500D01*
X165688000Y-55279500D02*
X165688000Y-58118500D01*
X165728000Y-49988500D02*
X165728000Y-52797500D01*
X165728000Y-55279500D02*
X165728000Y-58088500D01*
X165768000Y-50018500D02*
X165768000Y-52797500D01*
X165768000Y-55279500D02*
X165768000Y-58058500D01*
X165808000Y-50049500D02*
X165808000Y-52797500D01*
X165808000Y-55279500D02*
X165808000Y-58027500D01*
X165848000Y-50081500D02*
X165848000Y-52797500D01*
X165848000Y-55279500D02*
X165848000Y-57995500D01*
X165888000Y-50113500D02*
X165888000Y-52797500D01*
X165888000Y-55279500D02*
X165888000Y-57963500D01*
X165928000Y-50146500D02*
X165928000Y-52797500D01*
X165928000Y-55279500D02*
X165928000Y-57930500D01*
X165968000Y-50180500D02*
X165968000Y-52797500D01*
X165968000Y-55279500D02*
X165968000Y-57896500D01*
X166008000Y-50214500D02*
X166008000Y-52797500D01*
X166008000Y-55279500D02*
X166008000Y-57862500D01*
X166048000Y-50249500D02*
X166048000Y-52797500D01*
X166048000Y-55279500D02*
X166048000Y-57827500D01*
X166088000Y-50285500D02*
X166088000Y-52797500D01*
X166088000Y-55279500D02*
X166088000Y-57791500D01*
X166128000Y-50322500D02*
X166128000Y-52797500D01*
X166128000Y-55279500D02*
X166128000Y-57754500D01*
X166168000Y-50359500D02*
X166168000Y-52797500D01*
X166168000Y-55279500D02*
X166168000Y-57717500D01*
X166208000Y-50398500D02*
X166208000Y-52797500D01*
X166208000Y-55279500D02*
X166208000Y-57678500D01*
X166248000Y-50437500D02*
X166248000Y-52797500D01*
X166248000Y-55279500D02*
X166248000Y-57639500D01*
X166288000Y-50477500D02*
X166288000Y-52797500D01*
X166288000Y-55279500D02*
X166288000Y-57599500D01*
X166328000Y-50518500D02*
X166328000Y-52797500D01*
X166328000Y-55279500D02*
X166328000Y-57558500D01*
X166368000Y-50560500D02*
X166368000Y-52797500D01*
X166368000Y-55279500D02*
X166368000Y-57516500D01*
X166408000Y-50602500D02*
X166408000Y-57474500D01*
X166448000Y-50646500D02*
X166448000Y-57430500D01*
X166488000Y-50691500D02*
X166488000Y-57385500D01*
X166528000Y-50737500D02*
X166528000Y-57339500D01*
X166568000Y-50784500D02*
X166568000Y-57292500D01*
X166608000Y-50832500D02*
X166608000Y-57244500D01*
X166648000Y-50882500D02*
X166648000Y-57194500D01*
X166688000Y-50932500D02*
X166688000Y-57144500D01*
X166728000Y-50984500D02*
X166728000Y-57092500D01*
X166768000Y-51038500D02*
X166768000Y-57038500D01*
X166808000Y-51093500D02*
X166808000Y-56983500D01*
X166848000Y-51149500D02*
X166848000Y-56927500D01*
X166888000Y-51208500D02*
X166888000Y-56868500D01*
X166928000Y-51268500D02*
X166928000Y-56808500D01*
X166968000Y-51329500D02*
X166968000Y-56747500D01*
X167008000Y-51393500D02*
X167008000Y-56683500D01*
X167048000Y-51459500D02*
X167048000Y-56617500D01*
X167088000Y-51528500D02*
X167088000Y-56548500D01*
X167128000Y-51599500D02*
X167128000Y-56477500D01*
X167168000Y-51673500D02*
X167168000Y-56403500D01*
X167208000Y-51749500D02*
X167208000Y-56327500D01*
X167248000Y-51829500D02*
X167248000Y-56247500D01*
X167288000Y-51913500D02*
X167288000Y-56163500D01*
X167328000Y-52001500D02*
X167328000Y-56075500D01*
X167368000Y-52094500D02*
X167368000Y-55982500D01*
X167408000Y-52192500D02*
X167408000Y-55884500D01*
X167448000Y-52296500D02*
X167448000Y-55780500D01*
X167488000Y-52408500D02*
X167488000Y-55668500D01*
X167528000Y-52528500D02*
X167528000Y-55548500D01*
X167568000Y-52660500D02*
X167568000Y-55416500D01*
X167608000Y-52808500D02*
X167608000Y-55268500D01*
X167648000Y-52976500D02*
X167648000Y-55100500D01*
X167688000Y-53176500D02*
X167688000Y-54900500D01*
X167728000Y-53439500D02*
X167728000Y-54637500D01*
X157167354Y-51163500D02*
X158167354Y-51163500D01*
X157667354Y-50663500D02*
X157667354Y-51663500D01*
G04 #@! TO.C,C3*
X154632000Y-65683000D02*
X154632000Y-61143000D01*
X156772000Y-65683000D02*
X156772000Y-61143000D01*
X154632000Y-65683000D02*
X154647000Y-65683000D01*
X156757000Y-65683000D02*
X156772000Y-65683000D01*
X154632000Y-61143000D02*
X154647000Y-61143000D01*
X156757000Y-61143000D02*
X156772000Y-61143000D01*
G04 #@! TO.C,C4*
X171679000Y-61206500D02*
X171694000Y-61206500D01*
X169554000Y-61206500D02*
X169569000Y-61206500D01*
X171679000Y-65746500D02*
X171694000Y-65746500D01*
X169554000Y-65746500D02*
X169569000Y-65746500D01*
X171694000Y-65746500D02*
X171694000Y-61206500D01*
X169554000Y-65746500D02*
X169554000Y-61206500D01*
G04 #@! TO.C,D1*
X184679335Y-54864892D02*
G75*
G03X181447000Y-54707984I-1672335J-1078608D01*
G01*
X184679335Y-57022108D02*
G75*
G02X181447000Y-57179016I-1672335J1078608D01*
G01*
X184048130Y-54863663D02*
G75*
G03X181966039Y-54863500I-1041130J-1079837D01*
G01*
X184048130Y-57023337D02*
G75*
G02X181966039Y-57023500I-1041130J1079837D01*
G01*
X181447000Y-54707500D02*
X181447000Y-54863500D01*
X181447000Y-57023500D02*
X181447000Y-57179500D01*
G04 #@! TO.C,D2*
X181447000Y-63373500D02*
X181447000Y-63529500D01*
X181447000Y-61057500D02*
X181447000Y-61213500D01*
X184048130Y-63373337D02*
G75*
G02X181966039Y-63373500I-1041130J1079837D01*
G01*
X184048130Y-61213663D02*
G75*
G03X181966039Y-61213500I-1041130J-1079837D01*
G01*
X184679335Y-63372108D02*
G75*
G02X181447000Y-63529016I-1672335J1078608D01*
G01*
X184679335Y-61214892D02*
G75*
G03X181447000Y-61057984I-1672335J-1078608D01*
G01*
G04 #@! TO.C,D3*
X184679335Y-68263392D02*
G75*
G03X181447000Y-68106484I-1672335J-1078608D01*
G01*
X184679335Y-70420608D02*
G75*
G02X181447000Y-70577516I-1672335J1078608D01*
G01*
X184048130Y-68262163D02*
G75*
G03X181966039Y-68262000I-1041130J-1079837D01*
G01*
X184048130Y-70421837D02*
G75*
G02X181966039Y-70422000I-1041130J1079837D01*
G01*
X181447000Y-68106000D02*
X181447000Y-68262000D01*
X181447000Y-70422000D02*
X181447000Y-70578000D01*
G04 #@! TO.C,J1*
X175955000Y-80878500D02*
X174905000Y-80878500D01*
X174905000Y-81928500D02*
X174905000Y-80878500D01*
X184305000Y-86978500D02*
X184305000Y-95778500D01*
X184305000Y-95778500D02*
X175105000Y-95778500D01*
X181605000Y-81078500D02*
X184305000Y-81078500D01*
X184305000Y-81078500D02*
X184305000Y-82978500D01*
X175105000Y-95778500D02*
X175105000Y-81078500D01*
X175105000Y-81078500D02*
X177705000Y-81078500D01*
G04 #@! TO.C,J2*
X139386000Y-66738500D02*
X142046000Y-66738500D01*
X139386000Y-66738500D02*
X139386000Y-94738500D01*
X139386000Y-94738500D02*
X142046000Y-94738500D01*
X142046000Y-66738500D02*
X142046000Y-94738500D01*
X142046000Y-64138500D02*
X142046000Y-65468500D01*
X140716000Y-64138500D02*
X142046000Y-64138500D01*
G04 #@! TO.C,J3*
X154004000Y-57570500D02*
X138224000Y-57570500D01*
X138224000Y-57570500D02*
X138224000Y-48220500D01*
X138224000Y-48220500D02*
X154004000Y-48220500D01*
X154004000Y-48220500D02*
X154004000Y-57570500D01*
X154254000Y-47970500D02*
X151714000Y-47970500D01*
X154254000Y-47970500D02*
X154254000Y-50510500D01*
G04 #@! TO.C,R1*
X172556000Y-56324500D02*
X172486000Y-56324500D01*
X175296000Y-56324500D02*
G75*
G03X175296000Y-56324500I-1370000J0D01*
G01*
G04 #@! TO.C,R2*
X171994000Y-92202000D02*
G75*
G03X171994000Y-92202000I-1370000J0D01*
G01*
X170624000Y-90832000D02*
X170624000Y-90762000D01*
G04 #@! TO.C,R3*
X173392000Y-49974500D02*
G75*
G03X173392000Y-49974500I-1370000J0D01*
G01*
X173392000Y-49974500D02*
X173462000Y-49974500D01*
G04 #@! TO.C,R4*
X182599000Y-49784000D02*
X182669000Y-49784000D01*
X182599000Y-49784000D02*
G75*
G03X182599000Y-49784000I-1370000J0D01*
G01*
G04 #@! TO.C,SW1*
X151360000Y-65865500D02*
X151360000Y-61365500D01*
X147360000Y-67115500D02*
X148860000Y-67115500D01*
X144860000Y-61365500D02*
X144860000Y-65865500D01*
X148860000Y-60115500D02*
X147360000Y-60115500D01*
G04 #@! TO.C,U1*
X176172000Y-73628500D02*
X186412000Y-73628500D01*
X176172000Y-78269500D02*
X186412000Y-78269500D01*
X176172000Y-73628500D02*
X176172000Y-78269500D01*
X186412000Y-73628500D02*
X186412000Y-78269500D01*
X176172000Y-75138500D02*
X186412000Y-75138500D01*
X179442000Y-73628500D02*
X179442000Y-75138500D01*
X183143000Y-73628500D02*
X183143000Y-75138500D01*
G04 #@! TO.C,U2*
X163306000Y-68139000D02*
G75*
G02X161306000Y-68139000I-1000000J0D01*
G01*
X161306000Y-68139000D02*
X159656000Y-68139000D01*
X159656000Y-68139000D02*
X159656000Y-93659000D01*
X159656000Y-93659000D02*
X164956000Y-93659000D01*
X164956000Y-93659000D02*
X164956000Y-68139000D01*
X164956000Y-68139000D02*
X163306000Y-68139000D01*
G04 #@! TO.C,Y1*
X160850000Y-61332500D02*
X165550000Y-61332500D01*
X160850000Y-65032500D02*
X165550000Y-65032500D01*
X160850000Y-65032500D02*
G75*
G02X160850000Y-61332500I0J1850000D01*
G01*
X165550000Y-65032500D02*
G75*
G03X165550000Y-61332500I0J1850000D01*
G01*
G04 #@! TO.C,C1*
D11*
X173435142Y-82740166D02*
X173482761Y-82787785D01*
X173530380Y-82930642D01*
X173530380Y-83025880D01*
X173482761Y-83168738D01*
X173387523Y-83263976D01*
X173292285Y-83311595D01*
X173101809Y-83359214D01*
X172958952Y-83359214D01*
X172768476Y-83311595D01*
X172673238Y-83263976D01*
X172578000Y-83168738D01*
X172530380Y-83025880D01*
X172530380Y-82930642D01*
X172578000Y-82787785D01*
X172625619Y-82740166D01*
X173530380Y-81787785D02*
X173530380Y-82359214D01*
X173530380Y-82073500D02*
X172530380Y-82073500D01*
X172673238Y-82168738D01*
X172768476Y-82263976D01*
X172816095Y-82359214D01*
G04 #@! TO.C,C2*
X162480333Y-48145642D02*
X162432714Y-48193261D01*
X162289857Y-48240880D01*
X162194619Y-48240880D01*
X162051761Y-48193261D01*
X161956523Y-48098023D01*
X161908904Y-48002785D01*
X161861285Y-47812309D01*
X161861285Y-47669452D01*
X161908904Y-47478976D01*
X161956523Y-47383738D01*
X162051761Y-47288500D01*
X162194619Y-47240880D01*
X162289857Y-47240880D01*
X162432714Y-47288500D01*
X162480333Y-47336119D01*
X162861285Y-47336119D02*
X162908904Y-47288500D01*
X163004142Y-47240880D01*
X163242238Y-47240880D01*
X163337476Y-47288500D01*
X163385095Y-47336119D01*
X163432714Y-47431357D01*
X163432714Y-47526595D01*
X163385095Y-47669452D01*
X162813666Y-48240880D01*
X163432714Y-48240880D01*
G04 #@! TO.C,C3*
X153859142Y-63579666D02*
X153906761Y-63627285D01*
X153954380Y-63770142D01*
X153954380Y-63865380D01*
X153906761Y-64008238D01*
X153811523Y-64103476D01*
X153716285Y-64151095D01*
X153525809Y-64198714D01*
X153382952Y-64198714D01*
X153192476Y-64151095D01*
X153097238Y-64103476D01*
X153002000Y-64008238D01*
X152954380Y-63865380D01*
X152954380Y-63770142D01*
X153002000Y-63627285D01*
X153049619Y-63579666D01*
X152954380Y-63246333D02*
X152954380Y-62627285D01*
X153335333Y-62960619D01*
X153335333Y-62817761D01*
X153382952Y-62722523D01*
X153430571Y-62674904D01*
X153525809Y-62627285D01*
X153763904Y-62627285D01*
X153859142Y-62674904D01*
X153906761Y-62722523D01*
X153954380Y-62817761D01*
X153954380Y-63103476D01*
X153906761Y-63198714D01*
X153859142Y-63246333D01*
G04 #@! TO.C,C4*
X168781142Y-63643166D02*
X168828761Y-63690785D01*
X168876380Y-63833642D01*
X168876380Y-63928880D01*
X168828761Y-64071738D01*
X168733523Y-64166976D01*
X168638285Y-64214595D01*
X168447809Y-64262214D01*
X168304952Y-64262214D01*
X168114476Y-64214595D01*
X168019238Y-64166976D01*
X167924000Y-64071738D01*
X167876380Y-63928880D01*
X167876380Y-63833642D01*
X167924000Y-63690785D01*
X167971619Y-63643166D01*
X168209714Y-62786023D02*
X168876380Y-62786023D01*
X167828761Y-63024119D02*
X168543047Y-63262214D01*
X168543047Y-62643166D01*
G04 #@! TO.C,D1*
X182268904Y-53435880D02*
X182268904Y-52435880D01*
X182507000Y-52435880D01*
X182649857Y-52483500D01*
X182745095Y-52578738D01*
X182792714Y-52673976D01*
X182840333Y-52864452D01*
X182840333Y-53007309D01*
X182792714Y-53197785D01*
X182745095Y-53293023D01*
X182649857Y-53388261D01*
X182507000Y-53435880D01*
X182268904Y-53435880D01*
X183792714Y-53435880D02*
X183221285Y-53435880D01*
X183507000Y-53435880D02*
X183507000Y-52435880D01*
X183411761Y-52578738D01*
X183316523Y-52673976D01*
X183221285Y-52721595D01*
G04 #@! TO.C,D2*
X182268904Y-59785880D02*
X182268904Y-58785880D01*
X182507000Y-58785880D01*
X182649857Y-58833500D01*
X182745095Y-58928738D01*
X182792714Y-59023976D01*
X182840333Y-59214452D01*
X182840333Y-59357309D01*
X182792714Y-59547785D01*
X182745095Y-59643023D01*
X182649857Y-59738261D01*
X182507000Y-59785880D01*
X182268904Y-59785880D01*
X183221285Y-58881119D02*
X183268904Y-58833500D01*
X183364142Y-58785880D01*
X183602238Y-58785880D01*
X183697476Y-58833500D01*
X183745095Y-58881119D01*
X183792714Y-58976357D01*
X183792714Y-59071595D01*
X183745095Y-59214452D01*
X183173666Y-59785880D01*
X183792714Y-59785880D01*
G04 #@! TO.C,D3*
X182268904Y-66834380D02*
X182268904Y-65834380D01*
X182507000Y-65834380D01*
X182649857Y-65882000D01*
X182745095Y-65977238D01*
X182792714Y-66072476D01*
X182840333Y-66262952D01*
X182840333Y-66405809D01*
X182792714Y-66596285D01*
X182745095Y-66691523D01*
X182649857Y-66786761D01*
X182507000Y-66834380D01*
X182268904Y-66834380D01*
X183173666Y-65834380D02*
X183792714Y-65834380D01*
X183459380Y-66215333D01*
X183602238Y-66215333D01*
X183697476Y-66262952D01*
X183745095Y-66310571D01*
X183792714Y-66405809D01*
X183792714Y-66643904D01*
X183745095Y-66739142D01*
X183697476Y-66786761D01*
X183602238Y-66834380D01*
X183316523Y-66834380D01*
X183221285Y-66786761D01*
X183173666Y-66739142D01*
G04 #@! TO.C,J1*
X184907380Y-90761833D02*
X185621666Y-90761833D01*
X185764523Y-90809452D01*
X185859761Y-90904690D01*
X185907380Y-91047547D01*
X185907380Y-91142785D01*
X185907380Y-89761833D02*
X185907380Y-90333261D01*
X185907380Y-90047547D02*
X184907380Y-90047547D01*
X185050238Y-90142785D01*
X185145476Y-90238023D01*
X185193095Y-90333261D01*
G04 #@! TO.C,J2*
X140382666Y-62150880D02*
X140382666Y-62865166D01*
X140335047Y-63008023D01*
X140239809Y-63103261D01*
X140096952Y-63150880D01*
X140001714Y-63150880D01*
X140811238Y-62246119D02*
X140858857Y-62198500D01*
X140954095Y-62150880D01*
X141192190Y-62150880D01*
X141287428Y-62198500D01*
X141335047Y-62246119D01*
X141382666Y-62341357D01*
X141382666Y-62436595D01*
X141335047Y-62579452D01*
X140763619Y-63150880D01*
X141382666Y-63150880D01*
G04 #@! TO.C,J3*
X154710380Y-53228833D02*
X155424666Y-53228833D01*
X155567523Y-53276452D01*
X155662761Y-53371690D01*
X155710380Y-53514547D01*
X155710380Y-53609785D01*
X154710380Y-52847880D02*
X154710380Y-52228833D01*
X155091333Y-52562166D01*
X155091333Y-52419309D01*
X155138952Y-52324071D01*
X155186571Y-52276452D01*
X155281809Y-52228833D01*
X155519904Y-52228833D01*
X155615142Y-52276452D01*
X155662761Y-52324071D01*
X155710380Y-52419309D01*
X155710380Y-52705023D01*
X155662761Y-52800261D01*
X155615142Y-52847880D01*
G04 #@! TO.C,R1*
X172489333Y-59146880D02*
X172156000Y-58670690D01*
X171917904Y-59146880D02*
X171917904Y-58146880D01*
X172298857Y-58146880D01*
X172394095Y-58194500D01*
X172441714Y-58242119D01*
X172489333Y-58337357D01*
X172489333Y-58480214D01*
X172441714Y-58575452D01*
X172394095Y-58623071D01*
X172298857Y-58670690D01*
X171917904Y-58670690D01*
X173441714Y-59146880D02*
X172870285Y-59146880D01*
X173156000Y-59146880D02*
X173156000Y-58146880D01*
X173060761Y-58289738D01*
X172965523Y-58384976D01*
X172870285Y-58432595D01*
G04 #@! TO.C,R2*
X168706380Y-91098666D02*
X168230190Y-91432000D01*
X168706380Y-91670095D02*
X167706380Y-91670095D01*
X167706380Y-91289142D01*
X167754000Y-91193904D01*
X167801619Y-91146285D01*
X167896857Y-91098666D01*
X168039714Y-91098666D01*
X168134952Y-91146285D01*
X168182571Y-91193904D01*
X168230190Y-91289142D01*
X168230190Y-91670095D01*
X167801619Y-90717714D02*
X167754000Y-90670095D01*
X167706380Y-90574857D01*
X167706380Y-90336761D01*
X167754000Y-90241523D01*
X167801619Y-90193904D01*
X167896857Y-90146285D01*
X167992095Y-90146285D01*
X168134952Y-90193904D01*
X168706380Y-90765333D01*
X168706380Y-90146285D01*
G04 #@! TO.C,R3*
X173125333Y-48056880D02*
X172792000Y-47580690D01*
X172553904Y-48056880D02*
X172553904Y-47056880D01*
X172934857Y-47056880D01*
X173030095Y-47104500D01*
X173077714Y-47152119D01*
X173125333Y-47247357D01*
X173125333Y-47390214D01*
X173077714Y-47485452D01*
X173030095Y-47533071D01*
X172934857Y-47580690D01*
X172553904Y-47580690D01*
X173458666Y-47056880D02*
X174077714Y-47056880D01*
X173744380Y-47437833D01*
X173887238Y-47437833D01*
X173982476Y-47485452D01*
X174030095Y-47533071D01*
X174077714Y-47628309D01*
X174077714Y-47866404D01*
X174030095Y-47961642D01*
X173982476Y-48009261D01*
X173887238Y-48056880D01*
X173601523Y-48056880D01*
X173506285Y-48009261D01*
X173458666Y-47961642D01*
G04 #@! TO.C,R4*
X182332333Y-47866380D02*
X181999000Y-47390190D01*
X181760904Y-47866380D02*
X181760904Y-46866380D01*
X182141857Y-46866380D01*
X182237095Y-46914000D01*
X182284714Y-46961619D01*
X182332333Y-47056857D01*
X182332333Y-47199714D01*
X182284714Y-47294952D01*
X182237095Y-47342571D01*
X182141857Y-47390190D01*
X181760904Y-47390190D01*
X183189476Y-47199714D02*
X183189476Y-47866380D01*
X182951380Y-46818761D02*
X182713285Y-47533047D01*
X183332333Y-47533047D01*
G04 #@! TO.C,SW1*
X144264761Y-64948833D02*
X144312380Y-64805976D01*
X144312380Y-64567880D01*
X144264761Y-64472642D01*
X144217142Y-64425023D01*
X144121904Y-64377404D01*
X144026666Y-64377404D01*
X143931428Y-64425023D01*
X143883809Y-64472642D01*
X143836190Y-64567880D01*
X143788571Y-64758357D01*
X143740952Y-64853595D01*
X143693333Y-64901214D01*
X143598095Y-64948833D01*
X143502857Y-64948833D01*
X143407619Y-64901214D01*
X143360000Y-64853595D01*
X143312380Y-64758357D01*
X143312380Y-64520261D01*
X143360000Y-64377404D01*
X143312380Y-64044071D02*
X144312380Y-63805976D01*
X143598095Y-63615500D01*
X144312380Y-63425023D01*
X143312380Y-63186928D01*
X144312380Y-62282166D02*
X144312380Y-62853595D01*
X144312380Y-62567880D02*
X143312380Y-62567880D01*
X143455238Y-62663119D01*
X143550476Y-62758357D01*
X143598095Y-62853595D01*
G04 #@! TO.C,U1*
X180530095Y-72080880D02*
X180530095Y-72890404D01*
X180577714Y-72985642D01*
X180625333Y-73033261D01*
X180720571Y-73080880D01*
X180911047Y-73080880D01*
X181006285Y-73033261D01*
X181053904Y-72985642D01*
X181101523Y-72890404D01*
X181101523Y-72080880D01*
X182101523Y-73080880D02*
X181530095Y-73080880D01*
X181815809Y-73080880D02*
X181815809Y-72080880D01*
X181720571Y-72223738D01*
X181625333Y-72318976D01*
X181530095Y-72366595D01*
G04 #@! TO.C,U2*
X161544095Y-66591380D02*
X161544095Y-67400904D01*
X161591714Y-67496142D01*
X161639333Y-67543761D01*
X161734571Y-67591380D01*
X161925047Y-67591380D01*
X162020285Y-67543761D01*
X162067904Y-67496142D01*
X162115523Y-67400904D01*
X162115523Y-66591380D01*
X162544095Y-66686619D02*
X162591714Y-66639000D01*
X162686952Y-66591380D01*
X162925047Y-66591380D01*
X163020285Y-66639000D01*
X163067904Y-66686619D01*
X163115523Y-66781857D01*
X163115523Y-66877095D01*
X163067904Y-67019952D01*
X162496476Y-67591380D01*
X163115523Y-67591380D01*
G04 #@! TO.C,Y1*
X162723809Y-60308690D02*
X162723809Y-60784880D01*
X162390476Y-59784880D02*
X162723809Y-60308690D01*
X163057142Y-59784880D01*
X163914285Y-60784880D02*
X163342857Y-60784880D01*
X163628571Y-60784880D02*
X163628571Y-59784880D01*
X163533333Y-59927738D01*
X163438095Y-60022976D01*
X163342857Y-60070595D01*
G04 #@! TD*
M02*
