G04 #@! TF.GenerationSoftware,KiCad,Pcbnew,5.0.2-5.fc29*
G04 #@! TF.CreationDate,2019-02-21T16:31:19+01:00*
G04 #@! TF.ProjectId,AVR Dev,41565220-4465-4762-9e6b-696361645f70,rev?*
G04 #@! TF.SameCoordinates,Original*
G04 #@! TF.FileFunction,Other,Fab,Top*
%FSLAX46Y46*%
G04 Gerber Fmt 4.6, Leading zero omitted, Abs format (unit mm)*
G04 Created by KiCad (PCBNEW 5.0.2-5.fc29) date czw, 21 lut 2019, 16:31:19*
%MOMM*%
%LPD*%
G01*
G04 APERTURE LIST*
%ADD10C,0.100000*%
%ADD11C,0.150000*%
%ADD12C,0.129000*%
G04 APERTURE END LIST*
D10*
G04 #@! TO.C,C1*
X171828000Y-80423500D02*
X169928000Y-80423500D01*
X169928000Y-80423500D02*
X169928000Y-84723500D01*
X169928000Y-84723500D02*
X171828000Y-84723500D01*
X171828000Y-84723500D02*
X171828000Y-80423500D01*
G04 #@! TO.C,C2*
X167647000Y-54038500D02*
G75*
G03X167647000Y-54038500I-5000000J0D01*
G01*
X158358139Y-51851000D02*
X159358139Y-51851000D01*
X158858139Y-51351000D02*
X158858139Y-52351000D01*
G04 #@! TO.C,C3*
X154752000Y-65563000D02*
X156652000Y-65563000D01*
X156652000Y-65563000D02*
X156652000Y-61263000D01*
X156652000Y-61263000D02*
X154752000Y-61263000D01*
X154752000Y-61263000D02*
X154752000Y-65563000D01*
G04 #@! TO.C,C4*
X169674000Y-61326500D02*
X169674000Y-65626500D01*
X171574000Y-61326500D02*
X169674000Y-61326500D01*
X171574000Y-65626500D02*
X171574000Y-61326500D01*
X169674000Y-65626500D02*
X171574000Y-65626500D01*
G04 #@! TO.C,D1*
X181506445Y-57108976D02*
G75*
G03X181507000Y-54777310I1500555J1165476D01*
G01*
X184507000Y-55943500D02*
G75*
G03X184507000Y-55943500I-1500000J0D01*
G01*
X181507000Y-54777310D02*
X181507000Y-57109690D01*
G04 #@! TO.C,D2*
X181507000Y-61127310D02*
X181507000Y-63459690D01*
X184507000Y-62293500D02*
G75*
G03X184507000Y-62293500I-1500000J0D01*
G01*
X181506445Y-63458976D02*
G75*
G03X181507000Y-61127310I1500555J1165476D01*
G01*
G04 #@! TO.C,D3*
X181506445Y-70507476D02*
G75*
G03X181507000Y-68175810I1500555J1165476D01*
G01*
X184507000Y-69342000D02*
G75*
G03X184507000Y-69342000I-1500000J0D01*
G01*
X181507000Y-68175810D02*
X181507000Y-70508190D01*
G04 #@! TO.C,J1*
X175199575Y-81981713D02*
X175955000Y-81178500D01*
X175205000Y-92178500D02*
X184205000Y-92178500D01*
X175205000Y-95678500D02*
X184205000Y-95678500D01*
X184205000Y-95678500D02*
X184205000Y-81178500D01*
X184205000Y-81178500D02*
X175955000Y-81178500D01*
X175205000Y-81978500D02*
X175205000Y-95678500D01*
G04 #@! TO.C,J2*
X139446000Y-64198500D02*
X141351000Y-64198500D01*
X141351000Y-64198500D02*
X141986000Y-64833500D01*
X141986000Y-64833500D02*
X141986000Y-94678500D01*
X141986000Y-94678500D02*
X139446000Y-94678500D01*
X139446000Y-94678500D02*
X139446000Y-64198500D01*
G04 #@! TO.C,J3*
X153754000Y-57320500D02*
X138474000Y-57320500D01*
X153214000Y-56770500D02*
X139034000Y-56770500D01*
X153754000Y-48470500D02*
X138474000Y-48470500D01*
X153214000Y-49020500D02*
X148364000Y-49020500D01*
X143864000Y-49020500D02*
X139034000Y-49020500D01*
X148364000Y-49020500D02*
X148364000Y-48470500D01*
X143864000Y-49020500D02*
X143864000Y-48470500D01*
X153754000Y-57320500D02*
X153754000Y-48470500D01*
X153214000Y-56770500D02*
X153214000Y-49020500D01*
X138474000Y-57320500D02*
X138474000Y-48470500D01*
X139034000Y-56770500D02*
X139034000Y-49020500D01*
X153754000Y-57320500D02*
X153214000Y-56770500D01*
X138474000Y-57320500D02*
X139034000Y-56770500D01*
X153754000Y-48470500D02*
X153214000Y-49020500D01*
X138474000Y-48470500D02*
X139034000Y-49020500D01*
G04 #@! TO.C,R1*
X173926000Y-56324500D02*
X171386000Y-56324500D01*
X175176000Y-56324500D02*
G75*
G03X175176000Y-56324500I-1250000J0D01*
G01*
G04 #@! TO.C,R2*
X171874000Y-92202000D02*
G75*
G03X171874000Y-92202000I-1250000J0D01*
G01*
X170624000Y-92202000D02*
X170624000Y-89662000D01*
G04 #@! TO.C,R3*
X173272000Y-49974500D02*
G75*
G03X173272000Y-49974500I-1250000J0D01*
G01*
X172022000Y-49974500D02*
X174562000Y-49974500D01*
G04 #@! TO.C,R4*
X181229000Y-49784000D02*
X183769000Y-49784000D01*
X182479000Y-49784000D02*
G75*
G03X182479000Y-49784000I-1250000J0D01*
G01*
G04 #@! TO.C,SW1*
X145110000Y-63615500D02*
X145110000Y-60615500D01*
X145110000Y-60615500D02*
X151110000Y-60615500D01*
X151110000Y-60615500D02*
X151110000Y-66615500D01*
X151110000Y-66615500D02*
X145110000Y-66615500D01*
X145110000Y-66615500D02*
X145110000Y-63615500D01*
X150125564Y-63615500D02*
G75*
G03X150125564Y-63615500I-2015564J0D01*
G01*
G04 #@! TO.C,U1*
X176292000Y-73748500D02*
X176292000Y-78148500D01*
X176292000Y-78148500D02*
X186292000Y-78148500D01*
X186292000Y-78148500D02*
X186292000Y-73748500D01*
X186292000Y-73748500D02*
X176292000Y-73748500D01*
X176292000Y-75018500D02*
X186292000Y-75018500D01*
X179442000Y-73748500D02*
X179442000Y-75018500D01*
X183142000Y-73748500D02*
X183142000Y-75018500D01*
G04 #@! TO.C,U2*
X160131000Y-68199000D02*
X165481000Y-68199000D01*
X165481000Y-68199000D02*
X165481000Y-93599000D01*
X165481000Y-93599000D02*
X159131000Y-93599000D01*
X159131000Y-93599000D02*
X159131000Y-69199000D01*
X159131000Y-69199000D02*
X160131000Y-68199000D01*
G04 #@! TO.C,Y1*
X160850000Y-61532500D02*
X165550000Y-61532500D01*
X160850000Y-64832500D02*
X165550000Y-64832500D01*
X160850000Y-62032500D02*
X165550000Y-62032500D01*
X160850000Y-64332500D02*
X165550000Y-64332500D01*
X160850000Y-64832500D02*
G75*
G02X160850000Y-61532500I0J1650000D01*
G01*
X165550000Y-64832500D02*
G75*
G03X165550000Y-61532500I0J1650000D01*
G01*
X160850000Y-64332500D02*
G75*
G02X160850000Y-62032500I0J1150000D01*
G01*
X165550000Y-64332500D02*
G75*
G03X165550000Y-62032500I0J1150000D01*
G01*
G04 #@! TD*
G04 #@! TO.C,C1*
D11*
X168130380Y-83216357D02*
X168130380Y-83692547D01*
X168606571Y-83740166D01*
X168558952Y-83692547D01*
X168511333Y-83597309D01*
X168511333Y-83359214D01*
X168558952Y-83263976D01*
X168606571Y-83216357D01*
X168701809Y-83168738D01*
X168939904Y-83168738D01*
X169035142Y-83216357D01*
X169082761Y-83263976D01*
X169130380Y-83359214D01*
X169130380Y-83597309D01*
X169082761Y-83692547D01*
X169035142Y-83740166D01*
X168463714Y-82740166D02*
X169463714Y-82740166D01*
X168511333Y-82740166D02*
X168463714Y-82644928D01*
X168463714Y-82454452D01*
X168511333Y-82359214D01*
X168558952Y-82311595D01*
X168654190Y-82263976D01*
X168939904Y-82263976D01*
X169035142Y-82311595D01*
X169082761Y-82359214D01*
X169130380Y-82454452D01*
X169130380Y-82644928D01*
X169082761Y-82740166D01*
X168606571Y-81502071D02*
X168606571Y-81835404D01*
X169130380Y-81835404D02*
X168130380Y-81835404D01*
X168130380Y-81359214D01*
D12*
X171185142Y-82716833D02*
X171226095Y-82757785D01*
X171267047Y-82880642D01*
X171267047Y-82962547D01*
X171226095Y-83085404D01*
X171144190Y-83167309D01*
X171062285Y-83208261D01*
X170898476Y-83249214D01*
X170775619Y-83249214D01*
X170611809Y-83208261D01*
X170529904Y-83167309D01*
X170448000Y-83085404D01*
X170407047Y-82962547D01*
X170407047Y-82880642D01*
X170448000Y-82757785D01*
X170488952Y-82716833D01*
X171267047Y-81897785D02*
X171267047Y-82389214D01*
X171267047Y-82143500D02*
X170407047Y-82143500D01*
X170529904Y-82225404D01*
X170611809Y-82307309D01*
X170652761Y-82389214D01*
G04 #@! TO.C,C2*
D11*
X161099380Y-60740880D02*
X160527952Y-60740880D01*
X160813666Y-60740880D02*
X160813666Y-59740880D01*
X160718428Y-59883738D01*
X160623190Y-59978976D01*
X160527952Y-60026595D01*
X161718428Y-59740880D02*
X161813666Y-59740880D01*
X161908904Y-59788500D01*
X161956523Y-59836119D01*
X162004142Y-59931357D01*
X162051761Y-60121833D01*
X162051761Y-60359928D01*
X162004142Y-60550404D01*
X161956523Y-60645642D01*
X161908904Y-60693261D01*
X161813666Y-60740880D01*
X161718428Y-60740880D01*
X161623190Y-60693261D01*
X161575571Y-60645642D01*
X161527952Y-60550404D01*
X161480333Y-60359928D01*
X161480333Y-60121833D01*
X161527952Y-59931357D01*
X161575571Y-59836119D01*
X161623190Y-59788500D01*
X161718428Y-59740880D01*
X162670809Y-59740880D02*
X162766047Y-59740880D01*
X162861285Y-59788500D01*
X162908904Y-59836119D01*
X162956523Y-59931357D01*
X163004142Y-60121833D01*
X163004142Y-60359928D01*
X162956523Y-60550404D01*
X162908904Y-60645642D01*
X162861285Y-60693261D01*
X162766047Y-60740880D01*
X162670809Y-60740880D01*
X162575571Y-60693261D01*
X162527952Y-60645642D01*
X162480333Y-60550404D01*
X162432714Y-60359928D01*
X162432714Y-60121833D01*
X162480333Y-59931357D01*
X162527952Y-59836119D01*
X162575571Y-59788500D01*
X162670809Y-59740880D01*
X163861285Y-60074214D02*
X163861285Y-60740880D01*
X163432714Y-60074214D02*
X163432714Y-60598023D01*
X163480333Y-60693261D01*
X163575571Y-60740880D01*
X163718428Y-60740880D01*
X163813666Y-60693261D01*
X163861285Y-60645642D01*
X164670809Y-60217071D02*
X164337476Y-60217071D01*
X164337476Y-60740880D02*
X164337476Y-59740880D01*
X164813666Y-59740880D01*
X162480333Y-54395642D02*
X162432714Y-54443261D01*
X162289857Y-54490880D01*
X162194619Y-54490880D01*
X162051761Y-54443261D01*
X161956523Y-54348023D01*
X161908904Y-54252785D01*
X161861285Y-54062309D01*
X161861285Y-53919452D01*
X161908904Y-53728976D01*
X161956523Y-53633738D01*
X162051761Y-53538500D01*
X162194619Y-53490880D01*
X162289857Y-53490880D01*
X162432714Y-53538500D01*
X162480333Y-53586119D01*
X162861285Y-53586119D02*
X162908904Y-53538500D01*
X163004142Y-53490880D01*
X163242238Y-53490880D01*
X163337476Y-53538500D01*
X163385095Y-53586119D01*
X163432714Y-53681357D01*
X163432714Y-53776595D01*
X163385095Y-53919452D01*
X162813666Y-54490880D01*
X163432714Y-54490880D01*
G04 #@! TO.C,C3*
X157449619Y-65055857D02*
X157402000Y-65008238D01*
X157354380Y-64913000D01*
X157354380Y-64674904D01*
X157402000Y-64579666D01*
X157449619Y-64532047D01*
X157544857Y-64484428D01*
X157640095Y-64484428D01*
X157782952Y-64532047D01*
X158354380Y-65103476D01*
X158354380Y-64484428D01*
X157449619Y-64103476D02*
X157402000Y-64055857D01*
X157354380Y-63960619D01*
X157354380Y-63722523D01*
X157402000Y-63627285D01*
X157449619Y-63579666D01*
X157544857Y-63532047D01*
X157640095Y-63532047D01*
X157782952Y-63579666D01*
X158354380Y-64151095D01*
X158354380Y-63532047D01*
X157687714Y-63103476D02*
X158687714Y-63103476D01*
X157735333Y-63103476D02*
X157687714Y-63008238D01*
X157687714Y-62817761D01*
X157735333Y-62722523D01*
X157782952Y-62674904D01*
X157878190Y-62627285D01*
X158163904Y-62627285D01*
X158259142Y-62674904D01*
X158306761Y-62722523D01*
X158354380Y-62817761D01*
X158354380Y-63008238D01*
X158306761Y-63103476D01*
X157830571Y-61865380D02*
X157830571Y-62198714D01*
X158354380Y-62198714D02*
X157354380Y-62198714D01*
X157354380Y-61722523D01*
D12*
X156009142Y-63556333D02*
X156050095Y-63597285D01*
X156091047Y-63720142D01*
X156091047Y-63802047D01*
X156050095Y-63924904D01*
X155968190Y-64006809D01*
X155886285Y-64047761D01*
X155722476Y-64088714D01*
X155599619Y-64088714D01*
X155435809Y-64047761D01*
X155353904Y-64006809D01*
X155272000Y-63924904D01*
X155231047Y-63802047D01*
X155231047Y-63720142D01*
X155272000Y-63597285D01*
X155312952Y-63556333D01*
X155231047Y-63269666D02*
X155231047Y-62737285D01*
X155558666Y-63023952D01*
X155558666Y-62901095D01*
X155599619Y-62819190D01*
X155640571Y-62778238D01*
X155722476Y-62737285D01*
X155927238Y-62737285D01*
X156009142Y-62778238D01*
X156050095Y-62819190D01*
X156091047Y-62901095D01*
X156091047Y-63146809D01*
X156050095Y-63228714D01*
X156009142Y-63269666D01*
G04 #@! TO.C,C4*
D11*
X172371619Y-65119357D02*
X172324000Y-65071738D01*
X172276380Y-64976500D01*
X172276380Y-64738404D01*
X172324000Y-64643166D01*
X172371619Y-64595547D01*
X172466857Y-64547928D01*
X172562095Y-64547928D01*
X172704952Y-64595547D01*
X173276380Y-65166976D01*
X173276380Y-64547928D01*
X172371619Y-64166976D02*
X172324000Y-64119357D01*
X172276380Y-64024119D01*
X172276380Y-63786023D01*
X172324000Y-63690785D01*
X172371619Y-63643166D01*
X172466857Y-63595547D01*
X172562095Y-63595547D01*
X172704952Y-63643166D01*
X173276380Y-64214595D01*
X173276380Y-63595547D01*
X172609714Y-63166976D02*
X173609714Y-63166976D01*
X172657333Y-63166976D02*
X172609714Y-63071738D01*
X172609714Y-62881261D01*
X172657333Y-62786023D01*
X172704952Y-62738404D01*
X172800190Y-62690785D01*
X173085904Y-62690785D01*
X173181142Y-62738404D01*
X173228761Y-62786023D01*
X173276380Y-62881261D01*
X173276380Y-63071738D01*
X173228761Y-63166976D01*
X172752571Y-61928880D02*
X172752571Y-62262214D01*
X173276380Y-62262214D02*
X172276380Y-62262214D01*
X172276380Y-61786023D01*
D12*
X170931142Y-63619833D02*
X170972095Y-63660785D01*
X171013047Y-63783642D01*
X171013047Y-63865547D01*
X170972095Y-63988404D01*
X170890190Y-64070309D01*
X170808285Y-64111261D01*
X170644476Y-64152214D01*
X170521619Y-64152214D01*
X170357809Y-64111261D01*
X170275904Y-64070309D01*
X170194000Y-63988404D01*
X170153047Y-63865547D01*
X170153047Y-63783642D01*
X170194000Y-63660785D01*
X170234952Y-63619833D01*
X170439714Y-62882690D02*
X171013047Y-62882690D01*
X170112095Y-63087452D02*
X170726380Y-63292214D01*
X170726380Y-62759833D01*
G04 #@! TO.C,D1*
D11*
X182054619Y-59355880D02*
X182054619Y-58689214D01*
X182054619Y-58879690D02*
X182102238Y-58784452D01*
X182149857Y-58736833D01*
X182245095Y-58689214D01*
X182340333Y-58689214D01*
X183054619Y-59308261D02*
X182959380Y-59355880D01*
X182768904Y-59355880D01*
X182673666Y-59308261D01*
X182626047Y-59213023D01*
X182626047Y-58832071D01*
X182673666Y-58736833D01*
X182768904Y-58689214D01*
X182959380Y-58689214D01*
X183054619Y-58736833D01*
X183102238Y-58832071D01*
X183102238Y-58927309D01*
X182626047Y-59022547D01*
X183959380Y-59355880D02*
X183959380Y-58355880D01*
X183959380Y-59308261D02*
X183864142Y-59355880D01*
X183673666Y-59355880D01*
X183578428Y-59308261D01*
X183530809Y-59260642D01*
X183483190Y-59165404D01*
X183483190Y-58879690D01*
X183530809Y-58784452D01*
X183578428Y-58736833D01*
X183673666Y-58689214D01*
X183864142Y-58689214D01*
X183959380Y-58736833D01*
G04 #@! TO.C,D2*
X181602238Y-65039214D02*
X181602238Y-65848738D01*
X181554619Y-65943976D01*
X181507000Y-65991595D01*
X181411761Y-66039214D01*
X181268904Y-66039214D01*
X181173666Y-65991595D01*
X181602238Y-65658261D02*
X181507000Y-65705880D01*
X181316523Y-65705880D01*
X181221285Y-65658261D01*
X181173666Y-65610642D01*
X181126047Y-65515404D01*
X181126047Y-65229690D01*
X181173666Y-65134452D01*
X181221285Y-65086833D01*
X181316523Y-65039214D01*
X181507000Y-65039214D01*
X181602238Y-65086833D01*
X182078428Y-65705880D02*
X182078428Y-65039214D01*
X182078428Y-65229690D02*
X182126047Y-65134452D01*
X182173666Y-65086833D01*
X182268904Y-65039214D01*
X182364142Y-65039214D01*
X183078428Y-65658261D02*
X182983190Y-65705880D01*
X182792714Y-65705880D01*
X182697476Y-65658261D01*
X182649857Y-65563023D01*
X182649857Y-65182071D01*
X182697476Y-65086833D01*
X182792714Y-65039214D01*
X182983190Y-65039214D01*
X183078428Y-65086833D01*
X183126047Y-65182071D01*
X183126047Y-65277309D01*
X182649857Y-65372547D01*
X183935571Y-65658261D02*
X183840333Y-65705880D01*
X183649857Y-65705880D01*
X183554619Y-65658261D01*
X183507000Y-65563023D01*
X183507000Y-65182071D01*
X183554619Y-65086833D01*
X183649857Y-65039214D01*
X183840333Y-65039214D01*
X183935571Y-65086833D01*
X183983190Y-65182071D01*
X183983190Y-65277309D01*
X183507000Y-65372547D01*
X184411761Y-65039214D02*
X184411761Y-65705880D01*
X184411761Y-65134452D02*
X184459380Y-65086833D01*
X184554619Y-65039214D01*
X184697476Y-65039214D01*
X184792714Y-65086833D01*
X184840333Y-65182071D01*
X184840333Y-65705880D01*
G04 #@! TO.C,D3*
X180840333Y-72087714D02*
X181078428Y-72754380D01*
X181316523Y-72087714D02*
X181078428Y-72754380D01*
X180983190Y-72992476D01*
X180935571Y-73040095D01*
X180840333Y-73087714D01*
X182078428Y-72706761D02*
X181983190Y-72754380D01*
X181792714Y-72754380D01*
X181697476Y-72706761D01*
X181649857Y-72611523D01*
X181649857Y-72230571D01*
X181697476Y-72135333D01*
X181792714Y-72087714D01*
X181983190Y-72087714D01*
X182078428Y-72135333D01*
X182126047Y-72230571D01*
X182126047Y-72325809D01*
X181649857Y-72421047D01*
X182697476Y-72754380D02*
X182602238Y-72706761D01*
X182554619Y-72611523D01*
X182554619Y-71754380D01*
X183221285Y-72754380D02*
X183126047Y-72706761D01*
X183078428Y-72611523D01*
X183078428Y-71754380D01*
X183745095Y-72754380D02*
X183649857Y-72706761D01*
X183602238Y-72659142D01*
X183554619Y-72563904D01*
X183554619Y-72278190D01*
X183602238Y-72182952D01*
X183649857Y-72135333D01*
X183745095Y-72087714D01*
X183887952Y-72087714D01*
X183983190Y-72135333D01*
X184030809Y-72182952D01*
X184078428Y-72278190D01*
X184078428Y-72563904D01*
X184030809Y-72659142D01*
X183983190Y-72706761D01*
X183887952Y-72754380D01*
X183745095Y-72754380D01*
X184411761Y-72087714D02*
X184602238Y-72754380D01*
X184792714Y-72278190D01*
X184983190Y-72754380D01*
X185173666Y-72087714D01*
G04 #@! TO.C,J1*
X173657380Y-90940404D02*
X174371666Y-90940404D01*
X174514523Y-90988023D01*
X174609761Y-91083261D01*
X174657380Y-91226119D01*
X174657380Y-91321357D01*
X174657380Y-90035642D02*
X174133571Y-90035642D01*
X174038333Y-90083261D01*
X173990714Y-90178500D01*
X173990714Y-90368976D01*
X174038333Y-90464214D01*
X174609761Y-90035642D02*
X174657380Y-90130880D01*
X174657380Y-90368976D01*
X174609761Y-90464214D01*
X174514523Y-90511833D01*
X174419285Y-90511833D01*
X174324047Y-90464214D01*
X174276428Y-90368976D01*
X174276428Y-90130880D01*
X174228809Y-90035642D01*
X174609761Y-89130880D02*
X174657380Y-89226119D01*
X174657380Y-89416595D01*
X174609761Y-89511833D01*
X174562142Y-89559452D01*
X174466904Y-89607071D01*
X174181190Y-89607071D01*
X174085952Y-89559452D01*
X174038333Y-89511833D01*
X173990714Y-89416595D01*
X173990714Y-89226119D01*
X174038333Y-89130880D01*
X174657380Y-88702309D02*
X173657380Y-88702309D01*
X174276428Y-88607071D02*
X174657380Y-88321357D01*
X173990714Y-88321357D02*
X174371666Y-88702309D01*
X174276428Y-87892785D02*
X174276428Y-87130880D01*
X174657380Y-86654690D02*
X173657380Y-86654690D01*
X173657380Y-86416595D01*
X173705000Y-86273738D01*
X173800238Y-86178500D01*
X173895476Y-86130880D01*
X174085952Y-86083261D01*
X174228809Y-86083261D01*
X174419285Y-86130880D01*
X174514523Y-86178500D01*
X174609761Y-86273738D01*
X174657380Y-86416595D01*
X174657380Y-86654690D01*
X174562142Y-85083261D02*
X174609761Y-85130880D01*
X174657380Y-85273738D01*
X174657380Y-85368976D01*
X174609761Y-85511833D01*
X174514523Y-85607071D01*
X174419285Y-85654690D01*
X174228809Y-85702309D01*
X174085952Y-85702309D01*
X173895476Y-85654690D01*
X173800238Y-85607071D01*
X173705000Y-85511833D01*
X173657380Y-85368976D01*
X173657380Y-85273738D01*
X173705000Y-85130880D01*
X173752619Y-85083261D01*
X176207380Y-85311833D02*
X176921666Y-85311833D01*
X177064523Y-85359452D01*
X177159761Y-85454690D01*
X177207380Y-85597547D01*
X177207380Y-85692785D01*
X177207380Y-84311833D02*
X177207380Y-84883261D01*
X177207380Y-84597547D02*
X176207380Y-84597547D01*
X176350238Y-84692785D01*
X176445476Y-84788023D01*
X176493095Y-84883261D01*
G04 #@! TO.C,J2*
X138692785Y-96496142D02*
X138645166Y-96543761D01*
X138502309Y-96591380D01*
X138407071Y-96591380D01*
X138264214Y-96543761D01*
X138168976Y-96448523D01*
X138121357Y-96353285D01*
X138073738Y-96162809D01*
X138073738Y-96019952D01*
X138121357Y-95829476D01*
X138168976Y-95734238D01*
X138264214Y-95639000D01*
X138407071Y-95591380D01*
X138502309Y-95591380D01*
X138645166Y-95639000D01*
X138692785Y-95686619D01*
X139264214Y-96591380D02*
X139168976Y-96543761D01*
X139121357Y-96496142D01*
X139073738Y-96400904D01*
X139073738Y-96115190D01*
X139121357Y-96019952D01*
X139168976Y-95972333D01*
X139264214Y-95924714D01*
X139407071Y-95924714D01*
X139502309Y-95972333D01*
X139549928Y-96019952D01*
X139597547Y-96115190D01*
X139597547Y-96400904D01*
X139549928Y-96496142D01*
X139502309Y-96543761D01*
X139407071Y-96591380D01*
X139264214Y-96591380D01*
X140026119Y-95924714D02*
X140026119Y-96591380D01*
X140026119Y-96019952D02*
X140073738Y-95972333D01*
X140168976Y-95924714D01*
X140311833Y-95924714D01*
X140407071Y-95972333D01*
X140454690Y-96067571D01*
X140454690Y-96591380D01*
X140930880Y-95924714D02*
X140930880Y-96591380D01*
X140930880Y-96019952D02*
X140978500Y-95972333D01*
X141073738Y-95924714D01*
X141216595Y-95924714D01*
X141311833Y-95972333D01*
X141359452Y-96067571D01*
X141359452Y-96591380D01*
X141597547Y-96686619D02*
X142359452Y-96686619D01*
X142788023Y-95591380D02*
X142883261Y-95591380D01*
X142978500Y-95639000D01*
X143026119Y-95686619D01*
X143073738Y-95781857D01*
X143121357Y-95972333D01*
X143121357Y-96210428D01*
X143073738Y-96400904D01*
X143026119Y-96496142D01*
X142978500Y-96543761D01*
X142883261Y-96591380D01*
X142788023Y-96591380D01*
X142692785Y-96543761D01*
X142645166Y-96496142D01*
X142597547Y-96400904D01*
X142549928Y-96210428D01*
X142549928Y-95972333D01*
X142597547Y-95781857D01*
X142645166Y-95686619D01*
X142692785Y-95639000D01*
X142788023Y-95591380D01*
X144073738Y-96591380D02*
X143502309Y-96591380D01*
X143788023Y-96591380D02*
X143788023Y-95591380D01*
X143692785Y-95734238D01*
X143597547Y-95829476D01*
X143502309Y-95877095D01*
X144407071Y-96591380D02*
X144930880Y-95924714D01*
X144407071Y-95924714D02*
X144930880Y-96591380D01*
X145835642Y-96591380D02*
X145264214Y-96591380D01*
X145549928Y-96591380D02*
X145549928Y-95591380D01*
X145454690Y-95734238D01*
X145359452Y-95829476D01*
X145264214Y-95877095D01*
X146216595Y-95686619D02*
X146264214Y-95639000D01*
X146359452Y-95591380D01*
X146597547Y-95591380D01*
X146692785Y-95639000D01*
X146740404Y-95686619D01*
X146788023Y-95781857D01*
X146788023Y-95877095D01*
X146740404Y-96019952D01*
X146168976Y-96591380D01*
X146788023Y-96591380D01*
X146978500Y-96686619D02*
X147740404Y-96686619D01*
X148311833Y-96067571D02*
X147978500Y-96067571D01*
X147978500Y-96591380D02*
X147978500Y-95591380D01*
X148454690Y-95591380D01*
X149216595Y-96543761D02*
X149121357Y-96591380D01*
X148930880Y-96591380D01*
X148835642Y-96543761D01*
X148788023Y-96448523D01*
X148788023Y-96067571D01*
X148835642Y-95972333D01*
X148930880Y-95924714D01*
X149121357Y-95924714D01*
X149216595Y-95972333D01*
X149264214Y-96067571D01*
X149264214Y-96162809D01*
X148788023Y-96258047D01*
X149692785Y-96591380D02*
X149692785Y-95924714D01*
X149692785Y-96019952D02*
X149740404Y-95972333D01*
X149835642Y-95924714D01*
X149978500Y-95924714D01*
X150073738Y-95972333D01*
X150121357Y-96067571D01*
X150121357Y-96591380D01*
X150121357Y-96067571D02*
X150168976Y-95972333D01*
X150264214Y-95924714D01*
X150407071Y-95924714D01*
X150502309Y-95972333D01*
X150549928Y-96067571D01*
X150549928Y-96591380D01*
X151454690Y-96591380D02*
X151454690Y-96067571D01*
X151407071Y-95972333D01*
X151311833Y-95924714D01*
X151121357Y-95924714D01*
X151026119Y-95972333D01*
X151454690Y-96543761D02*
X151359452Y-96591380D01*
X151121357Y-96591380D01*
X151026119Y-96543761D01*
X150978500Y-96448523D01*
X150978500Y-96353285D01*
X151026119Y-96258047D01*
X151121357Y-96210428D01*
X151359452Y-96210428D01*
X151454690Y-96162809D01*
X152073738Y-96591380D02*
X151978500Y-96543761D01*
X151930880Y-96448523D01*
X151930880Y-95591380D01*
X152835642Y-96543761D02*
X152740404Y-96591380D01*
X152549928Y-96591380D01*
X152454690Y-96543761D01*
X152407071Y-96448523D01*
X152407071Y-96067571D01*
X152454690Y-95972333D01*
X152549928Y-95924714D01*
X152740404Y-95924714D01*
X152835642Y-95972333D01*
X152883261Y-96067571D01*
X152883261Y-96162809D01*
X152407071Y-96258047D01*
X140168380Y-79771833D02*
X140882666Y-79771833D01*
X141025523Y-79819452D01*
X141120761Y-79914690D01*
X141168380Y-80057547D01*
X141168380Y-80152785D01*
X140263619Y-79343261D02*
X140216000Y-79295642D01*
X140168380Y-79200404D01*
X140168380Y-78962309D01*
X140216000Y-78867071D01*
X140263619Y-78819452D01*
X140358857Y-78771833D01*
X140454095Y-78771833D01*
X140596952Y-78819452D01*
X141168380Y-79390880D01*
X141168380Y-78771833D01*
G04 #@! TO.C,J3*
X137136666Y-56990738D02*
X137136666Y-56514547D01*
X137422380Y-57085976D02*
X136422380Y-56752642D01*
X137422380Y-56419309D01*
X136422380Y-56228833D02*
X137422380Y-55895500D01*
X136422380Y-55562166D01*
X137422380Y-54657404D02*
X136946190Y-54990738D01*
X137422380Y-55228833D02*
X136422380Y-55228833D01*
X136422380Y-54847880D01*
X136470000Y-54752642D01*
X136517619Y-54705023D01*
X136612857Y-54657404D01*
X136755714Y-54657404D01*
X136850952Y-54705023D01*
X136898571Y-54752642D01*
X136946190Y-54847880D01*
X136946190Y-55228833D01*
X137041428Y-54228833D02*
X137041428Y-53466928D01*
X137422380Y-52990738D02*
X136422380Y-52990738D01*
X137374761Y-52562166D02*
X137422380Y-52419309D01*
X137422380Y-52181214D01*
X137374761Y-52085976D01*
X137327142Y-52038357D01*
X137231904Y-51990738D01*
X137136666Y-51990738D01*
X137041428Y-52038357D01*
X136993809Y-52085976D01*
X136946190Y-52181214D01*
X136898571Y-52371690D01*
X136850952Y-52466928D01*
X136803333Y-52514547D01*
X136708095Y-52562166D01*
X136612857Y-52562166D01*
X136517619Y-52514547D01*
X136470000Y-52466928D01*
X136422380Y-52371690D01*
X136422380Y-52133595D01*
X136470000Y-51990738D01*
X137422380Y-51562166D02*
X136422380Y-51562166D01*
X136422380Y-51181214D01*
X136470000Y-51085976D01*
X136517619Y-51038357D01*
X136612857Y-50990738D01*
X136755714Y-50990738D01*
X136850952Y-51038357D01*
X136898571Y-51085976D01*
X136946190Y-51181214D01*
X136946190Y-51562166D01*
X137041428Y-50562166D02*
X137041428Y-49800261D01*
X136422380Y-48895500D02*
X136422380Y-49085976D01*
X136470000Y-49181214D01*
X136517619Y-49228833D01*
X136660476Y-49324071D01*
X136850952Y-49371690D01*
X137231904Y-49371690D01*
X137327142Y-49324071D01*
X137374761Y-49276452D01*
X137422380Y-49181214D01*
X137422380Y-48990738D01*
X137374761Y-48895500D01*
X137327142Y-48847880D01*
X137231904Y-48800261D01*
X136993809Y-48800261D01*
X136898571Y-48847880D01*
X136850952Y-48895500D01*
X136803333Y-48990738D01*
X136803333Y-49181214D01*
X136850952Y-49276452D01*
X136898571Y-49324071D01*
X136993809Y-49371690D01*
X145566380Y-53228833D02*
X146280666Y-53228833D01*
X146423523Y-53276452D01*
X146518761Y-53371690D01*
X146566380Y-53514547D01*
X146566380Y-53609785D01*
X145566380Y-52847880D02*
X145566380Y-52228833D01*
X145947333Y-52562166D01*
X145947333Y-52419309D01*
X145994952Y-52324071D01*
X146042571Y-52276452D01*
X146137809Y-52228833D01*
X146375904Y-52228833D01*
X146471142Y-52276452D01*
X146518761Y-52324071D01*
X146566380Y-52419309D01*
X146566380Y-52705023D01*
X146518761Y-52800261D01*
X146471142Y-52847880D01*
G04 #@! TO.C,R1*
X172060761Y-54406880D02*
X171489333Y-54406880D01*
X171775047Y-54406880D02*
X171775047Y-53406880D01*
X171679809Y-53549738D01*
X171584571Y-53644976D01*
X171489333Y-53692595D01*
X172679809Y-53406880D02*
X172775047Y-53406880D01*
X172870285Y-53454500D01*
X172917904Y-53502119D01*
X172965523Y-53597357D01*
X173013142Y-53787833D01*
X173013142Y-54025928D01*
X172965523Y-54216404D01*
X172917904Y-54311642D01*
X172870285Y-54359261D01*
X172775047Y-54406880D01*
X172679809Y-54406880D01*
X172584571Y-54359261D01*
X172536952Y-54311642D01*
X172489333Y-54216404D01*
X172441714Y-54025928D01*
X172441714Y-53787833D01*
X172489333Y-53597357D01*
X172536952Y-53502119D01*
X172584571Y-53454500D01*
X172679809Y-53406880D01*
X173441714Y-54406880D02*
X173441714Y-53406880D01*
X173536952Y-54025928D02*
X173822666Y-54406880D01*
X173822666Y-53740214D02*
X173441714Y-54121166D01*
X172489333Y-59146880D02*
X172156000Y-58670690D01*
X171917904Y-59146880D02*
X171917904Y-58146880D01*
X172298857Y-58146880D01*
X172394095Y-58194500D01*
X172441714Y-58242119D01*
X172489333Y-58337357D01*
X172489333Y-58480214D01*
X172441714Y-58575452D01*
X172394095Y-58623071D01*
X172298857Y-58670690D01*
X171917904Y-58670690D01*
X173441714Y-59146880D02*
X172870285Y-59146880D01*
X173156000Y-59146880D02*
X173156000Y-58146880D01*
X173060761Y-58289738D01*
X172965523Y-58384976D01*
X172870285Y-58432595D01*
G04 #@! TO.C,R2*
X173446380Y-91527238D02*
X173446380Y-92098666D01*
X173446380Y-91812952D02*
X172446380Y-91812952D01*
X172589238Y-91908190D01*
X172684476Y-92003428D01*
X172732095Y-92098666D01*
X172446380Y-90908190D02*
X172446380Y-90812952D01*
X172494000Y-90717714D01*
X172541619Y-90670095D01*
X172636857Y-90622476D01*
X172827333Y-90574857D01*
X173065428Y-90574857D01*
X173255904Y-90622476D01*
X173351142Y-90670095D01*
X173398761Y-90717714D01*
X173446380Y-90812952D01*
X173446380Y-90908190D01*
X173398761Y-91003428D01*
X173351142Y-91051047D01*
X173255904Y-91098666D01*
X173065428Y-91146285D01*
X172827333Y-91146285D01*
X172636857Y-91098666D01*
X172541619Y-91051047D01*
X172494000Y-91003428D01*
X172446380Y-90908190D01*
X173446380Y-90146285D02*
X172446380Y-90146285D01*
X173065428Y-90051047D02*
X173446380Y-89765333D01*
X172779714Y-89765333D02*
X173160666Y-90146285D01*
X168706380Y-91098666D02*
X168230190Y-91432000D01*
X168706380Y-91670095D02*
X167706380Y-91670095D01*
X167706380Y-91289142D01*
X167754000Y-91193904D01*
X167801619Y-91146285D01*
X167896857Y-91098666D01*
X168039714Y-91098666D01*
X168134952Y-91146285D01*
X168182571Y-91193904D01*
X168230190Y-91289142D01*
X168230190Y-91670095D01*
X167801619Y-90717714D02*
X167754000Y-90670095D01*
X167706380Y-90574857D01*
X167706380Y-90336761D01*
X167754000Y-90241523D01*
X167801619Y-90193904D01*
X167896857Y-90146285D01*
X167992095Y-90146285D01*
X168134952Y-90193904D01*
X168706380Y-90765333D01*
X168706380Y-90146285D01*
G04 #@! TO.C,R3*
X172696761Y-52796880D02*
X172125333Y-52796880D01*
X172411047Y-52796880D02*
X172411047Y-51796880D01*
X172315809Y-51939738D01*
X172220571Y-52034976D01*
X172125333Y-52082595D01*
X173315809Y-51796880D02*
X173411047Y-51796880D01*
X173506285Y-51844500D01*
X173553904Y-51892119D01*
X173601523Y-51987357D01*
X173649142Y-52177833D01*
X173649142Y-52415928D01*
X173601523Y-52606404D01*
X173553904Y-52701642D01*
X173506285Y-52749261D01*
X173411047Y-52796880D01*
X173315809Y-52796880D01*
X173220571Y-52749261D01*
X173172952Y-52701642D01*
X173125333Y-52606404D01*
X173077714Y-52415928D01*
X173077714Y-52177833D01*
X173125333Y-51987357D01*
X173172952Y-51892119D01*
X173220571Y-51844500D01*
X173315809Y-51796880D01*
X174077714Y-52796880D02*
X174077714Y-51796880D01*
X174172952Y-52415928D02*
X174458666Y-52796880D01*
X174458666Y-52130214D02*
X174077714Y-52511166D01*
X173125333Y-48056880D02*
X172792000Y-47580690D01*
X172553904Y-48056880D02*
X172553904Y-47056880D01*
X172934857Y-47056880D01*
X173030095Y-47104500D01*
X173077714Y-47152119D01*
X173125333Y-47247357D01*
X173125333Y-47390214D01*
X173077714Y-47485452D01*
X173030095Y-47533071D01*
X172934857Y-47580690D01*
X172553904Y-47580690D01*
X173458666Y-47056880D02*
X174077714Y-47056880D01*
X173744380Y-47437833D01*
X173887238Y-47437833D01*
X173982476Y-47485452D01*
X174030095Y-47533071D01*
X174077714Y-47628309D01*
X174077714Y-47866404D01*
X174030095Y-47961642D01*
X173982476Y-48009261D01*
X173887238Y-48056880D01*
X173601523Y-48056880D01*
X173506285Y-48009261D01*
X173458666Y-47961642D01*
G04 #@! TO.C,R4*
X181903761Y-52606380D02*
X181332333Y-52606380D01*
X181618047Y-52606380D02*
X181618047Y-51606380D01*
X181522809Y-51749238D01*
X181427571Y-51844476D01*
X181332333Y-51892095D01*
X182522809Y-51606380D02*
X182618047Y-51606380D01*
X182713285Y-51654000D01*
X182760904Y-51701619D01*
X182808523Y-51796857D01*
X182856142Y-51987333D01*
X182856142Y-52225428D01*
X182808523Y-52415904D01*
X182760904Y-52511142D01*
X182713285Y-52558761D01*
X182618047Y-52606380D01*
X182522809Y-52606380D01*
X182427571Y-52558761D01*
X182379952Y-52511142D01*
X182332333Y-52415904D01*
X182284714Y-52225428D01*
X182284714Y-51987333D01*
X182332333Y-51796857D01*
X182379952Y-51701619D01*
X182427571Y-51654000D01*
X182522809Y-51606380D01*
X183284714Y-52606380D02*
X183284714Y-51606380D01*
X183379952Y-52225428D02*
X183665666Y-52606380D01*
X183665666Y-51939714D02*
X183284714Y-52320666D01*
X182332333Y-47866380D02*
X181999000Y-47390190D01*
X181760904Y-47866380D02*
X181760904Y-46866380D01*
X182141857Y-46866380D01*
X182237095Y-46914000D01*
X182284714Y-46961619D01*
X182332333Y-47056857D01*
X182332333Y-47199714D01*
X182284714Y-47294952D01*
X182237095Y-47342571D01*
X182141857Y-47390190D01*
X181760904Y-47390190D01*
X183189476Y-47199714D02*
X183189476Y-47866380D01*
X182951380Y-46818761D02*
X182713285Y-47533047D01*
X183332333Y-47533047D01*
G04 #@! TO.C,SW1*
X152964761Y-66163119D02*
X153012380Y-66020261D01*
X153012380Y-65782166D01*
X152964761Y-65686928D01*
X152917142Y-65639309D01*
X152821904Y-65591690D01*
X152726666Y-65591690D01*
X152631428Y-65639309D01*
X152583809Y-65686928D01*
X152536190Y-65782166D01*
X152488571Y-65972642D01*
X152440952Y-66067880D01*
X152393333Y-66115500D01*
X152298095Y-66163119D01*
X152202857Y-66163119D01*
X152107619Y-66115500D01*
X152060000Y-66067880D01*
X152012380Y-65972642D01*
X152012380Y-65734547D01*
X152060000Y-65591690D01*
X152012380Y-65258357D02*
X153012380Y-65020261D01*
X152298095Y-64829785D01*
X153012380Y-64639309D01*
X152012380Y-64401214D01*
X153107619Y-64258357D02*
X153107619Y-63496452D01*
X153012380Y-63258357D02*
X152012380Y-63258357D01*
X152012380Y-62877404D01*
X152060000Y-62782166D01*
X152107619Y-62734547D01*
X152202857Y-62686928D01*
X152345714Y-62686928D01*
X152440952Y-62734547D01*
X152488571Y-62782166D01*
X152536190Y-62877404D01*
X152536190Y-63258357D01*
X152345714Y-61829785D02*
X153012380Y-61829785D01*
X152345714Y-62258357D02*
X152869523Y-62258357D01*
X152964761Y-62210738D01*
X153012380Y-62115500D01*
X153012380Y-61972642D01*
X152964761Y-61877404D01*
X152917142Y-61829785D01*
X152964761Y-61401214D02*
X153012380Y-61305976D01*
X153012380Y-61115500D01*
X152964761Y-61020261D01*
X152869523Y-60972642D01*
X152821904Y-60972642D01*
X152726666Y-61020261D01*
X152679047Y-61115500D01*
X152679047Y-61258357D01*
X152631428Y-61353595D01*
X152536190Y-61401214D01*
X152488571Y-61401214D01*
X152393333Y-61353595D01*
X152345714Y-61258357D01*
X152345714Y-61115500D01*
X152393333Y-61020261D01*
X153012380Y-60544071D02*
X152012380Y-60544071D01*
X153012380Y-60115500D02*
X152488571Y-60115500D01*
X152393333Y-60163119D01*
X152345714Y-60258357D01*
X152345714Y-60401214D01*
X152393333Y-60496452D01*
X152440952Y-60544071D01*
X148514761Y-64948833D02*
X148562380Y-64805976D01*
X148562380Y-64567880D01*
X148514761Y-64472642D01*
X148467142Y-64425023D01*
X148371904Y-64377404D01*
X148276666Y-64377404D01*
X148181428Y-64425023D01*
X148133809Y-64472642D01*
X148086190Y-64567880D01*
X148038571Y-64758357D01*
X147990952Y-64853595D01*
X147943333Y-64901214D01*
X147848095Y-64948833D01*
X147752857Y-64948833D01*
X147657619Y-64901214D01*
X147610000Y-64853595D01*
X147562380Y-64758357D01*
X147562380Y-64520261D01*
X147610000Y-64377404D01*
X147562380Y-64044071D02*
X148562380Y-63805976D01*
X147848095Y-63615500D01*
X148562380Y-63425023D01*
X147562380Y-63186928D01*
X148562380Y-62282166D02*
X148562380Y-62853595D01*
X148562380Y-62567880D02*
X147562380Y-62567880D01*
X147705238Y-62663119D01*
X147800476Y-62758357D01*
X147848095Y-62853595D01*
G04 #@! TO.C,U1*
X179696761Y-79850880D02*
X179220571Y-79850880D01*
X179220571Y-78850880D01*
X179934857Y-78850880D02*
X180601523Y-78850880D01*
X180172952Y-79850880D01*
X181125333Y-79279452D02*
X181030095Y-79231833D01*
X180982476Y-79184214D01*
X180934857Y-79088976D01*
X180934857Y-79041357D01*
X180982476Y-78946119D01*
X181030095Y-78898500D01*
X181125333Y-78850880D01*
X181315809Y-78850880D01*
X181411047Y-78898500D01*
X181458666Y-78946119D01*
X181506285Y-79041357D01*
X181506285Y-79088976D01*
X181458666Y-79184214D01*
X181411047Y-79231833D01*
X181315809Y-79279452D01*
X181125333Y-79279452D01*
X181030095Y-79327071D01*
X180982476Y-79374690D01*
X180934857Y-79469928D01*
X180934857Y-79660404D01*
X180982476Y-79755642D01*
X181030095Y-79803261D01*
X181125333Y-79850880D01*
X181315809Y-79850880D01*
X181411047Y-79803261D01*
X181458666Y-79755642D01*
X181506285Y-79660404D01*
X181506285Y-79469928D01*
X181458666Y-79374690D01*
X181411047Y-79327071D01*
X181315809Y-79279452D01*
X182125333Y-78850880D02*
X182220571Y-78850880D01*
X182315809Y-78898500D01*
X182363428Y-78946119D01*
X182411047Y-79041357D01*
X182458666Y-79231833D01*
X182458666Y-79469928D01*
X182411047Y-79660404D01*
X182363428Y-79755642D01*
X182315809Y-79803261D01*
X182220571Y-79850880D01*
X182125333Y-79850880D01*
X182030095Y-79803261D01*
X181982476Y-79755642D01*
X181934857Y-79660404D01*
X181887238Y-79469928D01*
X181887238Y-79231833D01*
X181934857Y-79041357D01*
X181982476Y-78946119D01*
X182030095Y-78898500D01*
X182125333Y-78850880D01*
X183363428Y-78850880D02*
X182887238Y-78850880D01*
X182839619Y-79327071D01*
X182887238Y-79279452D01*
X182982476Y-79231833D01*
X183220571Y-79231833D01*
X183315809Y-79279452D01*
X183363428Y-79327071D01*
X183411047Y-79422309D01*
X183411047Y-79660404D01*
X183363428Y-79755642D01*
X183315809Y-79803261D01*
X183220571Y-79850880D01*
X182982476Y-79850880D01*
X182887238Y-79803261D01*
X182839619Y-79755642D01*
X180530095Y-72080880D02*
X180530095Y-72890404D01*
X180577714Y-72985642D01*
X180625333Y-73033261D01*
X180720571Y-73080880D01*
X180911047Y-73080880D01*
X181006285Y-73033261D01*
X181053904Y-72985642D01*
X181101523Y-72890404D01*
X181101523Y-72080880D01*
X182101523Y-73080880D02*
X181530095Y-73080880D01*
X181815809Y-73080880D02*
X181815809Y-72080880D01*
X181720571Y-72223738D01*
X181625333Y-72318976D01*
X181530095Y-72366595D01*
G04 #@! TO.C,U2*
X155829809Y-94825666D02*
X156306000Y-94825666D01*
X155734571Y-95111380D02*
X156067904Y-94111380D01*
X156401238Y-95111380D01*
X156591714Y-94111380D02*
X157163142Y-94111380D01*
X156877428Y-95111380D02*
X156877428Y-94111380D01*
X157353619Y-94444714D02*
X157734571Y-94444714D01*
X157496476Y-94111380D02*
X157496476Y-94968523D01*
X157544095Y-95063761D01*
X157639333Y-95111380D01*
X157734571Y-95111380D01*
X158067904Y-95111380D02*
X158067904Y-94444714D01*
X158067904Y-94111380D02*
X158020285Y-94159000D01*
X158067904Y-94206619D01*
X158115523Y-94159000D01*
X158067904Y-94111380D01*
X158067904Y-94206619D01*
X158544095Y-94444714D02*
X158544095Y-95111380D01*
X158544095Y-94539952D02*
X158591714Y-94492333D01*
X158686952Y-94444714D01*
X158829809Y-94444714D01*
X158925047Y-94492333D01*
X158972666Y-94587571D01*
X158972666Y-95111380D01*
X159353619Y-94444714D02*
X159591714Y-95111380D01*
X159829809Y-94444714D02*
X159591714Y-95111380D01*
X159496476Y-95349476D01*
X159448857Y-95397095D01*
X159353619Y-95444714D01*
X160163142Y-94206619D02*
X160210761Y-94159000D01*
X160306000Y-94111380D01*
X160544095Y-94111380D01*
X160639333Y-94159000D01*
X160686952Y-94206619D01*
X160734571Y-94301857D01*
X160734571Y-94397095D01*
X160686952Y-94539952D01*
X160115523Y-95111380D01*
X160734571Y-95111380D01*
X161067904Y-94111380D02*
X161686952Y-94111380D01*
X161353619Y-94492333D01*
X161496476Y-94492333D01*
X161591714Y-94539952D01*
X161639333Y-94587571D01*
X161686952Y-94682809D01*
X161686952Y-94920904D01*
X161639333Y-95016142D01*
X161591714Y-95063761D01*
X161496476Y-95111380D01*
X161210761Y-95111380D01*
X161115523Y-95063761D01*
X161067904Y-95016142D01*
X162639333Y-95111380D02*
X162067904Y-95111380D01*
X162353619Y-95111380D02*
X162353619Y-94111380D01*
X162258380Y-94254238D01*
X162163142Y-94349476D01*
X162067904Y-94397095D01*
X162972666Y-94111380D02*
X163591714Y-94111380D01*
X163258380Y-94492333D01*
X163401238Y-94492333D01*
X163496476Y-94539952D01*
X163544095Y-94587571D01*
X163591714Y-94682809D01*
X163591714Y-94920904D01*
X163544095Y-95016142D01*
X163496476Y-95063761D01*
X163401238Y-95111380D01*
X163115523Y-95111380D01*
X163020285Y-95063761D01*
X162972666Y-95016142D01*
X164020285Y-94730428D02*
X164782190Y-94730428D01*
X165210761Y-94206619D02*
X165258380Y-94159000D01*
X165353619Y-94111380D01*
X165591714Y-94111380D01*
X165686952Y-94159000D01*
X165734571Y-94206619D01*
X165782190Y-94301857D01*
X165782190Y-94397095D01*
X165734571Y-94539952D01*
X165163142Y-95111380D01*
X165782190Y-95111380D01*
X166401238Y-94111380D02*
X166496476Y-94111380D01*
X166591714Y-94159000D01*
X166639333Y-94206619D01*
X166686952Y-94301857D01*
X166734571Y-94492333D01*
X166734571Y-94730428D01*
X166686952Y-94920904D01*
X166639333Y-95016142D01*
X166591714Y-95063761D01*
X166496476Y-95111380D01*
X166401238Y-95111380D01*
X166306000Y-95063761D01*
X166258380Y-95016142D01*
X166210761Y-94920904D01*
X166163142Y-94730428D01*
X166163142Y-94492333D01*
X166210761Y-94301857D01*
X166258380Y-94206619D01*
X166306000Y-94159000D01*
X166401238Y-94111380D01*
X167163142Y-95111380D02*
X167163142Y-94111380D01*
X167544095Y-94111380D01*
X167639333Y-94159000D01*
X167686952Y-94206619D01*
X167734571Y-94301857D01*
X167734571Y-94444714D01*
X167686952Y-94539952D01*
X167639333Y-94587571D01*
X167544095Y-94635190D01*
X167163142Y-94635190D01*
X168163142Y-94111380D02*
X168163142Y-94920904D01*
X168210761Y-95016142D01*
X168258380Y-95063761D01*
X168353619Y-95111380D01*
X168544095Y-95111380D01*
X168639333Y-95063761D01*
X168686952Y-95016142D01*
X168734571Y-94920904D01*
X168734571Y-94111380D01*
X161544095Y-80351380D02*
X161544095Y-81160904D01*
X161591714Y-81256142D01*
X161639333Y-81303761D01*
X161734571Y-81351380D01*
X161925047Y-81351380D01*
X162020285Y-81303761D01*
X162067904Y-81256142D01*
X162115523Y-81160904D01*
X162115523Y-80351380D01*
X162544095Y-80446619D02*
X162591714Y-80399000D01*
X162686952Y-80351380D01*
X162925047Y-80351380D01*
X163020285Y-80399000D01*
X163067904Y-80446619D01*
X163115523Y-80541857D01*
X163115523Y-80637095D01*
X163067904Y-80779952D01*
X162496476Y-81351380D01*
X163115523Y-81351380D01*
G04 #@! TO.C,Y1*
X161676190Y-65913452D02*
X161580952Y-65865833D01*
X161533333Y-65818214D01*
X161485714Y-65722976D01*
X161485714Y-65675357D01*
X161533333Y-65580119D01*
X161580952Y-65532500D01*
X161676190Y-65484880D01*
X161866666Y-65484880D01*
X161961904Y-65532500D01*
X162009523Y-65580119D01*
X162057142Y-65675357D01*
X162057142Y-65722976D01*
X162009523Y-65818214D01*
X161961904Y-65865833D01*
X161866666Y-65913452D01*
X161676190Y-65913452D01*
X161580952Y-65961071D01*
X161533333Y-66008690D01*
X161485714Y-66103928D01*
X161485714Y-66294404D01*
X161533333Y-66389642D01*
X161580952Y-66437261D01*
X161676190Y-66484880D01*
X161866666Y-66484880D01*
X161961904Y-66437261D01*
X162009523Y-66389642D01*
X162057142Y-66294404D01*
X162057142Y-66103928D01*
X162009523Y-66008690D01*
X161961904Y-65961071D01*
X161866666Y-65913452D01*
X162485714Y-66484880D02*
X162485714Y-65484880D01*
X162819047Y-66199166D01*
X163152380Y-65484880D01*
X163152380Y-66484880D01*
X163628571Y-66484880D02*
X163628571Y-65484880D01*
X164057142Y-66484880D02*
X164057142Y-65961071D01*
X164009523Y-65865833D01*
X163914285Y-65818214D01*
X163771428Y-65818214D01*
X163676190Y-65865833D01*
X163628571Y-65913452D01*
X164438095Y-65818214D02*
X164961904Y-65818214D01*
X164438095Y-66484880D01*
X164961904Y-66484880D01*
X162723809Y-63158690D02*
X162723809Y-63634880D01*
X162390476Y-62634880D02*
X162723809Y-63158690D01*
X163057142Y-62634880D01*
X163914285Y-63634880D02*
X163342857Y-63634880D01*
X163628571Y-63634880D02*
X163628571Y-62634880D01*
X163533333Y-62777738D01*
X163438095Y-62872976D01*
X163342857Y-62920595D01*
G04 #@! TD*
M02*
