G04 #@! TF.GenerationSoftware,KiCad,Pcbnew,5.0.2-5.fc29*
G04 #@! TF.CreationDate,2019-02-21T16:31:19+01:00*
G04 #@! TF.ProjectId,AVR Dev,41565220-4465-4762-9e6b-696361645f70,rev?*
G04 #@! TF.SameCoordinates,Original*
G04 #@! TF.FileFunction,Copper,L1,Top*
G04 #@! TF.FilePolarity,Positive*
%FSLAX46Y46*%
G04 Gerber Fmt 4.6, Leading zero omitted, Abs format (unit mm)*
G04 Created by KiCad (PCBNEW 5.0.2-5.fc29) date czw, 21 lut 2019, 16:31:19*
%MOMM*%
%LPD*%
G01*
G04 APERTURE LIST*
G04 #@! TA.AperFunction,ComponentPad*
%ADD10C,1.600000*%
G04 #@! TD*
G04 #@! TA.AperFunction,ComponentPad*
%ADD11R,2.000000X2.000000*%
G04 #@! TD*
G04 #@! TA.AperFunction,ComponentPad*
%ADD12C,2.000000*%
G04 #@! TD*
G04 #@! TA.AperFunction,ComponentPad*
%ADD13R,1.800000X1.800000*%
G04 #@! TD*
G04 #@! TA.AperFunction,ComponentPad*
%ADD14C,1.800000*%
G04 #@! TD*
G04 #@! TA.AperFunction,ComponentPad*
%ADD15R,3.500000X3.500000*%
G04 #@! TD*
G04 #@! TA.AperFunction,Conductor*
%ADD16C,0.200000*%
G04 #@! TD*
G04 #@! TA.AperFunction,ComponentPad*
%ADD17C,3.000000*%
G04 #@! TD*
G04 #@! TA.AperFunction,ComponentPad*
%ADD18C,3.500000*%
G04 #@! TD*
G04 #@! TA.AperFunction,ComponentPad*
%ADD19R,1.700000X1.700000*%
G04 #@! TD*
G04 #@! TA.AperFunction,ComponentPad*
%ADD20O,1.700000X1.700000*%
G04 #@! TD*
G04 #@! TA.AperFunction,ComponentPad*
%ADD21R,1.727200X1.727200*%
G04 #@! TD*
G04 #@! TA.AperFunction,ComponentPad*
%ADD22O,1.727200X1.727200*%
G04 #@! TD*
G04 #@! TA.AperFunction,ComponentPad*
%ADD23O,1.600000X1.600000*%
G04 #@! TD*
G04 #@! TA.AperFunction,ComponentPad*
%ADD24R,1.905000X2.000000*%
G04 #@! TD*
G04 #@! TA.AperFunction,ComponentPad*
%ADD25O,1.905000X2.000000*%
G04 #@! TD*
G04 #@! TA.AperFunction,ComponentPad*
%ADD26R,1.600000X1.600000*%
G04 #@! TD*
G04 #@! TA.AperFunction,ComponentPad*
%ADD27C,1.500000*%
G04 #@! TD*
G04 #@! TA.AperFunction,ViaPad*
%ADD28C,0.800000*%
G04 #@! TD*
G04 #@! TA.AperFunction,Conductor*
%ADD29C,0.500000*%
G04 #@! TD*
G04 #@! TA.AperFunction,Conductor*
%ADD30C,0.254000*%
G04 #@! TD*
G04 APERTURE END LIST*
D10*
G04 #@! TO.P,C1,1*
G04 #@! TO.N,VCC*
X170878000Y-80073500D03*
G04 #@! TO.P,C1,2*
G04 #@! TO.N,GND*
X170878000Y-85073500D03*
G04 #@! TD*
D11*
G04 #@! TO.P,C2,1*
G04 #@! TO.N,VCC*
X160147000Y-54038500D03*
D12*
G04 #@! TO.P,C2,2*
G04 #@! TO.N,GND*
X165147000Y-54038500D03*
G04 #@! TD*
D10*
G04 #@! TO.P,C3,1*
G04 #@! TO.N,Net-(C3-Pad1)*
X155702000Y-65913000D03*
G04 #@! TO.P,C3,2*
G04 #@! TO.N,GND*
X155702000Y-60913000D03*
G04 #@! TD*
G04 #@! TO.P,C4,2*
G04 #@! TO.N,GND*
X170624000Y-60976500D03*
G04 #@! TO.P,C4,1*
G04 #@! TO.N,Net-(C4-Pad1)*
X170624000Y-65976500D03*
G04 #@! TD*
D13*
G04 #@! TO.P,D1,1*
G04 #@! TO.N,Net-(D1-Pad1)*
X181737000Y-55943500D03*
D14*
G04 #@! TO.P,D1,2*
G04 #@! TO.N,Net-(D1-Pad2)*
X184277000Y-55943500D03*
G04 #@! TD*
G04 #@! TO.P,D2,2*
G04 #@! TO.N,Net-(D2-Pad2)*
X184277000Y-62293500D03*
D13*
G04 #@! TO.P,D2,1*
G04 #@! TO.N,Net-(D2-Pad1)*
X181737000Y-62293500D03*
G04 #@! TD*
G04 #@! TO.P,D3,1*
G04 #@! TO.N,Net-(D3-Pad1)*
X181737000Y-69342000D03*
D14*
G04 #@! TO.P,D3,2*
G04 #@! TO.N,Net-(D3-Pad2)*
X184277000Y-69342000D03*
G04 #@! TD*
D15*
G04 #@! TO.P,J1,1*
G04 #@! TO.N,Net-(J1-Pad1)*
X179705000Y-81978500D03*
D16*
G04 #@! TD*
G04 #@! TO.N,GND*
G04 #@! TO.C,J1*
G36*
X180778513Y-86482111D02*
X180851318Y-86492911D01*
X180922714Y-86510795D01*
X180992013Y-86535590D01*
X181058548Y-86567059D01*
X181121678Y-86604898D01*
X181180795Y-86648742D01*
X181235330Y-86698170D01*
X181284758Y-86752705D01*
X181328602Y-86811822D01*
X181366441Y-86874952D01*
X181397910Y-86941487D01*
X181422705Y-87010786D01*
X181440589Y-87082182D01*
X181451389Y-87154987D01*
X181455000Y-87228500D01*
X181455000Y-88728500D01*
X181451389Y-88802013D01*
X181440589Y-88874818D01*
X181422705Y-88946214D01*
X181397910Y-89015513D01*
X181366441Y-89082048D01*
X181328602Y-89145178D01*
X181284758Y-89204295D01*
X181235330Y-89258830D01*
X181180795Y-89308258D01*
X181121678Y-89352102D01*
X181058548Y-89389941D01*
X180992013Y-89421410D01*
X180922714Y-89446205D01*
X180851318Y-89464089D01*
X180778513Y-89474889D01*
X180705000Y-89478500D01*
X178705000Y-89478500D01*
X178631487Y-89474889D01*
X178558682Y-89464089D01*
X178487286Y-89446205D01*
X178417987Y-89421410D01*
X178351452Y-89389941D01*
X178288322Y-89352102D01*
X178229205Y-89308258D01*
X178174670Y-89258830D01*
X178125242Y-89204295D01*
X178081398Y-89145178D01*
X178043559Y-89082048D01*
X178012090Y-89015513D01*
X177987295Y-88946214D01*
X177969411Y-88874818D01*
X177958611Y-88802013D01*
X177955000Y-88728500D01*
X177955000Y-87228500D01*
X177958611Y-87154987D01*
X177969411Y-87082182D01*
X177987295Y-87010786D01*
X178012090Y-86941487D01*
X178043559Y-86874952D01*
X178081398Y-86811822D01*
X178125242Y-86752705D01*
X178174670Y-86698170D01*
X178229205Y-86648742D01*
X178288322Y-86604898D01*
X178351452Y-86567059D01*
X178417987Y-86535590D01*
X178487286Y-86510795D01*
X178558682Y-86492911D01*
X178631487Y-86482111D01*
X178705000Y-86478500D01*
X180705000Y-86478500D01*
X180778513Y-86482111D01*
X180778513Y-86482111D01*
G37*
D17*
G04 #@! TO.P,J1,2*
G04 #@! TO.N,GND*
X179705000Y-87978500D03*
D16*
G04 #@! TD*
G04 #@! TO.N,N/C*
G04 #@! TO.C,J1*
G36*
X185365765Y-83232713D02*
X185450704Y-83245313D01*
X185533999Y-83266177D01*
X185614848Y-83295105D01*
X185692472Y-83331819D01*
X185766124Y-83375964D01*
X185835094Y-83427116D01*
X185898718Y-83484782D01*
X185956384Y-83548406D01*
X186007536Y-83617376D01*
X186051681Y-83691028D01*
X186088395Y-83768652D01*
X186117323Y-83849501D01*
X186138187Y-83932796D01*
X186150787Y-84017735D01*
X186155000Y-84103500D01*
X186155000Y-85853500D01*
X186150787Y-85939265D01*
X186138187Y-86024204D01*
X186117323Y-86107499D01*
X186088395Y-86188348D01*
X186051681Y-86265972D01*
X186007536Y-86339624D01*
X185956384Y-86408594D01*
X185898718Y-86472218D01*
X185835094Y-86529884D01*
X185766124Y-86581036D01*
X185692472Y-86625181D01*
X185614848Y-86661895D01*
X185533999Y-86690823D01*
X185450704Y-86711687D01*
X185365765Y-86724287D01*
X185280000Y-86728500D01*
X183530000Y-86728500D01*
X183444235Y-86724287D01*
X183359296Y-86711687D01*
X183276001Y-86690823D01*
X183195152Y-86661895D01*
X183117528Y-86625181D01*
X183043876Y-86581036D01*
X182974906Y-86529884D01*
X182911282Y-86472218D01*
X182853616Y-86408594D01*
X182802464Y-86339624D01*
X182758319Y-86265972D01*
X182721605Y-86188348D01*
X182692677Y-86107499D01*
X182671813Y-86024204D01*
X182659213Y-85939265D01*
X182655000Y-85853500D01*
X182655000Y-84103500D01*
X182659213Y-84017735D01*
X182671813Y-83932796D01*
X182692677Y-83849501D01*
X182721605Y-83768652D01*
X182758319Y-83691028D01*
X182802464Y-83617376D01*
X182853616Y-83548406D01*
X182911282Y-83484782D01*
X182974906Y-83427116D01*
X183043876Y-83375964D01*
X183117528Y-83331819D01*
X183195152Y-83295105D01*
X183276001Y-83266177D01*
X183359296Y-83245313D01*
X183444235Y-83232713D01*
X183530000Y-83228500D01*
X185280000Y-83228500D01*
X185365765Y-83232713D01*
X185365765Y-83232713D01*
G37*
D18*
G04 #@! TO.P,J1,3*
G04 #@! TO.N,N/C*
X184405000Y-84978500D03*
G04 #@! TD*
D19*
G04 #@! TO.P,J2,1*
G04 #@! TO.N,Net-(J2-Pad1)*
X140716000Y-65468500D03*
D20*
G04 #@! TO.P,J2,2*
G04 #@! TO.N,Net-(J2-Pad2)*
X140716000Y-68008500D03*
G04 #@! TO.P,J2,3*
G04 #@! TO.N,Net-(J2-Pad3)*
X140716000Y-70548500D03*
G04 #@! TO.P,J2,4*
G04 #@! TO.N,Net-(J2-Pad4)*
X140716000Y-73088500D03*
G04 #@! TO.P,J2,5*
G04 #@! TO.N,Net-(J2-Pad5)*
X140716000Y-75628500D03*
G04 #@! TO.P,J2,6*
G04 #@! TO.N,Net-(J2-Pad6)*
X140716000Y-78168500D03*
G04 #@! TO.P,J2,7*
G04 #@! TO.N,Net-(J2-Pad7)*
X140716000Y-80708500D03*
G04 #@! TO.P,J2,8*
G04 #@! TO.N,Net-(J2-Pad8)*
X140716000Y-83248500D03*
G04 #@! TO.P,J2,9*
G04 #@! TO.N,Net-(J2-Pad9)*
X140716000Y-85788500D03*
G04 #@! TO.P,J2,10*
G04 #@! TO.N,GND*
X140716000Y-88328500D03*
G04 #@! TO.P,J2,11*
X140716000Y-90868500D03*
G04 #@! TO.P,J2,12*
G04 #@! TO.N,VCC*
X140716000Y-93408500D03*
G04 #@! TD*
D21*
G04 #@! TO.P,J3,1*
G04 #@! TO.N,MISO*
X148654000Y-51625500D03*
D22*
G04 #@! TO.P,J3,2*
G04 #@! TO.N,VCC*
X148654000Y-54165500D03*
G04 #@! TO.P,J3,3*
G04 #@! TO.N,SCK*
X146114000Y-51625500D03*
G04 #@! TO.P,J3,4*
G04 #@! TO.N,MOSI*
X146114000Y-54165500D03*
G04 #@! TO.P,J3,5*
G04 #@! TO.N,RST*
X143574000Y-51625500D03*
G04 #@! TO.P,J3,6*
G04 #@! TO.N,GND*
X143574000Y-54165500D03*
G04 #@! TD*
D23*
G04 #@! TO.P,R1,2*
G04 #@! TO.N,RST*
X171386000Y-56324500D03*
D10*
G04 #@! TO.P,R1,1*
G04 #@! TO.N,VCC*
X173926000Y-56324500D03*
G04 #@! TD*
G04 #@! TO.P,R2,1*
G04 #@! TO.N,GND*
X170624000Y-92202000D03*
D23*
G04 #@! TO.P,R2,2*
G04 #@! TO.N,Net-(D1-Pad2)*
X170624000Y-89662000D03*
G04 #@! TD*
D10*
G04 #@! TO.P,R3,1*
G04 #@! TO.N,GND*
X172022000Y-49974500D03*
D23*
G04 #@! TO.P,R3,2*
G04 #@! TO.N,Net-(D3-Pad2)*
X174562000Y-49974500D03*
G04 #@! TD*
G04 #@! TO.P,R4,2*
G04 #@! TO.N,Net-(D2-Pad2)*
X183769000Y-49784000D03*
D10*
G04 #@! TO.P,R4,1*
G04 #@! TO.N,GND*
X181229000Y-49784000D03*
G04 #@! TD*
D12*
G04 #@! TO.P,SW1,2*
G04 #@! TO.N,RST*
X150360000Y-66865500D03*
G04 #@! TO.P,SW1,1*
G04 #@! TO.N,GND*
X145860000Y-66865500D03*
G04 #@! TO.P,SW1,2*
G04 #@! TO.N,RST*
X150360000Y-60365500D03*
G04 #@! TO.P,SW1,1*
G04 #@! TO.N,GND*
X145860000Y-60365500D03*
G04 #@! TD*
D24*
G04 #@! TO.P,U1,1*
G04 #@! TO.N,Net-(J1-Pad1)*
X178752000Y-76898500D03*
D25*
G04 #@! TO.P,U1,2*
G04 #@! TO.N,GND*
X181292000Y-76898500D03*
G04 #@! TO.P,U1,3*
G04 #@! TO.N,VCC*
X183832000Y-76898500D03*
G04 #@! TD*
D26*
G04 #@! TO.P,U2,1*
G04 #@! TO.N,RST*
X158496000Y-69469000D03*
D23*
G04 #@! TO.P,U2,11*
G04 #@! TO.N,Net-(J2-Pad9)*
X166116000Y-92329000D03*
G04 #@! TO.P,U2,2*
G04 #@! TO.N,Net-(J2-Pad3)*
X158496000Y-72009000D03*
G04 #@! TO.P,U2,12*
G04 #@! TO.N,Net-(D1-Pad1)*
X166116000Y-89789000D03*
G04 #@! TO.P,U2,3*
G04 #@! TO.N,Net-(J2-Pad4)*
X158496000Y-74549000D03*
G04 #@! TO.P,U2,13*
G04 #@! TO.N,Net-(D2-Pad1)*
X166116000Y-87249000D03*
G04 #@! TO.P,U2,4*
G04 #@! TO.N,Net-(C4-Pad1)*
X158496000Y-77089000D03*
G04 #@! TO.P,U2,14*
G04 #@! TO.N,Net-(D3-Pad1)*
X166116000Y-84709000D03*
G04 #@! TO.P,U2,5*
G04 #@! TO.N,Net-(C3-Pad1)*
X158496000Y-79629000D03*
G04 #@! TO.P,U2,15*
G04 #@! TO.N,Net-(J2-Pad1)*
X166116000Y-82169000D03*
G04 #@! TO.P,U2,6*
G04 #@! TO.N,Net-(J2-Pad5)*
X158496000Y-82169000D03*
G04 #@! TO.P,U2,16*
G04 #@! TO.N,Net-(J2-Pad2)*
X166116000Y-79629000D03*
G04 #@! TO.P,U2,7*
G04 #@! TO.N,Net-(J2-Pad6)*
X158496000Y-84709000D03*
G04 #@! TO.P,U2,17*
G04 #@! TO.N,MOSI*
X166116000Y-77089000D03*
G04 #@! TO.P,U2,8*
G04 #@! TO.N,Net-(J2-Pad7)*
X158496000Y-87249000D03*
G04 #@! TO.P,U2,18*
G04 #@! TO.N,MISO*
X166116000Y-74549000D03*
G04 #@! TO.P,U2,9*
G04 #@! TO.N,Net-(J2-Pad8)*
X158496000Y-89789000D03*
G04 #@! TO.P,U2,19*
G04 #@! TO.N,SCK*
X166116000Y-72009000D03*
G04 #@! TO.P,U2,10*
G04 #@! TO.N,GND*
X158496000Y-92329000D03*
G04 #@! TO.P,U2,20*
G04 #@! TO.N,VCC*
X166116000Y-69469000D03*
G04 #@! TD*
D27*
G04 #@! TO.P,Y1,1*
G04 #@! TO.N,Net-(C3-Pad1)*
X161300000Y-63182500D03*
G04 #@! TO.P,Y1,2*
G04 #@! TO.N,Net-(C4-Pad1)*
X165100000Y-63182500D03*
G04 #@! TD*
D28*
G04 #@! TO.N,Net-(J2-Pad2)*
X156534600Y-71377600D03*
G04 #@! TD*
D29*
G04 #@! TO.N,VCC*
X160147000Y-54038500D02*
X158696700Y-54038500D01*
X148654000Y-54165500D02*
X158569700Y-54165500D01*
X158569700Y-54165500D02*
X158696700Y-54038500D01*
X160147000Y-54038500D02*
X161597300Y-54038500D01*
X173926000Y-56324500D02*
X172654100Y-55052600D01*
X172654100Y-55052600D02*
X166250800Y-55052600D01*
X166250800Y-55052600D02*
X165814600Y-55488800D01*
X165814600Y-55488800D02*
X163047600Y-55488800D01*
X163047600Y-55488800D02*
X161597300Y-54038500D01*
X183832000Y-76898500D02*
X182159900Y-78570600D01*
X182159900Y-78570600D02*
X172380900Y-78570600D01*
X172380900Y-78570600D02*
X170878000Y-80073500D01*
G04 #@! TO.N,GND*
X172022000Y-49974500D02*
X173286000Y-48710500D01*
X173286000Y-48710500D02*
X180155500Y-48710500D01*
X180155500Y-48710500D02*
X181229000Y-49784000D01*
X165147000Y-54038500D02*
X167958000Y-54038500D01*
X167958000Y-54038500D02*
X172022000Y-49974500D01*
X173783000Y-87978500D02*
X170878000Y-85073500D01*
X179705000Y-87978500D02*
X173783000Y-87978500D01*
X173783000Y-87978500D02*
X173783000Y-89043000D01*
X173783000Y-89043000D02*
X170624000Y-92202000D01*
X159746300Y-92329000D02*
X161016300Y-91059000D01*
X161016300Y-91059000D02*
X169481000Y-91059000D01*
X169481000Y-91059000D02*
X170624000Y-92202000D01*
X145860000Y-60365500D02*
X147343000Y-61848500D01*
X147343000Y-61848500D02*
X154766500Y-61848500D01*
X154766500Y-61848500D02*
X155702000Y-60913000D01*
X170624000Y-60976500D02*
X155765500Y-60976500D01*
X155765500Y-60976500D02*
X155702000Y-60913000D01*
X158496000Y-92329000D02*
X159746300Y-92329000D01*
G04 #@! TO.N,Net-(C3-Pad1)*
X161300000Y-63182500D02*
X158432500Y-63182500D01*
X158432500Y-63182500D02*
X155702000Y-65913000D01*
G04 #@! TO.N,Net-(C4-Pad1)*
X169505800Y-65976500D02*
X169505800Y-67867400D01*
X169505800Y-67867400D02*
X166634200Y-70739000D01*
X166634200Y-70739000D02*
X165556600Y-70739000D01*
X165556600Y-70739000D02*
X159746300Y-76549300D01*
X159746300Y-76549300D02*
X159746300Y-77089000D01*
X165100000Y-63182500D02*
X166711800Y-63182500D01*
X166711800Y-63182500D02*
X169505800Y-65976500D01*
X169505800Y-65976500D02*
X170624000Y-65976500D01*
X158496000Y-77089000D02*
X159746300Y-77089000D01*
G04 #@! TO.N,Net-(D2-Pad2)*
X183769000Y-49784000D02*
X183769000Y-51034300D01*
X183769000Y-51034300D02*
X185678200Y-52943500D01*
X185678200Y-52943500D02*
X185678200Y-60892300D01*
X185678200Y-60892300D02*
X184277000Y-62293500D01*
G04 #@! TO.N,Net-(D3-Pad1)*
X166116000Y-84709000D02*
X166116000Y-83458700D01*
X166116000Y-83458700D02*
X166663100Y-83458700D01*
X166663100Y-83458700D02*
X167366300Y-82755500D01*
X167366300Y-82755500D02*
X167366300Y-81816900D01*
X167366300Y-81816900D02*
X179841200Y-69342000D01*
X179841200Y-69342000D02*
X181737000Y-69342000D01*
G04 #@! TO.N,Net-(D3-Pad2)*
X174562000Y-49974500D02*
X174562000Y-51224800D01*
X174562000Y-51224800D02*
X175812300Y-52475100D01*
X175812300Y-52475100D02*
X175812300Y-60877300D01*
X175812300Y-60877300D02*
X184277000Y-69342000D01*
G04 #@! TO.N,Net-(J2-Pad1)*
X164865700Y-82169000D02*
X161075400Y-78378700D01*
X161075400Y-78378700D02*
X157981800Y-78378700D01*
X157981800Y-78378700D02*
X157186300Y-77583200D01*
X157186300Y-77583200D02*
X157186300Y-76532400D01*
X157186300Y-76532400D02*
X157899700Y-75819000D01*
X157899700Y-75819000D02*
X158996200Y-75819000D01*
X158996200Y-75819000D02*
X159779700Y-75035500D01*
X159779700Y-75035500D02*
X159779700Y-71469400D01*
X159779700Y-71469400D02*
X159029800Y-70719500D01*
X159029800Y-70719500D02*
X157381900Y-70719500D01*
X157381900Y-70719500D02*
X157176300Y-70513900D01*
X157176300Y-70513900D02*
X147061700Y-70513900D01*
X147061700Y-70513900D02*
X142016300Y-65468500D01*
X140716000Y-65468500D02*
X142016300Y-65468500D01*
X166116000Y-82169000D02*
X164865700Y-82169000D01*
G04 #@! TO.N,Net-(J2-Pad2)*
X140716000Y-68008500D02*
X142016300Y-68008500D01*
X156534600Y-71377600D02*
X145385400Y-71377600D01*
X145385400Y-71377600D02*
X142016300Y-68008500D01*
G04 #@! TO.N,Net-(J2-Pad3)*
X158496000Y-72009000D02*
X157245700Y-72009000D01*
X142016300Y-70548500D02*
X143695700Y-72227900D01*
X143695700Y-72227900D02*
X157026800Y-72227900D01*
X157026800Y-72227900D02*
X157245700Y-72009000D01*
X140716000Y-70548500D02*
X142016300Y-70548500D01*
G04 #@! TO.N,Net-(J2-Pad4)*
X158496000Y-74549000D02*
X143476800Y-74549000D01*
X143476800Y-74549000D02*
X142016300Y-73088500D01*
X140716000Y-73088500D02*
X142016300Y-73088500D01*
G04 #@! TO.N,Net-(J2-Pad5)*
X142016300Y-75628500D02*
X148556800Y-82169000D01*
X148556800Y-82169000D02*
X158496000Y-82169000D01*
X140716000Y-75628500D02*
X142016300Y-75628500D01*
G04 #@! TO.N,Net-(J2-Pad6)*
X140716000Y-78168500D02*
X142016300Y-78168500D01*
X158496000Y-84709000D02*
X148556800Y-84709000D01*
X148556800Y-84709000D02*
X142016300Y-78168500D01*
G04 #@! TO.N,Net-(J2-Pad7)*
X140716000Y-80708500D02*
X142016300Y-80708500D01*
X158496000Y-87249000D02*
X148556800Y-87249000D01*
X148556800Y-87249000D02*
X142016300Y-80708500D01*
G04 #@! TO.N,Net-(J2-Pad8)*
X158496000Y-89789000D02*
X148556800Y-89789000D01*
X148556800Y-89789000D02*
X142016300Y-83248500D01*
X140716000Y-83248500D02*
X142016300Y-83248500D01*
G04 #@! TO.N,Net-(J2-Pad9)*
X140716000Y-85788500D02*
X142016300Y-85788500D01*
X166116000Y-92329000D02*
X164865700Y-92329000D01*
X164865700Y-92329000D02*
X163583200Y-93611500D01*
X163583200Y-93611500D02*
X149839300Y-93611500D01*
X149839300Y-93611500D02*
X142016300Y-85788500D01*
G04 #@! TO.N,RST*
X150360000Y-66865500D02*
X152963500Y-69469000D01*
X152963500Y-69469000D02*
X158496000Y-69469000D01*
X171386000Y-56324500D02*
X154401000Y-56324500D01*
X154401000Y-56324500D02*
X150360000Y-60365500D01*
X150360000Y-60365500D02*
X145608400Y-55613900D01*
X145608400Y-55613900D02*
X143143500Y-55613900D01*
X143143500Y-55613900D02*
X142217900Y-54688300D01*
X142217900Y-54688300D02*
X142217900Y-52981600D01*
X142217900Y-52981600D02*
X143574000Y-51625500D01*
G04 #@! TD*
D30*
G04 #@! TO.N,GND*
G36*
X185726501Y-51740222D02*
X184804089Y-50817811D01*
X185120740Y-50343909D01*
X185232113Y-49784000D01*
X185120740Y-49224091D01*
X184803577Y-48749423D01*
X184328909Y-48432260D01*
X183910333Y-48349000D01*
X183627667Y-48349000D01*
X183209091Y-48432260D01*
X182734423Y-48749423D01*
X182507389Y-49089203D01*
X182482864Y-49029995D01*
X182236745Y-48955861D01*
X181408605Y-49784000D01*
X182236745Y-50612139D01*
X182482864Y-50538005D01*
X182505280Y-50475641D01*
X182734423Y-50818577D01*
X182884001Y-50918522D01*
X182884001Y-50947135D01*
X182866663Y-51034300D01*
X182935348Y-51379609D01*
X183081576Y-51598454D01*
X183081578Y-51598456D01*
X183130952Y-51672349D01*
X183204845Y-51721723D01*
X184793200Y-53310079D01*
X184793200Y-54495845D01*
X184582330Y-54408500D01*
X183971670Y-54408500D01*
X183407493Y-54642190D01*
X183238275Y-54811408D01*
X183235157Y-54795735D01*
X183094809Y-54585691D01*
X182884765Y-54445343D01*
X182637000Y-54396060D01*
X180837000Y-54396060D01*
X180589235Y-54445343D01*
X180379191Y-54585691D01*
X180238843Y-54795735D01*
X180189560Y-55043500D01*
X180189560Y-56843500D01*
X180238843Y-57091265D01*
X180379191Y-57301309D01*
X180589235Y-57441657D01*
X180837000Y-57490940D01*
X182637000Y-57490940D01*
X182884765Y-57441657D01*
X183094809Y-57301309D01*
X183235157Y-57091265D01*
X183238275Y-57075592D01*
X183407493Y-57244810D01*
X183971670Y-57478500D01*
X184582330Y-57478500D01*
X184793201Y-57391154D01*
X184793201Y-60525720D01*
X184560421Y-60758500D01*
X183971670Y-60758500D01*
X183407493Y-60992190D01*
X183238275Y-61161408D01*
X183235157Y-61145735D01*
X183094809Y-60935691D01*
X182884765Y-60795343D01*
X182637000Y-60746060D01*
X180837000Y-60746060D01*
X180589235Y-60795343D01*
X180379191Y-60935691D01*
X180238843Y-61145735D01*
X180189560Y-61393500D01*
X180189560Y-63193500D01*
X180238843Y-63441265D01*
X180379191Y-63651309D01*
X180589235Y-63791657D01*
X180837000Y-63840940D01*
X182637000Y-63840940D01*
X182884765Y-63791657D01*
X183094809Y-63651309D01*
X183235157Y-63441265D01*
X183238275Y-63425592D01*
X183407493Y-63594810D01*
X183971670Y-63828500D01*
X184582330Y-63828500D01*
X185146507Y-63594810D01*
X185578310Y-63163007D01*
X185726501Y-62805243D01*
X185726501Y-68830256D01*
X185578310Y-68472493D01*
X185146507Y-68040690D01*
X184582330Y-67807000D01*
X183993579Y-67807000D01*
X176697300Y-60510722D01*
X176697300Y-52562259D01*
X176714637Y-52475099D01*
X176697300Y-52387939D01*
X176697300Y-52387935D01*
X176645952Y-52129790D01*
X176573915Y-52021980D01*
X176499724Y-51910945D01*
X176499723Y-51910944D01*
X176450349Y-51837051D01*
X176376456Y-51787677D01*
X175597089Y-51008311D01*
X175741793Y-50791745D01*
X180400861Y-50791745D01*
X180474995Y-51037864D01*
X181012223Y-51230965D01*
X181582454Y-51203778D01*
X181983005Y-51037864D01*
X182057139Y-50791745D01*
X181229000Y-49963605D01*
X180400861Y-50791745D01*
X175741793Y-50791745D01*
X175913740Y-50534409D01*
X176025113Y-49974500D01*
X175944101Y-49567223D01*
X179782035Y-49567223D01*
X179809222Y-50137454D01*
X179975136Y-50538005D01*
X180221255Y-50612139D01*
X181049395Y-49784000D01*
X180221255Y-48955861D01*
X179975136Y-49029995D01*
X179782035Y-49567223D01*
X175944101Y-49567223D01*
X175913740Y-49414591D01*
X175596577Y-48939923D01*
X175351631Y-48776255D01*
X180400861Y-48776255D01*
X181229000Y-49604395D01*
X182057139Y-48776255D01*
X181983005Y-48530136D01*
X181445777Y-48337035D01*
X180875546Y-48364222D01*
X180474995Y-48530136D01*
X180400861Y-48776255D01*
X175351631Y-48776255D01*
X175121909Y-48622760D01*
X174703333Y-48539500D01*
X174420667Y-48539500D01*
X174002091Y-48622760D01*
X173527423Y-48939923D01*
X173300389Y-49279703D01*
X173275864Y-49220495D01*
X173029745Y-49146361D01*
X172201605Y-49974500D01*
X173029745Y-50802639D01*
X173275864Y-50728505D01*
X173298280Y-50666141D01*
X173527423Y-51009077D01*
X173677001Y-51109022D01*
X173677001Y-51137635D01*
X173659663Y-51224800D01*
X173728348Y-51570109D01*
X173874576Y-51788954D01*
X173874578Y-51788956D01*
X173923952Y-51862849D01*
X173997845Y-51912223D01*
X174927300Y-52841679D01*
X174927300Y-55296404D01*
X174738862Y-55107966D01*
X174211439Y-54889500D01*
X173742578Y-54889500D01*
X173341525Y-54488447D01*
X173292149Y-54414551D01*
X172999410Y-54218948D01*
X172741265Y-54167600D01*
X172741261Y-54167600D01*
X172654100Y-54150263D01*
X172566939Y-54167600D01*
X166787896Y-54167600D01*
X166768856Y-53653040D01*
X166566387Y-53164236D01*
X166299532Y-53065573D01*
X165326605Y-54038500D01*
X165340748Y-54052643D01*
X165161143Y-54232248D01*
X165147000Y-54218105D01*
X165132858Y-54232248D01*
X164953253Y-54052643D01*
X164967395Y-54038500D01*
X163994468Y-53065573D01*
X163727613Y-53164236D01*
X163501092Y-53773961D01*
X163525144Y-54423960D01*
X163599636Y-54603800D01*
X163414179Y-54603800D01*
X162284725Y-53474347D01*
X162235349Y-53400451D01*
X161942610Y-53204848D01*
X161794440Y-53175375D01*
X161794440Y-53038500D01*
X161764100Y-52885968D01*
X164174073Y-52885968D01*
X165147000Y-53858895D01*
X166119927Y-52885968D01*
X166021264Y-52619113D01*
X165411539Y-52392592D01*
X164761540Y-52416644D01*
X164272736Y-52619113D01*
X164174073Y-52885968D01*
X161764100Y-52885968D01*
X161745157Y-52790735D01*
X161604809Y-52580691D01*
X161394765Y-52440343D01*
X161147000Y-52391060D01*
X159147000Y-52391060D01*
X158899235Y-52440343D01*
X158689191Y-52580691D01*
X158548843Y-52790735D01*
X158499560Y-53038500D01*
X158499560Y-53175375D01*
X158351390Y-53204848D01*
X158238169Y-53280500D01*
X149865012Y-53280500D01*
X149739349Y-53092432D01*
X149765365Y-53087257D01*
X149975409Y-52946909D01*
X150115757Y-52736865D01*
X150165040Y-52489100D01*
X150165040Y-50982245D01*
X171193861Y-50982245D01*
X171267995Y-51228364D01*
X171805223Y-51421465D01*
X172375454Y-51394278D01*
X172776005Y-51228364D01*
X172850139Y-50982245D01*
X172022000Y-50154105D01*
X171193861Y-50982245D01*
X150165040Y-50982245D01*
X150165040Y-50761900D01*
X150115757Y-50514135D01*
X149975409Y-50304091D01*
X149765365Y-50163743D01*
X149517600Y-50114460D01*
X147790400Y-50114460D01*
X147542635Y-50163743D01*
X147332591Y-50304091D01*
X147192243Y-50514135D01*
X147187068Y-50540151D01*
X146698725Y-50213850D01*
X146261598Y-50126900D01*
X145966402Y-50126900D01*
X145529275Y-50213850D01*
X145033570Y-50545070D01*
X144844000Y-50828781D01*
X144654430Y-50545070D01*
X144158725Y-50213850D01*
X143721598Y-50126900D01*
X143426402Y-50126900D01*
X142989275Y-50213850D01*
X142493570Y-50545070D01*
X142162350Y-51040775D01*
X142046041Y-51625500D01*
X142091895Y-51856026D01*
X141653745Y-52294177D01*
X141579852Y-52343551D01*
X141530478Y-52417444D01*
X141530476Y-52417446D01*
X141384248Y-52636291D01*
X141315563Y-52981600D01*
X141332901Y-53068765D01*
X141332900Y-54601139D01*
X141315563Y-54688300D01*
X141332900Y-54775461D01*
X141332900Y-54775464D01*
X141384248Y-55033609D01*
X141579851Y-55326349D01*
X141653747Y-55375725D01*
X142456077Y-56178056D01*
X142505451Y-56251949D01*
X142579344Y-56301323D01*
X142579345Y-56301324D01*
X142614032Y-56324501D01*
X142798190Y-56447552D01*
X143056335Y-56498900D01*
X143056340Y-56498900D01*
X143143499Y-56516237D01*
X143230659Y-56498900D01*
X145241822Y-56498900D01*
X148742046Y-59999125D01*
X148725000Y-60040278D01*
X148725000Y-60690722D01*
X148973914Y-61291653D01*
X149433847Y-61751586D01*
X150034778Y-62000500D01*
X150685222Y-62000500D01*
X150877767Y-61920745D01*
X154873861Y-61920745D01*
X154947995Y-62166864D01*
X155485223Y-62359965D01*
X156055454Y-62332778D01*
X156456005Y-62166864D01*
X156530139Y-61920745D01*
X155702000Y-61092605D01*
X154873861Y-61920745D01*
X150877767Y-61920745D01*
X151286153Y-61751586D01*
X151746086Y-61291653D01*
X151992721Y-60696223D01*
X154255035Y-60696223D01*
X154282222Y-61266454D01*
X154448136Y-61667005D01*
X154694255Y-61741139D01*
X155522395Y-60913000D01*
X155881605Y-60913000D01*
X156709745Y-61741139D01*
X156955864Y-61667005D01*
X157148965Y-61129777D01*
X157131322Y-60759723D01*
X169177035Y-60759723D01*
X169204222Y-61329954D01*
X169370136Y-61730505D01*
X169616255Y-61804639D01*
X170444395Y-60976500D01*
X170803605Y-60976500D01*
X171631745Y-61804639D01*
X171877864Y-61730505D01*
X172070965Y-61193277D01*
X172043778Y-60623046D01*
X171877864Y-60222495D01*
X171631745Y-60148361D01*
X170803605Y-60976500D01*
X170444395Y-60976500D01*
X169616255Y-60148361D01*
X169370136Y-60222495D01*
X169177035Y-60759723D01*
X157131322Y-60759723D01*
X157121778Y-60559546D01*
X156955864Y-60158995D01*
X156709745Y-60084861D01*
X155881605Y-60913000D01*
X155522395Y-60913000D01*
X154694255Y-60084861D01*
X154448136Y-60158995D01*
X154255035Y-60696223D01*
X151992721Y-60696223D01*
X151995000Y-60690722D01*
X151995000Y-60040278D01*
X151977954Y-59999125D01*
X152071824Y-59905255D01*
X154873861Y-59905255D01*
X155702000Y-60733395D01*
X156466639Y-59968755D01*
X169795861Y-59968755D01*
X170624000Y-60796895D01*
X171452139Y-59968755D01*
X171378005Y-59722636D01*
X170840777Y-59529535D01*
X170270546Y-59556722D01*
X169869995Y-59722636D01*
X169795861Y-59968755D01*
X156466639Y-59968755D01*
X156530139Y-59905255D01*
X156456005Y-59659136D01*
X155918777Y-59466035D01*
X155348546Y-59493222D01*
X154947995Y-59659136D01*
X154873861Y-59905255D01*
X152071824Y-59905255D01*
X154767579Y-57209500D01*
X170251479Y-57209500D01*
X170351423Y-57359077D01*
X170826091Y-57676240D01*
X171244667Y-57759500D01*
X171527333Y-57759500D01*
X171945909Y-57676240D01*
X172420577Y-57359077D01*
X172655606Y-57007332D01*
X172709466Y-57137362D01*
X173113138Y-57541034D01*
X173640561Y-57759500D01*
X174211439Y-57759500D01*
X174738862Y-57541034D01*
X174927301Y-57352595D01*
X174927301Y-60790135D01*
X174909963Y-60877300D01*
X174978648Y-61222609D01*
X175124876Y-61441454D01*
X175124878Y-61441456D01*
X175174252Y-61515349D01*
X175248145Y-61564723D01*
X181477981Y-67794560D01*
X180837000Y-67794560D01*
X180589235Y-67843843D01*
X180379191Y-67984191D01*
X180238843Y-68194235D01*
X180189560Y-68442000D01*
X180189560Y-68457000D01*
X179928361Y-68457000D01*
X179841200Y-68439663D01*
X179754039Y-68457000D01*
X179754035Y-68457000D01*
X179495890Y-68508348D01*
X179277045Y-68654576D01*
X179277044Y-68654577D01*
X179203151Y-68703951D01*
X179153777Y-68777844D01*
X166938742Y-80992880D01*
X166798242Y-80899000D01*
X167150577Y-80663577D01*
X167467740Y-80188909D01*
X167579113Y-79629000D01*
X167467740Y-79069091D01*
X167150577Y-78594423D01*
X166798242Y-78359000D01*
X167150577Y-78123577D01*
X167467740Y-77648909D01*
X167579113Y-77089000D01*
X167467740Y-76529091D01*
X167150577Y-76054423D01*
X166798242Y-75819000D01*
X167150577Y-75583577D01*
X167467740Y-75108909D01*
X167579113Y-74549000D01*
X167467740Y-73989091D01*
X167150577Y-73514423D01*
X166798242Y-73279000D01*
X167150577Y-73043577D01*
X167467740Y-72568909D01*
X167579113Y-72009000D01*
X167467740Y-71449091D01*
X167350760Y-71274018D01*
X170069956Y-68554823D01*
X170143849Y-68505449D01*
X170200120Y-68421235D01*
X170339452Y-68212710D01*
X170367671Y-68070843D01*
X170390800Y-67954565D01*
X170390800Y-67954561D01*
X170408137Y-67867400D01*
X170390800Y-67780239D01*
X170390800Y-67411500D01*
X170909439Y-67411500D01*
X171436862Y-67193034D01*
X171840534Y-66789362D01*
X172059000Y-66261939D01*
X172059000Y-65691061D01*
X171840534Y-65163638D01*
X171436862Y-64759966D01*
X170909439Y-64541500D01*
X170338561Y-64541500D01*
X169811138Y-64759966D01*
X169675991Y-64895113D01*
X167399225Y-62618347D01*
X167349849Y-62544451D01*
X167057110Y-62348848D01*
X166798965Y-62297500D01*
X166798961Y-62297500D01*
X166711800Y-62280163D01*
X166624639Y-62297500D01*
X166173687Y-62297500D01*
X165884540Y-62008353D01*
X165826338Y-61984245D01*
X169795861Y-61984245D01*
X169869995Y-62230364D01*
X170407223Y-62423465D01*
X170977454Y-62396278D01*
X171378005Y-62230364D01*
X171452139Y-61984245D01*
X170624000Y-61156105D01*
X169795861Y-61984245D01*
X165826338Y-61984245D01*
X165375494Y-61797500D01*
X164824506Y-61797500D01*
X164315460Y-62008353D01*
X163925853Y-62397960D01*
X163715000Y-62907006D01*
X163715000Y-63457994D01*
X163925853Y-63967040D01*
X164315460Y-64356647D01*
X164824506Y-64567500D01*
X165375494Y-64567500D01*
X165884540Y-64356647D01*
X166173687Y-64067500D01*
X166345222Y-64067500D01*
X168620800Y-66343079D01*
X168620801Y-67500820D01*
X167365517Y-68756104D01*
X167150577Y-68434423D01*
X166675909Y-68117260D01*
X166257333Y-68034000D01*
X165974667Y-68034000D01*
X165556091Y-68117260D01*
X165081423Y-68434423D01*
X164764260Y-68909091D01*
X164652887Y-69469000D01*
X164764260Y-70028909D01*
X164864737Y-70179284D01*
X160664700Y-74379322D01*
X160664700Y-71556561D01*
X160682037Y-71469400D01*
X160664700Y-71382239D01*
X160664700Y-71382235D01*
X160613352Y-71124090D01*
X160573742Y-71064810D01*
X160467124Y-70905245D01*
X160467123Y-70905244D01*
X160417749Y-70831351D01*
X160343856Y-70781977D01*
X159924765Y-70362887D01*
X159943440Y-70269000D01*
X159943440Y-68669000D01*
X159894157Y-68421235D01*
X159753809Y-68211191D01*
X159543765Y-68070843D01*
X159296000Y-68021560D01*
X157696000Y-68021560D01*
X157448235Y-68070843D01*
X157238191Y-68211191D01*
X157097843Y-68421235D01*
X157065467Y-68584000D01*
X153330079Y-68584000D01*
X151977954Y-67231875D01*
X151995000Y-67190722D01*
X151995000Y-66540278D01*
X151746086Y-65939347D01*
X151434300Y-65627561D01*
X154267000Y-65627561D01*
X154267000Y-66198439D01*
X154485466Y-66725862D01*
X154889138Y-67129534D01*
X155416561Y-67348000D01*
X155987439Y-67348000D01*
X156514862Y-67129534D01*
X156918534Y-66725862D01*
X157137000Y-66198439D01*
X157137000Y-65729578D01*
X158799079Y-64067500D01*
X160226313Y-64067500D01*
X160515460Y-64356647D01*
X161024506Y-64567500D01*
X161575494Y-64567500D01*
X162084540Y-64356647D01*
X162474147Y-63967040D01*
X162685000Y-63457994D01*
X162685000Y-62907006D01*
X162474147Y-62397960D01*
X162084540Y-62008353D01*
X161575494Y-61797500D01*
X161024506Y-61797500D01*
X160515460Y-62008353D01*
X160226313Y-62297500D01*
X158519659Y-62297500D01*
X158432499Y-62280163D01*
X158345339Y-62297500D01*
X158345335Y-62297500D01*
X158087190Y-62348848D01*
X158013689Y-62397960D01*
X157868345Y-62495076D01*
X157868344Y-62495077D01*
X157794451Y-62544451D01*
X157745077Y-62618344D01*
X155885422Y-64478000D01*
X155416561Y-64478000D01*
X154889138Y-64696466D01*
X154485466Y-65100138D01*
X154267000Y-65627561D01*
X151434300Y-65627561D01*
X151286153Y-65479414D01*
X150685222Y-65230500D01*
X150034778Y-65230500D01*
X149433847Y-65479414D01*
X148973914Y-65939347D01*
X148725000Y-66540278D01*
X148725000Y-67190722D01*
X148973914Y-67791653D01*
X149433847Y-68251586D01*
X150034778Y-68500500D01*
X150685222Y-68500500D01*
X150726375Y-68483454D01*
X151871821Y-69628900D01*
X147428279Y-69628900D01*
X146274646Y-68475267D01*
X146734264Y-68284887D01*
X146832927Y-68018032D01*
X145860000Y-67045105D01*
X145845858Y-67059248D01*
X145666253Y-66879643D01*
X145680395Y-66865500D01*
X146039605Y-66865500D01*
X147012532Y-67838427D01*
X147279387Y-67739764D01*
X147505908Y-67130039D01*
X147481856Y-66480040D01*
X147279387Y-65991236D01*
X147012532Y-65892573D01*
X146039605Y-66865500D01*
X145680395Y-66865500D01*
X144707468Y-65892573D01*
X144440613Y-65991236D01*
X144264542Y-66465164D01*
X143512346Y-65712968D01*
X144887073Y-65712968D01*
X145860000Y-66685895D01*
X146832927Y-65712968D01*
X146734264Y-65446113D01*
X146124539Y-65219592D01*
X145474540Y-65243644D01*
X144985736Y-65446113D01*
X144887073Y-65712968D01*
X143512346Y-65712968D01*
X142703725Y-64904347D01*
X142654349Y-64830451D01*
X142361610Y-64634848D01*
X142210722Y-64604835D01*
X142164157Y-64370735D01*
X142023809Y-64160691D01*
X141813765Y-64020343D01*
X141566000Y-63971060D01*
X139866000Y-63971060D01*
X139618235Y-64020343D01*
X139408191Y-64160691D01*
X139267843Y-64370735D01*
X139218560Y-64618500D01*
X139218560Y-66318500D01*
X139267843Y-66566265D01*
X139408191Y-66776309D01*
X139618235Y-66916657D01*
X139663619Y-66925684D01*
X139645375Y-66937875D01*
X139317161Y-67429082D01*
X139201908Y-68008500D01*
X139317161Y-68587918D01*
X139645375Y-69079125D01*
X139943761Y-69278500D01*
X139645375Y-69477875D01*
X139317161Y-69969082D01*
X139201908Y-70548500D01*
X139317161Y-71127918D01*
X139645375Y-71619125D01*
X139943761Y-71818500D01*
X139645375Y-72017875D01*
X139317161Y-72509082D01*
X139201908Y-73088500D01*
X139317161Y-73667918D01*
X139645375Y-74159125D01*
X139943761Y-74358500D01*
X139645375Y-74557875D01*
X139317161Y-75049082D01*
X139201908Y-75628500D01*
X139317161Y-76207918D01*
X139645375Y-76699125D01*
X139943761Y-76898500D01*
X139645375Y-77097875D01*
X139317161Y-77589082D01*
X139201908Y-78168500D01*
X139317161Y-78747918D01*
X139645375Y-79239125D01*
X139943761Y-79438500D01*
X139645375Y-79637875D01*
X139317161Y-80129082D01*
X139201908Y-80708500D01*
X139317161Y-81287918D01*
X139645375Y-81779125D01*
X139943761Y-81978500D01*
X139645375Y-82177875D01*
X139317161Y-82669082D01*
X139201908Y-83248500D01*
X139317161Y-83827918D01*
X139645375Y-84319125D01*
X139943761Y-84518500D01*
X139645375Y-84717875D01*
X139317161Y-85209082D01*
X139201908Y-85788500D01*
X139317161Y-86367918D01*
X139645375Y-86859125D01*
X139964478Y-87072343D01*
X139834642Y-87133317D01*
X139444355Y-87561576D01*
X139274524Y-87971610D01*
X139395845Y-88201500D01*
X140589000Y-88201500D01*
X140589000Y-88181500D01*
X140843000Y-88181500D01*
X140843000Y-88201500D01*
X142036155Y-88201500D01*
X142157476Y-87971610D01*
X141987645Y-87561576D01*
X141597358Y-87133317D01*
X141467522Y-87072343D01*
X141786625Y-86859125D01*
X141806140Y-86829918D01*
X149151877Y-94175656D01*
X149201251Y-94249549D01*
X149275144Y-94298923D01*
X149275145Y-94298924D01*
X149493990Y-94445152D01*
X149752135Y-94496500D01*
X149752139Y-94496500D01*
X149839300Y-94513837D01*
X149926461Y-94496500D01*
X163496039Y-94496500D01*
X163583200Y-94513837D01*
X163670361Y-94496500D01*
X163670365Y-94496500D01*
X163928510Y-94445152D01*
X164221249Y-94249549D01*
X164270625Y-94175653D01*
X165082190Y-93364089D01*
X165556091Y-93680740D01*
X165974667Y-93764000D01*
X166257333Y-93764000D01*
X166675909Y-93680740D01*
X167150577Y-93363577D01*
X167253364Y-93209745D01*
X169795861Y-93209745D01*
X169869995Y-93455864D01*
X170407223Y-93648965D01*
X170977454Y-93621778D01*
X171378005Y-93455864D01*
X171452139Y-93209745D01*
X170624000Y-92381605D01*
X169795861Y-93209745D01*
X167253364Y-93209745D01*
X167467740Y-92888909D01*
X167579113Y-92329000D01*
X167510732Y-91985223D01*
X169177035Y-91985223D01*
X169204222Y-92555454D01*
X169370136Y-92956005D01*
X169616255Y-93030139D01*
X170444395Y-92202000D01*
X170803605Y-92202000D01*
X171631745Y-93030139D01*
X171877864Y-92956005D01*
X172070965Y-92418777D01*
X172043778Y-91848546D01*
X171877864Y-91447995D01*
X171631745Y-91373861D01*
X170803605Y-92202000D01*
X170444395Y-92202000D01*
X169616255Y-91373861D01*
X169370136Y-91447995D01*
X169177035Y-91985223D01*
X167510732Y-91985223D01*
X167467740Y-91769091D01*
X167150577Y-91294423D01*
X166798242Y-91059000D01*
X167150577Y-90823577D01*
X167467740Y-90348909D01*
X167579113Y-89789000D01*
X167553852Y-89662000D01*
X169160887Y-89662000D01*
X169272260Y-90221909D01*
X169589423Y-90696577D01*
X169929203Y-90923611D01*
X169869995Y-90948136D01*
X169795861Y-91194255D01*
X170624000Y-92022395D01*
X171452139Y-91194255D01*
X171378005Y-90948136D01*
X171315641Y-90925720D01*
X171658577Y-90696577D01*
X171975740Y-90221909D01*
X172087113Y-89662000D01*
X171975740Y-89102091D01*
X171658577Y-88627423D01*
X171183909Y-88310260D01*
X170952602Y-88264250D01*
X177320000Y-88264250D01*
X177320000Y-89604809D01*
X177416673Y-89838198D01*
X177595301Y-90016827D01*
X177828690Y-90113500D01*
X179419250Y-90113500D01*
X179578000Y-89954750D01*
X179578000Y-88105500D01*
X179832000Y-88105500D01*
X179832000Y-89954750D01*
X179990750Y-90113500D01*
X181581310Y-90113500D01*
X181814699Y-90016827D01*
X181993327Y-89838198D01*
X182090000Y-89604809D01*
X182090000Y-88264250D01*
X181931250Y-88105500D01*
X179832000Y-88105500D01*
X179578000Y-88105500D01*
X177478750Y-88105500D01*
X177320000Y-88264250D01*
X170952602Y-88264250D01*
X170765333Y-88227000D01*
X170482667Y-88227000D01*
X170064091Y-88310260D01*
X169589423Y-88627423D01*
X169272260Y-89102091D01*
X169160887Y-89662000D01*
X167553852Y-89662000D01*
X167467740Y-89229091D01*
X167150577Y-88754423D01*
X166798242Y-88519000D01*
X167150577Y-88283577D01*
X167467740Y-87808909D01*
X167579113Y-87249000D01*
X167467740Y-86689091D01*
X167150577Y-86214423D01*
X166951263Y-86081245D01*
X170049861Y-86081245D01*
X170123995Y-86327364D01*
X170661223Y-86520465D01*
X171231454Y-86493278D01*
X171572067Y-86352191D01*
X177320000Y-86352191D01*
X177320000Y-87692750D01*
X177478750Y-87851500D01*
X179578000Y-87851500D01*
X179578000Y-86002250D01*
X179832000Y-86002250D01*
X179832000Y-87851500D01*
X181931250Y-87851500D01*
X182090000Y-87692750D01*
X182090000Y-86352191D01*
X181993327Y-86118802D01*
X181814699Y-85940173D01*
X181581310Y-85843500D01*
X179990750Y-85843500D01*
X179832000Y-86002250D01*
X179578000Y-86002250D01*
X179419250Y-85843500D01*
X177828690Y-85843500D01*
X177595301Y-85940173D01*
X177416673Y-86118802D01*
X177320000Y-86352191D01*
X171572067Y-86352191D01*
X171632005Y-86327364D01*
X171706139Y-86081245D01*
X170878000Y-85253105D01*
X170049861Y-86081245D01*
X166951263Y-86081245D01*
X166798242Y-85979000D01*
X167150577Y-85743577D01*
X167467740Y-85268909D01*
X167549729Y-84856723D01*
X169431035Y-84856723D01*
X169458222Y-85426954D01*
X169624136Y-85827505D01*
X169870255Y-85901639D01*
X170698395Y-85073500D01*
X171057605Y-85073500D01*
X171885745Y-85901639D01*
X172131864Y-85827505D01*
X172324965Y-85290277D01*
X172297778Y-84720046D01*
X172131864Y-84319495D01*
X171885745Y-84245361D01*
X171057605Y-85073500D01*
X170698395Y-85073500D01*
X169870255Y-84245361D01*
X169624136Y-84319495D01*
X169431035Y-84856723D01*
X167549729Y-84856723D01*
X167579113Y-84709000D01*
X167467740Y-84149091D01*
X167412057Y-84065755D01*
X170049861Y-84065755D01*
X170878000Y-84893895D01*
X171706139Y-84065755D01*
X171632005Y-83819636D01*
X171094777Y-83626535D01*
X170524546Y-83653722D01*
X170123995Y-83819636D01*
X170049861Y-84065755D01*
X167412057Y-84065755D01*
X167370226Y-84003152D01*
X167930456Y-83442923D01*
X168004349Y-83393549D01*
X168199952Y-83100810D01*
X168251300Y-82842665D01*
X168251300Y-82842661D01*
X168268637Y-82755500D01*
X168251300Y-82668339D01*
X168251300Y-82183478D01*
X169628354Y-80806424D01*
X169661466Y-80886362D01*
X170065138Y-81290034D01*
X170592561Y-81508500D01*
X171163439Y-81508500D01*
X171690862Y-81290034D01*
X172094534Y-80886362D01*
X172313000Y-80358939D01*
X172313000Y-79890079D01*
X172747479Y-79455600D01*
X182072739Y-79455600D01*
X182159900Y-79472937D01*
X182247061Y-79455600D01*
X182247065Y-79455600D01*
X182505210Y-79404252D01*
X182797949Y-79208649D01*
X182847325Y-79134753D01*
X183486252Y-78495826D01*
X183832000Y-78564600D01*
X184451411Y-78441391D01*
X184976523Y-78090523D01*
X185327391Y-77565410D01*
X185419500Y-77102349D01*
X185419500Y-76694650D01*
X185327391Y-76231589D01*
X184976523Y-75706477D01*
X184451410Y-75355609D01*
X183832000Y-75232400D01*
X183212589Y-75355609D01*
X182687477Y-75706477D01*
X182552841Y-75907974D01*
X182158924Y-75522527D01*
X181664980Y-75307937D01*
X181419000Y-75427906D01*
X181419000Y-76771500D01*
X181439000Y-76771500D01*
X181439000Y-77025500D01*
X181419000Y-77025500D01*
X181419000Y-77045500D01*
X181165000Y-77045500D01*
X181165000Y-77025500D01*
X181145000Y-77025500D01*
X181145000Y-76771500D01*
X181165000Y-76771500D01*
X181165000Y-75427906D01*
X180919020Y-75307937D01*
X180425076Y-75522527D01*
X180299255Y-75645643D01*
X180162309Y-75440691D01*
X179952265Y-75300343D01*
X179704500Y-75251060D01*
X177799500Y-75251060D01*
X177551735Y-75300343D01*
X177341691Y-75440691D01*
X177201343Y-75650735D01*
X177152060Y-75898500D01*
X177152060Y-77685600D01*
X172749178Y-77685600D01*
X180190094Y-70244685D01*
X180238843Y-70489765D01*
X180379191Y-70699809D01*
X180589235Y-70840157D01*
X180837000Y-70889440D01*
X182637000Y-70889440D01*
X182884765Y-70840157D01*
X183094809Y-70699809D01*
X183235157Y-70489765D01*
X183238275Y-70474092D01*
X183407493Y-70643310D01*
X183971670Y-70877000D01*
X184582330Y-70877000D01*
X185146507Y-70643310D01*
X185578310Y-70211507D01*
X185726501Y-69853744D01*
X185726500Y-82669874D01*
X185280000Y-82581060D01*
X183530000Y-82581060D01*
X182947387Y-82696949D01*
X182453472Y-83026972D01*
X182123449Y-83520887D01*
X182102440Y-83626506D01*
X182102440Y-80228500D01*
X182053157Y-79980735D01*
X181912809Y-79770691D01*
X181702765Y-79630343D01*
X181455000Y-79581060D01*
X177955000Y-79581060D01*
X177707235Y-79630343D01*
X177497191Y-79770691D01*
X177356843Y-79980735D01*
X177307560Y-80228500D01*
X177307560Y-83728500D01*
X177356843Y-83976265D01*
X177497191Y-84186309D01*
X177707235Y-84326657D01*
X177955000Y-84375940D01*
X181455000Y-84375940D01*
X181702765Y-84326657D01*
X181912809Y-84186309D01*
X182024269Y-84019499D01*
X182007560Y-84103500D01*
X182007560Y-85853500D01*
X182123449Y-86436113D01*
X182453472Y-86930028D01*
X182947387Y-87260051D01*
X183530000Y-87375940D01*
X185280000Y-87375940D01*
X185726500Y-87287126D01*
X185726500Y-96102500D01*
X137196500Y-96102500D01*
X137196500Y-93408500D01*
X139201908Y-93408500D01*
X139317161Y-93987918D01*
X139645375Y-94479125D01*
X140136582Y-94807339D01*
X140569744Y-94893500D01*
X140862256Y-94893500D01*
X141295418Y-94807339D01*
X141786625Y-94479125D01*
X142114839Y-93987918D01*
X142230092Y-93408500D01*
X142114839Y-92829082D01*
X141786625Y-92337875D01*
X141467522Y-92124657D01*
X141597358Y-92063683D01*
X141987645Y-91635424D01*
X142157476Y-91225390D01*
X142036155Y-90995500D01*
X140843000Y-90995500D01*
X140843000Y-91015500D01*
X140589000Y-91015500D01*
X140589000Y-90995500D01*
X139395845Y-90995500D01*
X139274524Y-91225390D01*
X139444355Y-91635424D01*
X139834642Y-92063683D01*
X139964478Y-92124657D01*
X139645375Y-92337875D01*
X139317161Y-92829082D01*
X139201908Y-93408500D01*
X137196500Y-93408500D01*
X137196500Y-88685390D01*
X139274524Y-88685390D01*
X139444355Y-89095424D01*
X139834642Y-89523683D01*
X139993954Y-89598500D01*
X139834642Y-89673317D01*
X139444355Y-90101576D01*
X139274524Y-90511610D01*
X139395845Y-90741500D01*
X140589000Y-90741500D01*
X140589000Y-88455500D01*
X140843000Y-88455500D01*
X140843000Y-90741500D01*
X142036155Y-90741500D01*
X142157476Y-90511610D01*
X141987645Y-90101576D01*
X141597358Y-89673317D01*
X141438046Y-89598500D01*
X141597358Y-89523683D01*
X141987645Y-89095424D01*
X142157476Y-88685390D01*
X142036155Y-88455500D01*
X140843000Y-88455500D01*
X140589000Y-88455500D01*
X139395845Y-88455500D01*
X139274524Y-88685390D01*
X137196500Y-88685390D01*
X137196500Y-61518032D01*
X144887073Y-61518032D01*
X144985736Y-61784887D01*
X145595461Y-62011408D01*
X146245460Y-61987356D01*
X146734264Y-61784887D01*
X146832927Y-61518032D01*
X145860000Y-60545105D01*
X144887073Y-61518032D01*
X137196500Y-61518032D01*
X137196500Y-60100961D01*
X144214092Y-60100961D01*
X144238144Y-60750960D01*
X144440613Y-61239764D01*
X144707468Y-61338427D01*
X145680395Y-60365500D01*
X146039605Y-60365500D01*
X147012532Y-61338427D01*
X147279387Y-61239764D01*
X147505908Y-60630039D01*
X147481856Y-59980040D01*
X147279387Y-59491236D01*
X147012532Y-59392573D01*
X146039605Y-60365500D01*
X145680395Y-60365500D01*
X144707468Y-59392573D01*
X144440613Y-59491236D01*
X144214092Y-60100961D01*
X137196500Y-60100961D01*
X137196500Y-59212968D01*
X144887073Y-59212968D01*
X145860000Y-60185895D01*
X146832927Y-59212968D01*
X146734264Y-58946113D01*
X146124539Y-58719592D01*
X145474540Y-58743644D01*
X144985736Y-58946113D01*
X144887073Y-59212968D01*
X137196500Y-59212968D01*
X137196500Y-49757723D01*
X170575035Y-49757723D01*
X170602222Y-50327954D01*
X170768136Y-50728505D01*
X171014255Y-50802639D01*
X171842395Y-49974500D01*
X171014255Y-49146361D01*
X170768136Y-49220495D01*
X170575035Y-49757723D01*
X137196500Y-49757723D01*
X137196500Y-48966755D01*
X171193861Y-48966755D01*
X172022000Y-49794895D01*
X172850139Y-48966755D01*
X172776005Y-48720636D01*
X172238777Y-48527535D01*
X171668546Y-48554722D01*
X171267995Y-48720636D01*
X171193861Y-48966755D01*
X137196500Y-48966755D01*
X137196500Y-47572500D01*
X185726501Y-47572500D01*
X185726501Y-51740222D01*
X185726501Y-51740222D01*
G37*
X185726501Y-51740222D02*
X184804089Y-50817811D01*
X185120740Y-50343909D01*
X185232113Y-49784000D01*
X185120740Y-49224091D01*
X184803577Y-48749423D01*
X184328909Y-48432260D01*
X183910333Y-48349000D01*
X183627667Y-48349000D01*
X183209091Y-48432260D01*
X182734423Y-48749423D01*
X182507389Y-49089203D01*
X182482864Y-49029995D01*
X182236745Y-48955861D01*
X181408605Y-49784000D01*
X182236745Y-50612139D01*
X182482864Y-50538005D01*
X182505280Y-50475641D01*
X182734423Y-50818577D01*
X182884001Y-50918522D01*
X182884001Y-50947135D01*
X182866663Y-51034300D01*
X182935348Y-51379609D01*
X183081576Y-51598454D01*
X183081578Y-51598456D01*
X183130952Y-51672349D01*
X183204845Y-51721723D01*
X184793200Y-53310079D01*
X184793200Y-54495845D01*
X184582330Y-54408500D01*
X183971670Y-54408500D01*
X183407493Y-54642190D01*
X183238275Y-54811408D01*
X183235157Y-54795735D01*
X183094809Y-54585691D01*
X182884765Y-54445343D01*
X182637000Y-54396060D01*
X180837000Y-54396060D01*
X180589235Y-54445343D01*
X180379191Y-54585691D01*
X180238843Y-54795735D01*
X180189560Y-55043500D01*
X180189560Y-56843500D01*
X180238843Y-57091265D01*
X180379191Y-57301309D01*
X180589235Y-57441657D01*
X180837000Y-57490940D01*
X182637000Y-57490940D01*
X182884765Y-57441657D01*
X183094809Y-57301309D01*
X183235157Y-57091265D01*
X183238275Y-57075592D01*
X183407493Y-57244810D01*
X183971670Y-57478500D01*
X184582330Y-57478500D01*
X184793201Y-57391154D01*
X184793201Y-60525720D01*
X184560421Y-60758500D01*
X183971670Y-60758500D01*
X183407493Y-60992190D01*
X183238275Y-61161408D01*
X183235157Y-61145735D01*
X183094809Y-60935691D01*
X182884765Y-60795343D01*
X182637000Y-60746060D01*
X180837000Y-60746060D01*
X180589235Y-60795343D01*
X180379191Y-60935691D01*
X180238843Y-61145735D01*
X180189560Y-61393500D01*
X180189560Y-63193500D01*
X180238843Y-63441265D01*
X180379191Y-63651309D01*
X180589235Y-63791657D01*
X180837000Y-63840940D01*
X182637000Y-63840940D01*
X182884765Y-63791657D01*
X183094809Y-63651309D01*
X183235157Y-63441265D01*
X183238275Y-63425592D01*
X183407493Y-63594810D01*
X183971670Y-63828500D01*
X184582330Y-63828500D01*
X185146507Y-63594810D01*
X185578310Y-63163007D01*
X185726501Y-62805243D01*
X185726501Y-68830256D01*
X185578310Y-68472493D01*
X185146507Y-68040690D01*
X184582330Y-67807000D01*
X183993579Y-67807000D01*
X176697300Y-60510722D01*
X176697300Y-52562259D01*
X176714637Y-52475099D01*
X176697300Y-52387939D01*
X176697300Y-52387935D01*
X176645952Y-52129790D01*
X176573915Y-52021980D01*
X176499724Y-51910945D01*
X176499723Y-51910944D01*
X176450349Y-51837051D01*
X176376456Y-51787677D01*
X175597089Y-51008311D01*
X175741793Y-50791745D01*
X180400861Y-50791745D01*
X180474995Y-51037864D01*
X181012223Y-51230965D01*
X181582454Y-51203778D01*
X181983005Y-51037864D01*
X182057139Y-50791745D01*
X181229000Y-49963605D01*
X180400861Y-50791745D01*
X175741793Y-50791745D01*
X175913740Y-50534409D01*
X176025113Y-49974500D01*
X175944101Y-49567223D01*
X179782035Y-49567223D01*
X179809222Y-50137454D01*
X179975136Y-50538005D01*
X180221255Y-50612139D01*
X181049395Y-49784000D01*
X180221255Y-48955861D01*
X179975136Y-49029995D01*
X179782035Y-49567223D01*
X175944101Y-49567223D01*
X175913740Y-49414591D01*
X175596577Y-48939923D01*
X175351631Y-48776255D01*
X180400861Y-48776255D01*
X181229000Y-49604395D01*
X182057139Y-48776255D01*
X181983005Y-48530136D01*
X181445777Y-48337035D01*
X180875546Y-48364222D01*
X180474995Y-48530136D01*
X180400861Y-48776255D01*
X175351631Y-48776255D01*
X175121909Y-48622760D01*
X174703333Y-48539500D01*
X174420667Y-48539500D01*
X174002091Y-48622760D01*
X173527423Y-48939923D01*
X173300389Y-49279703D01*
X173275864Y-49220495D01*
X173029745Y-49146361D01*
X172201605Y-49974500D01*
X173029745Y-50802639D01*
X173275864Y-50728505D01*
X173298280Y-50666141D01*
X173527423Y-51009077D01*
X173677001Y-51109022D01*
X173677001Y-51137635D01*
X173659663Y-51224800D01*
X173728348Y-51570109D01*
X173874576Y-51788954D01*
X173874578Y-51788956D01*
X173923952Y-51862849D01*
X173997845Y-51912223D01*
X174927300Y-52841679D01*
X174927300Y-55296404D01*
X174738862Y-55107966D01*
X174211439Y-54889500D01*
X173742578Y-54889500D01*
X173341525Y-54488447D01*
X173292149Y-54414551D01*
X172999410Y-54218948D01*
X172741265Y-54167600D01*
X172741261Y-54167600D01*
X172654100Y-54150263D01*
X172566939Y-54167600D01*
X166787896Y-54167600D01*
X166768856Y-53653040D01*
X166566387Y-53164236D01*
X166299532Y-53065573D01*
X165326605Y-54038500D01*
X165340748Y-54052643D01*
X165161143Y-54232248D01*
X165147000Y-54218105D01*
X165132858Y-54232248D01*
X164953253Y-54052643D01*
X164967395Y-54038500D01*
X163994468Y-53065573D01*
X163727613Y-53164236D01*
X163501092Y-53773961D01*
X163525144Y-54423960D01*
X163599636Y-54603800D01*
X163414179Y-54603800D01*
X162284725Y-53474347D01*
X162235349Y-53400451D01*
X161942610Y-53204848D01*
X161794440Y-53175375D01*
X161794440Y-53038500D01*
X161764100Y-52885968D01*
X164174073Y-52885968D01*
X165147000Y-53858895D01*
X166119927Y-52885968D01*
X166021264Y-52619113D01*
X165411539Y-52392592D01*
X164761540Y-52416644D01*
X164272736Y-52619113D01*
X164174073Y-52885968D01*
X161764100Y-52885968D01*
X161745157Y-52790735D01*
X161604809Y-52580691D01*
X161394765Y-52440343D01*
X161147000Y-52391060D01*
X159147000Y-52391060D01*
X158899235Y-52440343D01*
X158689191Y-52580691D01*
X158548843Y-52790735D01*
X158499560Y-53038500D01*
X158499560Y-53175375D01*
X158351390Y-53204848D01*
X158238169Y-53280500D01*
X149865012Y-53280500D01*
X149739349Y-53092432D01*
X149765365Y-53087257D01*
X149975409Y-52946909D01*
X150115757Y-52736865D01*
X150165040Y-52489100D01*
X150165040Y-50982245D01*
X171193861Y-50982245D01*
X171267995Y-51228364D01*
X171805223Y-51421465D01*
X172375454Y-51394278D01*
X172776005Y-51228364D01*
X172850139Y-50982245D01*
X172022000Y-50154105D01*
X171193861Y-50982245D01*
X150165040Y-50982245D01*
X150165040Y-50761900D01*
X150115757Y-50514135D01*
X149975409Y-50304091D01*
X149765365Y-50163743D01*
X149517600Y-50114460D01*
X147790400Y-50114460D01*
X147542635Y-50163743D01*
X147332591Y-50304091D01*
X147192243Y-50514135D01*
X147187068Y-50540151D01*
X146698725Y-50213850D01*
X146261598Y-50126900D01*
X145966402Y-50126900D01*
X145529275Y-50213850D01*
X145033570Y-50545070D01*
X144844000Y-50828781D01*
X144654430Y-50545070D01*
X144158725Y-50213850D01*
X143721598Y-50126900D01*
X143426402Y-50126900D01*
X142989275Y-50213850D01*
X142493570Y-50545070D01*
X142162350Y-51040775D01*
X142046041Y-51625500D01*
X142091895Y-51856026D01*
X141653745Y-52294177D01*
X141579852Y-52343551D01*
X141530478Y-52417444D01*
X141530476Y-52417446D01*
X141384248Y-52636291D01*
X141315563Y-52981600D01*
X141332901Y-53068765D01*
X141332900Y-54601139D01*
X141315563Y-54688300D01*
X141332900Y-54775461D01*
X141332900Y-54775464D01*
X141384248Y-55033609D01*
X141579851Y-55326349D01*
X141653747Y-55375725D01*
X142456077Y-56178056D01*
X142505451Y-56251949D01*
X142579344Y-56301323D01*
X142579345Y-56301324D01*
X142614032Y-56324501D01*
X142798190Y-56447552D01*
X143056335Y-56498900D01*
X143056340Y-56498900D01*
X143143499Y-56516237D01*
X143230659Y-56498900D01*
X145241822Y-56498900D01*
X148742046Y-59999125D01*
X148725000Y-60040278D01*
X148725000Y-60690722D01*
X148973914Y-61291653D01*
X149433847Y-61751586D01*
X150034778Y-62000500D01*
X150685222Y-62000500D01*
X150877767Y-61920745D01*
X154873861Y-61920745D01*
X154947995Y-62166864D01*
X155485223Y-62359965D01*
X156055454Y-62332778D01*
X156456005Y-62166864D01*
X156530139Y-61920745D01*
X155702000Y-61092605D01*
X154873861Y-61920745D01*
X150877767Y-61920745D01*
X151286153Y-61751586D01*
X151746086Y-61291653D01*
X151992721Y-60696223D01*
X154255035Y-60696223D01*
X154282222Y-61266454D01*
X154448136Y-61667005D01*
X154694255Y-61741139D01*
X155522395Y-60913000D01*
X155881605Y-60913000D01*
X156709745Y-61741139D01*
X156955864Y-61667005D01*
X157148965Y-61129777D01*
X157131322Y-60759723D01*
X169177035Y-60759723D01*
X169204222Y-61329954D01*
X169370136Y-61730505D01*
X169616255Y-61804639D01*
X170444395Y-60976500D01*
X170803605Y-60976500D01*
X171631745Y-61804639D01*
X171877864Y-61730505D01*
X172070965Y-61193277D01*
X172043778Y-60623046D01*
X171877864Y-60222495D01*
X171631745Y-60148361D01*
X170803605Y-60976500D01*
X170444395Y-60976500D01*
X169616255Y-60148361D01*
X169370136Y-60222495D01*
X169177035Y-60759723D01*
X157131322Y-60759723D01*
X157121778Y-60559546D01*
X156955864Y-60158995D01*
X156709745Y-60084861D01*
X155881605Y-60913000D01*
X155522395Y-60913000D01*
X154694255Y-60084861D01*
X154448136Y-60158995D01*
X154255035Y-60696223D01*
X151992721Y-60696223D01*
X151995000Y-60690722D01*
X151995000Y-60040278D01*
X151977954Y-59999125D01*
X152071824Y-59905255D01*
X154873861Y-59905255D01*
X155702000Y-60733395D01*
X156466639Y-59968755D01*
X169795861Y-59968755D01*
X170624000Y-60796895D01*
X171452139Y-59968755D01*
X171378005Y-59722636D01*
X170840777Y-59529535D01*
X170270546Y-59556722D01*
X169869995Y-59722636D01*
X169795861Y-59968755D01*
X156466639Y-59968755D01*
X156530139Y-59905255D01*
X156456005Y-59659136D01*
X155918777Y-59466035D01*
X155348546Y-59493222D01*
X154947995Y-59659136D01*
X154873861Y-59905255D01*
X152071824Y-59905255D01*
X154767579Y-57209500D01*
X170251479Y-57209500D01*
X170351423Y-57359077D01*
X170826091Y-57676240D01*
X171244667Y-57759500D01*
X171527333Y-57759500D01*
X171945909Y-57676240D01*
X172420577Y-57359077D01*
X172655606Y-57007332D01*
X172709466Y-57137362D01*
X173113138Y-57541034D01*
X173640561Y-57759500D01*
X174211439Y-57759500D01*
X174738862Y-57541034D01*
X174927301Y-57352595D01*
X174927301Y-60790135D01*
X174909963Y-60877300D01*
X174978648Y-61222609D01*
X175124876Y-61441454D01*
X175124878Y-61441456D01*
X175174252Y-61515349D01*
X175248145Y-61564723D01*
X181477981Y-67794560D01*
X180837000Y-67794560D01*
X180589235Y-67843843D01*
X180379191Y-67984191D01*
X180238843Y-68194235D01*
X180189560Y-68442000D01*
X180189560Y-68457000D01*
X179928361Y-68457000D01*
X179841200Y-68439663D01*
X179754039Y-68457000D01*
X179754035Y-68457000D01*
X179495890Y-68508348D01*
X179277045Y-68654576D01*
X179277044Y-68654577D01*
X179203151Y-68703951D01*
X179153777Y-68777844D01*
X166938742Y-80992880D01*
X166798242Y-80899000D01*
X167150577Y-80663577D01*
X167467740Y-80188909D01*
X167579113Y-79629000D01*
X167467740Y-79069091D01*
X167150577Y-78594423D01*
X166798242Y-78359000D01*
X167150577Y-78123577D01*
X167467740Y-77648909D01*
X167579113Y-77089000D01*
X167467740Y-76529091D01*
X167150577Y-76054423D01*
X166798242Y-75819000D01*
X167150577Y-75583577D01*
X167467740Y-75108909D01*
X167579113Y-74549000D01*
X167467740Y-73989091D01*
X167150577Y-73514423D01*
X166798242Y-73279000D01*
X167150577Y-73043577D01*
X167467740Y-72568909D01*
X167579113Y-72009000D01*
X167467740Y-71449091D01*
X167350760Y-71274018D01*
X170069956Y-68554823D01*
X170143849Y-68505449D01*
X170200120Y-68421235D01*
X170339452Y-68212710D01*
X170367671Y-68070843D01*
X170390800Y-67954565D01*
X170390800Y-67954561D01*
X170408137Y-67867400D01*
X170390800Y-67780239D01*
X170390800Y-67411500D01*
X170909439Y-67411500D01*
X171436862Y-67193034D01*
X171840534Y-66789362D01*
X172059000Y-66261939D01*
X172059000Y-65691061D01*
X171840534Y-65163638D01*
X171436862Y-64759966D01*
X170909439Y-64541500D01*
X170338561Y-64541500D01*
X169811138Y-64759966D01*
X169675991Y-64895113D01*
X167399225Y-62618347D01*
X167349849Y-62544451D01*
X167057110Y-62348848D01*
X166798965Y-62297500D01*
X166798961Y-62297500D01*
X166711800Y-62280163D01*
X166624639Y-62297500D01*
X166173687Y-62297500D01*
X165884540Y-62008353D01*
X165826338Y-61984245D01*
X169795861Y-61984245D01*
X169869995Y-62230364D01*
X170407223Y-62423465D01*
X170977454Y-62396278D01*
X171378005Y-62230364D01*
X171452139Y-61984245D01*
X170624000Y-61156105D01*
X169795861Y-61984245D01*
X165826338Y-61984245D01*
X165375494Y-61797500D01*
X164824506Y-61797500D01*
X164315460Y-62008353D01*
X163925853Y-62397960D01*
X163715000Y-62907006D01*
X163715000Y-63457994D01*
X163925853Y-63967040D01*
X164315460Y-64356647D01*
X164824506Y-64567500D01*
X165375494Y-64567500D01*
X165884540Y-64356647D01*
X166173687Y-64067500D01*
X166345222Y-64067500D01*
X168620800Y-66343079D01*
X168620801Y-67500820D01*
X167365517Y-68756104D01*
X167150577Y-68434423D01*
X166675909Y-68117260D01*
X166257333Y-68034000D01*
X165974667Y-68034000D01*
X165556091Y-68117260D01*
X165081423Y-68434423D01*
X164764260Y-68909091D01*
X164652887Y-69469000D01*
X164764260Y-70028909D01*
X164864737Y-70179284D01*
X160664700Y-74379322D01*
X160664700Y-71556561D01*
X160682037Y-71469400D01*
X160664700Y-71382239D01*
X160664700Y-71382235D01*
X160613352Y-71124090D01*
X160573742Y-71064810D01*
X160467124Y-70905245D01*
X160467123Y-70905244D01*
X160417749Y-70831351D01*
X160343856Y-70781977D01*
X159924765Y-70362887D01*
X159943440Y-70269000D01*
X159943440Y-68669000D01*
X159894157Y-68421235D01*
X159753809Y-68211191D01*
X159543765Y-68070843D01*
X159296000Y-68021560D01*
X157696000Y-68021560D01*
X157448235Y-68070843D01*
X157238191Y-68211191D01*
X157097843Y-68421235D01*
X157065467Y-68584000D01*
X153330079Y-68584000D01*
X151977954Y-67231875D01*
X151995000Y-67190722D01*
X151995000Y-66540278D01*
X151746086Y-65939347D01*
X151434300Y-65627561D01*
X154267000Y-65627561D01*
X154267000Y-66198439D01*
X154485466Y-66725862D01*
X154889138Y-67129534D01*
X155416561Y-67348000D01*
X155987439Y-67348000D01*
X156514862Y-67129534D01*
X156918534Y-66725862D01*
X157137000Y-66198439D01*
X157137000Y-65729578D01*
X158799079Y-64067500D01*
X160226313Y-64067500D01*
X160515460Y-64356647D01*
X161024506Y-64567500D01*
X161575494Y-64567500D01*
X162084540Y-64356647D01*
X162474147Y-63967040D01*
X162685000Y-63457994D01*
X162685000Y-62907006D01*
X162474147Y-62397960D01*
X162084540Y-62008353D01*
X161575494Y-61797500D01*
X161024506Y-61797500D01*
X160515460Y-62008353D01*
X160226313Y-62297500D01*
X158519659Y-62297500D01*
X158432499Y-62280163D01*
X158345339Y-62297500D01*
X158345335Y-62297500D01*
X158087190Y-62348848D01*
X158013689Y-62397960D01*
X157868345Y-62495076D01*
X157868344Y-62495077D01*
X157794451Y-62544451D01*
X157745077Y-62618344D01*
X155885422Y-64478000D01*
X155416561Y-64478000D01*
X154889138Y-64696466D01*
X154485466Y-65100138D01*
X154267000Y-65627561D01*
X151434300Y-65627561D01*
X151286153Y-65479414D01*
X150685222Y-65230500D01*
X150034778Y-65230500D01*
X149433847Y-65479414D01*
X148973914Y-65939347D01*
X148725000Y-66540278D01*
X148725000Y-67190722D01*
X148973914Y-67791653D01*
X149433847Y-68251586D01*
X150034778Y-68500500D01*
X150685222Y-68500500D01*
X150726375Y-68483454D01*
X151871821Y-69628900D01*
X147428279Y-69628900D01*
X146274646Y-68475267D01*
X146734264Y-68284887D01*
X146832927Y-68018032D01*
X145860000Y-67045105D01*
X145845858Y-67059248D01*
X145666253Y-66879643D01*
X145680395Y-66865500D01*
X146039605Y-66865500D01*
X147012532Y-67838427D01*
X147279387Y-67739764D01*
X147505908Y-67130039D01*
X147481856Y-66480040D01*
X147279387Y-65991236D01*
X147012532Y-65892573D01*
X146039605Y-66865500D01*
X145680395Y-66865500D01*
X144707468Y-65892573D01*
X144440613Y-65991236D01*
X144264542Y-66465164D01*
X143512346Y-65712968D01*
X144887073Y-65712968D01*
X145860000Y-66685895D01*
X146832927Y-65712968D01*
X146734264Y-65446113D01*
X146124539Y-65219592D01*
X145474540Y-65243644D01*
X144985736Y-65446113D01*
X144887073Y-65712968D01*
X143512346Y-65712968D01*
X142703725Y-64904347D01*
X142654349Y-64830451D01*
X142361610Y-64634848D01*
X142210722Y-64604835D01*
X142164157Y-64370735D01*
X142023809Y-64160691D01*
X141813765Y-64020343D01*
X141566000Y-63971060D01*
X139866000Y-63971060D01*
X139618235Y-64020343D01*
X139408191Y-64160691D01*
X139267843Y-64370735D01*
X139218560Y-64618500D01*
X139218560Y-66318500D01*
X139267843Y-66566265D01*
X139408191Y-66776309D01*
X139618235Y-66916657D01*
X139663619Y-66925684D01*
X139645375Y-66937875D01*
X139317161Y-67429082D01*
X139201908Y-68008500D01*
X139317161Y-68587918D01*
X139645375Y-69079125D01*
X139943761Y-69278500D01*
X139645375Y-69477875D01*
X139317161Y-69969082D01*
X139201908Y-70548500D01*
X139317161Y-71127918D01*
X139645375Y-71619125D01*
X139943761Y-71818500D01*
X139645375Y-72017875D01*
X139317161Y-72509082D01*
X139201908Y-73088500D01*
X139317161Y-73667918D01*
X139645375Y-74159125D01*
X139943761Y-74358500D01*
X139645375Y-74557875D01*
X139317161Y-75049082D01*
X139201908Y-75628500D01*
X139317161Y-76207918D01*
X139645375Y-76699125D01*
X139943761Y-76898500D01*
X139645375Y-77097875D01*
X139317161Y-77589082D01*
X139201908Y-78168500D01*
X139317161Y-78747918D01*
X139645375Y-79239125D01*
X139943761Y-79438500D01*
X139645375Y-79637875D01*
X139317161Y-80129082D01*
X139201908Y-80708500D01*
X139317161Y-81287918D01*
X139645375Y-81779125D01*
X139943761Y-81978500D01*
X139645375Y-82177875D01*
X139317161Y-82669082D01*
X139201908Y-83248500D01*
X139317161Y-83827918D01*
X139645375Y-84319125D01*
X139943761Y-84518500D01*
X139645375Y-84717875D01*
X139317161Y-85209082D01*
X139201908Y-85788500D01*
X139317161Y-86367918D01*
X139645375Y-86859125D01*
X139964478Y-87072343D01*
X139834642Y-87133317D01*
X139444355Y-87561576D01*
X139274524Y-87971610D01*
X139395845Y-88201500D01*
X140589000Y-88201500D01*
X140589000Y-88181500D01*
X140843000Y-88181500D01*
X140843000Y-88201500D01*
X142036155Y-88201500D01*
X142157476Y-87971610D01*
X141987645Y-87561576D01*
X141597358Y-87133317D01*
X141467522Y-87072343D01*
X141786625Y-86859125D01*
X141806140Y-86829918D01*
X149151877Y-94175656D01*
X149201251Y-94249549D01*
X149275144Y-94298923D01*
X149275145Y-94298924D01*
X149493990Y-94445152D01*
X149752135Y-94496500D01*
X149752139Y-94496500D01*
X149839300Y-94513837D01*
X149926461Y-94496500D01*
X163496039Y-94496500D01*
X163583200Y-94513837D01*
X163670361Y-94496500D01*
X163670365Y-94496500D01*
X163928510Y-94445152D01*
X164221249Y-94249549D01*
X164270625Y-94175653D01*
X165082190Y-93364089D01*
X165556091Y-93680740D01*
X165974667Y-93764000D01*
X166257333Y-93764000D01*
X166675909Y-93680740D01*
X167150577Y-93363577D01*
X167253364Y-93209745D01*
X169795861Y-93209745D01*
X169869995Y-93455864D01*
X170407223Y-93648965D01*
X170977454Y-93621778D01*
X171378005Y-93455864D01*
X171452139Y-93209745D01*
X170624000Y-92381605D01*
X169795861Y-93209745D01*
X167253364Y-93209745D01*
X167467740Y-92888909D01*
X167579113Y-92329000D01*
X167510732Y-91985223D01*
X169177035Y-91985223D01*
X169204222Y-92555454D01*
X169370136Y-92956005D01*
X169616255Y-93030139D01*
X170444395Y-92202000D01*
X170803605Y-92202000D01*
X171631745Y-93030139D01*
X171877864Y-92956005D01*
X172070965Y-92418777D01*
X172043778Y-91848546D01*
X171877864Y-91447995D01*
X171631745Y-91373861D01*
X170803605Y-92202000D01*
X170444395Y-92202000D01*
X169616255Y-91373861D01*
X169370136Y-91447995D01*
X169177035Y-91985223D01*
X167510732Y-91985223D01*
X167467740Y-91769091D01*
X167150577Y-91294423D01*
X166798242Y-91059000D01*
X167150577Y-90823577D01*
X167467740Y-90348909D01*
X167579113Y-89789000D01*
X167553852Y-89662000D01*
X169160887Y-89662000D01*
X169272260Y-90221909D01*
X169589423Y-90696577D01*
X169929203Y-90923611D01*
X169869995Y-90948136D01*
X169795861Y-91194255D01*
X170624000Y-92022395D01*
X171452139Y-91194255D01*
X171378005Y-90948136D01*
X171315641Y-90925720D01*
X171658577Y-90696577D01*
X171975740Y-90221909D01*
X172087113Y-89662000D01*
X171975740Y-89102091D01*
X171658577Y-88627423D01*
X171183909Y-88310260D01*
X170952602Y-88264250D01*
X177320000Y-88264250D01*
X177320000Y-89604809D01*
X177416673Y-89838198D01*
X177595301Y-90016827D01*
X177828690Y-90113500D01*
X179419250Y-90113500D01*
X179578000Y-89954750D01*
X179578000Y-88105500D01*
X179832000Y-88105500D01*
X179832000Y-89954750D01*
X179990750Y-90113500D01*
X181581310Y-90113500D01*
X181814699Y-90016827D01*
X181993327Y-89838198D01*
X182090000Y-89604809D01*
X182090000Y-88264250D01*
X181931250Y-88105500D01*
X179832000Y-88105500D01*
X179578000Y-88105500D01*
X177478750Y-88105500D01*
X177320000Y-88264250D01*
X170952602Y-88264250D01*
X170765333Y-88227000D01*
X170482667Y-88227000D01*
X170064091Y-88310260D01*
X169589423Y-88627423D01*
X169272260Y-89102091D01*
X169160887Y-89662000D01*
X167553852Y-89662000D01*
X167467740Y-89229091D01*
X167150577Y-88754423D01*
X166798242Y-88519000D01*
X167150577Y-88283577D01*
X167467740Y-87808909D01*
X167579113Y-87249000D01*
X167467740Y-86689091D01*
X167150577Y-86214423D01*
X166951263Y-86081245D01*
X170049861Y-86081245D01*
X170123995Y-86327364D01*
X170661223Y-86520465D01*
X171231454Y-86493278D01*
X171572067Y-86352191D01*
X177320000Y-86352191D01*
X177320000Y-87692750D01*
X177478750Y-87851500D01*
X179578000Y-87851500D01*
X179578000Y-86002250D01*
X179832000Y-86002250D01*
X179832000Y-87851500D01*
X181931250Y-87851500D01*
X182090000Y-87692750D01*
X182090000Y-86352191D01*
X181993327Y-86118802D01*
X181814699Y-85940173D01*
X181581310Y-85843500D01*
X179990750Y-85843500D01*
X179832000Y-86002250D01*
X179578000Y-86002250D01*
X179419250Y-85843500D01*
X177828690Y-85843500D01*
X177595301Y-85940173D01*
X177416673Y-86118802D01*
X177320000Y-86352191D01*
X171572067Y-86352191D01*
X171632005Y-86327364D01*
X171706139Y-86081245D01*
X170878000Y-85253105D01*
X170049861Y-86081245D01*
X166951263Y-86081245D01*
X166798242Y-85979000D01*
X167150577Y-85743577D01*
X167467740Y-85268909D01*
X167549729Y-84856723D01*
X169431035Y-84856723D01*
X169458222Y-85426954D01*
X169624136Y-85827505D01*
X169870255Y-85901639D01*
X170698395Y-85073500D01*
X171057605Y-85073500D01*
X171885745Y-85901639D01*
X172131864Y-85827505D01*
X172324965Y-85290277D01*
X172297778Y-84720046D01*
X172131864Y-84319495D01*
X171885745Y-84245361D01*
X171057605Y-85073500D01*
X170698395Y-85073500D01*
X169870255Y-84245361D01*
X169624136Y-84319495D01*
X169431035Y-84856723D01*
X167549729Y-84856723D01*
X167579113Y-84709000D01*
X167467740Y-84149091D01*
X167412057Y-84065755D01*
X170049861Y-84065755D01*
X170878000Y-84893895D01*
X171706139Y-84065755D01*
X171632005Y-83819636D01*
X171094777Y-83626535D01*
X170524546Y-83653722D01*
X170123995Y-83819636D01*
X170049861Y-84065755D01*
X167412057Y-84065755D01*
X167370226Y-84003152D01*
X167930456Y-83442923D01*
X168004349Y-83393549D01*
X168199952Y-83100810D01*
X168251300Y-82842665D01*
X168251300Y-82842661D01*
X168268637Y-82755500D01*
X168251300Y-82668339D01*
X168251300Y-82183478D01*
X169628354Y-80806424D01*
X169661466Y-80886362D01*
X170065138Y-81290034D01*
X170592561Y-81508500D01*
X171163439Y-81508500D01*
X171690862Y-81290034D01*
X172094534Y-80886362D01*
X172313000Y-80358939D01*
X172313000Y-79890079D01*
X172747479Y-79455600D01*
X182072739Y-79455600D01*
X182159900Y-79472937D01*
X182247061Y-79455600D01*
X182247065Y-79455600D01*
X182505210Y-79404252D01*
X182797949Y-79208649D01*
X182847325Y-79134753D01*
X183486252Y-78495826D01*
X183832000Y-78564600D01*
X184451411Y-78441391D01*
X184976523Y-78090523D01*
X185327391Y-77565410D01*
X185419500Y-77102349D01*
X185419500Y-76694650D01*
X185327391Y-76231589D01*
X184976523Y-75706477D01*
X184451410Y-75355609D01*
X183832000Y-75232400D01*
X183212589Y-75355609D01*
X182687477Y-75706477D01*
X182552841Y-75907974D01*
X182158924Y-75522527D01*
X181664980Y-75307937D01*
X181419000Y-75427906D01*
X181419000Y-76771500D01*
X181439000Y-76771500D01*
X181439000Y-77025500D01*
X181419000Y-77025500D01*
X181419000Y-77045500D01*
X181165000Y-77045500D01*
X181165000Y-77025500D01*
X181145000Y-77025500D01*
X181145000Y-76771500D01*
X181165000Y-76771500D01*
X181165000Y-75427906D01*
X180919020Y-75307937D01*
X180425076Y-75522527D01*
X180299255Y-75645643D01*
X180162309Y-75440691D01*
X179952265Y-75300343D01*
X179704500Y-75251060D01*
X177799500Y-75251060D01*
X177551735Y-75300343D01*
X177341691Y-75440691D01*
X177201343Y-75650735D01*
X177152060Y-75898500D01*
X177152060Y-77685600D01*
X172749178Y-77685600D01*
X180190094Y-70244685D01*
X180238843Y-70489765D01*
X180379191Y-70699809D01*
X180589235Y-70840157D01*
X180837000Y-70889440D01*
X182637000Y-70889440D01*
X182884765Y-70840157D01*
X183094809Y-70699809D01*
X183235157Y-70489765D01*
X183238275Y-70474092D01*
X183407493Y-70643310D01*
X183971670Y-70877000D01*
X184582330Y-70877000D01*
X185146507Y-70643310D01*
X185578310Y-70211507D01*
X185726501Y-69853744D01*
X185726500Y-82669874D01*
X185280000Y-82581060D01*
X183530000Y-82581060D01*
X182947387Y-82696949D01*
X182453472Y-83026972D01*
X182123449Y-83520887D01*
X182102440Y-83626506D01*
X182102440Y-80228500D01*
X182053157Y-79980735D01*
X181912809Y-79770691D01*
X181702765Y-79630343D01*
X181455000Y-79581060D01*
X177955000Y-79581060D01*
X177707235Y-79630343D01*
X177497191Y-79770691D01*
X177356843Y-79980735D01*
X177307560Y-80228500D01*
X177307560Y-83728500D01*
X177356843Y-83976265D01*
X177497191Y-84186309D01*
X177707235Y-84326657D01*
X177955000Y-84375940D01*
X181455000Y-84375940D01*
X181702765Y-84326657D01*
X181912809Y-84186309D01*
X182024269Y-84019499D01*
X182007560Y-84103500D01*
X182007560Y-85853500D01*
X182123449Y-86436113D01*
X182453472Y-86930028D01*
X182947387Y-87260051D01*
X183530000Y-87375940D01*
X185280000Y-87375940D01*
X185726500Y-87287126D01*
X185726500Y-96102500D01*
X137196500Y-96102500D01*
X137196500Y-93408500D01*
X139201908Y-93408500D01*
X139317161Y-93987918D01*
X139645375Y-94479125D01*
X140136582Y-94807339D01*
X140569744Y-94893500D01*
X140862256Y-94893500D01*
X141295418Y-94807339D01*
X141786625Y-94479125D01*
X142114839Y-93987918D01*
X142230092Y-93408500D01*
X142114839Y-92829082D01*
X141786625Y-92337875D01*
X141467522Y-92124657D01*
X141597358Y-92063683D01*
X141987645Y-91635424D01*
X142157476Y-91225390D01*
X142036155Y-90995500D01*
X140843000Y-90995500D01*
X140843000Y-91015500D01*
X140589000Y-91015500D01*
X140589000Y-90995500D01*
X139395845Y-90995500D01*
X139274524Y-91225390D01*
X139444355Y-91635424D01*
X139834642Y-92063683D01*
X139964478Y-92124657D01*
X139645375Y-92337875D01*
X139317161Y-92829082D01*
X139201908Y-93408500D01*
X137196500Y-93408500D01*
X137196500Y-88685390D01*
X139274524Y-88685390D01*
X139444355Y-89095424D01*
X139834642Y-89523683D01*
X139993954Y-89598500D01*
X139834642Y-89673317D01*
X139444355Y-90101576D01*
X139274524Y-90511610D01*
X139395845Y-90741500D01*
X140589000Y-90741500D01*
X140589000Y-88455500D01*
X140843000Y-88455500D01*
X140843000Y-90741500D01*
X142036155Y-90741500D01*
X142157476Y-90511610D01*
X141987645Y-90101576D01*
X141597358Y-89673317D01*
X141438046Y-89598500D01*
X141597358Y-89523683D01*
X141987645Y-89095424D01*
X142157476Y-88685390D01*
X142036155Y-88455500D01*
X140843000Y-88455500D01*
X140589000Y-88455500D01*
X139395845Y-88455500D01*
X139274524Y-88685390D01*
X137196500Y-88685390D01*
X137196500Y-61518032D01*
X144887073Y-61518032D01*
X144985736Y-61784887D01*
X145595461Y-62011408D01*
X146245460Y-61987356D01*
X146734264Y-61784887D01*
X146832927Y-61518032D01*
X145860000Y-60545105D01*
X144887073Y-61518032D01*
X137196500Y-61518032D01*
X137196500Y-60100961D01*
X144214092Y-60100961D01*
X144238144Y-60750960D01*
X144440613Y-61239764D01*
X144707468Y-61338427D01*
X145680395Y-60365500D01*
X146039605Y-60365500D01*
X147012532Y-61338427D01*
X147279387Y-61239764D01*
X147505908Y-60630039D01*
X147481856Y-59980040D01*
X147279387Y-59491236D01*
X147012532Y-59392573D01*
X146039605Y-60365500D01*
X145680395Y-60365500D01*
X144707468Y-59392573D01*
X144440613Y-59491236D01*
X144214092Y-60100961D01*
X137196500Y-60100961D01*
X137196500Y-59212968D01*
X144887073Y-59212968D01*
X145860000Y-60185895D01*
X146832927Y-59212968D01*
X146734264Y-58946113D01*
X146124539Y-58719592D01*
X145474540Y-58743644D01*
X144985736Y-58946113D01*
X144887073Y-59212968D01*
X137196500Y-59212968D01*
X137196500Y-49757723D01*
X170575035Y-49757723D01*
X170602222Y-50327954D01*
X170768136Y-50728505D01*
X171014255Y-50802639D01*
X171842395Y-49974500D01*
X171014255Y-49146361D01*
X170768136Y-49220495D01*
X170575035Y-49757723D01*
X137196500Y-49757723D01*
X137196500Y-48966755D01*
X171193861Y-48966755D01*
X172022000Y-49794895D01*
X172850139Y-48966755D01*
X172776005Y-48720636D01*
X172238777Y-48527535D01*
X171668546Y-48554722D01*
X171267995Y-48720636D01*
X171193861Y-48966755D01*
X137196500Y-48966755D01*
X137196500Y-47572500D01*
X185726501Y-47572500D01*
X185726501Y-51740222D01*
G36*
X164178277Y-82733156D02*
X164227651Y-82807049D01*
X164301544Y-82856423D01*
X164301545Y-82856424D01*
X164371535Y-82903190D01*
X164520390Y-83002652D01*
X164778535Y-83054000D01*
X164778539Y-83054000D01*
X164865700Y-83071337D01*
X164952861Y-83054000D01*
X164981479Y-83054000D01*
X165081423Y-83203577D01*
X165242942Y-83311500D01*
X165213662Y-83458700D01*
X165231001Y-83545869D01*
X165231001Y-83574478D01*
X165081423Y-83674423D01*
X164764260Y-84149091D01*
X164652887Y-84709000D01*
X164764260Y-85268909D01*
X165081423Y-85743577D01*
X165433758Y-85979000D01*
X165081423Y-86214423D01*
X164764260Y-86689091D01*
X164652887Y-87249000D01*
X164764260Y-87808909D01*
X165081423Y-88283577D01*
X165433758Y-88519000D01*
X165081423Y-88754423D01*
X164764260Y-89229091D01*
X164652887Y-89789000D01*
X164764260Y-90348909D01*
X165081423Y-90823577D01*
X165433758Y-91059000D01*
X165081423Y-91294423D01*
X164981479Y-91444000D01*
X164952861Y-91444000D01*
X164865700Y-91426663D01*
X164778539Y-91444000D01*
X164778535Y-91444000D01*
X164520390Y-91495348D01*
X164301545Y-91641576D01*
X164301544Y-91641577D01*
X164227651Y-91690951D01*
X164178277Y-91764844D01*
X163216622Y-92726500D01*
X159867832Y-92726500D01*
X159887904Y-92678039D01*
X159765915Y-92456000D01*
X158623000Y-92456000D01*
X158623000Y-92476000D01*
X158369000Y-92476000D01*
X158369000Y-92456000D01*
X157226085Y-92456000D01*
X157104096Y-92678039D01*
X157124168Y-92726500D01*
X150205879Y-92726500D01*
X142703725Y-85224347D01*
X142654349Y-85150451D01*
X142361610Y-84954848D01*
X142103465Y-84903500D01*
X142103461Y-84903500D01*
X142016300Y-84886163D01*
X141929139Y-84903500D01*
X141910656Y-84903500D01*
X141786625Y-84717875D01*
X141488239Y-84518500D01*
X141786625Y-84319125D01*
X141806140Y-84289918D01*
X147869377Y-90353156D01*
X147918751Y-90427049D01*
X147992644Y-90476423D01*
X147992645Y-90476424D01*
X148211490Y-90622652D01*
X148469635Y-90674000D01*
X148469639Y-90674000D01*
X148556800Y-90691337D01*
X148643961Y-90674000D01*
X157361479Y-90674000D01*
X157461423Y-90823577D01*
X157845108Y-91079947D01*
X157640866Y-91176611D01*
X157264959Y-91591577D01*
X157104096Y-91979961D01*
X157226085Y-92202000D01*
X158369000Y-92202000D01*
X158369000Y-92182000D01*
X158623000Y-92182000D01*
X158623000Y-92202000D01*
X159765915Y-92202000D01*
X159887904Y-91979961D01*
X159727041Y-91591577D01*
X159351134Y-91176611D01*
X159146892Y-91079947D01*
X159530577Y-90823577D01*
X159847740Y-90348909D01*
X159959113Y-89789000D01*
X159847740Y-89229091D01*
X159530577Y-88754423D01*
X159178242Y-88519000D01*
X159530577Y-88283577D01*
X159847740Y-87808909D01*
X159959113Y-87249000D01*
X159847740Y-86689091D01*
X159530577Y-86214423D01*
X159178242Y-85979000D01*
X159530577Y-85743577D01*
X159847740Y-85268909D01*
X159959113Y-84709000D01*
X159847740Y-84149091D01*
X159530577Y-83674423D01*
X159178242Y-83439000D01*
X159530577Y-83203577D01*
X159847740Y-82728909D01*
X159959113Y-82169000D01*
X159847740Y-81609091D01*
X159530577Y-81134423D01*
X159178242Y-80899000D01*
X159530577Y-80663577D01*
X159847740Y-80188909D01*
X159959113Y-79629000D01*
X159886450Y-79263700D01*
X160708822Y-79263700D01*
X164178277Y-82733156D01*
X164178277Y-82733156D01*
G37*
X164178277Y-82733156D02*
X164227651Y-82807049D01*
X164301544Y-82856423D01*
X164301545Y-82856424D01*
X164371535Y-82903190D01*
X164520390Y-83002652D01*
X164778535Y-83054000D01*
X164778539Y-83054000D01*
X164865700Y-83071337D01*
X164952861Y-83054000D01*
X164981479Y-83054000D01*
X165081423Y-83203577D01*
X165242942Y-83311500D01*
X165213662Y-83458700D01*
X165231001Y-83545869D01*
X165231001Y-83574478D01*
X165081423Y-83674423D01*
X164764260Y-84149091D01*
X164652887Y-84709000D01*
X164764260Y-85268909D01*
X165081423Y-85743577D01*
X165433758Y-85979000D01*
X165081423Y-86214423D01*
X164764260Y-86689091D01*
X164652887Y-87249000D01*
X164764260Y-87808909D01*
X165081423Y-88283577D01*
X165433758Y-88519000D01*
X165081423Y-88754423D01*
X164764260Y-89229091D01*
X164652887Y-89789000D01*
X164764260Y-90348909D01*
X165081423Y-90823577D01*
X165433758Y-91059000D01*
X165081423Y-91294423D01*
X164981479Y-91444000D01*
X164952861Y-91444000D01*
X164865700Y-91426663D01*
X164778539Y-91444000D01*
X164778535Y-91444000D01*
X164520390Y-91495348D01*
X164301545Y-91641576D01*
X164301544Y-91641577D01*
X164227651Y-91690951D01*
X164178277Y-91764844D01*
X163216622Y-92726500D01*
X159867832Y-92726500D01*
X159887904Y-92678039D01*
X159765915Y-92456000D01*
X158623000Y-92456000D01*
X158623000Y-92476000D01*
X158369000Y-92476000D01*
X158369000Y-92456000D01*
X157226085Y-92456000D01*
X157104096Y-92678039D01*
X157124168Y-92726500D01*
X150205879Y-92726500D01*
X142703725Y-85224347D01*
X142654349Y-85150451D01*
X142361610Y-84954848D01*
X142103465Y-84903500D01*
X142103461Y-84903500D01*
X142016300Y-84886163D01*
X141929139Y-84903500D01*
X141910656Y-84903500D01*
X141786625Y-84717875D01*
X141488239Y-84518500D01*
X141786625Y-84319125D01*
X141806140Y-84289918D01*
X147869377Y-90353156D01*
X147918751Y-90427049D01*
X147992644Y-90476423D01*
X147992645Y-90476424D01*
X148211490Y-90622652D01*
X148469635Y-90674000D01*
X148469639Y-90674000D01*
X148556800Y-90691337D01*
X148643961Y-90674000D01*
X157361479Y-90674000D01*
X157461423Y-90823577D01*
X157845108Y-91079947D01*
X157640866Y-91176611D01*
X157264959Y-91591577D01*
X157104096Y-91979961D01*
X157226085Y-92202000D01*
X158369000Y-92202000D01*
X158369000Y-92182000D01*
X158623000Y-92182000D01*
X158623000Y-92202000D01*
X159765915Y-92202000D01*
X159887904Y-91979961D01*
X159727041Y-91591577D01*
X159351134Y-91176611D01*
X159146892Y-91079947D01*
X159530577Y-90823577D01*
X159847740Y-90348909D01*
X159959113Y-89789000D01*
X159847740Y-89229091D01*
X159530577Y-88754423D01*
X159178242Y-88519000D01*
X159530577Y-88283577D01*
X159847740Y-87808909D01*
X159959113Y-87249000D01*
X159847740Y-86689091D01*
X159530577Y-86214423D01*
X159178242Y-85979000D01*
X159530577Y-85743577D01*
X159847740Y-85268909D01*
X159959113Y-84709000D01*
X159847740Y-84149091D01*
X159530577Y-83674423D01*
X159178242Y-83439000D01*
X159530577Y-83203577D01*
X159847740Y-82728909D01*
X159959113Y-82169000D01*
X159847740Y-81609091D01*
X159530577Y-81134423D01*
X159178242Y-80899000D01*
X159530577Y-80663577D01*
X159847740Y-80188909D01*
X159959113Y-79629000D01*
X159886450Y-79263700D01*
X160708822Y-79263700D01*
X164178277Y-82733156D01*
G36*
X143701000Y-54038500D02*
X143721000Y-54038500D01*
X143721000Y-54292500D01*
X143701000Y-54292500D01*
X143701000Y-54312500D01*
X143447000Y-54312500D01*
X143447000Y-54292500D01*
X143427000Y-54292500D01*
X143427000Y-54038500D01*
X143447000Y-54038500D01*
X143447000Y-54018500D01*
X143701000Y-54018500D01*
X143701000Y-54038500D01*
X143701000Y-54038500D01*
G37*
X143701000Y-54038500D02*
X143721000Y-54038500D01*
X143721000Y-54292500D01*
X143701000Y-54292500D01*
X143701000Y-54312500D01*
X143447000Y-54312500D01*
X143447000Y-54292500D01*
X143427000Y-54292500D01*
X143427000Y-54038500D01*
X143447000Y-54038500D01*
X143447000Y-54018500D01*
X143701000Y-54018500D01*
X143701000Y-54038500D01*
G04 #@! TD*
M02*
