G04 #@! TF.GenerationSoftware,KiCad,Pcbnew,5.0.2-5.fc29*
G04 #@! TF.CreationDate,2019-02-21T16:31:19+01:00*
G04 #@! TF.ProjectId,AVR Dev,41565220-4465-4762-9e6b-696361645f70,rev?*
G04 #@! TF.SameCoordinates,Original*
G04 #@! TF.FileFunction,Soldermask,Top*
G04 #@! TF.FilePolarity,Negative*
%FSLAX46Y46*%
G04 Gerber Fmt 4.6, Leading zero omitted, Abs format (unit mm)*
G04 Created by KiCad (PCBNEW 5.0.2-5.fc29) date czw, 21 lut 2019, 16:31:19*
%MOMM*%
%LPD*%
G01*
G04 APERTURE LIST*
%ADD10C,0.200000*%
G04 APERTURE END LIST*
D10*
G36*
X140826443Y-92514019D02*
X140892627Y-92520537D01*
X141005853Y-92554884D01*
X141062467Y-92572057D01*
X141124285Y-92605100D01*
X141218991Y-92655722D01*
X141254729Y-92685052D01*
X141356186Y-92768314D01*
X141433903Y-92863014D01*
X141468778Y-92905509D01*
X141468779Y-92905511D01*
X141552443Y-93062033D01*
X141552443Y-93062034D01*
X141603963Y-93231873D01*
X141621359Y-93408500D01*
X141603963Y-93585127D01*
X141569616Y-93698353D01*
X141552443Y-93754967D01*
X141478348Y-93893587D01*
X141468778Y-93911491D01*
X141439448Y-93947229D01*
X141356186Y-94048686D01*
X141254729Y-94131948D01*
X141218991Y-94161278D01*
X141218989Y-94161279D01*
X141062467Y-94244943D01*
X141005853Y-94262116D01*
X140892627Y-94296463D01*
X140826443Y-94302981D01*
X140760260Y-94309500D01*
X140671740Y-94309500D01*
X140605557Y-94302981D01*
X140539373Y-94296463D01*
X140426147Y-94262116D01*
X140369533Y-94244943D01*
X140213011Y-94161279D01*
X140213009Y-94161278D01*
X140177271Y-94131948D01*
X140075814Y-94048686D01*
X139992552Y-93947229D01*
X139963222Y-93911491D01*
X139953652Y-93893587D01*
X139879557Y-93754967D01*
X139862384Y-93698353D01*
X139828037Y-93585127D01*
X139810641Y-93408500D01*
X139828037Y-93231873D01*
X139879557Y-93062034D01*
X139879557Y-93062033D01*
X139963221Y-92905511D01*
X139963222Y-92905509D01*
X139998097Y-92863014D01*
X140075814Y-92768314D01*
X140177271Y-92685052D01*
X140213009Y-92655722D01*
X140307715Y-92605100D01*
X140369533Y-92572057D01*
X140426147Y-92554884D01*
X140539373Y-92520537D01*
X140605557Y-92514019D01*
X140671740Y-92507500D01*
X140760260Y-92507500D01*
X140826443Y-92514019D01*
X140826443Y-92514019D01*
G37*
G36*
X158662821Y-91490313D02*
X158662824Y-91490314D01*
X158662825Y-91490314D01*
X158823239Y-91538975D01*
X158823241Y-91538976D01*
X158823244Y-91538977D01*
X158971078Y-91617995D01*
X159100659Y-91724341D01*
X159207005Y-91853922D01*
X159286023Y-92001756D01*
X159334687Y-92162179D01*
X159351117Y-92329000D01*
X159334687Y-92495821D01*
X159334686Y-92495824D01*
X159334686Y-92495825D01*
X159286182Y-92655722D01*
X159286023Y-92656244D01*
X159207005Y-92804078D01*
X159100659Y-92933659D01*
X158971078Y-93040005D01*
X158823244Y-93119023D01*
X158823241Y-93119024D01*
X158823239Y-93119025D01*
X158662825Y-93167686D01*
X158662824Y-93167686D01*
X158662821Y-93167687D01*
X158537804Y-93180000D01*
X158454196Y-93180000D01*
X158329179Y-93167687D01*
X158329176Y-93167686D01*
X158329175Y-93167686D01*
X158168761Y-93119025D01*
X158168759Y-93119024D01*
X158168756Y-93119023D01*
X158020922Y-93040005D01*
X157891341Y-92933659D01*
X157784995Y-92804078D01*
X157705977Y-92656244D01*
X157705819Y-92655722D01*
X157657314Y-92495825D01*
X157657314Y-92495824D01*
X157657313Y-92495821D01*
X157640883Y-92329000D01*
X157657313Y-92162179D01*
X157705977Y-92001756D01*
X157784995Y-91853922D01*
X157891341Y-91724341D01*
X158020922Y-91617995D01*
X158168756Y-91538977D01*
X158168759Y-91538976D01*
X158168761Y-91538975D01*
X158329175Y-91490314D01*
X158329176Y-91490314D01*
X158329179Y-91490313D01*
X158454196Y-91478000D01*
X158537804Y-91478000D01*
X158662821Y-91490313D01*
X158662821Y-91490313D01*
G37*
G36*
X166282821Y-91490313D02*
X166282824Y-91490314D01*
X166282825Y-91490314D01*
X166443239Y-91538975D01*
X166443241Y-91538976D01*
X166443244Y-91538977D01*
X166591078Y-91617995D01*
X166720659Y-91724341D01*
X166827005Y-91853922D01*
X166906023Y-92001756D01*
X166954687Y-92162179D01*
X166971117Y-92329000D01*
X166954687Y-92495821D01*
X166954686Y-92495824D01*
X166954686Y-92495825D01*
X166906182Y-92655722D01*
X166906023Y-92656244D01*
X166827005Y-92804078D01*
X166720659Y-92933659D01*
X166591078Y-93040005D01*
X166443244Y-93119023D01*
X166443241Y-93119024D01*
X166443239Y-93119025D01*
X166282825Y-93167686D01*
X166282824Y-93167686D01*
X166282821Y-93167687D01*
X166157804Y-93180000D01*
X166074196Y-93180000D01*
X165949179Y-93167687D01*
X165949176Y-93167686D01*
X165949175Y-93167686D01*
X165788761Y-93119025D01*
X165788759Y-93119024D01*
X165788756Y-93119023D01*
X165640922Y-93040005D01*
X165511341Y-92933659D01*
X165404995Y-92804078D01*
X165325977Y-92656244D01*
X165325819Y-92655722D01*
X165277314Y-92495825D01*
X165277314Y-92495824D01*
X165277313Y-92495821D01*
X165260883Y-92329000D01*
X165277313Y-92162179D01*
X165325977Y-92001756D01*
X165404995Y-91853922D01*
X165511341Y-91724341D01*
X165640922Y-91617995D01*
X165788756Y-91538977D01*
X165788759Y-91538976D01*
X165788761Y-91538975D01*
X165949175Y-91490314D01*
X165949176Y-91490314D01*
X165949179Y-91490313D01*
X166074196Y-91478000D01*
X166157804Y-91478000D01*
X166282821Y-91490313D01*
X166282821Y-91490313D01*
G37*
G36*
X170872228Y-91383703D02*
X171027100Y-91447853D01*
X171166481Y-91540985D01*
X171285015Y-91659519D01*
X171378147Y-91798900D01*
X171442297Y-91953772D01*
X171475000Y-92118184D01*
X171475000Y-92285816D01*
X171442297Y-92450228D01*
X171378147Y-92605100D01*
X171285015Y-92744481D01*
X171166481Y-92863015D01*
X171027100Y-92956147D01*
X170872228Y-93020297D01*
X170707816Y-93053000D01*
X170540184Y-93053000D01*
X170375772Y-93020297D01*
X170220900Y-92956147D01*
X170081519Y-92863015D01*
X169962985Y-92744481D01*
X169869853Y-92605100D01*
X169805703Y-92450228D01*
X169773000Y-92285816D01*
X169773000Y-92118184D01*
X169805703Y-91953772D01*
X169869853Y-91798900D01*
X169962985Y-91659519D01*
X170081519Y-91540985D01*
X170220900Y-91447853D01*
X170375772Y-91383703D01*
X170540184Y-91351000D01*
X170707816Y-91351000D01*
X170872228Y-91383703D01*
X170872228Y-91383703D01*
G37*
G36*
X140826443Y-89974019D02*
X140892627Y-89980537D01*
X141005853Y-90014884D01*
X141062467Y-90032057D01*
X141201087Y-90106152D01*
X141218991Y-90115722D01*
X141245013Y-90137078D01*
X141356186Y-90228314D01*
X141439448Y-90329771D01*
X141468778Y-90365509D01*
X141468779Y-90365511D01*
X141552443Y-90522033D01*
X141552443Y-90522034D01*
X141603963Y-90691873D01*
X141621359Y-90868500D01*
X141603963Y-91045127D01*
X141569616Y-91158353D01*
X141552443Y-91214967D01*
X141479731Y-91351000D01*
X141468778Y-91371491D01*
X141458755Y-91383704D01*
X141356186Y-91508686D01*
X141254729Y-91591948D01*
X141218991Y-91621278D01*
X141218989Y-91621279D01*
X141062467Y-91704943D01*
X141005853Y-91722116D01*
X140892627Y-91756463D01*
X140826443Y-91762981D01*
X140760260Y-91769500D01*
X140671740Y-91769500D01*
X140605557Y-91762981D01*
X140539373Y-91756463D01*
X140426147Y-91722116D01*
X140369533Y-91704943D01*
X140213011Y-91621279D01*
X140213009Y-91621278D01*
X140177271Y-91591948D01*
X140075814Y-91508686D01*
X139973245Y-91383704D01*
X139963222Y-91371491D01*
X139952269Y-91351000D01*
X139879557Y-91214967D01*
X139862384Y-91158353D01*
X139828037Y-91045127D01*
X139810641Y-90868500D01*
X139828037Y-90691873D01*
X139879557Y-90522034D01*
X139879557Y-90522033D01*
X139963221Y-90365511D01*
X139963222Y-90365509D01*
X139992552Y-90329771D01*
X140075814Y-90228314D01*
X140186987Y-90137078D01*
X140213009Y-90115722D01*
X140230913Y-90106152D01*
X140369533Y-90032057D01*
X140426147Y-90014884D01*
X140539373Y-89980537D01*
X140605557Y-89974019D01*
X140671740Y-89967500D01*
X140760260Y-89967500D01*
X140826443Y-89974019D01*
X140826443Y-89974019D01*
G37*
G36*
X166282821Y-88950313D02*
X166282824Y-88950314D01*
X166282825Y-88950314D01*
X166443239Y-88998975D01*
X166443241Y-88998976D01*
X166443244Y-88998977D01*
X166591078Y-89077995D01*
X166720659Y-89184341D01*
X166827005Y-89313922D01*
X166906023Y-89461756D01*
X166906024Y-89461759D01*
X166906025Y-89461761D01*
X166926573Y-89529500D01*
X166954687Y-89622179D01*
X166971117Y-89789000D01*
X166954687Y-89955821D01*
X166954686Y-89955824D01*
X166954686Y-89955825D01*
X166906182Y-90115722D01*
X166906023Y-90116244D01*
X166827005Y-90264078D01*
X166720659Y-90393659D01*
X166591078Y-90500005D01*
X166443244Y-90579023D01*
X166443241Y-90579024D01*
X166443239Y-90579025D01*
X166282825Y-90627686D01*
X166282824Y-90627686D01*
X166282821Y-90627687D01*
X166157804Y-90640000D01*
X166074196Y-90640000D01*
X165949179Y-90627687D01*
X165949176Y-90627686D01*
X165949175Y-90627686D01*
X165788761Y-90579025D01*
X165788759Y-90579024D01*
X165788756Y-90579023D01*
X165640922Y-90500005D01*
X165511341Y-90393659D01*
X165404995Y-90264078D01*
X165325977Y-90116244D01*
X165325819Y-90115722D01*
X165277314Y-89955825D01*
X165277314Y-89955824D01*
X165277313Y-89955821D01*
X165260883Y-89789000D01*
X165277313Y-89622179D01*
X165305427Y-89529500D01*
X165325975Y-89461761D01*
X165325976Y-89461759D01*
X165325977Y-89461756D01*
X165404995Y-89313922D01*
X165511341Y-89184341D01*
X165640922Y-89077995D01*
X165788756Y-88998977D01*
X165788759Y-88998976D01*
X165788761Y-88998975D01*
X165949175Y-88950314D01*
X165949176Y-88950314D01*
X165949179Y-88950313D01*
X166074196Y-88938000D01*
X166157804Y-88938000D01*
X166282821Y-88950313D01*
X166282821Y-88950313D01*
G37*
G36*
X158662821Y-88950313D02*
X158662824Y-88950314D01*
X158662825Y-88950314D01*
X158823239Y-88998975D01*
X158823241Y-88998976D01*
X158823244Y-88998977D01*
X158971078Y-89077995D01*
X159100659Y-89184341D01*
X159207005Y-89313922D01*
X159286023Y-89461756D01*
X159286024Y-89461759D01*
X159286025Y-89461761D01*
X159306573Y-89529500D01*
X159334687Y-89622179D01*
X159351117Y-89789000D01*
X159334687Y-89955821D01*
X159334686Y-89955824D01*
X159334686Y-89955825D01*
X159286182Y-90115722D01*
X159286023Y-90116244D01*
X159207005Y-90264078D01*
X159100659Y-90393659D01*
X158971078Y-90500005D01*
X158823244Y-90579023D01*
X158823241Y-90579024D01*
X158823239Y-90579025D01*
X158662825Y-90627686D01*
X158662824Y-90627686D01*
X158662821Y-90627687D01*
X158537804Y-90640000D01*
X158454196Y-90640000D01*
X158329179Y-90627687D01*
X158329176Y-90627686D01*
X158329175Y-90627686D01*
X158168761Y-90579025D01*
X158168759Y-90579024D01*
X158168756Y-90579023D01*
X158020922Y-90500005D01*
X157891341Y-90393659D01*
X157784995Y-90264078D01*
X157705977Y-90116244D01*
X157705819Y-90115722D01*
X157657314Y-89955825D01*
X157657314Y-89955824D01*
X157657313Y-89955821D01*
X157640883Y-89789000D01*
X157657313Y-89622179D01*
X157685427Y-89529500D01*
X157705975Y-89461761D01*
X157705976Y-89461759D01*
X157705977Y-89461756D01*
X157784995Y-89313922D01*
X157891341Y-89184341D01*
X158020922Y-89077995D01*
X158168756Y-88998977D01*
X158168759Y-88998976D01*
X158168761Y-88998975D01*
X158329175Y-88950314D01*
X158329176Y-88950314D01*
X158329179Y-88950313D01*
X158454196Y-88938000D01*
X158537804Y-88938000D01*
X158662821Y-88950313D01*
X158662821Y-88950313D01*
G37*
G36*
X170790821Y-88823313D02*
X170790824Y-88823314D01*
X170790825Y-88823314D01*
X170951239Y-88871975D01*
X170951241Y-88871976D01*
X170951244Y-88871977D01*
X171099078Y-88950995D01*
X171228659Y-89057341D01*
X171335005Y-89186922D01*
X171414023Y-89334756D01*
X171414024Y-89334759D01*
X171414025Y-89334761D01*
X171456464Y-89474665D01*
X171462687Y-89495179D01*
X171479117Y-89662000D01*
X171462687Y-89828821D01*
X171462686Y-89828824D01*
X171462686Y-89828825D01*
X171416665Y-89980537D01*
X171414023Y-89989244D01*
X171335005Y-90137078D01*
X171228659Y-90266659D01*
X171099078Y-90373005D01*
X170951244Y-90452023D01*
X170951241Y-90452024D01*
X170951239Y-90452025D01*
X170790825Y-90500686D01*
X170790824Y-90500686D01*
X170790821Y-90500687D01*
X170665804Y-90513000D01*
X170582196Y-90513000D01*
X170457179Y-90500687D01*
X170457176Y-90500686D01*
X170457175Y-90500686D01*
X170296761Y-90452025D01*
X170296759Y-90452024D01*
X170296756Y-90452023D01*
X170148922Y-90373005D01*
X170019341Y-90266659D01*
X169912995Y-90137078D01*
X169833977Y-89989244D01*
X169831336Y-89980537D01*
X169785314Y-89828825D01*
X169785314Y-89828824D01*
X169785313Y-89828821D01*
X169768883Y-89662000D01*
X169785313Y-89495179D01*
X169791536Y-89474665D01*
X169833975Y-89334761D01*
X169833976Y-89334759D01*
X169833977Y-89334756D01*
X169912995Y-89186922D01*
X170019341Y-89057341D01*
X170148922Y-88950995D01*
X170296756Y-88871977D01*
X170296759Y-88871976D01*
X170296761Y-88871975D01*
X170457175Y-88823314D01*
X170457176Y-88823314D01*
X170457179Y-88823313D01*
X170582196Y-88811000D01*
X170665804Y-88811000D01*
X170790821Y-88823313D01*
X170790821Y-88823313D01*
G37*
G36*
X180931978Y-86441793D02*
X181065627Y-86482335D01*
X181188782Y-86548162D01*
X181296739Y-86636761D01*
X181385338Y-86744718D01*
X181451165Y-86867873D01*
X181491707Y-87001522D01*
X181506000Y-87146640D01*
X181506000Y-88810360D01*
X181491707Y-88955478D01*
X181451165Y-89089127D01*
X181385338Y-89212282D01*
X181296739Y-89320239D01*
X181188782Y-89408838D01*
X181065627Y-89474665D01*
X180931978Y-89515207D01*
X180786860Y-89529500D01*
X178623140Y-89529500D01*
X178478022Y-89515207D01*
X178344373Y-89474665D01*
X178221218Y-89408838D01*
X178113261Y-89320239D01*
X178024662Y-89212282D01*
X177958835Y-89089127D01*
X177918293Y-88955478D01*
X177904000Y-88810360D01*
X177904000Y-87146640D01*
X177918293Y-87001522D01*
X177958835Y-86867873D01*
X178024662Y-86744718D01*
X178113261Y-86636761D01*
X178221218Y-86548162D01*
X178344373Y-86482335D01*
X178478022Y-86441793D01*
X178623140Y-86427500D01*
X180786860Y-86427500D01*
X180931978Y-86441793D01*
X180931978Y-86441793D01*
G37*
G36*
X140826443Y-87434019D02*
X140892627Y-87440537D01*
X141005853Y-87474884D01*
X141062467Y-87492057D01*
X141201087Y-87566152D01*
X141218991Y-87575722D01*
X141254729Y-87605052D01*
X141356186Y-87688314D01*
X141439448Y-87789771D01*
X141468778Y-87825509D01*
X141468779Y-87825511D01*
X141552443Y-87982033D01*
X141552443Y-87982034D01*
X141603963Y-88151873D01*
X141621359Y-88328500D01*
X141603963Y-88505127D01*
X141569616Y-88618353D01*
X141552443Y-88674967D01*
X141510198Y-88754000D01*
X141468778Y-88831491D01*
X141439448Y-88867229D01*
X141356186Y-88968686D01*
X141256164Y-89050771D01*
X141218991Y-89081278D01*
X141218989Y-89081279D01*
X141062467Y-89164943D01*
X141005853Y-89182116D01*
X140892627Y-89216463D01*
X140826443Y-89222981D01*
X140760260Y-89229500D01*
X140671740Y-89229500D01*
X140605557Y-89222981D01*
X140539373Y-89216463D01*
X140426147Y-89182116D01*
X140369533Y-89164943D01*
X140213011Y-89081279D01*
X140213009Y-89081278D01*
X140175836Y-89050771D01*
X140075814Y-88968686D01*
X139992552Y-88867229D01*
X139963222Y-88831491D01*
X139921802Y-88754000D01*
X139879557Y-88674967D01*
X139862384Y-88618353D01*
X139828037Y-88505127D01*
X139810641Y-88328500D01*
X139828037Y-88151873D01*
X139879557Y-87982034D01*
X139879557Y-87982033D01*
X139963221Y-87825511D01*
X139963222Y-87825509D01*
X139992552Y-87789771D01*
X140075814Y-87688314D01*
X140177271Y-87605052D01*
X140213009Y-87575722D01*
X140230913Y-87566152D01*
X140369533Y-87492057D01*
X140426147Y-87474884D01*
X140539373Y-87440537D01*
X140605557Y-87434019D01*
X140671740Y-87427500D01*
X140760260Y-87427500D01*
X140826443Y-87434019D01*
X140826443Y-87434019D01*
G37*
G36*
X166282821Y-86410313D02*
X166282824Y-86410314D01*
X166282825Y-86410314D01*
X166443239Y-86458975D01*
X166443241Y-86458976D01*
X166443244Y-86458977D01*
X166591078Y-86537995D01*
X166720659Y-86644341D01*
X166827005Y-86773922D01*
X166906023Y-86921756D01*
X166906024Y-86921759D01*
X166906025Y-86921761D01*
X166954686Y-87082175D01*
X166954687Y-87082179D01*
X166971117Y-87249000D01*
X166954687Y-87415821D01*
X166954686Y-87415824D01*
X166954686Y-87415825D01*
X166906182Y-87575722D01*
X166906023Y-87576244D01*
X166827005Y-87724078D01*
X166720659Y-87853659D01*
X166591078Y-87960005D01*
X166443244Y-88039023D01*
X166443241Y-88039024D01*
X166443239Y-88039025D01*
X166282825Y-88087686D01*
X166282824Y-88087686D01*
X166282821Y-88087687D01*
X166157804Y-88100000D01*
X166074196Y-88100000D01*
X165949179Y-88087687D01*
X165949176Y-88087686D01*
X165949175Y-88087686D01*
X165788761Y-88039025D01*
X165788759Y-88039024D01*
X165788756Y-88039023D01*
X165640922Y-87960005D01*
X165511341Y-87853659D01*
X165404995Y-87724078D01*
X165325977Y-87576244D01*
X165325819Y-87575722D01*
X165277314Y-87415825D01*
X165277314Y-87415824D01*
X165277313Y-87415821D01*
X165260883Y-87249000D01*
X165277313Y-87082179D01*
X165277314Y-87082175D01*
X165325975Y-86921761D01*
X165325976Y-86921759D01*
X165325977Y-86921756D01*
X165404995Y-86773922D01*
X165511341Y-86644341D01*
X165640922Y-86537995D01*
X165788756Y-86458977D01*
X165788759Y-86458976D01*
X165788761Y-86458975D01*
X165949175Y-86410314D01*
X165949176Y-86410314D01*
X165949179Y-86410313D01*
X166074196Y-86398000D01*
X166157804Y-86398000D01*
X166282821Y-86410313D01*
X166282821Y-86410313D01*
G37*
G36*
X158662821Y-86410313D02*
X158662824Y-86410314D01*
X158662825Y-86410314D01*
X158823239Y-86458975D01*
X158823241Y-86458976D01*
X158823244Y-86458977D01*
X158971078Y-86537995D01*
X159100659Y-86644341D01*
X159207005Y-86773922D01*
X159286023Y-86921756D01*
X159286024Y-86921759D01*
X159286025Y-86921761D01*
X159334686Y-87082175D01*
X159334687Y-87082179D01*
X159351117Y-87249000D01*
X159334687Y-87415821D01*
X159334686Y-87415824D01*
X159334686Y-87415825D01*
X159286182Y-87575722D01*
X159286023Y-87576244D01*
X159207005Y-87724078D01*
X159100659Y-87853659D01*
X158971078Y-87960005D01*
X158823244Y-88039023D01*
X158823241Y-88039024D01*
X158823239Y-88039025D01*
X158662825Y-88087686D01*
X158662824Y-88087686D01*
X158662821Y-88087687D01*
X158537804Y-88100000D01*
X158454196Y-88100000D01*
X158329179Y-88087687D01*
X158329176Y-88087686D01*
X158329175Y-88087686D01*
X158168761Y-88039025D01*
X158168759Y-88039024D01*
X158168756Y-88039023D01*
X158020922Y-87960005D01*
X157891341Y-87853659D01*
X157784995Y-87724078D01*
X157705977Y-87576244D01*
X157705819Y-87575722D01*
X157657314Y-87415825D01*
X157657314Y-87415824D01*
X157657313Y-87415821D01*
X157640883Y-87249000D01*
X157657313Y-87082179D01*
X157657314Y-87082175D01*
X157705975Y-86921761D01*
X157705976Y-86921759D01*
X157705977Y-86921756D01*
X157784995Y-86773922D01*
X157891341Y-86644341D01*
X158020922Y-86537995D01*
X158168756Y-86458977D01*
X158168759Y-86458976D01*
X158168761Y-86458975D01*
X158329175Y-86410314D01*
X158329176Y-86410314D01*
X158329179Y-86410313D01*
X158454196Y-86398000D01*
X158537804Y-86398000D01*
X158662821Y-86410313D01*
X158662821Y-86410313D01*
G37*
G36*
X185531366Y-83194195D02*
X185688458Y-83241848D01*
X185833230Y-83319231D01*
X185960128Y-83423372D01*
X186064269Y-83550270D01*
X186141652Y-83695042D01*
X186189305Y-83852134D01*
X186206000Y-84021640D01*
X186206000Y-85935360D01*
X186189305Y-86104866D01*
X186141652Y-86261958D01*
X186064269Y-86406730D01*
X185960128Y-86533628D01*
X185833230Y-86637769D01*
X185688458Y-86715152D01*
X185531366Y-86762805D01*
X185361860Y-86779500D01*
X183448140Y-86779500D01*
X183278634Y-86762805D01*
X183121542Y-86715152D01*
X182976770Y-86637769D01*
X182849872Y-86533628D01*
X182745731Y-86406730D01*
X182668348Y-86261958D01*
X182620695Y-86104866D01*
X182604000Y-85935360D01*
X182604000Y-84021640D01*
X182620695Y-83852134D01*
X182668348Y-83695042D01*
X182745731Y-83550270D01*
X182849872Y-83423372D01*
X182976770Y-83319231D01*
X183121542Y-83241848D01*
X183278634Y-83194195D01*
X183448140Y-83177500D01*
X185361860Y-83177500D01*
X185531366Y-83194195D01*
X185531366Y-83194195D01*
G37*
G36*
X140826442Y-84894018D02*
X140892627Y-84900537D01*
X141005853Y-84934884D01*
X141062467Y-84952057D01*
X141132861Y-84989684D01*
X141218991Y-85035722D01*
X141254729Y-85065052D01*
X141356186Y-85148314D01*
X141439448Y-85249771D01*
X141468778Y-85285509D01*
X141468779Y-85285511D01*
X141552443Y-85442033D01*
X141569616Y-85498647D01*
X141603963Y-85611873D01*
X141621359Y-85788500D01*
X141603963Y-85965127D01*
X141576798Y-86054679D01*
X141552443Y-86134967D01*
X141505064Y-86223606D01*
X141468778Y-86291491D01*
X141439448Y-86327229D01*
X141356186Y-86428686D01*
X141254729Y-86511948D01*
X141218991Y-86541278D01*
X141218989Y-86541279D01*
X141062467Y-86624943D01*
X141005853Y-86642116D01*
X140892627Y-86676463D01*
X140826442Y-86682982D01*
X140760260Y-86689500D01*
X140671740Y-86689500D01*
X140605558Y-86682982D01*
X140539373Y-86676463D01*
X140426147Y-86642116D01*
X140369533Y-86624943D01*
X140213011Y-86541279D01*
X140213009Y-86541278D01*
X140177271Y-86511948D01*
X140075814Y-86428686D01*
X139992552Y-86327229D01*
X139963222Y-86291491D01*
X139926936Y-86223606D01*
X139879557Y-86134967D01*
X139855202Y-86054679D01*
X139828037Y-85965127D01*
X139810641Y-85788500D01*
X139828037Y-85611873D01*
X139862384Y-85498647D01*
X139879557Y-85442033D01*
X139963221Y-85285511D01*
X139963222Y-85285509D01*
X139992552Y-85249771D01*
X140075814Y-85148314D01*
X140177271Y-85065052D01*
X140213009Y-85035722D01*
X140299139Y-84989684D01*
X140369533Y-84952057D01*
X140426147Y-84934884D01*
X140539373Y-84900537D01*
X140605558Y-84894018D01*
X140671740Y-84887500D01*
X140760260Y-84887500D01*
X140826442Y-84894018D01*
X140826442Y-84894018D01*
G37*
G36*
X171126228Y-84255203D02*
X171281100Y-84319353D01*
X171420481Y-84412485D01*
X171539015Y-84531019D01*
X171632147Y-84670400D01*
X171696297Y-84825272D01*
X171729000Y-84989684D01*
X171729000Y-85157316D01*
X171696297Y-85321728D01*
X171632147Y-85476600D01*
X171539015Y-85615981D01*
X171420481Y-85734515D01*
X171281100Y-85827647D01*
X171126228Y-85891797D01*
X170961816Y-85924500D01*
X170794184Y-85924500D01*
X170629772Y-85891797D01*
X170474900Y-85827647D01*
X170335519Y-85734515D01*
X170216985Y-85615981D01*
X170123853Y-85476600D01*
X170059703Y-85321728D01*
X170027000Y-85157316D01*
X170027000Y-84989684D01*
X170059703Y-84825272D01*
X170123853Y-84670400D01*
X170216985Y-84531019D01*
X170335519Y-84412485D01*
X170474900Y-84319353D01*
X170629772Y-84255203D01*
X170794184Y-84222500D01*
X170961816Y-84222500D01*
X171126228Y-84255203D01*
X171126228Y-84255203D01*
G37*
G36*
X158662821Y-83870313D02*
X158662824Y-83870314D01*
X158662825Y-83870314D01*
X158823239Y-83918975D01*
X158823241Y-83918976D01*
X158823244Y-83918977D01*
X158971078Y-83997995D01*
X159100659Y-84104341D01*
X159207005Y-84233922D01*
X159286023Y-84381756D01*
X159334687Y-84542179D01*
X159351117Y-84709000D01*
X159334687Y-84875821D01*
X159334686Y-84875824D01*
X159334686Y-84875825D01*
X159286182Y-85035722D01*
X159286023Y-85036244D01*
X159207005Y-85184078D01*
X159100659Y-85313659D01*
X158971078Y-85420005D01*
X158823244Y-85499023D01*
X158823241Y-85499024D01*
X158823239Y-85499025D01*
X158662825Y-85547686D01*
X158662824Y-85547686D01*
X158662821Y-85547687D01*
X158537804Y-85560000D01*
X158454196Y-85560000D01*
X158329179Y-85547687D01*
X158329176Y-85547686D01*
X158329175Y-85547686D01*
X158168761Y-85499025D01*
X158168759Y-85499024D01*
X158168756Y-85499023D01*
X158020922Y-85420005D01*
X157891341Y-85313659D01*
X157784995Y-85184078D01*
X157705977Y-85036244D01*
X157705819Y-85035722D01*
X157657314Y-84875825D01*
X157657314Y-84875824D01*
X157657313Y-84875821D01*
X157640883Y-84709000D01*
X157657313Y-84542179D01*
X157705977Y-84381756D01*
X157784995Y-84233922D01*
X157891341Y-84104341D01*
X158020922Y-83997995D01*
X158168756Y-83918977D01*
X158168759Y-83918976D01*
X158168761Y-83918975D01*
X158329175Y-83870314D01*
X158329176Y-83870314D01*
X158329179Y-83870313D01*
X158454196Y-83858000D01*
X158537804Y-83858000D01*
X158662821Y-83870313D01*
X158662821Y-83870313D01*
G37*
G36*
X166282821Y-83870313D02*
X166282824Y-83870314D01*
X166282825Y-83870314D01*
X166443239Y-83918975D01*
X166443241Y-83918976D01*
X166443244Y-83918977D01*
X166591078Y-83997995D01*
X166720659Y-84104341D01*
X166827005Y-84233922D01*
X166906023Y-84381756D01*
X166954687Y-84542179D01*
X166971117Y-84709000D01*
X166954687Y-84875821D01*
X166954686Y-84875824D01*
X166954686Y-84875825D01*
X166906182Y-85035722D01*
X166906023Y-85036244D01*
X166827005Y-85184078D01*
X166720659Y-85313659D01*
X166591078Y-85420005D01*
X166443244Y-85499023D01*
X166443241Y-85499024D01*
X166443239Y-85499025D01*
X166282825Y-85547686D01*
X166282824Y-85547686D01*
X166282821Y-85547687D01*
X166157804Y-85560000D01*
X166074196Y-85560000D01*
X165949179Y-85547687D01*
X165949176Y-85547686D01*
X165949175Y-85547686D01*
X165788761Y-85499025D01*
X165788759Y-85499024D01*
X165788756Y-85499023D01*
X165640922Y-85420005D01*
X165511341Y-85313659D01*
X165404995Y-85184078D01*
X165325977Y-85036244D01*
X165325819Y-85035722D01*
X165277314Y-84875825D01*
X165277314Y-84875824D01*
X165277313Y-84875821D01*
X165260883Y-84709000D01*
X165277313Y-84542179D01*
X165325977Y-84381756D01*
X165404995Y-84233922D01*
X165511341Y-84104341D01*
X165640922Y-83997995D01*
X165788756Y-83918977D01*
X165788759Y-83918976D01*
X165788761Y-83918975D01*
X165949175Y-83870314D01*
X165949176Y-83870314D01*
X165949179Y-83870313D01*
X166074196Y-83858000D01*
X166157804Y-83858000D01*
X166282821Y-83870313D01*
X166282821Y-83870313D01*
G37*
G36*
X140826443Y-82354019D02*
X140892627Y-82360537D01*
X141005853Y-82394884D01*
X141062467Y-82412057D01*
X141201087Y-82486152D01*
X141218991Y-82495722D01*
X141254729Y-82525052D01*
X141356186Y-82608314D01*
X141439448Y-82709771D01*
X141468778Y-82745509D01*
X141468779Y-82745511D01*
X141552443Y-82902033D01*
X141552443Y-82902034D01*
X141603963Y-83071873D01*
X141621359Y-83248500D01*
X141603963Y-83425127D01*
X141599072Y-83441250D01*
X141552443Y-83594967D01*
X141498951Y-83695042D01*
X141468778Y-83751491D01*
X141445791Y-83779500D01*
X141356186Y-83888686D01*
X141254729Y-83971948D01*
X141218991Y-84001278D01*
X141218989Y-84001279D01*
X141062467Y-84084943D01*
X141005853Y-84102116D01*
X140892627Y-84136463D01*
X140826443Y-84142981D01*
X140760260Y-84149500D01*
X140671740Y-84149500D01*
X140605557Y-84142981D01*
X140539373Y-84136463D01*
X140426147Y-84102116D01*
X140369533Y-84084943D01*
X140213011Y-84001279D01*
X140213009Y-84001278D01*
X140177271Y-83971948D01*
X140075814Y-83888686D01*
X139986209Y-83779500D01*
X139963222Y-83751491D01*
X139933049Y-83695042D01*
X139879557Y-83594967D01*
X139832928Y-83441250D01*
X139828037Y-83425127D01*
X139810641Y-83248500D01*
X139828037Y-83071873D01*
X139879557Y-82902034D01*
X139879557Y-82902033D01*
X139963221Y-82745511D01*
X139963222Y-82745509D01*
X139992552Y-82709771D01*
X140075814Y-82608314D01*
X140177271Y-82525052D01*
X140213009Y-82495722D01*
X140230913Y-82486152D01*
X140369533Y-82412057D01*
X140426147Y-82394884D01*
X140539373Y-82360537D01*
X140605557Y-82354019D01*
X140671740Y-82347500D01*
X140760260Y-82347500D01*
X140826443Y-82354019D01*
X140826443Y-82354019D01*
G37*
G36*
X181506000Y-83779500D02*
X177904000Y-83779500D01*
X177904000Y-80177500D01*
X181506000Y-80177500D01*
X181506000Y-83779500D01*
X181506000Y-83779500D01*
G37*
G36*
X166282821Y-81330313D02*
X166282824Y-81330314D01*
X166282825Y-81330314D01*
X166443239Y-81378975D01*
X166443241Y-81378976D01*
X166443244Y-81378977D01*
X166591078Y-81457995D01*
X166720659Y-81564341D01*
X166827005Y-81693922D01*
X166906023Y-81841756D01*
X166954687Y-82002179D01*
X166971117Y-82169000D01*
X166954687Y-82335821D01*
X166954686Y-82335824D01*
X166954686Y-82335825D01*
X166906182Y-82495722D01*
X166906023Y-82496244D01*
X166827005Y-82644078D01*
X166720659Y-82773659D01*
X166591078Y-82880005D01*
X166443244Y-82959023D01*
X166443241Y-82959024D01*
X166443239Y-82959025D01*
X166282825Y-83007686D01*
X166282824Y-83007686D01*
X166282821Y-83007687D01*
X166157804Y-83020000D01*
X166074196Y-83020000D01*
X165949179Y-83007687D01*
X165949176Y-83007686D01*
X165949175Y-83007686D01*
X165788761Y-82959025D01*
X165788759Y-82959024D01*
X165788756Y-82959023D01*
X165640922Y-82880005D01*
X165511341Y-82773659D01*
X165404995Y-82644078D01*
X165325977Y-82496244D01*
X165325819Y-82495722D01*
X165277314Y-82335825D01*
X165277314Y-82335824D01*
X165277313Y-82335821D01*
X165260883Y-82169000D01*
X165277313Y-82002179D01*
X165325977Y-81841756D01*
X165404995Y-81693922D01*
X165511341Y-81564341D01*
X165640922Y-81457995D01*
X165788756Y-81378977D01*
X165788759Y-81378976D01*
X165788761Y-81378975D01*
X165949175Y-81330314D01*
X165949176Y-81330314D01*
X165949179Y-81330313D01*
X166074196Y-81318000D01*
X166157804Y-81318000D01*
X166282821Y-81330313D01*
X166282821Y-81330313D01*
G37*
G36*
X158662821Y-81330313D02*
X158662824Y-81330314D01*
X158662825Y-81330314D01*
X158823239Y-81378975D01*
X158823241Y-81378976D01*
X158823244Y-81378977D01*
X158971078Y-81457995D01*
X159100659Y-81564341D01*
X159207005Y-81693922D01*
X159286023Y-81841756D01*
X159334687Y-82002179D01*
X159351117Y-82169000D01*
X159334687Y-82335821D01*
X159334686Y-82335824D01*
X159334686Y-82335825D01*
X159286182Y-82495722D01*
X159286023Y-82496244D01*
X159207005Y-82644078D01*
X159100659Y-82773659D01*
X158971078Y-82880005D01*
X158823244Y-82959023D01*
X158823241Y-82959024D01*
X158823239Y-82959025D01*
X158662825Y-83007686D01*
X158662824Y-83007686D01*
X158662821Y-83007687D01*
X158537804Y-83020000D01*
X158454196Y-83020000D01*
X158329179Y-83007687D01*
X158329176Y-83007686D01*
X158329175Y-83007686D01*
X158168761Y-82959025D01*
X158168759Y-82959024D01*
X158168756Y-82959023D01*
X158020922Y-82880005D01*
X157891341Y-82773659D01*
X157784995Y-82644078D01*
X157705977Y-82496244D01*
X157705819Y-82495722D01*
X157657314Y-82335825D01*
X157657314Y-82335824D01*
X157657313Y-82335821D01*
X157640883Y-82169000D01*
X157657313Y-82002179D01*
X157705977Y-81841756D01*
X157784995Y-81693922D01*
X157891341Y-81564341D01*
X158020922Y-81457995D01*
X158168756Y-81378977D01*
X158168759Y-81378976D01*
X158168761Y-81378975D01*
X158329175Y-81330314D01*
X158329176Y-81330314D01*
X158329179Y-81330313D01*
X158454196Y-81318000D01*
X158537804Y-81318000D01*
X158662821Y-81330313D01*
X158662821Y-81330313D01*
G37*
G36*
X140826442Y-79814018D02*
X140892627Y-79820537D01*
X141005853Y-79854884D01*
X141062467Y-79872057D01*
X141201087Y-79946152D01*
X141218991Y-79955722D01*
X141254729Y-79985052D01*
X141356186Y-80068314D01*
X141429227Y-80157316D01*
X141468778Y-80205509D01*
X141468779Y-80205511D01*
X141552443Y-80362033D01*
X141552443Y-80362034D01*
X141603963Y-80531873D01*
X141621359Y-80708500D01*
X141603963Y-80885127D01*
X141592019Y-80924500D01*
X141552443Y-81054967D01*
X141478348Y-81193587D01*
X141468778Y-81211491D01*
X141439448Y-81247229D01*
X141356186Y-81348686D01*
X141254729Y-81431948D01*
X141218991Y-81461278D01*
X141218989Y-81461279D01*
X141062467Y-81544943D01*
X141005853Y-81562116D01*
X140892627Y-81596463D01*
X140826443Y-81602981D01*
X140760260Y-81609500D01*
X140671740Y-81609500D01*
X140605557Y-81602981D01*
X140539373Y-81596463D01*
X140426147Y-81562116D01*
X140369533Y-81544943D01*
X140213011Y-81461279D01*
X140213009Y-81461278D01*
X140177271Y-81431948D01*
X140075814Y-81348686D01*
X139992552Y-81247229D01*
X139963222Y-81211491D01*
X139953652Y-81193587D01*
X139879557Y-81054967D01*
X139839981Y-80924500D01*
X139828037Y-80885127D01*
X139810641Y-80708500D01*
X139828037Y-80531873D01*
X139879557Y-80362034D01*
X139879557Y-80362033D01*
X139963221Y-80205511D01*
X139963222Y-80205509D01*
X140002773Y-80157316D01*
X140075814Y-80068314D01*
X140177271Y-79985052D01*
X140213009Y-79955722D01*
X140230913Y-79946152D01*
X140369533Y-79872057D01*
X140426147Y-79854884D01*
X140539373Y-79820537D01*
X140605558Y-79814018D01*
X140671740Y-79807500D01*
X140760260Y-79807500D01*
X140826442Y-79814018D01*
X140826442Y-79814018D01*
G37*
G36*
X171126228Y-79255203D02*
X171281100Y-79319353D01*
X171420481Y-79412485D01*
X171539015Y-79531019D01*
X171632147Y-79670400D01*
X171696297Y-79825272D01*
X171729000Y-79989684D01*
X171729000Y-80157316D01*
X171696297Y-80321728D01*
X171632147Y-80476600D01*
X171539015Y-80615981D01*
X171420481Y-80734515D01*
X171281100Y-80827647D01*
X171126228Y-80891797D01*
X170961816Y-80924500D01*
X170794184Y-80924500D01*
X170629772Y-80891797D01*
X170474900Y-80827647D01*
X170335519Y-80734515D01*
X170216985Y-80615981D01*
X170123853Y-80476600D01*
X170059703Y-80321728D01*
X170027000Y-80157316D01*
X170027000Y-79989684D01*
X170059703Y-79825272D01*
X170123853Y-79670400D01*
X170216985Y-79531019D01*
X170335519Y-79412485D01*
X170474900Y-79319353D01*
X170629772Y-79255203D01*
X170794184Y-79222500D01*
X170961816Y-79222500D01*
X171126228Y-79255203D01*
X171126228Y-79255203D01*
G37*
G36*
X166282821Y-78790313D02*
X166282824Y-78790314D01*
X166282825Y-78790314D01*
X166443239Y-78838975D01*
X166443241Y-78838976D01*
X166443244Y-78838977D01*
X166591078Y-78917995D01*
X166720659Y-79024341D01*
X166827005Y-79153922D01*
X166906023Y-79301756D01*
X166906024Y-79301759D01*
X166906025Y-79301761D01*
X166939613Y-79412486D01*
X166954687Y-79462179D01*
X166971117Y-79629000D01*
X166954687Y-79795821D01*
X166954686Y-79795824D01*
X166954686Y-79795825D01*
X166906182Y-79955722D01*
X166906023Y-79956244D01*
X166827005Y-80104078D01*
X166720659Y-80233659D01*
X166591078Y-80340005D01*
X166443244Y-80419023D01*
X166443241Y-80419024D01*
X166443239Y-80419025D01*
X166282825Y-80467686D01*
X166282824Y-80467686D01*
X166282821Y-80467687D01*
X166157804Y-80480000D01*
X166074196Y-80480000D01*
X165949179Y-80467687D01*
X165949176Y-80467686D01*
X165949175Y-80467686D01*
X165788761Y-80419025D01*
X165788759Y-80419024D01*
X165788756Y-80419023D01*
X165640922Y-80340005D01*
X165511341Y-80233659D01*
X165404995Y-80104078D01*
X165325977Y-79956244D01*
X165325819Y-79955722D01*
X165277314Y-79795825D01*
X165277314Y-79795824D01*
X165277313Y-79795821D01*
X165260883Y-79629000D01*
X165277313Y-79462179D01*
X165292387Y-79412486D01*
X165325975Y-79301761D01*
X165325976Y-79301759D01*
X165325977Y-79301756D01*
X165404995Y-79153922D01*
X165511341Y-79024341D01*
X165640922Y-78917995D01*
X165788756Y-78838977D01*
X165788759Y-78838976D01*
X165788761Y-78838975D01*
X165949175Y-78790314D01*
X165949176Y-78790314D01*
X165949179Y-78790313D01*
X166074196Y-78778000D01*
X166157804Y-78778000D01*
X166282821Y-78790313D01*
X166282821Y-78790313D01*
G37*
G36*
X158662821Y-78790313D02*
X158662824Y-78790314D01*
X158662825Y-78790314D01*
X158823239Y-78838975D01*
X158823241Y-78838976D01*
X158823244Y-78838977D01*
X158971078Y-78917995D01*
X159100659Y-79024341D01*
X159207005Y-79153922D01*
X159286023Y-79301756D01*
X159286024Y-79301759D01*
X159286025Y-79301761D01*
X159319613Y-79412486D01*
X159334687Y-79462179D01*
X159351117Y-79629000D01*
X159334687Y-79795821D01*
X159334686Y-79795824D01*
X159334686Y-79795825D01*
X159286182Y-79955722D01*
X159286023Y-79956244D01*
X159207005Y-80104078D01*
X159100659Y-80233659D01*
X158971078Y-80340005D01*
X158823244Y-80419023D01*
X158823241Y-80419024D01*
X158823239Y-80419025D01*
X158662825Y-80467686D01*
X158662824Y-80467686D01*
X158662821Y-80467687D01*
X158537804Y-80480000D01*
X158454196Y-80480000D01*
X158329179Y-80467687D01*
X158329176Y-80467686D01*
X158329175Y-80467686D01*
X158168761Y-80419025D01*
X158168759Y-80419024D01*
X158168756Y-80419023D01*
X158020922Y-80340005D01*
X157891341Y-80233659D01*
X157784995Y-80104078D01*
X157705977Y-79956244D01*
X157705819Y-79955722D01*
X157657314Y-79795825D01*
X157657314Y-79795824D01*
X157657313Y-79795821D01*
X157640883Y-79629000D01*
X157657313Y-79462179D01*
X157672387Y-79412486D01*
X157705975Y-79301761D01*
X157705976Y-79301759D01*
X157705977Y-79301756D01*
X157784995Y-79153922D01*
X157891341Y-79024341D01*
X158020922Y-78917995D01*
X158168756Y-78838977D01*
X158168759Y-78838976D01*
X158168761Y-78838975D01*
X158329175Y-78790314D01*
X158329176Y-78790314D01*
X158329179Y-78790313D01*
X158454196Y-78778000D01*
X158537804Y-78778000D01*
X158662821Y-78790313D01*
X158662821Y-78790313D01*
G37*
G36*
X140826443Y-77274019D02*
X140892627Y-77280537D01*
X141005853Y-77314884D01*
X141062467Y-77332057D01*
X141201087Y-77406152D01*
X141218991Y-77415722D01*
X141254729Y-77445052D01*
X141356186Y-77528314D01*
X141439448Y-77629771D01*
X141468778Y-77665509D01*
X141468779Y-77665511D01*
X141552443Y-77822033D01*
X141552443Y-77822034D01*
X141603963Y-77991873D01*
X141621359Y-78168500D01*
X141603963Y-78345127D01*
X141569616Y-78458353D01*
X141552443Y-78514967D01*
X141478348Y-78653587D01*
X141468778Y-78671491D01*
X141439448Y-78707229D01*
X141356186Y-78808686D01*
X141254729Y-78891948D01*
X141218991Y-78921278D01*
X141218989Y-78921279D01*
X141062467Y-79004943D01*
X141005853Y-79022116D01*
X140892627Y-79056463D01*
X140826442Y-79062982D01*
X140760260Y-79069500D01*
X140671740Y-79069500D01*
X140605558Y-79062982D01*
X140539373Y-79056463D01*
X140426147Y-79022116D01*
X140369533Y-79004943D01*
X140213011Y-78921279D01*
X140213009Y-78921278D01*
X140177271Y-78891948D01*
X140075814Y-78808686D01*
X139992552Y-78707229D01*
X139963222Y-78671491D01*
X139953652Y-78653587D01*
X139879557Y-78514967D01*
X139862384Y-78458353D01*
X139828037Y-78345127D01*
X139810641Y-78168500D01*
X139828037Y-77991873D01*
X139879557Y-77822034D01*
X139879557Y-77822033D01*
X139963221Y-77665511D01*
X139963222Y-77665509D01*
X139992552Y-77629771D01*
X140075814Y-77528314D01*
X140177271Y-77445052D01*
X140213009Y-77415722D01*
X140230913Y-77406152D01*
X140369533Y-77332057D01*
X140426147Y-77314884D01*
X140539373Y-77280537D01*
X140605557Y-77274019D01*
X140671740Y-77267500D01*
X140760260Y-77267500D01*
X140826443Y-77274019D01*
X140826443Y-77274019D01*
G37*
G36*
X181488719Y-75862020D02*
X181677880Y-75919401D01*
X181852212Y-76012583D01*
X182005015Y-76137985D01*
X182130417Y-76290788D01*
X182223599Y-76465119D01*
X182280980Y-76654280D01*
X182295500Y-76801706D01*
X182295500Y-76995293D01*
X182280980Y-77142719D01*
X182223599Y-77331880D01*
X182130417Y-77506212D01*
X182005015Y-77659015D01*
X181852212Y-77784417D01*
X181677881Y-77877599D01*
X181488720Y-77934980D01*
X181292000Y-77954355D01*
X181095281Y-77934980D01*
X180906120Y-77877599D01*
X180731788Y-77784417D01*
X180578985Y-77659015D01*
X180453583Y-77506212D01*
X180360401Y-77331881D01*
X180303020Y-77142720D01*
X180288500Y-76995294D01*
X180288500Y-76801707D01*
X180303020Y-76654281D01*
X180360401Y-76465120D01*
X180453583Y-76290788D01*
X180578985Y-76137985D01*
X180731788Y-76012583D01*
X180906119Y-75919401D01*
X181095280Y-75862020D01*
X181292000Y-75842645D01*
X181488719Y-75862020D01*
X181488719Y-75862020D01*
G37*
G36*
X184028719Y-75862020D02*
X184217880Y-75919401D01*
X184392212Y-76012583D01*
X184545015Y-76137985D01*
X184670417Y-76290788D01*
X184763599Y-76465119D01*
X184820980Y-76654280D01*
X184835500Y-76801706D01*
X184835500Y-76995293D01*
X184820980Y-77142719D01*
X184763599Y-77331880D01*
X184670417Y-77506212D01*
X184545015Y-77659015D01*
X184392212Y-77784417D01*
X184217881Y-77877599D01*
X184028720Y-77934980D01*
X183832000Y-77954355D01*
X183635281Y-77934980D01*
X183446120Y-77877599D01*
X183271788Y-77784417D01*
X183118985Y-77659015D01*
X182993583Y-77506212D01*
X182900401Y-77331881D01*
X182843020Y-77142720D01*
X182828500Y-76995294D01*
X182828500Y-76801707D01*
X182843020Y-76654281D01*
X182900401Y-76465120D01*
X182993583Y-76290788D01*
X183118985Y-76137985D01*
X183271788Y-76012583D01*
X183446119Y-75919401D01*
X183635280Y-75862020D01*
X183832000Y-75842645D01*
X184028719Y-75862020D01*
X184028719Y-75862020D01*
G37*
G36*
X179755500Y-77949500D02*
X177748500Y-77949500D01*
X177748500Y-75847500D01*
X179755500Y-75847500D01*
X179755500Y-77949500D01*
X179755500Y-77949500D01*
G37*
G36*
X166282821Y-76250313D02*
X166282824Y-76250314D01*
X166282825Y-76250314D01*
X166443239Y-76298975D01*
X166443241Y-76298976D01*
X166443244Y-76298977D01*
X166591078Y-76377995D01*
X166720659Y-76484341D01*
X166827005Y-76613922D01*
X166906023Y-76761756D01*
X166906024Y-76761759D01*
X166906025Y-76761761D01*
X166918142Y-76801706D01*
X166954687Y-76922179D01*
X166971117Y-77089000D01*
X166954687Y-77255821D01*
X166954686Y-77255824D01*
X166954686Y-77255825D01*
X166906182Y-77415722D01*
X166906023Y-77416244D01*
X166827005Y-77564078D01*
X166720659Y-77693659D01*
X166591078Y-77800005D01*
X166443244Y-77879023D01*
X166443241Y-77879024D01*
X166443239Y-77879025D01*
X166282825Y-77927686D01*
X166282824Y-77927686D01*
X166282821Y-77927687D01*
X166157804Y-77940000D01*
X166074196Y-77940000D01*
X165949179Y-77927687D01*
X165949176Y-77927686D01*
X165949175Y-77927686D01*
X165788761Y-77879025D01*
X165788759Y-77879024D01*
X165788756Y-77879023D01*
X165640922Y-77800005D01*
X165511341Y-77693659D01*
X165404995Y-77564078D01*
X165325977Y-77416244D01*
X165325819Y-77415722D01*
X165277314Y-77255825D01*
X165277314Y-77255824D01*
X165277313Y-77255821D01*
X165260883Y-77089000D01*
X165277313Y-76922179D01*
X165313858Y-76801706D01*
X165325975Y-76761761D01*
X165325976Y-76761759D01*
X165325977Y-76761756D01*
X165404995Y-76613922D01*
X165511341Y-76484341D01*
X165640922Y-76377995D01*
X165788756Y-76298977D01*
X165788759Y-76298976D01*
X165788761Y-76298975D01*
X165949175Y-76250314D01*
X165949176Y-76250314D01*
X165949179Y-76250313D01*
X166074196Y-76238000D01*
X166157804Y-76238000D01*
X166282821Y-76250313D01*
X166282821Y-76250313D01*
G37*
G36*
X158662821Y-76250313D02*
X158662824Y-76250314D01*
X158662825Y-76250314D01*
X158823239Y-76298975D01*
X158823241Y-76298976D01*
X158823244Y-76298977D01*
X158971078Y-76377995D01*
X159100659Y-76484341D01*
X159207005Y-76613922D01*
X159286023Y-76761756D01*
X159286024Y-76761759D01*
X159286025Y-76761761D01*
X159298142Y-76801706D01*
X159334687Y-76922179D01*
X159351117Y-77089000D01*
X159334687Y-77255821D01*
X159334686Y-77255824D01*
X159334686Y-77255825D01*
X159286182Y-77415722D01*
X159286023Y-77416244D01*
X159207005Y-77564078D01*
X159100659Y-77693659D01*
X158971078Y-77800005D01*
X158823244Y-77879023D01*
X158823241Y-77879024D01*
X158823239Y-77879025D01*
X158662825Y-77927686D01*
X158662824Y-77927686D01*
X158662821Y-77927687D01*
X158537804Y-77940000D01*
X158454196Y-77940000D01*
X158329179Y-77927687D01*
X158329176Y-77927686D01*
X158329175Y-77927686D01*
X158168761Y-77879025D01*
X158168759Y-77879024D01*
X158168756Y-77879023D01*
X158020922Y-77800005D01*
X157891341Y-77693659D01*
X157784995Y-77564078D01*
X157705977Y-77416244D01*
X157705819Y-77415722D01*
X157657314Y-77255825D01*
X157657314Y-77255824D01*
X157657313Y-77255821D01*
X157640883Y-77089000D01*
X157657313Y-76922179D01*
X157693858Y-76801706D01*
X157705975Y-76761761D01*
X157705976Y-76761759D01*
X157705977Y-76761756D01*
X157784995Y-76613922D01*
X157891341Y-76484341D01*
X158020922Y-76377995D01*
X158168756Y-76298977D01*
X158168759Y-76298976D01*
X158168761Y-76298975D01*
X158329175Y-76250314D01*
X158329176Y-76250314D01*
X158329179Y-76250313D01*
X158454196Y-76238000D01*
X158537804Y-76238000D01*
X158662821Y-76250313D01*
X158662821Y-76250313D01*
G37*
G36*
X140826442Y-74734018D02*
X140892627Y-74740537D01*
X141005853Y-74774884D01*
X141062467Y-74792057D01*
X141201087Y-74866152D01*
X141218991Y-74875722D01*
X141254729Y-74905052D01*
X141356186Y-74988314D01*
X141439448Y-75089771D01*
X141468778Y-75125509D01*
X141468779Y-75125511D01*
X141552443Y-75282033D01*
X141552443Y-75282034D01*
X141603963Y-75451873D01*
X141621359Y-75628500D01*
X141603963Y-75805127D01*
X141569616Y-75918353D01*
X141552443Y-75974967D01*
X141478348Y-76113587D01*
X141468778Y-76131491D01*
X141463448Y-76137985D01*
X141356186Y-76268686D01*
X141254729Y-76351948D01*
X141218991Y-76381278D01*
X141218989Y-76381279D01*
X141062467Y-76464943D01*
X141061883Y-76465120D01*
X140892627Y-76516463D01*
X140826442Y-76522982D01*
X140760260Y-76529500D01*
X140671740Y-76529500D01*
X140605558Y-76522982D01*
X140539373Y-76516463D01*
X140370117Y-76465120D01*
X140369533Y-76464943D01*
X140213011Y-76381279D01*
X140213009Y-76381278D01*
X140177271Y-76351948D01*
X140075814Y-76268686D01*
X139968552Y-76137985D01*
X139963222Y-76131491D01*
X139953652Y-76113587D01*
X139879557Y-75974967D01*
X139862384Y-75918353D01*
X139828037Y-75805127D01*
X139810641Y-75628500D01*
X139828037Y-75451873D01*
X139879557Y-75282034D01*
X139879557Y-75282033D01*
X139963221Y-75125511D01*
X139963222Y-75125509D01*
X139992552Y-75089771D01*
X140075814Y-74988314D01*
X140177271Y-74905052D01*
X140213009Y-74875722D01*
X140230913Y-74866152D01*
X140369533Y-74792057D01*
X140426147Y-74774884D01*
X140539373Y-74740537D01*
X140605558Y-74734018D01*
X140671740Y-74727500D01*
X140760260Y-74727500D01*
X140826442Y-74734018D01*
X140826442Y-74734018D01*
G37*
G36*
X166282821Y-73710313D02*
X166282824Y-73710314D01*
X166282825Y-73710314D01*
X166443239Y-73758975D01*
X166443241Y-73758976D01*
X166443244Y-73758977D01*
X166591078Y-73837995D01*
X166720659Y-73944341D01*
X166827005Y-74073922D01*
X166906023Y-74221756D01*
X166954687Y-74382179D01*
X166971117Y-74549000D01*
X166954687Y-74715821D01*
X166954686Y-74715824D01*
X166954686Y-74715825D01*
X166906182Y-74875722D01*
X166906023Y-74876244D01*
X166827005Y-75024078D01*
X166720659Y-75153659D01*
X166591078Y-75260005D01*
X166443244Y-75339023D01*
X166443241Y-75339024D01*
X166443239Y-75339025D01*
X166282825Y-75387686D01*
X166282824Y-75387686D01*
X166282821Y-75387687D01*
X166157804Y-75400000D01*
X166074196Y-75400000D01*
X165949179Y-75387687D01*
X165949176Y-75387686D01*
X165949175Y-75387686D01*
X165788761Y-75339025D01*
X165788759Y-75339024D01*
X165788756Y-75339023D01*
X165640922Y-75260005D01*
X165511341Y-75153659D01*
X165404995Y-75024078D01*
X165325977Y-74876244D01*
X165325819Y-74875722D01*
X165277314Y-74715825D01*
X165277314Y-74715824D01*
X165277313Y-74715821D01*
X165260883Y-74549000D01*
X165277313Y-74382179D01*
X165325977Y-74221756D01*
X165404995Y-74073922D01*
X165511341Y-73944341D01*
X165640922Y-73837995D01*
X165788756Y-73758977D01*
X165788759Y-73758976D01*
X165788761Y-73758975D01*
X165949175Y-73710314D01*
X165949176Y-73710314D01*
X165949179Y-73710313D01*
X166074196Y-73698000D01*
X166157804Y-73698000D01*
X166282821Y-73710313D01*
X166282821Y-73710313D01*
G37*
G36*
X158662821Y-73710313D02*
X158662824Y-73710314D01*
X158662825Y-73710314D01*
X158823239Y-73758975D01*
X158823241Y-73758976D01*
X158823244Y-73758977D01*
X158971078Y-73837995D01*
X159100659Y-73944341D01*
X159207005Y-74073922D01*
X159286023Y-74221756D01*
X159334687Y-74382179D01*
X159351117Y-74549000D01*
X159334687Y-74715821D01*
X159334686Y-74715824D01*
X159334686Y-74715825D01*
X159286182Y-74875722D01*
X159286023Y-74876244D01*
X159207005Y-75024078D01*
X159100659Y-75153659D01*
X158971078Y-75260005D01*
X158823244Y-75339023D01*
X158823241Y-75339024D01*
X158823239Y-75339025D01*
X158662825Y-75387686D01*
X158662824Y-75387686D01*
X158662821Y-75387687D01*
X158537804Y-75400000D01*
X158454196Y-75400000D01*
X158329179Y-75387687D01*
X158329176Y-75387686D01*
X158329175Y-75387686D01*
X158168761Y-75339025D01*
X158168759Y-75339024D01*
X158168756Y-75339023D01*
X158020922Y-75260005D01*
X157891341Y-75153659D01*
X157784995Y-75024078D01*
X157705977Y-74876244D01*
X157705819Y-74875722D01*
X157657314Y-74715825D01*
X157657314Y-74715824D01*
X157657313Y-74715821D01*
X157640883Y-74549000D01*
X157657313Y-74382179D01*
X157705977Y-74221756D01*
X157784995Y-74073922D01*
X157891341Y-73944341D01*
X158020922Y-73837995D01*
X158168756Y-73758977D01*
X158168759Y-73758976D01*
X158168761Y-73758975D01*
X158329175Y-73710314D01*
X158329176Y-73710314D01*
X158329179Y-73710313D01*
X158454196Y-73698000D01*
X158537804Y-73698000D01*
X158662821Y-73710313D01*
X158662821Y-73710313D01*
G37*
G36*
X140826443Y-72194019D02*
X140892627Y-72200537D01*
X141005853Y-72234884D01*
X141062467Y-72252057D01*
X141201087Y-72326152D01*
X141218991Y-72335722D01*
X141254729Y-72365052D01*
X141356186Y-72448314D01*
X141439448Y-72549771D01*
X141468778Y-72585509D01*
X141468779Y-72585511D01*
X141552443Y-72742033D01*
X141552443Y-72742034D01*
X141603963Y-72911873D01*
X141621359Y-73088500D01*
X141603963Y-73265127D01*
X141569616Y-73378353D01*
X141552443Y-73434967D01*
X141478348Y-73573587D01*
X141468778Y-73591491D01*
X141439448Y-73627229D01*
X141356186Y-73728686D01*
X141254729Y-73811948D01*
X141218991Y-73841278D01*
X141218989Y-73841279D01*
X141062467Y-73924943D01*
X141005853Y-73942116D01*
X140892627Y-73976463D01*
X140826442Y-73982982D01*
X140760260Y-73989500D01*
X140671740Y-73989500D01*
X140605558Y-73982982D01*
X140539373Y-73976463D01*
X140426147Y-73942116D01*
X140369533Y-73924943D01*
X140213011Y-73841279D01*
X140213009Y-73841278D01*
X140177271Y-73811948D01*
X140075814Y-73728686D01*
X139992552Y-73627229D01*
X139963222Y-73591491D01*
X139953652Y-73573587D01*
X139879557Y-73434967D01*
X139862384Y-73378353D01*
X139828037Y-73265127D01*
X139810641Y-73088500D01*
X139828037Y-72911873D01*
X139879557Y-72742034D01*
X139879557Y-72742033D01*
X139963221Y-72585511D01*
X139963222Y-72585509D01*
X139992552Y-72549771D01*
X140075814Y-72448314D01*
X140177271Y-72365052D01*
X140213009Y-72335722D01*
X140230913Y-72326152D01*
X140369533Y-72252057D01*
X140426147Y-72234884D01*
X140539373Y-72200537D01*
X140605557Y-72194019D01*
X140671740Y-72187500D01*
X140760260Y-72187500D01*
X140826443Y-72194019D01*
X140826443Y-72194019D01*
G37*
G36*
X166282821Y-71170313D02*
X166282824Y-71170314D01*
X166282825Y-71170314D01*
X166443239Y-71218975D01*
X166443241Y-71218976D01*
X166443244Y-71218977D01*
X166591078Y-71297995D01*
X166720659Y-71404341D01*
X166827005Y-71533922D01*
X166906023Y-71681756D01*
X166954687Y-71842179D01*
X166971117Y-72009000D01*
X166954687Y-72175821D01*
X166954686Y-72175824D01*
X166954686Y-72175825D01*
X166906182Y-72335722D01*
X166906023Y-72336244D01*
X166827005Y-72484078D01*
X166720659Y-72613659D01*
X166591078Y-72720005D01*
X166443244Y-72799023D01*
X166443241Y-72799024D01*
X166443239Y-72799025D01*
X166282825Y-72847686D01*
X166282824Y-72847686D01*
X166282821Y-72847687D01*
X166157804Y-72860000D01*
X166074196Y-72860000D01*
X165949179Y-72847687D01*
X165949176Y-72847686D01*
X165949175Y-72847686D01*
X165788761Y-72799025D01*
X165788759Y-72799024D01*
X165788756Y-72799023D01*
X165640922Y-72720005D01*
X165511341Y-72613659D01*
X165404995Y-72484078D01*
X165325977Y-72336244D01*
X165325819Y-72335722D01*
X165277314Y-72175825D01*
X165277314Y-72175824D01*
X165277313Y-72175821D01*
X165260883Y-72009000D01*
X165277313Y-71842179D01*
X165325977Y-71681756D01*
X165404995Y-71533922D01*
X165511341Y-71404341D01*
X165640922Y-71297995D01*
X165788756Y-71218977D01*
X165788759Y-71218976D01*
X165788761Y-71218975D01*
X165949175Y-71170314D01*
X165949176Y-71170314D01*
X165949179Y-71170313D01*
X166074196Y-71158000D01*
X166157804Y-71158000D01*
X166282821Y-71170313D01*
X166282821Y-71170313D01*
G37*
G36*
X158662821Y-71170313D02*
X158662824Y-71170314D01*
X158662825Y-71170314D01*
X158823239Y-71218975D01*
X158823241Y-71218976D01*
X158823244Y-71218977D01*
X158971078Y-71297995D01*
X159100659Y-71404341D01*
X159207005Y-71533922D01*
X159286023Y-71681756D01*
X159334687Y-71842179D01*
X159351117Y-72009000D01*
X159334687Y-72175821D01*
X159334686Y-72175824D01*
X159334686Y-72175825D01*
X159286182Y-72335722D01*
X159286023Y-72336244D01*
X159207005Y-72484078D01*
X159100659Y-72613659D01*
X158971078Y-72720005D01*
X158823244Y-72799023D01*
X158823241Y-72799024D01*
X158823239Y-72799025D01*
X158662825Y-72847686D01*
X158662824Y-72847686D01*
X158662821Y-72847687D01*
X158537804Y-72860000D01*
X158454196Y-72860000D01*
X158329179Y-72847687D01*
X158329176Y-72847686D01*
X158329175Y-72847686D01*
X158168761Y-72799025D01*
X158168759Y-72799024D01*
X158168756Y-72799023D01*
X158020922Y-72720005D01*
X157891341Y-72613659D01*
X157784995Y-72484078D01*
X157705977Y-72336244D01*
X157705819Y-72335722D01*
X157657314Y-72175825D01*
X157657314Y-72175824D01*
X157657313Y-72175821D01*
X157640883Y-72009000D01*
X157657313Y-71842179D01*
X157705977Y-71681756D01*
X157784995Y-71533922D01*
X157891341Y-71404341D01*
X158020922Y-71297995D01*
X158168756Y-71218977D01*
X158168759Y-71218976D01*
X158168761Y-71218975D01*
X158329175Y-71170314D01*
X158329176Y-71170314D01*
X158329179Y-71170313D01*
X158454196Y-71158000D01*
X158537804Y-71158000D01*
X158662821Y-71170313D01*
X158662821Y-71170313D01*
G37*
G36*
X140826442Y-69654018D02*
X140892627Y-69660537D01*
X141005853Y-69694884D01*
X141062467Y-69712057D01*
X141201087Y-69786152D01*
X141218991Y-69795722D01*
X141254729Y-69825052D01*
X141356186Y-69908314D01*
X141439448Y-70009771D01*
X141468778Y-70045509D01*
X141468779Y-70045511D01*
X141552443Y-70202033D01*
X141552443Y-70202034D01*
X141603963Y-70371873D01*
X141621359Y-70548500D01*
X141603963Y-70725127D01*
X141569616Y-70838353D01*
X141552443Y-70894967D01*
X141478348Y-71033587D01*
X141468778Y-71051491D01*
X141439448Y-71087229D01*
X141356186Y-71188686D01*
X141254729Y-71271948D01*
X141218991Y-71301278D01*
X141218989Y-71301279D01*
X141062467Y-71384943D01*
X141005853Y-71402116D01*
X140892627Y-71436463D01*
X140826443Y-71442981D01*
X140760260Y-71449500D01*
X140671740Y-71449500D01*
X140605557Y-71442981D01*
X140539373Y-71436463D01*
X140426147Y-71402116D01*
X140369533Y-71384943D01*
X140213011Y-71301279D01*
X140213009Y-71301278D01*
X140177271Y-71271948D01*
X140075814Y-71188686D01*
X139992552Y-71087229D01*
X139963222Y-71051491D01*
X139953652Y-71033587D01*
X139879557Y-70894967D01*
X139862384Y-70838353D01*
X139828037Y-70725127D01*
X139810641Y-70548500D01*
X139828037Y-70371873D01*
X139879557Y-70202034D01*
X139879557Y-70202033D01*
X139963221Y-70045511D01*
X139963222Y-70045509D01*
X139992552Y-70009771D01*
X140075814Y-69908314D01*
X140177271Y-69825052D01*
X140213009Y-69795722D01*
X140230913Y-69786152D01*
X140369533Y-69712057D01*
X140426147Y-69694884D01*
X140539373Y-69660537D01*
X140605558Y-69654018D01*
X140671740Y-69647500D01*
X140760260Y-69647500D01*
X140826442Y-69654018D01*
X140826442Y-69654018D01*
G37*
G36*
X166282821Y-68630313D02*
X166282824Y-68630314D01*
X166282825Y-68630314D01*
X166443239Y-68678975D01*
X166443241Y-68678976D01*
X166443244Y-68678977D01*
X166591078Y-68757995D01*
X166720659Y-68864341D01*
X166827005Y-68993922D01*
X166906023Y-69141756D01*
X166954687Y-69302179D01*
X166971117Y-69469000D01*
X166954687Y-69635821D01*
X166954686Y-69635824D01*
X166954686Y-69635825D01*
X166906182Y-69795722D01*
X166906023Y-69796244D01*
X166827005Y-69944078D01*
X166720659Y-70073659D01*
X166591078Y-70180005D01*
X166443244Y-70259023D01*
X166443241Y-70259024D01*
X166443239Y-70259025D01*
X166282825Y-70307686D01*
X166282824Y-70307686D01*
X166282821Y-70307687D01*
X166157804Y-70320000D01*
X166074196Y-70320000D01*
X165949179Y-70307687D01*
X165949176Y-70307686D01*
X165949175Y-70307686D01*
X165788761Y-70259025D01*
X165788759Y-70259024D01*
X165788756Y-70259023D01*
X165640922Y-70180005D01*
X165511341Y-70073659D01*
X165404995Y-69944078D01*
X165325977Y-69796244D01*
X165325819Y-69795722D01*
X165277314Y-69635825D01*
X165277314Y-69635824D01*
X165277313Y-69635821D01*
X165260883Y-69469000D01*
X165277313Y-69302179D01*
X165325977Y-69141756D01*
X165404995Y-68993922D01*
X165511341Y-68864341D01*
X165640922Y-68757995D01*
X165788756Y-68678977D01*
X165788759Y-68678976D01*
X165788761Y-68678975D01*
X165949175Y-68630314D01*
X165949176Y-68630314D01*
X165949179Y-68630313D01*
X166074196Y-68618000D01*
X166157804Y-68618000D01*
X166282821Y-68630313D01*
X166282821Y-68630313D01*
G37*
G36*
X159347000Y-70320000D02*
X157645000Y-70320000D01*
X157645000Y-68618000D01*
X159347000Y-68618000D01*
X159347000Y-70320000D01*
X159347000Y-70320000D01*
G37*
G36*
X184554396Y-68427546D02*
X184727466Y-68499234D01*
X184883230Y-68603312D01*
X185015688Y-68735770D01*
X185119766Y-68891534D01*
X185191454Y-69064604D01*
X185228000Y-69248333D01*
X185228000Y-69435667D01*
X185191454Y-69619396D01*
X185119766Y-69792466D01*
X185015688Y-69948230D01*
X184883230Y-70080688D01*
X184727466Y-70184766D01*
X184554396Y-70256454D01*
X184370667Y-70293000D01*
X184183333Y-70293000D01*
X183999604Y-70256454D01*
X183826534Y-70184766D01*
X183670770Y-70080688D01*
X183538312Y-69948230D01*
X183434234Y-69792466D01*
X183362546Y-69619396D01*
X183326000Y-69435667D01*
X183326000Y-69248333D01*
X183362546Y-69064604D01*
X183434234Y-68891534D01*
X183538312Y-68735770D01*
X183670770Y-68603312D01*
X183826534Y-68499234D01*
X183999604Y-68427546D01*
X184183333Y-68391000D01*
X184370667Y-68391000D01*
X184554396Y-68427546D01*
X184554396Y-68427546D01*
G37*
G36*
X182688000Y-70293000D02*
X180786000Y-70293000D01*
X180786000Y-68391000D01*
X182688000Y-68391000D01*
X182688000Y-70293000D01*
X182688000Y-70293000D01*
G37*
G36*
X140826443Y-67114019D02*
X140892627Y-67120537D01*
X141005853Y-67154884D01*
X141062467Y-67172057D01*
X141201087Y-67246152D01*
X141218991Y-67255722D01*
X141254729Y-67285052D01*
X141356186Y-67368314D01*
X141439448Y-67469771D01*
X141468778Y-67505509D01*
X141468779Y-67505511D01*
X141552443Y-67662033D01*
X141552443Y-67662034D01*
X141603963Y-67831873D01*
X141621359Y-68008500D01*
X141603963Y-68185127D01*
X141569616Y-68298353D01*
X141552443Y-68354967D01*
X141478348Y-68493587D01*
X141468778Y-68511491D01*
X141439448Y-68547229D01*
X141356186Y-68648686D01*
X141254729Y-68731948D01*
X141218991Y-68761278D01*
X141218989Y-68761279D01*
X141062467Y-68844943D01*
X141005853Y-68862116D01*
X140892627Y-68896463D01*
X140826442Y-68902982D01*
X140760260Y-68909500D01*
X140671740Y-68909500D01*
X140605558Y-68902982D01*
X140539373Y-68896463D01*
X140426147Y-68862116D01*
X140369533Y-68844943D01*
X140213011Y-68761279D01*
X140213009Y-68761278D01*
X140177271Y-68731948D01*
X140075814Y-68648686D01*
X139992552Y-68547229D01*
X139963222Y-68511491D01*
X139953652Y-68493587D01*
X139879557Y-68354967D01*
X139862384Y-68298353D01*
X139828037Y-68185127D01*
X139810641Y-68008500D01*
X139828037Y-67831873D01*
X139879557Y-67662034D01*
X139879557Y-67662033D01*
X139963221Y-67505511D01*
X139963222Y-67505509D01*
X139992552Y-67469771D01*
X140075814Y-67368314D01*
X140177271Y-67285052D01*
X140213009Y-67255722D01*
X140230913Y-67246152D01*
X140369533Y-67172057D01*
X140426147Y-67154884D01*
X140539373Y-67120537D01*
X140605557Y-67114019D01*
X140671740Y-67107500D01*
X140760260Y-67107500D01*
X140826443Y-67114019D01*
X140826443Y-67114019D01*
G37*
G36*
X150666565Y-65854889D02*
X150857834Y-65934115D01*
X151029976Y-66049137D01*
X151176363Y-66195524D01*
X151291385Y-66367666D01*
X151370611Y-66558935D01*
X151411000Y-66761984D01*
X151411000Y-66969016D01*
X151370611Y-67172065D01*
X151291385Y-67363334D01*
X151176363Y-67535476D01*
X151029976Y-67681863D01*
X150857834Y-67796885D01*
X150666565Y-67876111D01*
X150463516Y-67916500D01*
X150256484Y-67916500D01*
X150053435Y-67876111D01*
X149862166Y-67796885D01*
X149690024Y-67681863D01*
X149543637Y-67535476D01*
X149428615Y-67363334D01*
X149349389Y-67172065D01*
X149309000Y-66969016D01*
X149309000Y-66761984D01*
X149349389Y-66558935D01*
X149428615Y-66367666D01*
X149543637Y-66195524D01*
X149690024Y-66049137D01*
X149862166Y-65934115D01*
X150053435Y-65854889D01*
X150256484Y-65814500D01*
X150463516Y-65814500D01*
X150666565Y-65854889D01*
X150666565Y-65854889D01*
G37*
G36*
X146166565Y-65854889D02*
X146357834Y-65934115D01*
X146529976Y-66049137D01*
X146676363Y-66195524D01*
X146791385Y-66367666D01*
X146870611Y-66558935D01*
X146911000Y-66761984D01*
X146911000Y-66969016D01*
X146870611Y-67172065D01*
X146791385Y-67363334D01*
X146676363Y-67535476D01*
X146529976Y-67681863D01*
X146357834Y-67796885D01*
X146166565Y-67876111D01*
X145963516Y-67916500D01*
X145756484Y-67916500D01*
X145553435Y-67876111D01*
X145362166Y-67796885D01*
X145190024Y-67681863D01*
X145043637Y-67535476D01*
X144928615Y-67363334D01*
X144849389Y-67172065D01*
X144809000Y-66969016D01*
X144809000Y-66761984D01*
X144849389Y-66558935D01*
X144928615Y-66367666D01*
X145043637Y-66195524D01*
X145190024Y-66049137D01*
X145362166Y-65934115D01*
X145553435Y-65854889D01*
X145756484Y-65814500D01*
X145963516Y-65814500D01*
X146166565Y-65854889D01*
X146166565Y-65854889D01*
G37*
G36*
X170872228Y-65158203D02*
X171027100Y-65222353D01*
X171166481Y-65315485D01*
X171285015Y-65434019D01*
X171378147Y-65573400D01*
X171442297Y-65728272D01*
X171475000Y-65892684D01*
X171475000Y-66060316D01*
X171442297Y-66224728D01*
X171378147Y-66379600D01*
X171285015Y-66518981D01*
X171166481Y-66637515D01*
X171027100Y-66730647D01*
X170872228Y-66794797D01*
X170707816Y-66827500D01*
X170540184Y-66827500D01*
X170375772Y-66794797D01*
X170220900Y-66730647D01*
X170081519Y-66637515D01*
X169962985Y-66518981D01*
X169869853Y-66379600D01*
X169805703Y-66224728D01*
X169773000Y-66060316D01*
X169773000Y-65892684D01*
X169805703Y-65728272D01*
X169869853Y-65573400D01*
X169962985Y-65434019D01*
X170081519Y-65315485D01*
X170220900Y-65222353D01*
X170375772Y-65158203D01*
X170540184Y-65125500D01*
X170707816Y-65125500D01*
X170872228Y-65158203D01*
X170872228Y-65158203D01*
G37*
G36*
X155950228Y-65094703D02*
X156105100Y-65158853D01*
X156244481Y-65251985D01*
X156363015Y-65370519D01*
X156456147Y-65509900D01*
X156520297Y-65664772D01*
X156553000Y-65829184D01*
X156553000Y-65996816D01*
X156520297Y-66161228D01*
X156456147Y-66316100D01*
X156363015Y-66455481D01*
X156244481Y-66574015D01*
X156105100Y-66667147D01*
X155950228Y-66731297D01*
X155785816Y-66764000D01*
X155618184Y-66764000D01*
X155453772Y-66731297D01*
X155298900Y-66667147D01*
X155159519Y-66574015D01*
X155040985Y-66455481D01*
X154947853Y-66316100D01*
X154883703Y-66161228D01*
X154851000Y-65996816D01*
X154851000Y-65829184D01*
X154883703Y-65664772D01*
X154947853Y-65509900D01*
X155040985Y-65370519D01*
X155159519Y-65251985D01*
X155298900Y-65158853D01*
X155453772Y-65094703D01*
X155618184Y-65062000D01*
X155785816Y-65062000D01*
X155950228Y-65094703D01*
X155950228Y-65094703D01*
G37*
G36*
X141617000Y-66369500D02*
X139815000Y-66369500D01*
X139815000Y-64567500D01*
X141617000Y-64567500D01*
X141617000Y-66369500D01*
X141617000Y-66369500D01*
G37*
G36*
X165333643Y-62412281D02*
X165479415Y-62472662D01*
X165610611Y-62560324D01*
X165722176Y-62671889D01*
X165809838Y-62803085D01*
X165870219Y-62948857D01*
X165901000Y-63103607D01*
X165901000Y-63261393D01*
X165870219Y-63416143D01*
X165809838Y-63561915D01*
X165722176Y-63693111D01*
X165610611Y-63804676D01*
X165479415Y-63892338D01*
X165333643Y-63952719D01*
X165178893Y-63983500D01*
X165021107Y-63983500D01*
X164866357Y-63952719D01*
X164720585Y-63892338D01*
X164589389Y-63804676D01*
X164477824Y-63693111D01*
X164390162Y-63561915D01*
X164329781Y-63416143D01*
X164299000Y-63261393D01*
X164299000Y-63103607D01*
X164329781Y-62948857D01*
X164390162Y-62803085D01*
X164477824Y-62671889D01*
X164589389Y-62560324D01*
X164720585Y-62472662D01*
X164866357Y-62412281D01*
X165021107Y-62381500D01*
X165178893Y-62381500D01*
X165333643Y-62412281D01*
X165333643Y-62412281D01*
G37*
G36*
X161533643Y-62412281D02*
X161679415Y-62472662D01*
X161810611Y-62560324D01*
X161922176Y-62671889D01*
X162009838Y-62803085D01*
X162070219Y-62948857D01*
X162101000Y-63103607D01*
X162101000Y-63261393D01*
X162070219Y-63416143D01*
X162009838Y-63561915D01*
X161922176Y-63693111D01*
X161810611Y-63804676D01*
X161679415Y-63892338D01*
X161533643Y-63952719D01*
X161378893Y-63983500D01*
X161221107Y-63983500D01*
X161066357Y-63952719D01*
X160920585Y-63892338D01*
X160789389Y-63804676D01*
X160677824Y-63693111D01*
X160590162Y-63561915D01*
X160529781Y-63416143D01*
X160499000Y-63261393D01*
X160499000Y-63103607D01*
X160529781Y-62948857D01*
X160590162Y-62803085D01*
X160677824Y-62671889D01*
X160789389Y-62560324D01*
X160920585Y-62472662D01*
X161066357Y-62412281D01*
X161221107Y-62381500D01*
X161378893Y-62381500D01*
X161533643Y-62412281D01*
X161533643Y-62412281D01*
G37*
G36*
X182688000Y-63244500D02*
X180786000Y-63244500D01*
X180786000Y-61342500D01*
X182688000Y-61342500D01*
X182688000Y-63244500D01*
X182688000Y-63244500D01*
G37*
G36*
X184554396Y-61379046D02*
X184727466Y-61450734D01*
X184883230Y-61554812D01*
X185015688Y-61687270D01*
X185119766Y-61843034D01*
X185191454Y-62016104D01*
X185228000Y-62199833D01*
X185228000Y-62387167D01*
X185191454Y-62570896D01*
X185119766Y-62743966D01*
X185015688Y-62899730D01*
X184883230Y-63032188D01*
X184727466Y-63136266D01*
X184554396Y-63207954D01*
X184370667Y-63244500D01*
X184183333Y-63244500D01*
X183999604Y-63207954D01*
X183826534Y-63136266D01*
X183670770Y-63032188D01*
X183538312Y-62899730D01*
X183434234Y-62743966D01*
X183362546Y-62570896D01*
X183326000Y-62387167D01*
X183326000Y-62199833D01*
X183362546Y-62016104D01*
X183434234Y-61843034D01*
X183538312Y-61687270D01*
X183670770Y-61554812D01*
X183826534Y-61450734D01*
X183999604Y-61379046D01*
X184183333Y-61342500D01*
X184370667Y-61342500D01*
X184554396Y-61379046D01*
X184554396Y-61379046D01*
G37*
G36*
X170872228Y-60158203D02*
X171027100Y-60222353D01*
X171166481Y-60315485D01*
X171285015Y-60434019D01*
X171378147Y-60573400D01*
X171442297Y-60728272D01*
X171475000Y-60892684D01*
X171475000Y-61060316D01*
X171442297Y-61224728D01*
X171378147Y-61379600D01*
X171285015Y-61518981D01*
X171166481Y-61637515D01*
X171027100Y-61730647D01*
X170872228Y-61794797D01*
X170707816Y-61827500D01*
X170540184Y-61827500D01*
X170375772Y-61794797D01*
X170220900Y-61730647D01*
X170081519Y-61637515D01*
X169962985Y-61518981D01*
X169869853Y-61379600D01*
X169805703Y-61224728D01*
X169773000Y-61060316D01*
X169773000Y-60892684D01*
X169805703Y-60728272D01*
X169869853Y-60573400D01*
X169962985Y-60434019D01*
X170081519Y-60315485D01*
X170220900Y-60222353D01*
X170375772Y-60158203D01*
X170540184Y-60125500D01*
X170707816Y-60125500D01*
X170872228Y-60158203D01*
X170872228Y-60158203D01*
G37*
G36*
X155950228Y-60094703D02*
X156105100Y-60158853D01*
X156244481Y-60251985D01*
X156363015Y-60370519D01*
X156456147Y-60509900D01*
X156520297Y-60664772D01*
X156553000Y-60829184D01*
X156553000Y-60996816D01*
X156520297Y-61161228D01*
X156456147Y-61316100D01*
X156363015Y-61455481D01*
X156244481Y-61574015D01*
X156105100Y-61667147D01*
X155950228Y-61731297D01*
X155785816Y-61764000D01*
X155618184Y-61764000D01*
X155453772Y-61731297D01*
X155298900Y-61667147D01*
X155159519Y-61574015D01*
X155040985Y-61455481D01*
X154947853Y-61316100D01*
X154883703Y-61161228D01*
X154851000Y-60996816D01*
X154851000Y-60829184D01*
X154883703Y-60664772D01*
X154947853Y-60509900D01*
X155040985Y-60370519D01*
X155159519Y-60251985D01*
X155298900Y-60158853D01*
X155453772Y-60094703D01*
X155618184Y-60062000D01*
X155785816Y-60062000D01*
X155950228Y-60094703D01*
X155950228Y-60094703D01*
G37*
G36*
X146166565Y-59354889D02*
X146357834Y-59434115D01*
X146529976Y-59549137D01*
X146676363Y-59695524D01*
X146791385Y-59867666D01*
X146870611Y-60058935D01*
X146911000Y-60261984D01*
X146911000Y-60469016D01*
X146870611Y-60672065D01*
X146791385Y-60863334D01*
X146676363Y-61035476D01*
X146529976Y-61181863D01*
X146357834Y-61296885D01*
X146166565Y-61376111D01*
X145963516Y-61416500D01*
X145756484Y-61416500D01*
X145553435Y-61376111D01*
X145362166Y-61296885D01*
X145190024Y-61181863D01*
X145043637Y-61035476D01*
X144928615Y-60863334D01*
X144849389Y-60672065D01*
X144809000Y-60469016D01*
X144809000Y-60261984D01*
X144849389Y-60058935D01*
X144928615Y-59867666D01*
X145043637Y-59695524D01*
X145190024Y-59549137D01*
X145362166Y-59434115D01*
X145553435Y-59354889D01*
X145756484Y-59314500D01*
X145963516Y-59314500D01*
X146166565Y-59354889D01*
X146166565Y-59354889D01*
G37*
G36*
X150666565Y-59354889D02*
X150857834Y-59434115D01*
X151029976Y-59549137D01*
X151176363Y-59695524D01*
X151291385Y-59867666D01*
X151370611Y-60058935D01*
X151411000Y-60261984D01*
X151411000Y-60469016D01*
X151370611Y-60672065D01*
X151291385Y-60863334D01*
X151176363Y-61035476D01*
X151029976Y-61181863D01*
X150857834Y-61296885D01*
X150666565Y-61376111D01*
X150463516Y-61416500D01*
X150256484Y-61416500D01*
X150053435Y-61376111D01*
X149862166Y-61296885D01*
X149690024Y-61181863D01*
X149543637Y-61035476D01*
X149428615Y-60863334D01*
X149349389Y-60672065D01*
X149309000Y-60469016D01*
X149309000Y-60261984D01*
X149349389Y-60058935D01*
X149428615Y-59867666D01*
X149543637Y-59695524D01*
X149690024Y-59549137D01*
X149862166Y-59434115D01*
X150053435Y-59354889D01*
X150256484Y-59314500D01*
X150463516Y-59314500D01*
X150666565Y-59354889D01*
X150666565Y-59354889D01*
G37*
G36*
X171552821Y-55485813D02*
X171552824Y-55485814D01*
X171552825Y-55485814D01*
X171713239Y-55534475D01*
X171713241Y-55534476D01*
X171713244Y-55534477D01*
X171861078Y-55613495D01*
X171990659Y-55719841D01*
X172097005Y-55849422D01*
X172176023Y-55997256D01*
X172176024Y-55997259D01*
X172176025Y-55997261D01*
X172224686Y-56157675D01*
X172224687Y-56157679D01*
X172241117Y-56324500D01*
X172224687Y-56491321D01*
X172224686Y-56491324D01*
X172224686Y-56491325D01*
X172199993Y-56572728D01*
X172176023Y-56651744D01*
X172097005Y-56799578D01*
X171990659Y-56929159D01*
X171861078Y-57035505D01*
X171713244Y-57114523D01*
X171713241Y-57114524D01*
X171713239Y-57114525D01*
X171552825Y-57163186D01*
X171552824Y-57163186D01*
X171552821Y-57163187D01*
X171427804Y-57175500D01*
X171344196Y-57175500D01*
X171219179Y-57163187D01*
X171219176Y-57163186D01*
X171219175Y-57163186D01*
X171058761Y-57114525D01*
X171058759Y-57114524D01*
X171058756Y-57114523D01*
X170910922Y-57035505D01*
X170781341Y-56929159D01*
X170674995Y-56799578D01*
X170595977Y-56651744D01*
X170572008Y-56572728D01*
X170547314Y-56491325D01*
X170547314Y-56491324D01*
X170547313Y-56491321D01*
X170530883Y-56324500D01*
X170547313Y-56157679D01*
X170547314Y-56157675D01*
X170595975Y-55997261D01*
X170595976Y-55997259D01*
X170595977Y-55997256D01*
X170674995Y-55849422D01*
X170781341Y-55719841D01*
X170910922Y-55613495D01*
X171058756Y-55534477D01*
X171058759Y-55534476D01*
X171058761Y-55534475D01*
X171219175Y-55485814D01*
X171219176Y-55485814D01*
X171219179Y-55485813D01*
X171344196Y-55473500D01*
X171427804Y-55473500D01*
X171552821Y-55485813D01*
X171552821Y-55485813D01*
G37*
G36*
X174174228Y-55506203D02*
X174329100Y-55570353D01*
X174468481Y-55663485D01*
X174587015Y-55782019D01*
X174680147Y-55921400D01*
X174744297Y-56076272D01*
X174777000Y-56240684D01*
X174777000Y-56408316D01*
X174744297Y-56572728D01*
X174680147Y-56727600D01*
X174587015Y-56866981D01*
X174468481Y-56985515D01*
X174329100Y-57078647D01*
X174174228Y-57142797D01*
X174009816Y-57175500D01*
X173842184Y-57175500D01*
X173677772Y-57142797D01*
X173522900Y-57078647D01*
X173383519Y-56985515D01*
X173264985Y-56866981D01*
X173171853Y-56727600D01*
X173107703Y-56572728D01*
X173075000Y-56408316D01*
X173075000Y-56240684D01*
X173107703Y-56076272D01*
X173171853Y-55921400D01*
X173264985Y-55782019D01*
X173383519Y-55663485D01*
X173522900Y-55570353D01*
X173677772Y-55506203D01*
X173842184Y-55473500D01*
X174009816Y-55473500D01*
X174174228Y-55506203D01*
X174174228Y-55506203D01*
G37*
G36*
X184554396Y-55029046D02*
X184727466Y-55100734D01*
X184883230Y-55204812D01*
X185015688Y-55337270D01*
X185119766Y-55493034D01*
X185191454Y-55666104D01*
X185228000Y-55849833D01*
X185228000Y-56037167D01*
X185191454Y-56220896D01*
X185119766Y-56393966D01*
X185015688Y-56549730D01*
X184883230Y-56682188D01*
X184727466Y-56786266D01*
X184554396Y-56857954D01*
X184370667Y-56894500D01*
X184183333Y-56894500D01*
X183999604Y-56857954D01*
X183826534Y-56786266D01*
X183670770Y-56682188D01*
X183538312Y-56549730D01*
X183434234Y-56393966D01*
X183362546Y-56220896D01*
X183326000Y-56037167D01*
X183326000Y-55849833D01*
X183362546Y-55666104D01*
X183434234Y-55493034D01*
X183538312Y-55337270D01*
X183670770Y-55204812D01*
X183826534Y-55100734D01*
X183999604Y-55029046D01*
X184183333Y-54992500D01*
X184370667Y-54992500D01*
X184554396Y-55029046D01*
X184554396Y-55029046D01*
G37*
G36*
X182688000Y-56894500D02*
X180786000Y-56894500D01*
X180786000Y-54992500D01*
X182688000Y-54992500D01*
X182688000Y-56894500D01*
X182688000Y-56894500D01*
G37*
G36*
X161198000Y-55089500D02*
X159096000Y-55089500D01*
X159096000Y-52987500D01*
X161198000Y-52987500D01*
X161198000Y-55089500D01*
X161198000Y-55089500D01*
G37*
G36*
X165453565Y-53027889D02*
X165644834Y-53107115D01*
X165816976Y-53222137D01*
X165963363Y-53368524D01*
X166078385Y-53540666D01*
X166157611Y-53731935D01*
X166198000Y-53934984D01*
X166198000Y-54142016D01*
X166157611Y-54345065D01*
X166078385Y-54536334D01*
X165963363Y-54708476D01*
X165816976Y-54854863D01*
X165644834Y-54969885D01*
X165453565Y-55049111D01*
X165250516Y-55089500D01*
X165043484Y-55089500D01*
X164840435Y-55049111D01*
X164649166Y-54969885D01*
X164477024Y-54854863D01*
X164330637Y-54708476D01*
X164215615Y-54536334D01*
X164136389Y-54345065D01*
X164096000Y-54142016D01*
X164096000Y-53934984D01*
X164136389Y-53731935D01*
X164215615Y-53540666D01*
X164330637Y-53368524D01*
X164477024Y-53222137D01*
X164649166Y-53107115D01*
X164840435Y-53027889D01*
X165043484Y-52987500D01*
X165250516Y-52987500D01*
X165453565Y-53027889D01*
X165453565Y-53027889D01*
G37*
G36*
X148833294Y-53264133D02*
X149005694Y-53316431D01*
X149005696Y-53316432D01*
X149164583Y-53401359D01*
X149164585Y-53401360D01*
X149164584Y-53401360D01*
X149303849Y-53515651D01*
X149418140Y-53654916D01*
X149503069Y-53813806D01*
X149555367Y-53986206D01*
X149573025Y-54165500D01*
X149555367Y-54344794D01*
X149503069Y-54517194D01*
X149503068Y-54517196D01*
X149418141Y-54676083D01*
X149303849Y-54815349D01*
X149164583Y-54929641D01*
X149046982Y-54992500D01*
X149005694Y-55014569D01*
X148833294Y-55066867D01*
X148698931Y-55080100D01*
X148609069Y-55080100D01*
X148474706Y-55066867D01*
X148302306Y-55014569D01*
X148261018Y-54992500D01*
X148143417Y-54929641D01*
X148004151Y-54815349D01*
X147889859Y-54676083D01*
X147804932Y-54517196D01*
X147804931Y-54517194D01*
X147752633Y-54344794D01*
X147734975Y-54165500D01*
X147752633Y-53986206D01*
X147804931Y-53813806D01*
X147889860Y-53654916D01*
X148004151Y-53515651D01*
X148143416Y-53401360D01*
X148143415Y-53401360D01*
X148143417Y-53401359D01*
X148302304Y-53316432D01*
X148302306Y-53316431D01*
X148474706Y-53264133D01*
X148609069Y-53250900D01*
X148698931Y-53250900D01*
X148833294Y-53264133D01*
X148833294Y-53264133D01*
G37*
G36*
X143753294Y-53264133D02*
X143925694Y-53316431D01*
X143925696Y-53316432D01*
X144084583Y-53401359D01*
X144084585Y-53401360D01*
X144084584Y-53401360D01*
X144223849Y-53515651D01*
X144338140Y-53654916D01*
X144423069Y-53813806D01*
X144475367Y-53986206D01*
X144493025Y-54165500D01*
X144475367Y-54344794D01*
X144423069Y-54517194D01*
X144423068Y-54517196D01*
X144338141Y-54676083D01*
X144223849Y-54815349D01*
X144084583Y-54929641D01*
X143966982Y-54992500D01*
X143925694Y-55014569D01*
X143753294Y-55066867D01*
X143618931Y-55080100D01*
X143529069Y-55080100D01*
X143394706Y-55066867D01*
X143222306Y-55014569D01*
X143181018Y-54992500D01*
X143063417Y-54929641D01*
X142924151Y-54815349D01*
X142809859Y-54676083D01*
X142724932Y-54517196D01*
X142724931Y-54517194D01*
X142672633Y-54344794D01*
X142654975Y-54165500D01*
X142672633Y-53986206D01*
X142724931Y-53813806D01*
X142809860Y-53654916D01*
X142924151Y-53515651D01*
X143063416Y-53401360D01*
X143063415Y-53401360D01*
X143063417Y-53401359D01*
X143222304Y-53316432D01*
X143222306Y-53316431D01*
X143394706Y-53264133D01*
X143529069Y-53250900D01*
X143618931Y-53250900D01*
X143753294Y-53264133D01*
X143753294Y-53264133D01*
G37*
G36*
X146293294Y-53264133D02*
X146465694Y-53316431D01*
X146465696Y-53316432D01*
X146624583Y-53401359D01*
X146624585Y-53401360D01*
X146624584Y-53401360D01*
X146763849Y-53515651D01*
X146878140Y-53654916D01*
X146963069Y-53813806D01*
X147015367Y-53986206D01*
X147033025Y-54165500D01*
X147015367Y-54344794D01*
X146963069Y-54517194D01*
X146963068Y-54517196D01*
X146878141Y-54676083D01*
X146763849Y-54815349D01*
X146624583Y-54929641D01*
X146506982Y-54992500D01*
X146465694Y-55014569D01*
X146293294Y-55066867D01*
X146158931Y-55080100D01*
X146069069Y-55080100D01*
X145934706Y-55066867D01*
X145762306Y-55014569D01*
X145721018Y-54992500D01*
X145603417Y-54929641D01*
X145464151Y-54815349D01*
X145349859Y-54676083D01*
X145264932Y-54517196D01*
X145264931Y-54517194D01*
X145212633Y-54344794D01*
X145194975Y-54165500D01*
X145212633Y-53986206D01*
X145264931Y-53813806D01*
X145349860Y-53654916D01*
X145464151Y-53515651D01*
X145603416Y-53401360D01*
X145603415Y-53401360D01*
X145603417Y-53401359D01*
X145762304Y-53316432D01*
X145762306Y-53316431D01*
X145934706Y-53264133D01*
X146069069Y-53250900D01*
X146158931Y-53250900D01*
X146293294Y-53264133D01*
X146293294Y-53264133D01*
G37*
G36*
X146293294Y-50724133D02*
X146465694Y-50776431D01*
X146465696Y-50776432D01*
X146624583Y-50861359D01*
X146624585Y-50861360D01*
X146624584Y-50861360D01*
X146763849Y-50975651D01*
X146878140Y-51114916D01*
X146963069Y-51273806D01*
X147015367Y-51446206D01*
X147033025Y-51625500D01*
X147015367Y-51804794D01*
X146963069Y-51977194D01*
X146963068Y-51977196D01*
X146878141Y-52136083D01*
X146763849Y-52275349D01*
X146624583Y-52389641D01*
X146465696Y-52474568D01*
X146465694Y-52474569D01*
X146293294Y-52526867D01*
X146158931Y-52540100D01*
X146069069Y-52540100D01*
X145934706Y-52526867D01*
X145762306Y-52474569D01*
X145762304Y-52474568D01*
X145603417Y-52389641D01*
X145464151Y-52275349D01*
X145349859Y-52136083D01*
X145264932Y-51977196D01*
X145264931Y-51977194D01*
X145212633Y-51804794D01*
X145194975Y-51625500D01*
X145212633Y-51446206D01*
X145264931Y-51273806D01*
X145349860Y-51114916D01*
X145464151Y-50975651D01*
X145603416Y-50861360D01*
X145603415Y-50861360D01*
X145603417Y-50861359D01*
X145762304Y-50776432D01*
X145762306Y-50776431D01*
X145934706Y-50724133D01*
X146069069Y-50710900D01*
X146158931Y-50710900D01*
X146293294Y-50724133D01*
X146293294Y-50724133D01*
G37*
G36*
X143753294Y-50724133D02*
X143925694Y-50776431D01*
X143925696Y-50776432D01*
X144084583Y-50861359D01*
X144084585Y-50861360D01*
X144084584Y-50861360D01*
X144223849Y-50975651D01*
X144338140Y-51114916D01*
X144423069Y-51273806D01*
X144475367Y-51446206D01*
X144493025Y-51625500D01*
X144475367Y-51804794D01*
X144423069Y-51977194D01*
X144423068Y-51977196D01*
X144338141Y-52136083D01*
X144223849Y-52275349D01*
X144084583Y-52389641D01*
X143925696Y-52474568D01*
X143925694Y-52474569D01*
X143753294Y-52526867D01*
X143618931Y-52540100D01*
X143529069Y-52540100D01*
X143394706Y-52526867D01*
X143222306Y-52474569D01*
X143222304Y-52474568D01*
X143063417Y-52389641D01*
X142924151Y-52275349D01*
X142809859Y-52136083D01*
X142724932Y-51977196D01*
X142724931Y-51977194D01*
X142672633Y-51804794D01*
X142654975Y-51625500D01*
X142672633Y-51446206D01*
X142724931Y-51273806D01*
X142809860Y-51114916D01*
X142924151Y-50975651D01*
X143063416Y-50861360D01*
X143063415Y-50861360D01*
X143063417Y-50861359D01*
X143222304Y-50776432D01*
X143222306Y-50776431D01*
X143394706Y-50724133D01*
X143529069Y-50710900D01*
X143618931Y-50710900D01*
X143753294Y-50724133D01*
X143753294Y-50724133D01*
G37*
G36*
X149568600Y-52540100D02*
X147739400Y-52540100D01*
X147739400Y-50710900D01*
X149568600Y-50710900D01*
X149568600Y-52540100D01*
X149568600Y-52540100D01*
G37*
G36*
X172270228Y-49156203D02*
X172425100Y-49220353D01*
X172564481Y-49313485D01*
X172683015Y-49432019D01*
X172776147Y-49571400D01*
X172840297Y-49726272D01*
X172873000Y-49890684D01*
X172873000Y-50058316D01*
X172840297Y-50222728D01*
X172776147Y-50377600D01*
X172683015Y-50516981D01*
X172564481Y-50635515D01*
X172425100Y-50728647D01*
X172270228Y-50792797D01*
X172105816Y-50825500D01*
X171938184Y-50825500D01*
X171773772Y-50792797D01*
X171618900Y-50728647D01*
X171479519Y-50635515D01*
X171360985Y-50516981D01*
X171267853Y-50377600D01*
X171203703Y-50222728D01*
X171171000Y-50058316D01*
X171171000Y-49890684D01*
X171203703Y-49726272D01*
X171267853Y-49571400D01*
X171360985Y-49432019D01*
X171479519Y-49313485D01*
X171618900Y-49220353D01*
X171773772Y-49156203D01*
X171938184Y-49123500D01*
X172105816Y-49123500D01*
X172270228Y-49156203D01*
X172270228Y-49156203D01*
G37*
G36*
X174728821Y-49135813D02*
X174728824Y-49135814D01*
X174728825Y-49135814D01*
X174889239Y-49184475D01*
X174889241Y-49184476D01*
X174889244Y-49184477D01*
X175037078Y-49263495D01*
X175166659Y-49369841D01*
X175273005Y-49499422D01*
X175352023Y-49647256D01*
X175352024Y-49647259D01*
X175352025Y-49647261D01*
X175393504Y-49784000D01*
X175400687Y-49807679D01*
X175417117Y-49974500D01*
X175400687Y-50141321D01*
X175400686Y-50141324D01*
X175400686Y-50141325D01*
X175375993Y-50222728D01*
X175352023Y-50301744D01*
X175273005Y-50449578D01*
X175166659Y-50579159D01*
X175037078Y-50685505D01*
X174889244Y-50764523D01*
X174889241Y-50764524D01*
X174889239Y-50764525D01*
X174728825Y-50813186D01*
X174728824Y-50813186D01*
X174728821Y-50813187D01*
X174603804Y-50825500D01*
X174520196Y-50825500D01*
X174395179Y-50813187D01*
X174395176Y-50813186D01*
X174395175Y-50813186D01*
X174234761Y-50764525D01*
X174234759Y-50764524D01*
X174234756Y-50764523D01*
X174086922Y-50685505D01*
X173957341Y-50579159D01*
X173850995Y-50449578D01*
X173771977Y-50301744D01*
X173748008Y-50222728D01*
X173723314Y-50141325D01*
X173723314Y-50141324D01*
X173723313Y-50141321D01*
X173706883Y-49974500D01*
X173723313Y-49807679D01*
X173730496Y-49784000D01*
X173771975Y-49647261D01*
X173771976Y-49647259D01*
X173771977Y-49647256D01*
X173850995Y-49499422D01*
X173957341Y-49369841D01*
X174086922Y-49263495D01*
X174234756Y-49184477D01*
X174234759Y-49184476D01*
X174234761Y-49184475D01*
X174395175Y-49135814D01*
X174395176Y-49135814D01*
X174395179Y-49135813D01*
X174520196Y-49123500D01*
X174603804Y-49123500D01*
X174728821Y-49135813D01*
X174728821Y-49135813D01*
G37*
G36*
X183935821Y-48945313D02*
X183935824Y-48945314D01*
X183935825Y-48945314D01*
X184096239Y-48993975D01*
X184096241Y-48993976D01*
X184096244Y-48993977D01*
X184244078Y-49072995D01*
X184373659Y-49179341D01*
X184480005Y-49308922D01*
X184559023Y-49456756D01*
X184559024Y-49456759D01*
X184559025Y-49456761D01*
X184593800Y-49571400D01*
X184607687Y-49617179D01*
X184624117Y-49784000D01*
X184607687Y-49950821D01*
X184607686Y-49950824D01*
X184607686Y-49950825D01*
X184582993Y-50032228D01*
X184559023Y-50111244D01*
X184480005Y-50259078D01*
X184373659Y-50388659D01*
X184244078Y-50495005D01*
X184096244Y-50574023D01*
X184096241Y-50574024D01*
X184096239Y-50574025D01*
X183935825Y-50622686D01*
X183935824Y-50622686D01*
X183935821Y-50622687D01*
X183810804Y-50635000D01*
X183727196Y-50635000D01*
X183602179Y-50622687D01*
X183602176Y-50622686D01*
X183602175Y-50622686D01*
X183441761Y-50574025D01*
X183441759Y-50574024D01*
X183441756Y-50574023D01*
X183293922Y-50495005D01*
X183164341Y-50388659D01*
X183057995Y-50259078D01*
X182978977Y-50111244D01*
X182955008Y-50032228D01*
X182930314Y-49950825D01*
X182930314Y-49950824D01*
X182930313Y-49950821D01*
X182913883Y-49784000D01*
X182930313Y-49617179D01*
X182944200Y-49571400D01*
X182978975Y-49456761D01*
X182978976Y-49456759D01*
X182978977Y-49456756D01*
X183057995Y-49308922D01*
X183164341Y-49179341D01*
X183293922Y-49072995D01*
X183441756Y-48993977D01*
X183441759Y-48993976D01*
X183441761Y-48993975D01*
X183602175Y-48945314D01*
X183602176Y-48945314D01*
X183602179Y-48945313D01*
X183727196Y-48933000D01*
X183810804Y-48933000D01*
X183935821Y-48945313D01*
X183935821Y-48945313D01*
G37*
G36*
X181477228Y-48965703D02*
X181632100Y-49029853D01*
X181771481Y-49122985D01*
X181890015Y-49241519D01*
X181983147Y-49380900D01*
X182047297Y-49535772D01*
X182080000Y-49700184D01*
X182080000Y-49867816D01*
X182047297Y-50032228D01*
X181983147Y-50187100D01*
X181890015Y-50326481D01*
X181771481Y-50445015D01*
X181632100Y-50538147D01*
X181477228Y-50602297D01*
X181312816Y-50635000D01*
X181145184Y-50635000D01*
X180980772Y-50602297D01*
X180825900Y-50538147D01*
X180686519Y-50445015D01*
X180567985Y-50326481D01*
X180474853Y-50187100D01*
X180410703Y-50032228D01*
X180378000Y-49867816D01*
X180378000Y-49700184D01*
X180410703Y-49535772D01*
X180474853Y-49380900D01*
X180567985Y-49241519D01*
X180686519Y-49122985D01*
X180825900Y-49029853D01*
X180980772Y-48965703D01*
X181145184Y-48933000D01*
X181312816Y-48933000D01*
X181477228Y-48965703D01*
X181477228Y-48965703D01*
G37*
M02*
