G04 #@! TF.GenerationSoftware,KiCad,Pcbnew,5.0.2-5.fc29*
G04 #@! TF.CreationDate,2019-02-21T16:31:19+01:00*
G04 #@! TF.ProjectId,AVR Dev,41565220-4465-4762-9e6b-696361645f70,rev?*
G04 #@! TF.SameCoordinates,Original*
G04 #@! TF.FileFunction,Copper,L2,Bot*
G04 #@! TF.FilePolarity,Positive*
%FSLAX46Y46*%
G04 Gerber Fmt 4.6, Leading zero omitted, Abs format (unit mm)*
G04 Created by KiCad (PCBNEW 5.0.2-5.fc29) date czw, 21 lut 2019, 16:31:19*
%MOMM*%
%LPD*%
G01*
G04 APERTURE LIST*
G04 #@! TA.AperFunction,ComponentPad*
%ADD10C,1.600000*%
G04 #@! TD*
G04 #@! TA.AperFunction,ComponentPad*
%ADD11R,2.000000X2.000000*%
G04 #@! TD*
G04 #@! TA.AperFunction,ComponentPad*
%ADD12C,2.000000*%
G04 #@! TD*
G04 #@! TA.AperFunction,ComponentPad*
%ADD13R,1.800000X1.800000*%
G04 #@! TD*
G04 #@! TA.AperFunction,ComponentPad*
%ADD14C,1.800000*%
G04 #@! TD*
G04 #@! TA.AperFunction,ComponentPad*
%ADD15R,3.500000X3.500000*%
G04 #@! TD*
G04 #@! TA.AperFunction,Conductor*
%ADD16C,0.200000*%
G04 #@! TD*
G04 #@! TA.AperFunction,ComponentPad*
%ADD17C,3.000000*%
G04 #@! TD*
G04 #@! TA.AperFunction,ComponentPad*
%ADD18C,3.500000*%
G04 #@! TD*
G04 #@! TA.AperFunction,ComponentPad*
%ADD19R,1.700000X1.700000*%
G04 #@! TD*
G04 #@! TA.AperFunction,ComponentPad*
%ADD20O,1.700000X1.700000*%
G04 #@! TD*
G04 #@! TA.AperFunction,ComponentPad*
%ADD21R,1.727200X1.727200*%
G04 #@! TD*
G04 #@! TA.AperFunction,ComponentPad*
%ADD22O,1.727200X1.727200*%
G04 #@! TD*
G04 #@! TA.AperFunction,ComponentPad*
%ADD23O,1.600000X1.600000*%
G04 #@! TD*
G04 #@! TA.AperFunction,ComponentPad*
%ADD24R,1.905000X2.000000*%
G04 #@! TD*
G04 #@! TA.AperFunction,ComponentPad*
%ADD25O,1.905000X2.000000*%
G04 #@! TD*
G04 #@! TA.AperFunction,ComponentPad*
%ADD26R,1.600000X1.600000*%
G04 #@! TD*
G04 #@! TA.AperFunction,ComponentPad*
%ADD27C,1.500000*%
G04 #@! TD*
G04 #@! TA.AperFunction,ViaPad*
%ADD28C,0.800000*%
G04 #@! TD*
G04 #@! TA.AperFunction,Conductor*
%ADD29C,0.500000*%
G04 #@! TD*
G04 #@! TA.AperFunction,Conductor*
%ADD30C,0.254000*%
G04 #@! TD*
G04 APERTURE END LIST*
D10*
G04 #@! TO.P,C1,1*
G04 #@! TO.N,VCC*
X170878000Y-80073500D03*
G04 #@! TO.P,C1,2*
G04 #@! TO.N,GND*
X170878000Y-85073500D03*
G04 #@! TD*
D11*
G04 #@! TO.P,C2,1*
G04 #@! TO.N,VCC*
X160147000Y-54038500D03*
D12*
G04 #@! TO.P,C2,2*
G04 #@! TO.N,GND*
X165147000Y-54038500D03*
G04 #@! TD*
D10*
G04 #@! TO.P,C3,1*
G04 #@! TO.N,Net-(C3-Pad1)*
X155702000Y-65913000D03*
G04 #@! TO.P,C3,2*
G04 #@! TO.N,GND*
X155702000Y-60913000D03*
G04 #@! TD*
G04 #@! TO.P,C4,2*
G04 #@! TO.N,GND*
X170624000Y-60976500D03*
G04 #@! TO.P,C4,1*
G04 #@! TO.N,Net-(C4-Pad1)*
X170624000Y-65976500D03*
G04 #@! TD*
D13*
G04 #@! TO.P,D1,1*
G04 #@! TO.N,Net-(D1-Pad1)*
X181737000Y-55943500D03*
D14*
G04 #@! TO.P,D1,2*
G04 #@! TO.N,Net-(D1-Pad2)*
X184277000Y-55943500D03*
G04 #@! TD*
G04 #@! TO.P,D2,2*
G04 #@! TO.N,Net-(D2-Pad2)*
X184277000Y-62293500D03*
D13*
G04 #@! TO.P,D2,1*
G04 #@! TO.N,Net-(D2-Pad1)*
X181737000Y-62293500D03*
G04 #@! TD*
G04 #@! TO.P,D3,1*
G04 #@! TO.N,Net-(D3-Pad1)*
X181737000Y-69342000D03*
D14*
G04 #@! TO.P,D3,2*
G04 #@! TO.N,Net-(D3-Pad2)*
X184277000Y-69342000D03*
G04 #@! TD*
D15*
G04 #@! TO.P,J1,1*
G04 #@! TO.N,Net-(J1-Pad1)*
X179705000Y-81978500D03*
D16*
G04 #@! TD*
G04 #@! TO.N,GND*
G04 #@! TO.C,J1*
G36*
X180778513Y-86482111D02*
X180851318Y-86492911D01*
X180922714Y-86510795D01*
X180992013Y-86535590D01*
X181058548Y-86567059D01*
X181121678Y-86604898D01*
X181180795Y-86648742D01*
X181235330Y-86698170D01*
X181284758Y-86752705D01*
X181328602Y-86811822D01*
X181366441Y-86874952D01*
X181397910Y-86941487D01*
X181422705Y-87010786D01*
X181440589Y-87082182D01*
X181451389Y-87154987D01*
X181455000Y-87228500D01*
X181455000Y-88728500D01*
X181451389Y-88802013D01*
X181440589Y-88874818D01*
X181422705Y-88946214D01*
X181397910Y-89015513D01*
X181366441Y-89082048D01*
X181328602Y-89145178D01*
X181284758Y-89204295D01*
X181235330Y-89258830D01*
X181180795Y-89308258D01*
X181121678Y-89352102D01*
X181058548Y-89389941D01*
X180992013Y-89421410D01*
X180922714Y-89446205D01*
X180851318Y-89464089D01*
X180778513Y-89474889D01*
X180705000Y-89478500D01*
X178705000Y-89478500D01*
X178631487Y-89474889D01*
X178558682Y-89464089D01*
X178487286Y-89446205D01*
X178417987Y-89421410D01*
X178351452Y-89389941D01*
X178288322Y-89352102D01*
X178229205Y-89308258D01*
X178174670Y-89258830D01*
X178125242Y-89204295D01*
X178081398Y-89145178D01*
X178043559Y-89082048D01*
X178012090Y-89015513D01*
X177987295Y-88946214D01*
X177969411Y-88874818D01*
X177958611Y-88802013D01*
X177955000Y-88728500D01*
X177955000Y-87228500D01*
X177958611Y-87154987D01*
X177969411Y-87082182D01*
X177987295Y-87010786D01*
X178012090Y-86941487D01*
X178043559Y-86874952D01*
X178081398Y-86811822D01*
X178125242Y-86752705D01*
X178174670Y-86698170D01*
X178229205Y-86648742D01*
X178288322Y-86604898D01*
X178351452Y-86567059D01*
X178417987Y-86535590D01*
X178487286Y-86510795D01*
X178558682Y-86492911D01*
X178631487Y-86482111D01*
X178705000Y-86478500D01*
X180705000Y-86478500D01*
X180778513Y-86482111D01*
X180778513Y-86482111D01*
G37*
D17*
G04 #@! TO.P,J1,2*
G04 #@! TO.N,GND*
X179705000Y-87978500D03*
D16*
G04 #@! TD*
G04 #@! TO.N,N/C*
G04 #@! TO.C,J1*
G36*
X185365765Y-83232713D02*
X185450704Y-83245313D01*
X185533999Y-83266177D01*
X185614848Y-83295105D01*
X185692472Y-83331819D01*
X185766124Y-83375964D01*
X185835094Y-83427116D01*
X185898718Y-83484782D01*
X185956384Y-83548406D01*
X186007536Y-83617376D01*
X186051681Y-83691028D01*
X186088395Y-83768652D01*
X186117323Y-83849501D01*
X186138187Y-83932796D01*
X186150787Y-84017735D01*
X186155000Y-84103500D01*
X186155000Y-85853500D01*
X186150787Y-85939265D01*
X186138187Y-86024204D01*
X186117323Y-86107499D01*
X186088395Y-86188348D01*
X186051681Y-86265972D01*
X186007536Y-86339624D01*
X185956384Y-86408594D01*
X185898718Y-86472218D01*
X185835094Y-86529884D01*
X185766124Y-86581036D01*
X185692472Y-86625181D01*
X185614848Y-86661895D01*
X185533999Y-86690823D01*
X185450704Y-86711687D01*
X185365765Y-86724287D01*
X185280000Y-86728500D01*
X183530000Y-86728500D01*
X183444235Y-86724287D01*
X183359296Y-86711687D01*
X183276001Y-86690823D01*
X183195152Y-86661895D01*
X183117528Y-86625181D01*
X183043876Y-86581036D01*
X182974906Y-86529884D01*
X182911282Y-86472218D01*
X182853616Y-86408594D01*
X182802464Y-86339624D01*
X182758319Y-86265972D01*
X182721605Y-86188348D01*
X182692677Y-86107499D01*
X182671813Y-86024204D01*
X182659213Y-85939265D01*
X182655000Y-85853500D01*
X182655000Y-84103500D01*
X182659213Y-84017735D01*
X182671813Y-83932796D01*
X182692677Y-83849501D01*
X182721605Y-83768652D01*
X182758319Y-83691028D01*
X182802464Y-83617376D01*
X182853616Y-83548406D01*
X182911282Y-83484782D01*
X182974906Y-83427116D01*
X183043876Y-83375964D01*
X183117528Y-83331819D01*
X183195152Y-83295105D01*
X183276001Y-83266177D01*
X183359296Y-83245313D01*
X183444235Y-83232713D01*
X183530000Y-83228500D01*
X185280000Y-83228500D01*
X185365765Y-83232713D01*
X185365765Y-83232713D01*
G37*
D18*
G04 #@! TO.P,J1,3*
G04 #@! TO.N,N/C*
X184405000Y-84978500D03*
G04 #@! TD*
D19*
G04 #@! TO.P,J2,1*
G04 #@! TO.N,Net-(J2-Pad1)*
X140716000Y-65468500D03*
D20*
G04 #@! TO.P,J2,2*
G04 #@! TO.N,Net-(J2-Pad2)*
X140716000Y-68008500D03*
G04 #@! TO.P,J2,3*
G04 #@! TO.N,Net-(J2-Pad3)*
X140716000Y-70548500D03*
G04 #@! TO.P,J2,4*
G04 #@! TO.N,Net-(J2-Pad4)*
X140716000Y-73088500D03*
G04 #@! TO.P,J2,5*
G04 #@! TO.N,Net-(J2-Pad5)*
X140716000Y-75628500D03*
G04 #@! TO.P,J2,6*
G04 #@! TO.N,Net-(J2-Pad6)*
X140716000Y-78168500D03*
G04 #@! TO.P,J2,7*
G04 #@! TO.N,Net-(J2-Pad7)*
X140716000Y-80708500D03*
G04 #@! TO.P,J2,8*
G04 #@! TO.N,Net-(J2-Pad8)*
X140716000Y-83248500D03*
G04 #@! TO.P,J2,9*
G04 #@! TO.N,Net-(J2-Pad9)*
X140716000Y-85788500D03*
G04 #@! TO.P,J2,10*
G04 #@! TO.N,GND*
X140716000Y-88328500D03*
G04 #@! TO.P,J2,11*
X140716000Y-90868500D03*
G04 #@! TO.P,J2,12*
G04 #@! TO.N,VCC*
X140716000Y-93408500D03*
G04 #@! TD*
D21*
G04 #@! TO.P,J3,1*
G04 #@! TO.N,MISO*
X148654000Y-51625500D03*
D22*
G04 #@! TO.P,J3,2*
G04 #@! TO.N,VCC*
X148654000Y-54165500D03*
G04 #@! TO.P,J3,3*
G04 #@! TO.N,SCK*
X146114000Y-51625500D03*
G04 #@! TO.P,J3,4*
G04 #@! TO.N,MOSI*
X146114000Y-54165500D03*
G04 #@! TO.P,J3,5*
G04 #@! TO.N,RST*
X143574000Y-51625500D03*
G04 #@! TO.P,J3,6*
G04 #@! TO.N,GND*
X143574000Y-54165500D03*
G04 #@! TD*
D23*
G04 #@! TO.P,R1,2*
G04 #@! TO.N,RST*
X171386000Y-56324500D03*
D10*
G04 #@! TO.P,R1,1*
G04 #@! TO.N,VCC*
X173926000Y-56324500D03*
G04 #@! TD*
G04 #@! TO.P,R2,1*
G04 #@! TO.N,GND*
X170624000Y-92202000D03*
D23*
G04 #@! TO.P,R2,2*
G04 #@! TO.N,Net-(D1-Pad2)*
X170624000Y-89662000D03*
G04 #@! TD*
D10*
G04 #@! TO.P,R3,1*
G04 #@! TO.N,GND*
X172022000Y-49974500D03*
D23*
G04 #@! TO.P,R3,2*
G04 #@! TO.N,Net-(D3-Pad2)*
X174562000Y-49974500D03*
G04 #@! TD*
G04 #@! TO.P,R4,2*
G04 #@! TO.N,Net-(D2-Pad2)*
X183769000Y-49784000D03*
D10*
G04 #@! TO.P,R4,1*
G04 #@! TO.N,GND*
X181229000Y-49784000D03*
G04 #@! TD*
D12*
G04 #@! TO.P,SW1,2*
G04 #@! TO.N,RST*
X150360000Y-66865500D03*
G04 #@! TO.P,SW1,1*
G04 #@! TO.N,GND*
X145860000Y-66865500D03*
G04 #@! TO.P,SW1,2*
G04 #@! TO.N,RST*
X150360000Y-60365500D03*
G04 #@! TO.P,SW1,1*
G04 #@! TO.N,GND*
X145860000Y-60365500D03*
G04 #@! TD*
D24*
G04 #@! TO.P,U1,1*
G04 #@! TO.N,Net-(J1-Pad1)*
X178752000Y-76898500D03*
D25*
G04 #@! TO.P,U1,2*
G04 #@! TO.N,GND*
X181292000Y-76898500D03*
G04 #@! TO.P,U1,3*
G04 #@! TO.N,VCC*
X183832000Y-76898500D03*
G04 #@! TD*
D26*
G04 #@! TO.P,U2,1*
G04 #@! TO.N,RST*
X158496000Y-69469000D03*
D23*
G04 #@! TO.P,U2,11*
G04 #@! TO.N,Net-(J2-Pad9)*
X166116000Y-92329000D03*
G04 #@! TO.P,U2,2*
G04 #@! TO.N,Net-(J2-Pad3)*
X158496000Y-72009000D03*
G04 #@! TO.P,U2,12*
G04 #@! TO.N,Net-(D1-Pad1)*
X166116000Y-89789000D03*
G04 #@! TO.P,U2,3*
G04 #@! TO.N,Net-(J2-Pad4)*
X158496000Y-74549000D03*
G04 #@! TO.P,U2,13*
G04 #@! TO.N,Net-(D2-Pad1)*
X166116000Y-87249000D03*
G04 #@! TO.P,U2,4*
G04 #@! TO.N,Net-(C4-Pad1)*
X158496000Y-77089000D03*
G04 #@! TO.P,U2,14*
G04 #@! TO.N,Net-(D3-Pad1)*
X166116000Y-84709000D03*
G04 #@! TO.P,U2,5*
G04 #@! TO.N,Net-(C3-Pad1)*
X158496000Y-79629000D03*
G04 #@! TO.P,U2,15*
G04 #@! TO.N,Net-(J2-Pad1)*
X166116000Y-82169000D03*
G04 #@! TO.P,U2,6*
G04 #@! TO.N,Net-(J2-Pad5)*
X158496000Y-82169000D03*
G04 #@! TO.P,U2,16*
G04 #@! TO.N,Net-(J2-Pad2)*
X166116000Y-79629000D03*
G04 #@! TO.P,U2,7*
G04 #@! TO.N,Net-(J2-Pad6)*
X158496000Y-84709000D03*
G04 #@! TO.P,U2,17*
G04 #@! TO.N,MOSI*
X166116000Y-77089000D03*
G04 #@! TO.P,U2,8*
G04 #@! TO.N,Net-(J2-Pad7)*
X158496000Y-87249000D03*
G04 #@! TO.P,U2,18*
G04 #@! TO.N,MISO*
X166116000Y-74549000D03*
G04 #@! TO.P,U2,9*
G04 #@! TO.N,Net-(J2-Pad8)*
X158496000Y-89789000D03*
G04 #@! TO.P,U2,19*
G04 #@! TO.N,SCK*
X166116000Y-72009000D03*
G04 #@! TO.P,U2,10*
G04 #@! TO.N,GND*
X158496000Y-92329000D03*
G04 #@! TO.P,U2,20*
G04 #@! TO.N,VCC*
X166116000Y-69469000D03*
G04 #@! TD*
D27*
G04 #@! TO.P,Y1,1*
G04 #@! TO.N,Net-(C3-Pad1)*
X161300000Y-63182500D03*
G04 #@! TO.P,Y1,2*
G04 #@! TO.N,Net-(C4-Pad1)*
X165100000Y-63182500D03*
G04 #@! TD*
D28*
G04 #@! TO.N,Net-(J2-Pad2)*
X156534600Y-71377600D03*
G04 #@! TD*
D29*
G04 #@! TO.N,VCC*
X169894600Y-79090100D02*
X168105300Y-80879400D01*
X168105300Y-80879400D02*
X154545400Y-80879400D01*
X154545400Y-80879400D02*
X142016300Y-93408500D01*
X166116000Y-70719300D02*
X166663000Y-70719300D01*
X166663000Y-70719300D02*
X169894600Y-73950900D01*
X169894600Y-73950900D02*
X169894600Y-79090100D01*
X170878000Y-80073500D02*
X169894600Y-79090100D01*
X140716000Y-93408500D02*
X142016300Y-93408500D01*
X166116000Y-69469000D02*
X166116000Y-68218700D01*
X160147000Y-54038500D02*
X160147000Y-55488800D01*
X160147000Y-55488800D02*
X163040600Y-58382400D01*
X163040600Y-58382400D02*
X163040600Y-65143300D01*
X163040600Y-65143300D02*
X166116000Y-68218700D01*
X166116000Y-69469000D02*
X166116000Y-70719300D01*
G04 #@! TO.N,GND*
X158496000Y-92329000D02*
X157245700Y-92329000D01*
X157245700Y-92329000D02*
X154845200Y-94729500D01*
X154845200Y-94729500D02*
X140190300Y-94729500D01*
X140190300Y-94729500D02*
X139401000Y-93940200D01*
X139401000Y-93940200D02*
X139401000Y-92183500D01*
X139401000Y-92183500D02*
X140716000Y-90868500D01*
X143574000Y-54165500D02*
X143574000Y-55479400D01*
X145860000Y-60365500D02*
X145860000Y-57765400D01*
X145860000Y-57765400D02*
X143574000Y-55479400D01*
X145860000Y-66865500D02*
X145860000Y-60365500D01*
X170624000Y-60976500D02*
X165147000Y-55499500D01*
X165147000Y-55499500D02*
X165147000Y-54038500D01*
X140716000Y-88328500D02*
X145860000Y-83184500D01*
X145860000Y-83184500D02*
X145860000Y-66865500D01*
X140716000Y-90868500D02*
X140716000Y-88328500D01*
X181292000Y-76898500D02*
X181292000Y-78348800D01*
X181292000Y-78348800D02*
X181905400Y-78962200D01*
X181905400Y-78962200D02*
X181905400Y-85778100D01*
X181905400Y-85778100D02*
X179705000Y-87978500D01*
G04 #@! TO.N,Net-(C3-Pad1)*
X155702000Y-65913000D02*
X155684300Y-65930700D01*
X155684300Y-65930700D02*
X155684300Y-76110900D01*
X155684300Y-76110900D02*
X157952100Y-78378700D01*
X157952100Y-78378700D02*
X158496000Y-78378700D01*
X158496000Y-79629000D02*
X158496000Y-78378700D01*
G04 #@! TO.N,Net-(D1-Pad1)*
X181737000Y-55943500D02*
X181737000Y-57293800D01*
X166116000Y-89789000D02*
X166116000Y-88538700D01*
X166116000Y-88538700D02*
X165569000Y-88538700D01*
X165569000Y-88538700D02*
X164854600Y-87824300D01*
X164854600Y-87824300D02*
X164854600Y-86737800D01*
X164854600Y-86737800D02*
X165613400Y-85979000D01*
X165613400Y-85979000D02*
X166740900Y-85979000D01*
X166740900Y-85979000D02*
X173637400Y-79082500D01*
X173637400Y-79082500D02*
X173637400Y-65393400D01*
X173637400Y-65393400D02*
X181737000Y-57293800D01*
G04 #@! TO.N,Net-(D1-Pad2)*
X184277000Y-55943500D02*
X176515200Y-63705300D01*
X176515200Y-63705300D02*
X176515200Y-82520500D01*
X176515200Y-82520500D02*
X170624000Y-88411700D01*
X170624000Y-89662000D02*
X170624000Y-88411700D01*
G04 #@! TO.N,Net-(D2-Pad1)*
X181737000Y-62293500D02*
X181737000Y-63643800D01*
X166116000Y-87249000D02*
X167366300Y-87249000D01*
X167366300Y-87249000D02*
X167366300Y-88186700D01*
X167366300Y-88186700D02*
X170111600Y-90932000D01*
X170111600Y-90932000D02*
X171136700Y-90932000D01*
X171136700Y-90932000D02*
X177215600Y-84853100D01*
X177215600Y-84853100D02*
X177215600Y-68165200D01*
X177215600Y-68165200D02*
X181737000Y-63643800D01*
G04 #@! TO.N,Net-(J1-Pad1)*
X178752000Y-76898500D02*
X178752000Y-78348800D01*
X178752000Y-78348800D02*
X179705000Y-79301800D01*
X179705000Y-79301800D02*
X179705000Y-81978500D01*
G04 #@! TO.N,Net-(J2-Pad2)*
X166116000Y-79629000D02*
X164865700Y-79629000D01*
X164865700Y-79629000D02*
X164865700Y-79082000D01*
X164865700Y-79082000D02*
X159062700Y-73279000D01*
X159062700Y-73279000D02*
X157997600Y-73279000D01*
X157997600Y-73279000D02*
X156534600Y-71816000D01*
X156534600Y-71816000D02*
X156534600Y-71377600D01*
G04 #@! TO.N,MISO*
X166116000Y-74549000D02*
X166116000Y-73298700D01*
X166116000Y-73298700D02*
X165637400Y-73298700D01*
X165637400Y-73298700D02*
X163774400Y-71435700D01*
X163774400Y-71435700D02*
X163774400Y-70675700D01*
X163774400Y-70675700D02*
X156956000Y-63857300D01*
X156956000Y-63857300D02*
X156956000Y-59927500D01*
X156956000Y-59927500D02*
X148654000Y-51625500D01*
G04 #@! TO.N,SCK*
X166116000Y-72009000D02*
X157656300Y-63549300D01*
X157656300Y-63549300D02*
X157656300Y-58250500D01*
X157656300Y-58250500D02*
X149717300Y-50311500D01*
X149717300Y-50311500D02*
X147428000Y-50311500D01*
X147428000Y-50311500D02*
X146114000Y-51625500D01*
G04 #@! TO.N,MOSI*
X166116000Y-77089000D02*
X166116000Y-75838700D01*
X166116000Y-75838700D02*
X165569000Y-75838700D01*
X165569000Y-75838700D02*
X163074000Y-73343700D01*
X163074000Y-73343700D02*
X163074000Y-71025900D01*
X163074000Y-71025900D02*
X146213700Y-54165600D01*
X146213700Y-54165600D02*
X146114000Y-54165600D01*
X146114000Y-54165600D02*
X146114000Y-54165500D01*
G04 #@! TO.N,RST*
X150360000Y-60365500D02*
X150360000Y-66865500D01*
G04 #@! TD*
D30*
G04 #@! TO.N,VCC*
G36*
X185726501Y-55431757D02*
X185578310Y-55073993D01*
X185146507Y-54642190D01*
X184582330Y-54408500D01*
X183971670Y-54408500D01*
X183407493Y-54642190D01*
X183238275Y-54811408D01*
X183235157Y-54795735D01*
X183094809Y-54585691D01*
X182884765Y-54445343D01*
X182637000Y-54396060D01*
X180837000Y-54396060D01*
X180589235Y-54445343D01*
X180379191Y-54585691D01*
X180238843Y-54795735D01*
X180189560Y-55043500D01*
X180189560Y-56843500D01*
X180238843Y-57091265D01*
X180379191Y-57301309D01*
X180438370Y-57340851D01*
X173073245Y-64705977D01*
X172999352Y-64755351D01*
X172949978Y-64829244D01*
X172949976Y-64829246D01*
X172803748Y-65048091D01*
X172735063Y-65393400D01*
X172752401Y-65480566D01*
X172752400Y-78715921D01*
X172136832Y-79331489D01*
X172131864Y-79319495D01*
X171885745Y-79245361D01*
X171057605Y-80073500D01*
X171071748Y-80087643D01*
X170892143Y-80267248D01*
X170878000Y-80253105D01*
X170049861Y-81081245D01*
X170123995Y-81327364D01*
X170136473Y-81331849D01*
X167408256Y-84060066D01*
X167150577Y-83674423D01*
X166798242Y-83439000D01*
X167150577Y-83203577D01*
X167467740Y-82728909D01*
X167579113Y-82169000D01*
X167467740Y-81609091D01*
X167150577Y-81134423D01*
X166798242Y-80899000D01*
X167150577Y-80663577D01*
X167467740Y-80188909D01*
X167533816Y-79856723D01*
X169431035Y-79856723D01*
X169458222Y-80426954D01*
X169624136Y-80827505D01*
X169870255Y-80901639D01*
X170698395Y-80073500D01*
X169870255Y-79245361D01*
X169624136Y-79319495D01*
X169431035Y-79856723D01*
X167533816Y-79856723D01*
X167579113Y-79629000D01*
X167467740Y-79069091D01*
X167465511Y-79065755D01*
X170049861Y-79065755D01*
X170878000Y-79893895D01*
X171706139Y-79065755D01*
X171632005Y-78819636D01*
X171094777Y-78626535D01*
X170524546Y-78653722D01*
X170123995Y-78819636D01*
X170049861Y-79065755D01*
X167465511Y-79065755D01*
X167150577Y-78594423D01*
X166798242Y-78359000D01*
X167150577Y-78123577D01*
X167467740Y-77648909D01*
X167579113Y-77089000D01*
X167467740Y-76529091D01*
X167150577Y-76054423D01*
X167001000Y-75954479D01*
X167001000Y-75925865D01*
X167018338Y-75838700D01*
X166998161Y-75737260D01*
X166989058Y-75691500D01*
X167150577Y-75583577D01*
X167467740Y-75108909D01*
X167579113Y-74549000D01*
X167467740Y-73989091D01*
X167150577Y-73514423D01*
X167001000Y-73414479D01*
X167001000Y-73385865D01*
X167018338Y-73298700D01*
X166998161Y-73197260D01*
X166989058Y-73151500D01*
X167150577Y-73043577D01*
X167467740Y-72568909D01*
X167579113Y-72009000D01*
X167467740Y-71449091D01*
X167150577Y-70974423D01*
X166766892Y-70718053D01*
X166971134Y-70621389D01*
X167347041Y-70206423D01*
X167507904Y-69818039D01*
X167385915Y-69596000D01*
X166243000Y-69596000D01*
X166243000Y-69616000D01*
X165989000Y-69616000D01*
X165989000Y-69596000D01*
X165969000Y-69596000D01*
X165969000Y-69342000D01*
X165989000Y-69342000D01*
X165989000Y-68198371D01*
X166243000Y-68198371D01*
X166243000Y-69342000D01*
X167385915Y-69342000D01*
X167507904Y-69119961D01*
X167347041Y-68731577D01*
X166971134Y-68316611D01*
X166465041Y-68077086D01*
X166243000Y-68198371D01*
X165989000Y-68198371D01*
X165766959Y-68077086D01*
X165260866Y-68316611D01*
X164884959Y-68731577D01*
X164724096Y-69119961D01*
X164846084Y-69341998D01*
X164700577Y-69341998D01*
X161049640Y-65691061D01*
X169189000Y-65691061D01*
X169189000Y-66261939D01*
X169407466Y-66789362D01*
X169811138Y-67193034D01*
X170338561Y-67411500D01*
X170909439Y-67411500D01*
X171436862Y-67193034D01*
X171840534Y-66789362D01*
X172059000Y-66261939D01*
X172059000Y-65691061D01*
X171840534Y-65163638D01*
X171436862Y-64759966D01*
X170909439Y-64541500D01*
X170338561Y-64541500D01*
X169811138Y-64759966D01*
X169407466Y-65163638D01*
X169189000Y-65691061D01*
X161049640Y-65691061D01*
X158541300Y-63182722D01*
X158541300Y-62907006D01*
X159915000Y-62907006D01*
X159915000Y-63457994D01*
X160125853Y-63967040D01*
X160515460Y-64356647D01*
X161024506Y-64567500D01*
X161575494Y-64567500D01*
X162084540Y-64356647D01*
X162474147Y-63967040D01*
X162685000Y-63457994D01*
X162685000Y-62907006D01*
X163715000Y-62907006D01*
X163715000Y-63457994D01*
X163925853Y-63967040D01*
X164315460Y-64356647D01*
X164824506Y-64567500D01*
X165375494Y-64567500D01*
X165884540Y-64356647D01*
X166274147Y-63967040D01*
X166485000Y-63457994D01*
X166485000Y-62907006D01*
X166274147Y-62397960D01*
X165884540Y-62008353D01*
X165375494Y-61797500D01*
X164824506Y-61797500D01*
X164315460Y-62008353D01*
X163925853Y-62397960D01*
X163715000Y-62907006D01*
X162685000Y-62907006D01*
X162474147Y-62397960D01*
X162084540Y-62008353D01*
X161575494Y-61797500D01*
X161024506Y-61797500D01*
X160515460Y-62008353D01*
X160125853Y-62397960D01*
X159915000Y-62907006D01*
X158541300Y-62907006D01*
X158541300Y-58337659D01*
X158558637Y-58250499D01*
X158541300Y-58163339D01*
X158541300Y-58163335D01*
X158489952Y-57905190D01*
X158392605Y-57759500D01*
X158343724Y-57686345D01*
X158343723Y-57686344D01*
X158294349Y-57612451D01*
X158220456Y-57563077D01*
X154981629Y-54324250D01*
X158512000Y-54324250D01*
X158512000Y-55164810D01*
X158608673Y-55398199D01*
X158787302Y-55576827D01*
X159020691Y-55673500D01*
X159861250Y-55673500D01*
X160020000Y-55514750D01*
X160020000Y-54165500D01*
X160274000Y-54165500D01*
X160274000Y-55514750D01*
X160432750Y-55673500D01*
X161273309Y-55673500D01*
X161506698Y-55576827D01*
X161685327Y-55398199D01*
X161782000Y-55164810D01*
X161782000Y-54324250D01*
X161623250Y-54165500D01*
X160274000Y-54165500D01*
X160020000Y-54165500D01*
X158670750Y-54165500D01*
X158512000Y-54324250D01*
X154981629Y-54324250D01*
X153569569Y-52912190D01*
X158512000Y-52912190D01*
X158512000Y-53752750D01*
X158670750Y-53911500D01*
X160020000Y-53911500D01*
X160020000Y-52562250D01*
X160274000Y-52562250D01*
X160274000Y-53911500D01*
X161623250Y-53911500D01*
X161782000Y-53752750D01*
X161782000Y-53713278D01*
X163512000Y-53713278D01*
X163512000Y-54363722D01*
X163760914Y-54964653D01*
X164220847Y-55424586D01*
X164256617Y-55439402D01*
X164244663Y-55499500D01*
X164262000Y-55586661D01*
X164262000Y-55586664D01*
X164313348Y-55844809D01*
X164508951Y-56137549D01*
X164582847Y-56186925D01*
X169189000Y-60793079D01*
X169189000Y-61261939D01*
X169407466Y-61789362D01*
X169811138Y-62193034D01*
X170338561Y-62411500D01*
X170909439Y-62411500D01*
X171436862Y-62193034D01*
X171840534Y-61789362D01*
X172059000Y-61261939D01*
X172059000Y-60691061D01*
X171840534Y-60163638D01*
X171436862Y-59759966D01*
X170909439Y-59541500D01*
X170440579Y-59541500D01*
X167223579Y-56324500D01*
X169922887Y-56324500D01*
X170034260Y-56884409D01*
X170351423Y-57359077D01*
X170826091Y-57676240D01*
X171244667Y-57759500D01*
X171527333Y-57759500D01*
X171945909Y-57676240D01*
X172420577Y-57359077D01*
X172438505Y-57332245D01*
X173097861Y-57332245D01*
X173171995Y-57578364D01*
X173709223Y-57771465D01*
X174279454Y-57744278D01*
X174680005Y-57578364D01*
X174754139Y-57332245D01*
X173926000Y-56504105D01*
X173097861Y-57332245D01*
X172438505Y-57332245D01*
X172647611Y-57019297D01*
X172672136Y-57078505D01*
X172918255Y-57152639D01*
X173746395Y-56324500D01*
X174105605Y-56324500D01*
X174933745Y-57152639D01*
X175179864Y-57078505D01*
X175372965Y-56541277D01*
X175345778Y-55971046D01*
X175179864Y-55570495D01*
X174933745Y-55496361D01*
X174105605Y-56324500D01*
X173746395Y-56324500D01*
X172918255Y-55496361D01*
X172672136Y-55570495D01*
X172649720Y-55632859D01*
X172438506Y-55316755D01*
X173097861Y-55316755D01*
X173926000Y-56144895D01*
X174754139Y-55316755D01*
X174680005Y-55070636D01*
X174142777Y-54877535D01*
X173572546Y-54904722D01*
X173171995Y-55070636D01*
X173097861Y-55316755D01*
X172438506Y-55316755D01*
X172420577Y-55289923D01*
X171945909Y-54972760D01*
X171527333Y-54889500D01*
X171244667Y-54889500D01*
X170826091Y-54972760D01*
X170351423Y-55289923D01*
X170034260Y-55764591D01*
X169922887Y-56324500D01*
X167223579Y-56324500D01*
X166198409Y-55299330D01*
X166533086Y-54964653D01*
X166782000Y-54363722D01*
X166782000Y-53713278D01*
X166533086Y-53112347D01*
X166073153Y-52652414D01*
X165472222Y-52403500D01*
X164821778Y-52403500D01*
X164220847Y-52652414D01*
X163760914Y-53112347D01*
X163512000Y-53713278D01*
X161782000Y-53713278D01*
X161782000Y-52912190D01*
X161685327Y-52678801D01*
X161506698Y-52500173D01*
X161273309Y-52403500D01*
X160432750Y-52403500D01*
X160274000Y-52562250D01*
X160020000Y-52562250D01*
X159861250Y-52403500D01*
X159020691Y-52403500D01*
X158787302Y-52500173D01*
X158608673Y-52678801D01*
X158512000Y-52912190D01*
X153569569Y-52912190D01*
X150404725Y-49747347D01*
X150365780Y-49689061D01*
X170587000Y-49689061D01*
X170587000Y-50259939D01*
X170805466Y-50787362D01*
X171209138Y-51191034D01*
X171736561Y-51409500D01*
X172307439Y-51409500D01*
X172834862Y-51191034D01*
X173238534Y-50787362D01*
X173292394Y-50657332D01*
X173527423Y-51009077D01*
X174002091Y-51326240D01*
X174420667Y-51409500D01*
X174703333Y-51409500D01*
X175121909Y-51326240D01*
X175596577Y-51009077D01*
X175913740Y-50534409D01*
X176025113Y-49974500D01*
X175930443Y-49498561D01*
X179794000Y-49498561D01*
X179794000Y-50069439D01*
X180012466Y-50596862D01*
X180416138Y-51000534D01*
X180943561Y-51219000D01*
X181514439Y-51219000D01*
X182041862Y-51000534D01*
X182445534Y-50596862D01*
X182499394Y-50466832D01*
X182734423Y-50818577D01*
X183209091Y-51135740D01*
X183627667Y-51219000D01*
X183910333Y-51219000D01*
X184328909Y-51135740D01*
X184803577Y-50818577D01*
X185120740Y-50343909D01*
X185232113Y-49784000D01*
X185120740Y-49224091D01*
X184803577Y-48749423D01*
X184328909Y-48432260D01*
X183910333Y-48349000D01*
X183627667Y-48349000D01*
X183209091Y-48432260D01*
X182734423Y-48749423D01*
X182499394Y-49101168D01*
X182445534Y-48971138D01*
X182041862Y-48567466D01*
X181514439Y-48349000D01*
X180943561Y-48349000D01*
X180416138Y-48567466D01*
X180012466Y-48971138D01*
X179794000Y-49498561D01*
X175930443Y-49498561D01*
X175913740Y-49414591D01*
X175596577Y-48939923D01*
X175121909Y-48622760D01*
X174703333Y-48539500D01*
X174420667Y-48539500D01*
X174002091Y-48622760D01*
X173527423Y-48939923D01*
X173292394Y-49291668D01*
X173238534Y-49161638D01*
X172834862Y-48757966D01*
X172307439Y-48539500D01*
X171736561Y-48539500D01*
X171209138Y-48757966D01*
X170805466Y-49161638D01*
X170587000Y-49689061D01*
X150365780Y-49689061D01*
X150355349Y-49673451D01*
X150062610Y-49477848D01*
X149804465Y-49426500D01*
X149804461Y-49426500D01*
X149717300Y-49409163D01*
X149630139Y-49426500D01*
X147515161Y-49426500D01*
X147428000Y-49409163D01*
X147340839Y-49426500D01*
X147340835Y-49426500D01*
X147082690Y-49477848D01*
X146863845Y-49624076D01*
X146863844Y-49624077D01*
X146789951Y-49673451D01*
X146740577Y-49747344D01*
X146344526Y-50143395D01*
X146261598Y-50126900D01*
X145966402Y-50126900D01*
X145529275Y-50213850D01*
X145033570Y-50545070D01*
X144844000Y-50828781D01*
X144654430Y-50545070D01*
X144158725Y-50213850D01*
X143721598Y-50126900D01*
X143426402Y-50126900D01*
X142989275Y-50213850D01*
X142493570Y-50545070D01*
X142162350Y-51040775D01*
X142046041Y-51625500D01*
X142162350Y-52210225D01*
X142493570Y-52705930D01*
X142777281Y-52895500D01*
X142493570Y-53085070D01*
X142162350Y-53580775D01*
X142046041Y-54165500D01*
X142162350Y-54750225D01*
X142493570Y-55245930D01*
X142689001Y-55376513D01*
X142689001Y-55392235D01*
X142671663Y-55479400D01*
X142740348Y-55824709D01*
X142886576Y-56043554D01*
X142886578Y-56043556D01*
X142935952Y-56117449D01*
X143009845Y-56166823D01*
X144975001Y-58131980D01*
X144975001Y-58962368D01*
X144933847Y-58979414D01*
X144473914Y-59439347D01*
X144225000Y-60040278D01*
X144225000Y-60690722D01*
X144473914Y-61291653D01*
X144933847Y-61751586D01*
X144975001Y-61768632D01*
X144975000Y-65462368D01*
X144933847Y-65479414D01*
X144473914Y-65939347D01*
X144225000Y-66540278D01*
X144225000Y-67190722D01*
X144473914Y-67791653D01*
X144933847Y-68251586D01*
X144975001Y-68268633D01*
X144975000Y-82817921D01*
X142192651Y-85600271D01*
X142114839Y-85209082D01*
X141786625Y-84717875D01*
X141488239Y-84518500D01*
X141786625Y-84319125D01*
X142114839Y-83827918D01*
X142230092Y-83248500D01*
X142114839Y-82669082D01*
X141786625Y-82177875D01*
X141488239Y-81978500D01*
X141786625Y-81779125D01*
X142114839Y-81287918D01*
X142230092Y-80708500D01*
X142114839Y-80129082D01*
X141786625Y-79637875D01*
X141488239Y-79438500D01*
X141786625Y-79239125D01*
X142114839Y-78747918D01*
X142230092Y-78168500D01*
X142114839Y-77589082D01*
X141786625Y-77097875D01*
X141488239Y-76898500D01*
X141786625Y-76699125D01*
X142114839Y-76207918D01*
X142230092Y-75628500D01*
X142114839Y-75049082D01*
X141786625Y-74557875D01*
X141488239Y-74358500D01*
X141786625Y-74159125D01*
X142114839Y-73667918D01*
X142230092Y-73088500D01*
X142114839Y-72509082D01*
X141786625Y-72017875D01*
X141488239Y-71818500D01*
X141786625Y-71619125D01*
X142114839Y-71127918D01*
X142230092Y-70548500D01*
X142114839Y-69969082D01*
X141786625Y-69477875D01*
X141488239Y-69278500D01*
X141786625Y-69079125D01*
X142114839Y-68587918D01*
X142230092Y-68008500D01*
X142114839Y-67429082D01*
X141786625Y-66937875D01*
X141768381Y-66925684D01*
X141813765Y-66916657D01*
X142023809Y-66776309D01*
X142164157Y-66566265D01*
X142213440Y-66318500D01*
X142213440Y-64618500D01*
X142164157Y-64370735D01*
X142023809Y-64160691D01*
X141813765Y-64020343D01*
X141566000Y-63971060D01*
X139866000Y-63971060D01*
X139618235Y-64020343D01*
X139408191Y-64160691D01*
X139267843Y-64370735D01*
X139218560Y-64618500D01*
X139218560Y-66318500D01*
X139267843Y-66566265D01*
X139408191Y-66776309D01*
X139618235Y-66916657D01*
X139663619Y-66925684D01*
X139645375Y-66937875D01*
X139317161Y-67429082D01*
X139201908Y-68008500D01*
X139317161Y-68587918D01*
X139645375Y-69079125D01*
X139943761Y-69278500D01*
X139645375Y-69477875D01*
X139317161Y-69969082D01*
X139201908Y-70548500D01*
X139317161Y-71127918D01*
X139645375Y-71619125D01*
X139943761Y-71818500D01*
X139645375Y-72017875D01*
X139317161Y-72509082D01*
X139201908Y-73088500D01*
X139317161Y-73667918D01*
X139645375Y-74159125D01*
X139943761Y-74358500D01*
X139645375Y-74557875D01*
X139317161Y-75049082D01*
X139201908Y-75628500D01*
X139317161Y-76207918D01*
X139645375Y-76699125D01*
X139943761Y-76898500D01*
X139645375Y-77097875D01*
X139317161Y-77589082D01*
X139201908Y-78168500D01*
X139317161Y-78747918D01*
X139645375Y-79239125D01*
X139943761Y-79438500D01*
X139645375Y-79637875D01*
X139317161Y-80129082D01*
X139201908Y-80708500D01*
X139317161Y-81287918D01*
X139645375Y-81779125D01*
X139943761Y-81978500D01*
X139645375Y-82177875D01*
X139317161Y-82669082D01*
X139201908Y-83248500D01*
X139317161Y-83827918D01*
X139645375Y-84319125D01*
X139943761Y-84518500D01*
X139645375Y-84717875D01*
X139317161Y-85209082D01*
X139201908Y-85788500D01*
X139317161Y-86367918D01*
X139645375Y-86859125D01*
X139943761Y-87058500D01*
X139645375Y-87257875D01*
X139317161Y-87749082D01*
X139201908Y-88328500D01*
X139317161Y-88907918D01*
X139645375Y-89399125D01*
X139831001Y-89523156D01*
X139831000Y-89673844D01*
X139645375Y-89797875D01*
X139317161Y-90289082D01*
X139201908Y-90868500D01*
X139245462Y-91087460D01*
X138836845Y-91496077D01*
X138762952Y-91545451D01*
X138713578Y-91619344D01*
X138713576Y-91619346D01*
X138567348Y-91838191D01*
X138498663Y-92183500D01*
X138516001Y-92270665D01*
X138516000Y-93853039D01*
X138498663Y-93940200D01*
X138516000Y-94027361D01*
X138516000Y-94027364D01*
X138567348Y-94285509D01*
X138762951Y-94578249D01*
X138836847Y-94627625D01*
X139502877Y-95293656D01*
X139552251Y-95367549D01*
X139626144Y-95416923D01*
X139626145Y-95416924D01*
X139844990Y-95563152D01*
X140103135Y-95614500D01*
X140103139Y-95614500D01*
X140190300Y-95631837D01*
X140277461Y-95614500D01*
X154758039Y-95614500D01*
X154845200Y-95631837D01*
X154932361Y-95614500D01*
X154932365Y-95614500D01*
X155190510Y-95563152D01*
X155483249Y-95367549D01*
X155532625Y-95293653D01*
X157462190Y-93364089D01*
X157936091Y-93680740D01*
X158354667Y-93764000D01*
X158637333Y-93764000D01*
X159055909Y-93680740D01*
X159530577Y-93363577D01*
X159847740Y-92888909D01*
X159959113Y-92329000D01*
X159847740Y-91769091D01*
X159530577Y-91294423D01*
X159178242Y-91059000D01*
X159530577Y-90823577D01*
X159847740Y-90348909D01*
X159959113Y-89789000D01*
X159847740Y-89229091D01*
X159530577Y-88754423D01*
X159178242Y-88519000D01*
X159530577Y-88283577D01*
X159847740Y-87808909D01*
X159959113Y-87249000D01*
X159847740Y-86689091D01*
X159530577Y-86214423D01*
X159178242Y-85979000D01*
X159530577Y-85743577D01*
X159847740Y-85268909D01*
X159959113Y-84709000D01*
X159847740Y-84149091D01*
X159530577Y-83674423D01*
X159178242Y-83439000D01*
X159530577Y-83203577D01*
X159847740Y-82728909D01*
X159959113Y-82169000D01*
X159847740Y-81609091D01*
X159530577Y-81134423D01*
X159178242Y-80899000D01*
X159530577Y-80663577D01*
X159847740Y-80188909D01*
X159959113Y-79629000D01*
X159847740Y-79069091D01*
X159530577Y-78594423D01*
X159381000Y-78494479D01*
X159381000Y-78465865D01*
X159398338Y-78378700D01*
X159378161Y-78277260D01*
X159369058Y-78231500D01*
X159530577Y-78123577D01*
X159847740Y-77648909D01*
X159959113Y-77089000D01*
X159847740Y-76529091D01*
X159530577Y-76054423D01*
X159178242Y-75819000D01*
X159530577Y-75583577D01*
X159764944Y-75232822D01*
X163980700Y-79448579D01*
X163980700Y-79541835D01*
X163963362Y-79629000D01*
X164032048Y-79974310D01*
X164175439Y-80188909D01*
X164227651Y-80267049D01*
X164520390Y-80462652D01*
X164865700Y-80531338D01*
X164952864Y-80514000D01*
X164981479Y-80514000D01*
X165081423Y-80663577D01*
X165433758Y-80899000D01*
X165081423Y-81134423D01*
X164764260Y-81609091D01*
X164652887Y-82169000D01*
X164764260Y-82728909D01*
X165081423Y-83203577D01*
X165433758Y-83439000D01*
X165081423Y-83674423D01*
X164764260Y-84149091D01*
X164652887Y-84709000D01*
X164764260Y-85268909D01*
X164887488Y-85453333D01*
X164290445Y-86050377D01*
X164216552Y-86099751D01*
X164167178Y-86173644D01*
X164167176Y-86173646D01*
X164020948Y-86392491D01*
X163952263Y-86737800D01*
X163969601Y-86824965D01*
X163969600Y-87737139D01*
X163952263Y-87824300D01*
X163969600Y-87911461D01*
X163969600Y-87911464D01*
X164020948Y-88169609D01*
X164216551Y-88462349D01*
X164290447Y-88511725D01*
X164861813Y-89083092D01*
X164764260Y-89229091D01*
X164652887Y-89789000D01*
X164764260Y-90348909D01*
X165081423Y-90823577D01*
X165433758Y-91059000D01*
X165081423Y-91294423D01*
X164764260Y-91769091D01*
X164652887Y-92329000D01*
X164764260Y-92888909D01*
X165081423Y-93363577D01*
X165556091Y-93680740D01*
X165974667Y-93764000D01*
X166257333Y-93764000D01*
X166675909Y-93680740D01*
X167150577Y-93363577D01*
X167467740Y-92888909D01*
X167579113Y-92329000D01*
X167467740Y-91769091D01*
X167150577Y-91294423D01*
X166798242Y-91059000D01*
X167150577Y-90823577D01*
X167467740Y-90348909D01*
X167579113Y-89789000D01*
X167544870Y-89616848D01*
X169381016Y-91452995D01*
X169189000Y-91916561D01*
X169189000Y-92487439D01*
X169407466Y-93014862D01*
X169811138Y-93418534D01*
X170338561Y-93637000D01*
X170909439Y-93637000D01*
X171436862Y-93418534D01*
X171840534Y-93014862D01*
X172059000Y-92487439D01*
X172059000Y-91916561D01*
X171867072Y-91453206D01*
X177779756Y-85540523D01*
X177853649Y-85491149D01*
X177904634Y-85414846D01*
X178049252Y-85198410D01*
X178059806Y-85145349D01*
X178100600Y-84940265D01*
X178100600Y-84940261D01*
X178117937Y-84853100D01*
X178100600Y-84765939D01*
X178100600Y-84375940D01*
X181020401Y-84375940D01*
X181020401Y-85411520D01*
X180600861Y-85831060D01*
X178705000Y-85831060D01*
X178170223Y-85937434D01*
X177716861Y-86240361D01*
X177413934Y-86693723D01*
X177307560Y-87228500D01*
X177307560Y-88728500D01*
X177413934Y-89263277D01*
X177716861Y-89716639D01*
X178170223Y-90019566D01*
X178705000Y-90125940D01*
X180705000Y-90125940D01*
X181239777Y-90019566D01*
X181693139Y-89716639D01*
X181996066Y-89263277D01*
X182102440Y-88728500D01*
X182102440Y-87228500D01*
X182036762Y-86898316D01*
X182273860Y-86661219D01*
X182453472Y-86930028D01*
X182947387Y-87260051D01*
X183530000Y-87375940D01*
X185280000Y-87375940D01*
X185726500Y-87287126D01*
X185726500Y-96102500D01*
X137196500Y-96102500D01*
X137196500Y-47572500D01*
X185726501Y-47572500D01*
X185726501Y-55431757D01*
X185726501Y-55431757D01*
G37*
X185726501Y-55431757D02*
X185578310Y-55073993D01*
X185146507Y-54642190D01*
X184582330Y-54408500D01*
X183971670Y-54408500D01*
X183407493Y-54642190D01*
X183238275Y-54811408D01*
X183235157Y-54795735D01*
X183094809Y-54585691D01*
X182884765Y-54445343D01*
X182637000Y-54396060D01*
X180837000Y-54396060D01*
X180589235Y-54445343D01*
X180379191Y-54585691D01*
X180238843Y-54795735D01*
X180189560Y-55043500D01*
X180189560Y-56843500D01*
X180238843Y-57091265D01*
X180379191Y-57301309D01*
X180438370Y-57340851D01*
X173073245Y-64705977D01*
X172999352Y-64755351D01*
X172949978Y-64829244D01*
X172949976Y-64829246D01*
X172803748Y-65048091D01*
X172735063Y-65393400D01*
X172752401Y-65480566D01*
X172752400Y-78715921D01*
X172136832Y-79331489D01*
X172131864Y-79319495D01*
X171885745Y-79245361D01*
X171057605Y-80073500D01*
X171071748Y-80087643D01*
X170892143Y-80267248D01*
X170878000Y-80253105D01*
X170049861Y-81081245D01*
X170123995Y-81327364D01*
X170136473Y-81331849D01*
X167408256Y-84060066D01*
X167150577Y-83674423D01*
X166798242Y-83439000D01*
X167150577Y-83203577D01*
X167467740Y-82728909D01*
X167579113Y-82169000D01*
X167467740Y-81609091D01*
X167150577Y-81134423D01*
X166798242Y-80899000D01*
X167150577Y-80663577D01*
X167467740Y-80188909D01*
X167533816Y-79856723D01*
X169431035Y-79856723D01*
X169458222Y-80426954D01*
X169624136Y-80827505D01*
X169870255Y-80901639D01*
X170698395Y-80073500D01*
X169870255Y-79245361D01*
X169624136Y-79319495D01*
X169431035Y-79856723D01*
X167533816Y-79856723D01*
X167579113Y-79629000D01*
X167467740Y-79069091D01*
X167465511Y-79065755D01*
X170049861Y-79065755D01*
X170878000Y-79893895D01*
X171706139Y-79065755D01*
X171632005Y-78819636D01*
X171094777Y-78626535D01*
X170524546Y-78653722D01*
X170123995Y-78819636D01*
X170049861Y-79065755D01*
X167465511Y-79065755D01*
X167150577Y-78594423D01*
X166798242Y-78359000D01*
X167150577Y-78123577D01*
X167467740Y-77648909D01*
X167579113Y-77089000D01*
X167467740Y-76529091D01*
X167150577Y-76054423D01*
X167001000Y-75954479D01*
X167001000Y-75925865D01*
X167018338Y-75838700D01*
X166998161Y-75737260D01*
X166989058Y-75691500D01*
X167150577Y-75583577D01*
X167467740Y-75108909D01*
X167579113Y-74549000D01*
X167467740Y-73989091D01*
X167150577Y-73514423D01*
X167001000Y-73414479D01*
X167001000Y-73385865D01*
X167018338Y-73298700D01*
X166998161Y-73197260D01*
X166989058Y-73151500D01*
X167150577Y-73043577D01*
X167467740Y-72568909D01*
X167579113Y-72009000D01*
X167467740Y-71449091D01*
X167150577Y-70974423D01*
X166766892Y-70718053D01*
X166971134Y-70621389D01*
X167347041Y-70206423D01*
X167507904Y-69818039D01*
X167385915Y-69596000D01*
X166243000Y-69596000D01*
X166243000Y-69616000D01*
X165989000Y-69616000D01*
X165989000Y-69596000D01*
X165969000Y-69596000D01*
X165969000Y-69342000D01*
X165989000Y-69342000D01*
X165989000Y-68198371D01*
X166243000Y-68198371D01*
X166243000Y-69342000D01*
X167385915Y-69342000D01*
X167507904Y-69119961D01*
X167347041Y-68731577D01*
X166971134Y-68316611D01*
X166465041Y-68077086D01*
X166243000Y-68198371D01*
X165989000Y-68198371D01*
X165766959Y-68077086D01*
X165260866Y-68316611D01*
X164884959Y-68731577D01*
X164724096Y-69119961D01*
X164846084Y-69341998D01*
X164700577Y-69341998D01*
X161049640Y-65691061D01*
X169189000Y-65691061D01*
X169189000Y-66261939D01*
X169407466Y-66789362D01*
X169811138Y-67193034D01*
X170338561Y-67411500D01*
X170909439Y-67411500D01*
X171436862Y-67193034D01*
X171840534Y-66789362D01*
X172059000Y-66261939D01*
X172059000Y-65691061D01*
X171840534Y-65163638D01*
X171436862Y-64759966D01*
X170909439Y-64541500D01*
X170338561Y-64541500D01*
X169811138Y-64759966D01*
X169407466Y-65163638D01*
X169189000Y-65691061D01*
X161049640Y-65691061D01*
X158541300Y-63182722D01*
X158541300Y-62907006D01*
X159915000Y-62907006D01*
X159915000Y-63457994D01*
X160125853Y-63967040D01*
X160515460Y-64356647D01*
X161024506Y-64567500D01*
X161575494Y-64567500D01*
X162084540Y-64356647D01*
X162474147Y-63967040D01*
X162685000Y-63457994D01*
X162685000Y-62907006D01*
X163715000Y-62907006D01*
X163715000Y-63457994D01*
X163925853Y-63967040D01*
X164315460Y-64356647D01*
X164824506Y-64567500D01*
X165375494Y-64567500D01*
X165884540Y-64356647D01*
X166274147Y-63967040D01*
X166485000Y-63457994D01*
X166485000Y-62907006D01*
X166274147Y-62397960D01*
X165884540Y-62008353D01*
X165375494Y-61797500D01*
X164824506Y-61797500D01*
X164315460Y-62008353D01*
X163925853Y-62397960D01*
X163715000Y-62907006D01*
X162685000Y-62907006D01*
X162474147Y-62397960D01*
X162084540Y-62008353D01*
X161575494Y-61797500D01*
X161024506Y-61797500D01*
X160515460Y-62008353D01*
X160125853Y-62397960D01*
X159915000Y-62907006D01*
X158541300Y-62907006D01*
X158541300Y-58337659D01*
X158558637Y-58250499D01*
X158541300Y-58163339D01*
X158541300Y-58163335D01*
X158489952Y-57905190D01*
X158392605Y-57759500D01*
X158343724Y-57686345D01*
X158343723Y-57686344D01*
X158294349Y-57612451D01*
X158220456Y-57563077D01*
X154981629Y-54324250D01*
X158512000Y-54324250D01*
X158512000Y-55164810D01*
X158608673Y-55398199D01*
X158787302Y-55576827D01*
X159020691Y-55673500D01*
X159861250Y-55673500D01*
X160020000Y-55514750D01*
X160020000Y-54165500D01*
X160274000Y-54165500D01*
X160274000Y-55514750D01*
X160432750Y-55673500D01*
X161273309Y-55673500D01*
X161506698Y-55576827D01*
X161685327Y-55398199D01*
X161782000Y-55164810D01*
X161782000Y-54324250D01*
X161623250Y-54165500D01*
X160274000Y-54165500D01*
X160020000Y-54165500D01*
X158670750Y-54165500D01*
X158512000Y-54324250D01*
X154981629Y-54324250D01*
X153569569Y-52912190D01*
X158512000Y-52912190D01*
X158512000Y-53752750D01*
X158670750Y-53911500D01*
X160020000Y-53911500D01*
X160020000Y-52562250D01*
X160274000Y-52562250D01*
X160274000Y-53911500D01*
X161623250Y-53911500D01*
X161782000Y-53752750D01*
X161782000Y-53713278D01*
X163512000Y-53713278D01*
X163512000Y-54363722D01*
X163760914Y-54964653D01*
X164220847Y-55424586D01*
X164256617Y-55439402D01*
X164244663Y-55499500D01*
X164262000Y-55586661D01*
X164262000Y-55586664D01*
X164313348Y-55844809D01*
X164508951Y-56137549D01*
X164582847Y-56186925D01*
X169189000Y-60793079D01*
X169189000Y-61261939D01*
X169407466Y-61789362D01*
X169811138Y-62193034D01*
X170338561Y-62411500D01*
X170909439Y-62411500D01*
X171436862Y-62193034D01*
X171840534Y-61789362D01*
X172059000Y-61261939D01*
X172059000Y-60691061D01*
X171840534Y-60163638D01*
X171436862Y-59759966D01*
X170909439Y-59541500D01*
X170440579Y-59541500D01*
X167223579Y-56324500D01*
X169922887Y-56324500D01*
X170034260Y-56884409D01*
X170351423Y-57359077D01*
X170826091Y-57676240D01*
X171244667Y-57759500D01*
X171527333Y-57759500D01*
X171945909Y-57676240D01*
X172420577Y-57359077D01*
X172438505Y-57332245D01*
X173097861Y-57332245D01*
X173171995Y-57578364D01*
X173709223Y-57771465D01*
X174279454Y-57744278D01*
X174680005Y-57578364D01*
X174754139Y-57332245D01*
X173926000Y-56504105D01*
X173097861Y-57332245D01*
X172438505Y-57332245D01*
X172647611Y-57019297D01*
X172672136Y-57078505D01*
X172918255Y-57152639D01*
X173746395Y-56324500D01*
X174105605Y-56324500D01*
X174933745Y-57152639D01*
X175179864Y-57078505D01*
X175372965Y-56541277D01*
X175345778Y-55971046D01*
X175179864Y-55570495D01*
X174933745Y-55496361D01*
X174105605Y-56324500D01*
X173746395Y-56324500D01*
X172918255Y-55496361D01*
X172672136Y-55570495D01*
X172649720Y-55632859D01*
X172438506Y-55316755D01*
X173097861Y-55316755D01*
X173926000Y-56144895D01*
X174754139Y-55316755D01*
X174680005Y-55070636D01*
X174142777Y-54877535D01*
X173572546Y-54904722D01*
X173171995Y-55070636D01*
X173097861Y-55316755D01*
X172438506Y-55316755D01*
X172420577Y-55289923D01*
X171945909Y-54972760D01*
X171527333Y-54889500D01*
X171244667Y-54889500D01*
X170826091Y-54972760D01*
X170351423Y-55289923D01*
X170034260Y-55764591D01*
X169922887Y-56324500D01*
X167223579Y-56324500D01*
X166198409Y-55299330D01*
X166533086Y-54964653D01*
X166782000Y-54363722D01*
X166782000Y-53713278D01*
X166533086Y-53112347D01*
X166073153Y-52652414D01*
X165472222Y-52403500D01*
X164821778Y-52403500D01*
X164220847Y-52652414D01*
X163760914Y-53112347D01*
X163512000Y-53713278D01*
X161782000Y-53713278D01*
X161782000Y-52912190D01*
X161685327Y-52678801D01*
X161506698Y-52500173D01*
X161273309Y-52403500D01*
X160432750Y-52403500D01*
X160274000Y-52562250D01*
X160020000Y-52562250D01*
X159861250Y-52403500D01*
X159020691Y-52403500D01*
X158787302Y-52500173D01*
X158608673Y-52678801D01*
X158512000Y-52912190D01*
X153569569Y-52912190D01*
X150404725Y-49747347D01*
X150365780Y-49689061D01*
X170587000Y-49689061D01*
X170587000Y-50259939D01*
X170805466Y-50787362D01*
X171209138Y-51191034D01*
X171736561Y-51409500D01*
X172307439Y-51409500D01*
X172834862Y-51191034D01*
X173238534Y-50787362D01*
X173292394Y-50657332D01*
X173527423Y-51009077D01*
X174002091Y-51326240D01*
X174420667Y-51409500D01*
X174703333Y-51409500D01*
X175121909Y-51326240D01*
X175596577Y-51009077D01*
X175913740Y-50534409D01*
X176025113Y-49974500D01*
X175930443Y-49498561D01*
X179794000Y-49498561D01*
X179794000Y-50069439D01*
X180012466Y-50596862D01*
X180416138Y-51000534D01*
X180943561Y-51219000D01*
X181514439Y-51219000D01*
X182041862Y-51000534D01*
X182445534Y-50596862D01*
X182499394Y-50466832D01*
X182734423Y-50818577D01*
X183209091Y-51135740D01*
X183627667Y-51219000D01*
X183910333Y-51219000D01*
X184328909Y-51135740D01*
X184803577Y-50818577D01*
X185120740Y-50343909D01*
X185232113Y-49784000D01*
X185120740Y-49224091D01*
X184803577Y-48749423D01*
X184328909Y-48432260D01*
X183910333Y-48349000D01*
X183627667Y-48349000D01*
X183209091Y-48432260D01*
X182734423Y-48749423D01*
X182499394Y-49101168D01*
X182445534Y-48971138D01*
X182041862Y-48567466D01*
X181514439Y-48349000D01*
X180943561Y-48349000D01*
X180416138Y-48567466D01*
X180012466Y-48971138D01*
X179794000Y-49498561D01*
X175930443Y-49498561D01*
X175913740Y-49414591D01*
X175596577Y-48939923D01*
X175121909Y-48622760D01*
X174703333Y-48539500D01*
X174420667Y-48539500D01*
X174002091Y-48622760D01*
X173527423Y-48939923D01*
X173292394Y-49291668D01*
X173238534Y-49161638D01*
X172834862Y-48757966D01*
X172307439Y-48539500D01*
X171736561Y-48539500D01*
X171209138Y-48757966D01*
X170805466Y-49161638D01*
X170587000Y-49689061D01*
X150365780Y-49689061D01*
X150355349Y-49673451D01*
X150062610Y-49477848D01*
X149804465Y-49426500D01*
X149804461Y-49426500D01*
X149717300Y-49409163D01*
X149630139Y-49426500D01*
X147515161Y-49426500D01*
X147428000Y-49409163D01*
X147340839Y-49426500D01*
X147340835Y-49426500D01*
X147082690Y-49477848D01*
X146863845Y-49624076D01*
X146863844Y-49624077D01*
X146789951Y-49673451D01*
X146740577Y-49747344D01*
X146344526Y-50143395D01*
X146261598Y-50126900D01*
X145966402Y-50126900D01*
X145529275Y-50213850D01*
X145033570Y-50545070D01*
X144844000Y-50828781D01*
X144654430Y-50545070D01*
X144158725Y-50213850D01*
X143721598Y-50126900D01*
X143426402Y-50126900D01*
X142989275Y-50213850D01*
X142493570Y-50545070D01*
X142162350Y-51040775D01*
X142046041Y-51625500D01*
X142162350Y-52210225D01*
X142493570Y-52705930D01*
X142777281Y-52895500D01*
X142493570Y-53085070D01*
X142162350Y-53580775D01*
X142046041Y-54165500D01*
X142162350Y-54750225D01*
X142493570Y-55245930D01*
X142689001Y-55376513D01*
X142689001Y-55392235D01*
X142671663Y-55479400D01*
X142740348Y-55824709D01*
X142886576Y-56043554D01*
X142886578Y-56043556D01*
X142935952Y-56117449D01*
X143009845Y-56166823D01*
X144975001Y-58131980D01*
X144975001Y-58962368D01*
X144933847Y-58979414D01*
X144473914Y-59439347D01*
X144225000Y-60040278D01*
X144225000Y-60690722D01*
X144473914Y-61291653D01*
X144933847Y-61751586D01*
X144975001Y-61768632D01*
X144975000Y-65462368D01*
X144933847Y-65479414D01*
X144473914Y-65939347D01*
X144225000Y-66540278D01*
X144225000Y-67190722D01*
X144473914Y-67791653D01*
X144933847Y-68251586D01*
X144975001Y-68268633D01*
X144975000Y-82817921D01*
X142192651Y-85600271D01*
X142114839Y-85209082D01*
X141786625Y-84717875D01*
X141488239Y-84518500D01*
X141786625Y-84319125D01*
X142114839Y-83827918D01*
X142230092Y-83248500D01*
X142114839Y-82669082D01*
X141786625Y-82177875D01*
X141488239Y-81978500D01*
X141786625Y-81779125D01*
X142114839Y-81287918D01*
X142230092Y-80708500D01*
X142114839Y-80129082D01*
X141786625Y-79637875D01*
X141488239Y-79438500D01*
X141786625Y-79239125D01*
X142114839Y-78747918D01*
X142230092Y-78168500D01*
X142114839Y-77589082D01*
X141786625Y-77097875D01*
X141488239Y-76898500D01*
X141786625Y-76699125D01*
X142114839Y-76207918D01*
X142230092Y-75628500D01*
X142114839Y-75049082D01*
X141786625Y-74557875D01*
X141488239Y-74358500D01*
X141786625Y-74159125D01*
X142114839Y-73667918D01*
X142230092Y-73088500D01*
X142114839Y-72509082D01*
X141786625Y-72017875D01*
X141488239Y-71818500D01*
X141786625Y-71619125D01*
X142114839Y-71127918D01*
X142230092Y-70548500D01*
X142114839Y-69969082D01*
X141786625Y-69477875D01*
X141488239Y-69278500D01*
X141786625Y-69079125D01*
X142114839Y-68587918D01*
X142230092Y-68008500D01*
X142114839Y-67429082D01*
X141786625Y-66937875D01*
X141768381Y-66925684D01*
X141813765Y-66916657D01*
X142023809Y-66776309D01*
X142164157Y-66566265D01*
X142213440Y-66318500D01*
X142213440Y-64618500D01*
X142164157Y-64370735D01*
X142023809Y-64160691D01*
X141813765Y-64020343D01*
X141566000Y-63971060D01*
X139866000Y-63971060D01*
X139618235Y-64020343D01*
X139408191Y-64160691D01*
X139267843Y-64370735D01*
X139218560Y-64618500D01*
X139218560Y-66318500D01*
X139267843Y-66566265D01*
X139408191Y-66776309D01*
X139618235Y-66916657D01*
X139663619Y-66925684D01*
X139645375Y-66937875D01*
X139317161Y-67429082D01*
X139201908Y-68008500D01*
X139317161Y-68587918D01*
X139645375Y-69079125D01*
X139943761Y-69278500D01*
X139645375Y-69477875D01*
X139317161Y-69969082D01*
X139201908Y-70548500D01*
X139317161Y-71127918D01*
X139645375Y-71619125D01*
X139943761Y-71818500D01*
X139645375Y-72017875D01*
X139317161Y-72509082D01*
X139201908Y-73088500D01*
X139317161Y-73667918D01*
X139645375Y-74159125D01*
X139943761Y-74358500D01*
X139645375Y-74557875D01*
X139317161Y-75049082D01*
X139201908Y-75628500D01*
X139317161Y-76207918D01*
X139645375Y-76699125D01*
X139943761Y-76898500D01*
X139645375Y-77097875D01*
X139317161Y-77589082D01*
X139201908Y-78168500D01*
X139317161Y-78747918D01*
X139645375Y-79239125D01*
X139943761Y-79438500D01*
X139645375Y-79637875D01*
X139317161Y-80129082D01*
X139201908Y-80708500D01*
X139317161Y-81287918D01*
X139645375Y-81779125D01*
X139943761Y-81978500D01*
X139645375Y-82177875D01*
X139317161Y-82669082D01*
X139201908Y-83248500D01*
X139317161Y-83827918D01*
X139645375Y-84319125D01*
X139943761Y-84518500D01*
X139645375Y-84717875D01*
X139317161Y-85209082D01*
X139201908Y-85788500D01*
X139317161Y-86367918D01*
X139645375Y-86859125D01*
X139943761Y-87058500D01*
X139645375Y-87257875D01*
X139317161Y-87749082D01*
X139201908Y-88328500D01*
X139317161Y-88907918D01*
X139645375Y-89399125D01*
X139831001Y-89523156D01*
X139831000Y-89673844D01*
X139645375Y-89797875D01*
X139317161Y-90289082D01*
X139201908Y-90868500D01*
X139245462Y-91087460D01*
X138836845Y-91496077D01*
X138762952Y-91545451D01*
X138713578Y-91619344D01*
X138713576Y-91619346D01*
X138567348Y-91838191D01*
X138498663Y-92183500D01*
X138516001Y-92270665D01*
X138516000Y-93853039D01*
X138498663Y-93940200D01*
X138516000Y-94027361D01*
X138516000Y-94027364D01*
X138567348Y-94285509D01*
X138762951Y-94578249D01*
X138836847Y-94627625D01*
X139502877Y-95293656D01*
X139552251Y-95367549D01*
X139626144Y-95416923D01*
X139626145Y-95416924D01*
X139844990Y-95563152D01*
X140103135Y-95614500D01*
X140103139Y-95614500D01*
X140190300Y-95631837D01*
X140277461Y-95614500D01*
X154758039Y-95614500D01*
X154845200Y-95631837D01*
X154932361Y-95614500D01*
X154932365Y-95614500D01*
X155190510Y-95563152D01*
X155483249Y-95367549D01*
X155532625Y-95293653D01*
X157462190Y-93364089D01*
X157936091Y-93680740D01*
X158354667Y-93764000D01*
X158637333Y-93764000D01*
X159055909Y-93680740D01*
X159530577Y-93363577D01*
X159847740Y-92888909D01*
X159959113Y-92329000D01*
X159847740Y-91769091D01*
X159530577Y-91294423D01*
X159178242Y-91059000D01*
X159530577Y-90823577D01*
X159847740Y-90348909D01*
X159959113Y-89789000D01*
X159847740Y-89229091D01*
X159530577Y-88754423D01*
X159178242Y-88519000D01*
X159530577Y-88283577D01*
X159847740Y-87808909D01*
X159959113Y-87249000D01*
X159847740Y-86689091D01*
X159530577Y-86214423D01*
X159178242Y-85979000D01*
X159530577Y-85743577D01*
X159847740Y-85268909D01*
X159959113Y-84709000D01*
X159847740Y-84149091D01*
X159530577Y-83674423D01*
X159178242Y-83439000D01*
X159530577Y-83203577D01*
X159847740Y-82728909D01*
X159959113Y-82169000D01*
X159847740Y-81609091D01*
X159530577Y-81134423D01*
X159178242Y-80899000D01*
X159530577Y-80663577D01*
X159847740Y-80188909D01*
X159959113Y-79629000D01*
X159847740Y-79069091D01*
X159530577Y-78594423D01*
X159381000Y-78494479D01*
X159381000Y-78465865D01*
X159398338Y-78378700D01*
X159378161Y-78277260D01*
X159369058Y-78231500D01*
X159530577Y-78123577D01*
X159847740Y-77648909D01*
X159959113Y-77089000D01*
X159847740Y-76529091D01*
X159530577Y-76054423D01*
X159178242Y-75819000D01*
X159530577Y-75583577D01*
X159764944Y-75232822D01*
X163980700Y-79448579D01*
X163980700Y-79541835D01*
X163963362Y-79629000D01*
X164032048Y-79974310D01*
X164175439Y-80188909D01*
X164227651Y-80267049D01*
X164520390Y-80462652D01*
X164865700Y-80531338D01*
X164952864Y-80514000D01*
X164981479Y-80514000D01*
X165081423Y-80663577D01*
X165433758Y-80899000D01*
X165081423Y-81134423D01*
X164764260Y-81609091D01*
X164652887Y-82169000D01*
X164764260Y-82728909D01*
X165081423Y-83203577D01*
X165433758Y-83439000D01*
X165081423Y-83674423D01*
X164764260Y-84149091D01*
X164652887Y-84709000D01*
X164764260Y-85268909D01*
X164887488Y-85453333D01*
X164290445Y-86050377D01*
X164216552Y-86099751D01*
X164167178Y-86173644D01*
X164167176Y-86173646D01*
X164020948Y-86392491D01*
X163952263Y-86737800D01*
X163969601Y-86824965D01*
X163969600Y-87737139D01*
X163952263Y-87824300D01*
X163969600Y-87911461D01*
X163969600Y-87911464D01*
X164020948Y-88169609D01*
X164216551Y-88462349D01*
X164290447Y-88511725D01*
X164861813Y-89083092D01*
X164764260Y-89229091D01*
X164652887Y-89789000D01*
X164764260Y-90348909D01*
X165081423Y-90823577D01*
X165433758Y-91059000D01*
X165081423Y-91294423D01*
X164764260Y-91769091D01*
X164652887Y-92329000D01*
X164764260Y-92888909D01*
X165081423Y-93363577D01*
X165556091Y-93680740D01*
X165974667Y-93764000D01*
X166257333Y-93764000D01*
X166675909Y-93680740D01*
X167150577Y-93363577D01*
X167467740Y-92888909D01*
X167579113Y-92329000D01*
X167467740Y-91769091D01*
X167150577Y-91294423D01*
X166798242Y-91059000D01*
X167150577Y-90823577D01*
X167467740Y-90348909D01*
X167579113Y-89789000D01*
X167544870Y-89616848D01*
X169381016Y-91452995D01*
X169189000Y-91916561D01*
X169189000Y-92487439D01*
X169407466Y-93014862D01*
X169811138Y-93418534D01*
X170338561Y-93637000D01*
X170909439Y-93637000D01*
X171436862Y-93418534D01*
X171840534Y-93014862D01*
X172059000Y-92487439D01*
X172059000Y-91916561D01*
X171867072Y-91453206D01*
X177779756Y-85540523D01*
X177853649Y-85491149D01*
X177904634Y-85414846D01*
X178049252Y-85198410D01*
X178059806Y-85145349D01*
X178100600Y-84940265D01*
X178100600Y-84940261D01*
X178117937Y-84853100D01*
X178100600Y-84765939D01*
X178100600Y-84375940D01*
X181020401Y-84375940D01*
X181020401Y-85411520D01*
X180600861Y-85831060D01*
X178705000Y-85831060D01*
X178170223Y-85937434D01*
X177716861Y-86240361D01*
X177413934Y-86693723D01*
X177307560Y-87228500D01*
X177307560Y-88728500D01*
X177413934Y-89263277D01*
X177716861Y-89716639D01*
X178170223Y-90019566D01*
X178705000Y-90125940D01*
X180705000Y-90125940D01*
X181239777Y-90019566D01*
X181693139Y-89716639D01*
X181996066Y-89263277D01*
X182102440Y-88728500D01*
X182102440Y-87228500D01*
X182036762Y-86898316D01*
X182273860Y-86661219D01*
X182453472Y-86930028D01*
X182947387Y-87260051D01*
X183530000Y-87375940D01*
X185280000Y-87375940D01*
X185726500Y-87287126D01*
X185726500Y-96102500D01*
X137196500Y-96102500D01*
X137196500Y-47572500D01*
X185726501Y-47572500D01*
X185726501Y-55431757D01*
G36*
X145033570Y-55245930D02*
X145529275Y-55577150D01*
X145966402Y-55664100D01*
X146261598Y-55664100D01*
X146427602Y-55631080D01*
X149675740Y-58879218D01*
X149433847Y-58979414D01*
X148973914Y-59439347D01*
X148725000Y-60040278D01*
X148725000Y-60690722D01*
X148973914Y-61291653D01*
X149433847Y-61751586D01*
X149475000Y-61768632D01*
X149475001Y-65462368D01*
X149433847Y-65479414D01*
X148973914Y-65939347D01*
X148725000Y-66540278D01*
X148725000Y-67190722D01*
X148973914Y-67791653D01*
X149433847Y-68251586D01*
X150034778Y-68500500D01*
X150685222Y-68500500D01*
X151286153Y-68251586D01*
X151746086Y-67791653D01*
X151995000Y-67190722D01*
X151995000Y-66540278D01*
X151746086Y-65939347D01*
X151286153Y-65479414D01*
X151245000Y-65462368D01*
X151245000Y-61768632D01*
X151286153Y-61751586D01*
X151746086Y-61291653D01*
X151846282Y-61049760D01*
X155316124Y-64519602D01*
X154889138Y-64696466D01*
X154485466Y-65100138D01*
X154267000Y-65627561D01*
X154267000Y-66198439D01*
X154485466Y-66725862D01*
X154799300Y-67039696D01*
X154799301Y-76023735D01*
X154781963Y-76110900D01*
X154850648Y-76456209D01*
X154996876Y-76675054D01*
X154996878Y-76675056D01*
X155046252Y-76748949D01*
X155120145Y-76798323D01*
X157243055Y-78921234D01*
X157144260Y-79069091D01*
X157032887Y-79629000D01*
X157144260Y-80188909D01*
X157461423Y-80663577D01*
X157813758Y-80899000D01*
X157461423Y-81134423D01*
X157144260Y-81609091D01*
X157032887Y-82169000D01*
X157144260Y-82728909D01*
X157461423Y-83203577D01*
X157813758Y-83439000D01*
X157461423Y-83674423D01*
X157144260Y-84149091D01*
X157032887Y-84709000D01*
X157144260Y-85268909D01*
X157461423Y-85743577D01*
X157813758Y-85979000D01*
X157461423Y-86214423D01*
X157144260Y-86689091D01*
X157032887Y-87249000D01*
X157144260Y-87808909D01*
X157461423Y-88283577D01*
X157813758Y-88519000D01*
X157461423Y-88754423D01*
X157144260Y-89229091D01*
X157032887Y-89789000D01*
X157144260Y-90348909D01*
X157461423Y-90823577D01*
X157813758Y-91059000D01*
X157461423Y-91294423D01*
X157361479Y-91444000D01*
X157332861Y-91444000D01*
X157245700Y-91426663D01*
X157158539Y-91444000D01*
X157158535Y-91444000D01*
X156900390Y-91495348D01*
X156681545Y-91641576D01*
X156681544Y-91641577D01*
X156607651Y-91690951D01*
X156558277Y-91764844D01*
X154478622Y-93844500D01*
X142124710Y-93844500D01*
X142157476Y-93765390D01*
X142036155Y-93535500D01*
X140843000Y-93535500D01*
X140843000Y-93555500D01*
X140589000Y-93555500D01*
X140589000Y-93535500D01*
X140569000Y-93535500D01*
X140569000Y-93281500D01*
X140589000Y-93281500D01*
X140589000Y-93261500D01*
X140843000Y-93261500D01*
X140843000Y-93281500D01*
X142036155Y-93281500D01*
X142157476Y-93051610D01*
X141987645Y-92641576D01*
X141597358Y-92213317D01*
X141467522Y-92152343D01*
X141786625Y-91939125D01*
X142114839Y-91447918D01*
X142230092Y-90868500D01*
X142114839Y-90289082D01*
X141786625Y-89797875D01*
X141601000Y-89673844D01*
X141601000Y-89523156D01*
X141786625Y-89399125D01*
X142114839Y-88907918D01*
X142230092Y-88328500D01*
X142186538Y-88109540D01*
X146424156Y-83871923D01*
X146498049Y-83822549D01*
X146693652Y-83529810D01*
X146745000Y-83271665D01*
X146745000Y-83271661D01*
X146762337Y-83184500D01*
X146745000Y-83097339D01*
X146745000Y-68268632D01*
X146786153Y-68251586D01*
X147246086Y-67791653D01*
X147495000Y-67190722D01*
X147495000Y-66540278D01*
X147246086Y-65939347D01*
X146786153Y-65479414D01*
X146745000Y-65462368D01*
X146745000Y-61768632D01*
X146786153Y-61751586D01*
X147246086Y-61291653D01*
X147495000Y-60690722D01*
X147495000Y-60040278D01*
X147246086Y-59439347D01*
X146786153Y-58979414D01*
X146745000Y-58962368D01*
X146745000Y-57852559D01*
X146762337Y-57765399D01*
X146745000Y-57678239D01*
X146745000Y-57678235D01*
X146693652Y-57420090D01*
X146498049Y-57127351D01*
X146424156Y-57077977D01*
X144617071Y-55270893D01*
X144654430Y-55245930D01*
X144844000Y-54962219D01*
X145033570Y-55245930D01*
X145033570Y-55245930D01*
G37*
X145033570Y-55245930D02*
X145529275Y-55577150D01*
X145966402Y-55664100D01*
X146261598Y-55664100D01*
X146427602Y-55631080D01*
X149675740Y-58879218D01*
X149433847Y-58979414D01*
X148973914Y-59439347D01*
X148725000Y-60040278D01*
X148725000Y-60690722D01*
X148973914Y-61291653D01*
X149433847Y-61751586D01*
X149475000Y-61768632D01*
X149475001Y-65462368D01*
X149433847Y-65479414D01*
X148973914Y-65939347D01*
X148725000Y-66540278D01*
X148725000Y-67190722D01*
X148973914Y-67791653D01*
X149433847Y-68251586D01*
X150034778Y-68500500D01*
X150685222Y-68500500D01*
X151286153Y-68251586D01*
X151746086Y-67791653D01*
X151995000Y-67190722D01*
X151995000Y-66540278D01*
X151746086Y-65939347D01*
X151286153Y-65479414D01*
X151245000Y-65462368D01*
X151245000Y-61768632D01*
X151286153Y-61751586D01*
X151746086Y-61291653D01*
X151846282Y-61049760D01*
X155316124Y-64519602D01*
X154889138Y-64696466D01*
X154485466Y-65100138D01*
X154267000Y-65627561D01*
X154267000Y-66198439D01*
X154485466Y-66725862D01*
X154799300Y-67039696D01*
X154799301Y-76023735D01*
X154781963Y-76110900D01*
X154850648Y-76456209D01*
X154996876Y-76675054D01*
X154996878Y-76675056D01*
X155046252Y-76748949D01*
X155120145Y-76798323D01*
X157243055Y-78921234D01*
X157144260Y-79069091D01*
X157032887Y-79629000D01*
X157144260Y-80188909D01*
X157461423Y-80663577D01*
X157813758Y-80899000D01*
X157461423Y-81134423D01*
X157144260Y-81609091D01*
X157032887Y-82169000D01*
X157144260Y-82728909D01*
X157461423Y-83203577D01*
X157813758Y-83439000D01*
X157461423Y-83674423D01*
X157144260Y-84149091D01*
X157032887Y-84709000D01*
X157144260Y-85268909D01*
X157461423Y-85743577D01*
X157813758Y-85979000D01*
X157461423Y-86214423D01*
X157144260Y-86689091D01*
X157032887Y-87249000D01*
X157144260Y-87808909D01*
X157461423Y-88283577D01*
X157813758Y-88519000D01*
X157461423Y-88754423D01*
X157144260Y-89229091D01*
X157032887Y-89789000D01*
X157144260Y-90348909D01*
X157461423Y-90823577D01*
X157813758Y-91059000D01*
X157461423Y-91294423D01*
X157361479Y-91444000D01*
X157332861Y-91444000D01*
X157245700Y-91426663D01*
X157158539Y-91444000D01*
X157158535Y-91444000D01*
X156900390Y-91495348D01*
X156681545Y-91641576D01*
X156681544Y-91641577D01*
X156607651Y-91690951D01*
X156558277Y-91764844D01*
X154478622Y-93844500D01*
X142124710Y-93844500D01*
X142157476Y-93765390D01*
X142036155Y-93535500D01*
X140843000Y-93535500D01*
X140843000Y-93555500D01*
X140589000Y-93555500D01*
X140589000Y-93535500D01*
X140569000Y-93535500D01*
X140569000Y-93281500D01*
X140589000Y-93281500D01*
X140589000Y-93261500D01*
X140843000Y-93261500D01*
X140843000Y-93281500D01*
X142036155Y-93281500D01*
X142157476Y-93051610D01*
X141987645Y-92641576D01*
X141597358Y-92213317D01*
X141467522Y-92152343D01*
X141786625Y-91939125D01*
X142114839Y-91447918D01*
X142230092Y-90868500D01*
X142114839Y-90289082D01*
X141786625Y-89797875D01*
X141601000Y-89673844D01*
X141601000Y-89523156D01*
X141786625Y-89399125D01*
X142114839Y-88907918D01*
X142230092Y-88328500D01*
X142186538Y-88109540D01*
X146424156Y-83871923D01*
X146498049Y-83822549D01*
X146693652Y-83529810D01*
X146745000Y-83271665D01*
X146745000Y-83271661D01*
X146762337Y-83184500D01*
X146745000Y-83097339D01*
X146745000Y-68268632D01*
X146786153Y-68251586D01*
X147246086Y-67791653D01*
X147495000Y-67190722D01*
X147495000Y-66540278D01*
X147246086Y-65939347D01*
X146786153Y-65479414D01*
X146745000Y-65462368D01*
X146745000Y-61768632D01*
X146786153Y-61751586D01*
X147246086Y-61291653D01*
X147495000Y-60690722D01*
X147495000Y-60040278D01*
X147246086Y-59439347D01*
X146786153Y-58979414D01*
X146745000Y-58962368D01*
X146745000Y-57852559D01*
X146762337Y-57765399D01*
X146745000Y-57678239D01*
X146745000Y-57678235D01*
X146693652Y-57420090D01*
X146498049Y-57127351D01*
X146424156Y-57077977D01*
X144617071Y-55270893D01*
X144654430Y-55245930D01*
X144844000Y-54962219D01*
X145033570Y-55245930D01*
G36*
X185726501Y-68830256D02*
X185578310Y-68472493D01*
X185146507Y-68040690D01*
X184582330Y-67807000D01*
X183971670Y-67807000D01*
X183407493Y-68040690D01*
X183238275Y-68209908D01*
X183235157Y-68194235D01*
X183094809Y-67984191D01*
X182884765Y-67843843D01*
X182637000Y-67794560D01*
X180837000Y-67794560D01*
X180589235Y-67843843D01*
X180379191Y-67984191D01*
X180238843Y-68194235D01*
X180189560Y-68442000D01*
X180189560Y-70242000D01*
X180238843Y-70489765D01*
X180379191Y-70699809D01*
X180589235Y-70840157D01*
X180837000Y-70889440D01*
X182637000Y-70889440D01*
X182884765Y-70840157D01*
X183094809Y-70699809D01*
X183235157Y-70489765D01*
X183238275Y-70474092D01*
X183407493Y-70643310D01*
X183971670Y-70877000D01*
X184582330Y-70877000D01*
X185146507Y-70643310D01*
X185578310Y-70211507D01*
X185726501Y-69853744D01*
X185726500Y-82669874D01*
X185280000Y-82581060D01*
X183530000Y-82581060D01*
X182947387Y-82696949D01*
X182790400Y-82801844D01*
X182790400Y-79049361D01*
X182807737Y-78962200D01*
X182790400Y-78875039D01*
X182790400Y-78875035D01*
X182739052Y-78616890D01*
X182704113Y-78564600D01*
X182592824Y-78398045D01*
X182592823Y-78398044D01*
X182543449Y-78324151D01*
X182469556Y-78274777D01*
X182345872Y-78151094D01*
X182436523Y-78090523D01*
X182571159Y-77889026D01*
X182965076Y-78274473D01*
X183459020Y-78489063D01*
X183705000Y-78369094D01*
X183705000Y-77025500D01*
X183959000Y-77025500D01*
X183959000Y-78369094D01*
X184204980Y-78489063D01*
X184698924Y-78274473D01*
X185141318Y-77841591D01*
X185384380Y-77272364D01*
X185257572Y-77025500D01*
X183959000Y-77025500D01*
X183705000Y-77025500D01*
X183685000Y-77025500D01*
X183685000Y-76771500D01*
X183705000Y-76771500D01*
X183705000Y-75427906D01*
X183959000Y-75427906D01*
X183959000Y-76771500D01*
X185257572Y-76771500D01*
X185384380Y-76524636D01*
X185141318Y-75955409D01*
X184698924Y-75522527D01*
X184204980Y-75307937D01*
X183959000Y-75427906D01*
X183705000Y-75427906D01*
X183459020Y-75307937D01*
X182965076Y-75522527D01*
X182571159Y-75907974D01*
X182436523Y-75706477D01*
X181911410Y-75355609D01*
X181292000Y-75232400D01*
X180672589Y-75355609D01*
X180280509Y-75617588D01*
X180162309Y-75440691D01*
X179952265Y-75300343D01*
X179704500Y-75251060D01*
X178100600Y-75251060D01*
X178100600Y-68531778D01*
X182301156Y-64331223D01*
X182375049Y-64281849D01*
X182570652Y-63989110D01*
X182600125Y-63840940D01*
X182637000Y-63840940D01*
X182884765Y-63791657D01*
X183094809Y-63651309D01*
X183235157Y-63441265D01*
X183238275Y-63425592D01*
X183407493Y-63594810D01*
X183971670Y-63828500D01*
X184582330Y-63828500D01*
X185146507Y-63594810D01*
X185578310Y-63163007D01*
X185726501Y-62805243D01*
X185726501Y-68830256D01*
X185726501Y-68830256D01*
G37*
X185726501Y-68830256D02*
X185578310Y-68472493D01*
X185146507Y-68040690D01*
X184582330Y-67807000D01*
X183971670Y-67807000D01*
X183407493Y-68040690D01*
X183238275Y-68209908D01*
X183235157Y-68194235D01*
X183094809Y-67984191D01*
X182884765Y-67843843D01*
X182637000Y-67794560D01*
X180837000Y-67794560D01*
X180589235Y-67843843D01*
X180379191Y-67984191D01*
X180238843Y-68194235D01*
X180189560Y-68442000D01*
X180189560Y-70242000D01*
X180238843Y-70489765D01*
X180379191Y-70699809D01*
X180589235Y-70840157D01*
X180837000Y-70889440D01*
X182637000Y-70889440D01*
X182884765Y-70840157D01*
X183094809Y-70699809D01*
X183235157Y-70489765D01*
X183238275Y-70474092D01*
X183407493Y-70643310D01*
X183971670Y-70877000D01*
X184582330Y-70877000D01*
X185146507Y-70643310D01*
X185578310Y-70211507D01*
X185726501Y-69853744D01*
X185726500Y-82669874D01*
X185280000Y-82581060D01*
X183530000Y-82581060D01*
X182947387Y-82696949D01*
X182790400Y-82801844D01*
X182790400Y-79049361D01*
X182807737Y-78962200D01*
X182790400Y-78875039D01*
X182790400Y-78875035D01*
X182739052Y-78616890D01*
X182704113Y-78564600D01*
X182592824Y-78398045D01*
X182592823Y-78398044D01*
X182543449Y-78324151D01*
X182469556Y-78274777D01*
X182345872Y-78151094D01*
X182436523Y-78090523D01*
X182571159Y-77889026D01*
X182965076Y-78274473D01*
X183459020Y-78489063D01*
X183705000Y-78369094D01*
X183705000Y-77025500D01*
X183959000Y-77025500D01*
X183959000Y-78369094D01*
X184204980Y-78489063D01*
X184698924Y-78274473D01*
X185141318Y-77841591D01*
X185384380Y-77272364D01*
X185257572Y-77025500D01*
X183959000Y-77025500D01*
X183705000Y-77025500D01*
X183685000Y-77025500D01*
X183685000Y-76771500D01*
X183705000Y-76771500D01*
X183705000Y-75427906D01*
X183959000Y-75427906D01*
X183959000Y-76771500D01*
X185257572Y-76771500D01*
X185384380Y-76524636D01*
X185141318Y-75955409D01*
X184698924Y-75522527D01*
X184204980Y-75307937D01*
X183959000Y-75427906D01*
X183705000Y-75427906D01*
X183459020Y-75307937D01*
X182965076Y-75522527D01*
X182571159Y-75907974D01*
X182436523Y-75706477D01*
X181911410Y-75355609D01*
X181292000Y-75232400D01*
X180672589Y-75355609D01*
X180280509Y-75617588D01*
X180162309Y-75440691D01*
X179952265Y-75300343D01*
X179704500Y-75251060D01*
X178100600Y-75251060D01*
X178100600Y-68531778D01*
X182301156Y-64331223D01*
X182375049Y-64281849D01*
X182570652Y-63989110D01*
X182600125Y-63840940D01*
X182637000Y-63840940D01*
X182884765Y-63791657D01*
X183094809Y-63651309D01*
X183235157Y-63441265D01*
X183238275Y-63425592D01*
X183407493Y-63594810D01*
X183971670Y-63828500D01*
X184582330Y-63828500D01*
X185146507Y-63594810D01*
X185578310Y-63163007D01*
X185726501Y-62805243D01*
X185726501Y-68830256D01*
G36*
X148781000Y-54038500D02*
X148801000Y-54038500D01*
X148801000Y-54292500D01*
X148781000Y-54292500D01*
X148781000Y-54312500D01*
X148527000Y-54312500D01*
X148527000Y-54292500D01*
X148507000Y-54292500D01*
X148507000Y-54038500D01*
X148527000Y-54038500D01*
X148527000Y-54018500D01*
X148781000Y-54018500D01*
X148781000Y-54038500D01*
X148781000Y-54038500D01*
G37*
X148781000Y-54038500D02*
X148801000Y-54038500D01*
X148801000Y-54292500D01*
X148781000Y-54292500D01*
X148781000Y-54312500D01*
X148527000Y-54312500D01*
X148527000Y-54292500D01*
X148507000Y-54292500D01*
X148507000Y-54038500D01*
X148527000Y-54038500D01*
X148527000Y-54018500D01*
X148781000Y-54018500D01*
X148781000Y-54038500D01*
G04 #@! TD*
M02*
