M48
;DRILL file {KiCad 5.0.2-5.fc29} date czw, 21 lut 2019, 16:31:29
;FORMAT={2:4/ absolute / inch / keep zeros}
FMAT,2
INCH,TZ
T1C0.0157
T2C0.0315
T3C0.0354
T4C0.0394
T5C0.0400
T6C0.0433
%
G90
G05
T1
X061628Y-028101
T2
X061300Y-023981
X061300Y-025950
X071350Y-019600
X072350Y-019600
X067275Y-031525
X067275Y-033494
X067175Y-035300
X067175Y-036300
X062400Y-027350
X062400Y-028350
X062400Y-029350
X062400Y-030350
X062400Y-031350
X062400Y-032350
X062400Y-033350
X062400Y-034350
X062400Y-035350
X062400Y-036350
X065400Y-027350
X065400Y-028350
X065400Y-029350
X065400Y-030350
X065400Y-031350
X065400Y-032350
X065400Y-033350
X065400Y-034350
X065400Y-035350
X065400Y-036350
X067475Y-022175
X068475Y-022175
X063504Y-024875
X065000Y-024875
X067725Y-019675
X068725Y-019675
X067175Y-024006
X067175Y-025975
T3
X071550Y-027300
X072550Y-027300
X071550Y-024525
X072550Y-024525
X071550Y-022025
X072550Y-022025
T4
X063050Y-021275
X065019Y-021275
X055400Y-025775
X055400Y-026775
X055400Y-027775
X055400Y-028775
X055400Y-029775
X055400Y-030775
X055400Y-031775
X055400Y-032775
X055400Y-033775
X055400Y-034775
X055400Y-035775
X055400Y-036775
T5
X056525Y-020325
X056525Y-021325
X057525Y-020325
X057525Y-021325
X058525Y-020325
X058525Y-021325
T6
X057425Y-023766
X057425Y-026325
X059197Y-023766
X059197Y-026325
X070375Y-030275
X071375Y-030275
X072375Y-030275
T4
X070356Y-032275G85X071144Y-032275
G05
X070356Y-034637G85X071144Y-034637
G05
X072600Y-033850G85X072600Y-033062
G05
T0
M30
